<?xml version="1.0" encoding="UTF-8" standalone="no"?>
<!DOCTYPE svg PUBLIC "-//W3C//DTD SVG 1.1//EN"
 "http://www.w3.org/Graphics/SVG/1.1/DTD/svg11.dtd">
<!-- Generated by graphviz version 2.40.1 (20161225.0304)
 -->
<!-- Title: G Pages: 1 -->
<svg width="758pt" height="1412pt"
 viewBox="0.00 0.00 758.17 1412.00" xmlns="http://www.w3.org/2000/svg" xmlns:xlink="http://www.w3.org/1999/xlink">
<g id="graph0" class="graph" transform="scale(1 1) rotate(0) translate(4 1408)">
<title>G</title>
<polygon fill="#ffffff" stroke="transparent" points="-4,4 -4,-1408 754.1745,-1408 754.1745,4 -4,4"/>
<!-- tipo -->
<g id="node1" class="node">
<title>tipo</title>
<ellipse fill="none" stroke="#000000" cx="297.179" cy="-1098" rx="27" ry="18"/>
<text text-anchor="middle" x="297.179" y="-1093.8" font-family="Times,serif" font-size="14.00" fill="#000000">tipo</text>
</g>
<!-- inteiro -->
<g id="node2" class="node">
<title>inteiro</title>
<ellipse fill="none" stroke="#000000" cx="193.179" cy="-1026" rx="36.4936" ry="18"/>
<text text-anchor="middle" x="193.179" y="-1021.8" font-family="Times,serif" font-size="14.00" fill="#000000">inteiro</text>
</g>
<!-- tipo&#45;&gt;inteiro -->
<g id="edge1" class="edge">
<title>tipo&#45;&gt;inteiro</title>
<path fill="none" stroke="#000000" d="M271.7619,-1091.6105C249.1366,-1082.5601 221.2695,-1065.4987 203.4957,-1051.0428"/>
<polygon fill="#000000" stroke="#000000" points="205.4862,-1048.1348 195.6483,-1044.2021 200.8864,-1053.4115 205.4862,-1048.1348"/>
</g>
<!-- tipo&#45;&gt;inteiro -->
<g id="edge18" class="edge">
<title>tipo&#45;&gt;inteiro</title>
<path fill="none" stroke="#000000" d="M274.1203,-1088.5873C255.8512,-1078.6289 231.5274,-1062.538 213.9337,-1049.1656"/>
<polygon fill="#000000" stroke="#000000" points="215.9217,-1046.2766 205.8935,-1042.8581 211.6011,-1051.7841 215.9217,-1046.2766"/>
</g>
<!-- tipo&#45;&gt;inteiro -->
<g id="edge19" class="edge">
<title>tipo&#45;&gt;inteiro</title>
<path fill="none" stroke="#000000" d="M278.1038,-1084.7941C262.6832,-1074.1183 240.7001,-1058.8992 222.9636,-1046.6201"/>
<polygon fill="#000000" stroke="#000000" points="224.8593,-1043.6756 214.6451,-1040.8611 220.8748,-1049.431 224.8593,-1043.6756"/>
</g>
<!-- tipo&#45;&gt;inteiro -->
<g id="edge42" class="edge">
<title>tipo&#45;&gt;inteiro</title>
<path fill="none" stroke="#000000" d="M285.1014,-1081.6621C271.0529,-1070.1485 248.8859,-1054.7644 229.5461,-1043.0876"/>
<polygon fill="#000000" stroke="#000000" points="231.2942,-1040.0553 220.8986,-1038.0106 227.7502,-1046.0919 231.2942,-1040.0553"/>
</g>
<!-- tipo&#45;&gt;inteiro -->
<g id="edge44" class="edge">
<title>tipo&#45;&gt;inteiro</title>
<path fill="none" stroke="#000000" d="M294.745,-1079.8314C281.4615,-1067.236 256.8837,-1050.7447 234.002,-1039.3508"/>
<polygon fill="#000000" stroke="#000000" points="235.2126,-1036.0522 224.6747,-1034.9551 232.2285,-1042.3843 235.2126,-1036.0522"/>
</g>
<!-- a -->
<g id="node14" class="node">
<title>a</title>
<ellipse fill="none" stroke="#000000" cx="416.179" cy="-810" rx="27" ry="18"/>
<text text-anchor="middle" x="416.179" y="-805.8" font-family="Times,serif" font-size="14.00" fill="#000000">a</text>
</g>
<!-- tipo&#45;&gt;a -->
<g id="edge21" class="edge">
<title>tipo&#45;&gt;a</title>
<path fill="none" stroke="#000000" d="M324.228,-1095.1099C375.7423,-1088.9885 484.8039,-1072.8566 507.179,-1044 556.2001,-980.7787 546.764,-933.52 507.179,-864 495.1488,-842.8723 471.2368,-829.1575 450.9431,-820.8376"/>
<polygon fill="#000000" stroke="#000000" points="451.9302,-817.4683 441.3394,-817.1778 449.4375,-824.0094 451.9302,-817.4683"/>
</g>
<!-- lista_variaveis -->
<g id="node15" class="node">
<title>lista_variaveis</title>
<ellipse fill="none" stroke="#000000" cx="431.179" cy="-1026" rx="66.6267" ry="18"/>
<text text-anchor="middle" x="431.179" y="-1021.8" font-family="Times,serif" font-size="14.00" fill="#000000">lista_variaveis</text>
</g>
<!-- tipo&#45;&gt;lista_variaveis -->
<g id="edge15" class="edge">
<title>tipo&#45;&gt;lista_variaveis</title>
<path fill="none" stroke="#000000" d="M316.1053,-1084.9613C334.7347,-1074.1094 363.5623,-1058.4799 387.7621,-1046.0391"/>
<polygon fill="#000000" stroke="#000000" points="389.4589,-1049.1027 396.7794,-1041.4437 386.2805,-1042.8659 389.4589,-1049.1027"/>
</g>
<!-- tipo&#45;&gt;lista_variaveis -->
<g id="edge50" class="edge">
<title>tipo&#45;&gt;lista_variaveis</title>
<path fill="none" stroke="#000000" d="M320.0394,-1088.2898C341.262,-1077.9427 372.8643,-1061.2247 397.0233,-1047.7124"/>
<polygon fill="#000000" stroke="#000000" points="398.8943,-1050.6754 405.8808,-1042.7105 395.4522,-1044.5801 398.8943,-1050.6754"/>
</g>
<!-- cabecalho -->
<g id="node25" class="node">
<title>cabecalho</title>
<ellipse fill="none" stroke="#000000" cx="297.179" cy="-1026" rx="49.7787" ry="18"/>
<text text-anchor="middle" x="297.179" y="-1021.8" font-family="Times,serif" font-size="14.00" fill="#000000">cabecalho</text>
</g>
<!-- tipo&#45;&gt;cabecalho -->
<g id="edge39" class="edge">
<title>tipo&#45;&gt;cabecalho</title>
<path fill="none" stroke="#000000" d="M291.2633,-1080.2022C290.4795,-1072.3864 290.2479,-1063.0171 290.5688,-1054.2836"/>
<polygon fill="#000000" stroke="#000000" points="294.0751,-1054.2999 291.234,-1044.0931 287.0899,-1053.8439 294.0751,-1054.2999"/>
</g>
<!-- tipo&#45;&gt;cabecalho -->
<g id="edge82" class="edge">
<title>tipo&#45;&gt;cabecalho</title>
<path fill="none" stroke="#000000" d="M303.0947,-1080.2022C303.8785,-1072.3864 304.1101,-1063.0171 303.7892,-1054.2836"/>
<polygon fill="#000000" stroke="#000000" points="307.2681,-1053.8439 303.124,-1044.0931 300.283,-1054.2999 307.2681,-1053.8439"/>
</g>
<!-- numero -->
<g id="node3" class="node">
<title>numero</title>
<ellipse fill="none" stroke="#000000" cx="237.179" cy="-90" rx="40.5712" ry="18"/>
<text text-anchor="middle" x="237.179" y="-85.8" font-family="Times,serif" font-size="14.00" fill="#000000">numero</text>
</g>
<!-- 1024 -->
<g id="node4" class="node">
<title>1024</title>
<ellipse fill="none" stroke="#000000" cx="162.179" cy="-18" rx="30.2015" ry="18"/>
<text text-anchor="middle" x="162.179" y="-13.8" font-family="Times,serif" font-size="14.00" fill="#000000">1024</text>
</g>
<!-- numero&#45;&gt;1024 -->
<g id="edge2" class="edge">
<title>numero&#45;&gt;1024</title>
<path fill="none" stroke="#000000" d="M220.1603,-73.6621C209.9769,-63.8859 196.8866,-51.3193 185.7217,-40.601"/>
<polygon fill="#000000" stroke="#000000" points="187.9969,-37.9334 178.3591,-33.5329 183.1491,-42.9831 187.9969,-37.9334"/>
</g>
<!-- 0 -->
<g id="node21" class="node">
<title>0</title>
<ellipse fill="none" stroke="#000000" cx="237.179" cy="-18" rx="27" ry="18"/>
<text text-anchor="middle" x="237.179" y="-13.8" font-family="Times,serif" font-size="14.00" fill="#000000">0</text>
</g>
<!-- numero&#45;&gt;0 -->
<g id="edge24" class="edge">
<title>numero&#45;&gt;0</title>
<path fill="none" stroke="#000000" d="M231.2266,-71.8314C230.4646,-64.0125 230.2486,-54.6923 230.5785,-46.0221"/>
<polygon fill="#000000" stroke="#000000" points="234.0794,-46.1239 231.2517,-35.9134 227.0949,-45.6587 234.0794,-46.1239"/>
</g>
<!-- numero&#45;&gt;0 -->
<g id="edge67" class="edge">
<title>numero&#45;&gt;0</title>
<path fill="none" stroke="#000000" d="M243.1314,-71.8314C243.8934,-64.0125 244.1094,-54.6923 243.7795,-46.0221"/>
<polygon fill="#000000" stroke="#000000" points="247.2631,-45.6587 243.1063,-35.9134 240.2786,-46.1239 247.2631,-45.6587"/>
</g>
<!-- 1 -->
<g id="node30" class="node">
<title>1</title>
<ellipse fill="none" stroke="#000000" cx="309.179" cy="-18" rx="27" ry="18"/>
<text text-anchor="middle" x="309.179" y="-13.8" font-family="Times,serif" font-size="14.00" fill="#000000">1</text>
</g>
<!-- numero&#45;&gt;1 -->
<g id="edge54" class="edge">
<title>numero&#45;&gt;1</title>
<path fill="none" stroke="#000000" d="M253.8782,-73.3008C263.6393,-63.5397 276.0881,-51.0909 286.702,-40.477"/>
<polygon fill="#000000" stroke="#000000" points="289.4453,-42.6834 294.0416,-33.1374 284.4956,-37.7337 289.4453,-42.6834"/>
</g>
<!-- fator -->
<g id="node5" class="node">
<title>fator</title>
<ellipse fill="none" stroke="#000000" cx="237.179" cy="-162" rx="29.0318" ry="18"/>
<text text-anchor="middle" x="237.179" y="-157.8" font-family="Times,serif" font-size="14.00" fill="#000000">fator</text>
</g>
<!-- fator&#45;&gt;numero -->
<g id="edge3" class="edge">
<title>fator&#45;&gt;numero</title>
<path fill="none" stroke="#000000" d="M220.4008,-147.0816C217.0662,-138.1845 216.1337,-126.6351 217.6034,-116.2547"/>
<polygon fill="#000000" stroke="#000000" points="221.038,-116.9361 219.8739,-106.4055 214.2169,-115.3637 221.038,-116.9361"/>
</g>
<!-- fator&#45;&gt;numero -->
<g id="edge25" class="edge">
<title>fator&#45;&gt;numero</title>
<path fill="none" stroke="#000000" d="M231.2633,-144.2022C230.4735,-136.3271 230.2445,-126.875 230.5761,-118.0852"/>
<polygon fill="#000000" stroke="#000000" points="234.086,-118.0532 231.2588,-107.8425 227.1014,-117.5876 234.086,-118.0532"/>
</g>
<!-- fator&#45;&gt;numero -->
<g id="edge55" class="edge">
<title>fator&#45;&gt;numero</title>
<path fill="none" stroke="#000000" d="M243.0947,-144.2022C243.8845,-136.3271 244.1135,-126.875 243.7819,-118.0852"/>
<polygon fill="#000000" stroke="#000000" points="247.2566,-117.5876 243.0992,-107.8425 240.2721,-118.0532 247.2566,-117.5876"/>
</g>
<!-- fator&#45;&gt;numero -->
<g id="edge68" class="edge">
<title>fator&#45;&gt;numero</title>
<path fill="none" stroke="#000000" d="M253.9572,-147.0816C257.2918,-138.1845 258.2243,-126.6351 256.7546,-116.2547"/>
<polygon fill="#000000" stroke="#000000" points="260.1411,-115.3637 254.4841,-106.4055 253.32,-116.9361 260.1411,-115.3637"/>
</g>
<!-- expressao_unaria -->
<g id="node6" class="node">
<title>expressao_unaria</title>
<ellipse fill="none" stroke="#000000" cx="237.179" cy="-234" rx="78.1308" ry="18"/>
<text text-anchor="middle" x="237.179" y="-229.8" font-family="Times,serif" font-size="14.00" fill="#000000">expressao_unaria</text>
</g>
<!-- expressao_unaria&#45;&gt;fator -->
<g id="edge4" class="edge">
<title>expressao_unaria&#45;&gt;fator</title>
<path fill="none" stroke="#000000" d="M219.4318,-216.2022C216.782,-207.3947 216.2363,-196.6147 217.7946,-186.9946"/>
<polygon fill="#000000" stroke="#000000" points="221.223,-187.7149 220.3113,-177.1594 214.4415,-185.9796 221.223,-187.7149"/>
</g>
<!-- expressao_unaria&#45;&gt;fator -->
<g id="edge26" class="edge">
<title>expressao_unaria&#45;&gt;fator</title>
<path fill="none" stroke="#000000" d="M231.2266,-215.8314C230.4646,-208.0125 230.2486,-198.6923 230.5785,-190.0221"/>
<polygon fill="#000000" stroke="#000000" points="234.0794,-190.1239 231.2517,-179.9134 227.0949,-189.6587 234.0794,-190.1239"/>
</g>
<!-- expressao_unaria&#45;&gt;fator -->
<g id="edge56" class="edge">
<title>expressao_unaria&#45;&gt;fator</title>
<path fill="none" stroke="#000000" d="M243.1314,-215.8314C243.8934,-208.0125 244.1094,-198.6923 243.7795,-190.0221"/>
<polygon fill="#000000" stroke="#000000" points="247.2631,-189.6587 243.1063,-179.9134 240.2786,-190.1239 247.2631,-189.6587"/>
</g>
<!-- expressao_unaria&#45;&gt;fator -->
<g id="edge69" class="edge">
<title>expressao_unaria&#45;&gt;fator</title>
<path fill="none" stroke="#000000" d="M254.9262,-216.2022C257.576,-207.3947 258.1217,-196.6147 256.5634,-186.9946"/>
<polygon fill="#000000" stroke="#000000" points="259.9165,-185.9796 254.0467,-177.1594 253.135,-187.7149 259.9165,-185.9796"/>
</g>
<!-- expressao_multiplicativa -->
<g id="node7" class="node">
<title>expressao_multiplicativa</title>
<ellipse fill="none" stroke="#000000" cx="237.179" cy="-306" rx="107.6598" ry="18"/>
<text text-anchor="middle" x="237.179" y="-301.8" font-family="Times,serif" font-size="14.00" fill="#000000">expressao_multiplicativa</text>
</g>
<!-- expressao_multiplicativa&#45;&gt;expressao_unaria -->
<g id="edge5" class="edge">
<title>expressao_multiplicativa&#45;&gt;expressao_unaria</title>
<path fill="none" stroke="#000000" d="M219.4318,-288.2022C217.0185,-280.1807 216.3504,-270.5231 217.4277,-261.5957"/>
<polygon fill="#000000" stroke="#000000" points="220.8985,-262.0943 219.4939,-251.593 214.0432,-260.6782 220.8985,-262.0943"/>
</g>
<!-- expressao_multiplicativa&#45;&gt;expressao_unaria -->
<g id="edge27" class="edge">
<title>expressao_multiplicativa&#45;&gt;expressao_unaria</title>
<path fill="none" stroke="#000000" d="M231.2266,-287.8314C230.4762,-280.131 230.2553,-270.9743 230.5639,-262.4166"/>
<polygon fill="#000000" stroke="#000000" points="234.0582,-262.6161 231.203,-252.4133 227.0725,-262.1697 234.0582,-262.6161"/>
</g>
<!-- expressao_multiplicativa&#45;&gt;expressao_unaria -->
<g id="edge57" class="edge">
<title>expressao_multiplicativa&#45;&gt;expressao_unaria</title>
<path fill="none" stroke="#000000" d="M243.1314,-287.8314C243.8818,-280.131 244.1027,-270.9743 243.7941,-262.4166"/>
<polygon fill="#000000" stroke="#000000" points="247.2855,-262.1697 243.155,-252.4133 240.2998,-262.6161 247.2855,-262.1697"/>
</g>
<!-- expressao_multiplicativa&#45;&gt;expressao_unaria -->
<g id="edge70" class="edge">
<title>expressao_multiplicativa&#45;&gt;expressao_unaria</title>
<path fill="none" stroke="#000000" d="M254.9262,-288.2022C257.3395,-280.1807 258.0076,-270.5231 256.9303,-261.5957"/>
<polygon fill="#000000" stroke="#000000" points="260.3148,-260.6782 254.8641,-251.593 253.4595,-262.0943 260.3148,-260.6782"/>
</g>
<!-- expressao_aditiva -->
<g id="node8" class="node">
<title>expressao_aditiva</title>
<ellipse fill="none" stroke="#000000" cx="237.179" cy="-378" rx="80.4364" ry="18"/>
<text text-anchor="middle" x="237.179" y="-373.8" font-family="Times,serif" font-size="14.00" fill="#000000">expressao_aditiva</text>
</g>
<!-- expressao_aditiva&#45;&gt;expressao_multiplicativa -->
<g id="edge6" class="edge">
<title>expressao_aditiva&#45;&gt;expressao_multiplicativa</title>
<path fill="none" stroke="#000000" d="M219.4318,-360.2022C217.0365,-352.2406 216.3605,-342.6671 217.4038,-333.7957"/>
<polygon fill="#000000" stroke="#000000" points="220.8649,-334.3382 219.4184,-323.8425 214.0041,-332.9494 220.8649,-334.3382"/>
</g>
<!-- expressao_aditiva&#45;&gt;expressao_multiplicativa -->
<g id="edge28" class="edge">
<title>expressao_aditiva&#45;&gt;expressao_multiplicativa</title>
<path fill="none" stroke="#000000" d="M231.2266,-359.8314C230.4762,-352.131 230.2553,-342.9743 230.5639,-334.4166"/>
<polygon fill="#000000" stroke="#000000" points="234.0582,-334.6161 231.203,-324.4133 227.0725,-334.1697 234.0582,-334.6161"/>
</g>
<!-- expressao_aditiva&#45;&gt;expressao_multiplicativa -->
<g id="edge58" class="edge">
<title>expressao_aditiva&#45;&gt;expressao_multiplicativa</title>
<path fill="none" stroke="#000000" d="M243.1314,-359.8314C243.8818,-352.131 244.1027,-342.9743 243.7941,-334.4166"/>
<polygon fill="#000000" stroke="#000000" points="247.2855,-334.1697 243.155,-324.4133 240.2998,-334.6161 247.2855,-334.1697"/>
</g>
<!-- expressao_aditiva&#45;&gt;expressao_multiplicativa -->
<g id="edge71" class="edge">
<title>expressao_aditiva&#45;&gt;expressao_multiplicativa</title>
<path fill="none" stroke="#000000" d="M254.9262,-360.2022C257.3215,-352.2406 257.9975,-342.6671 256.9542,-333.7957"/>
<polygon fill="#000000" stroke="#000000" points="260.3539,-332.9494 254.9396,-323.8425 253.4931,-334.3382 260.3539,-332.9494"/>
</g>
<!-- expressao_simples -->
<g id="node9" class="node">
<title>expressao_simples</title>
<ellipse fill="none" stroke="#000000" cx="237.179" cy="-450" rx="83.3847" ry="18"/>
<text text-anchor="middle" x="237.179" y="-445.8" font-family="Times,serif" font-size="14.00" fill="#000000">expressao_simples</text>
</g>
<!-- expressao_simples&#45;&gt;expressao_aditiva -->
<g id="edge7" class="edge">
<title>expressao_simples&#45;&gt;expressao_aditiva</title>
<path fill="none" stroke="#000000" d="M219.4318,-432.2022C217.0185,-424.1807 216.3504,-414.5231 217.4277,-405.5957"/>
<polygon fill="#000000" stroke="#000000" points="220.8985,-406.0943 219.4939,-395.593 214.0432,-404.6782 220.8985,-406.0943"/>
</g>
<!-- expressao_simples&#45;&gt;expressao_aditiva -->
<g id="edge29" class="edge">
<title>expressao_simples&#45;&gt;expressao_aditiva</title>
<path fill="none" stroke="#000000" d="M231.2266,-431.8314C230.4762,-424.131 230.2553,-414.9743 230.5639,-406.4166"/>
<polygon fill="#000000" stroke="#000000" points="234.0582,-406.6161 231.203,-396.4133 227.0725,-406.1697 234.0582,-406.6161"/>
</g>
<!-- expressao_simples&#45;&gt;expressao_aditiva -->
<g id="edge59" class="edge">
<title>expressao_simples&#45;&gt;expressao_aditiva</title>
<path fill="none" stroke="#000000" d="M243.1314,-431.8314C243.8818,-424.131 244.1027,-414.9743 243.7941,-406.4166"/>
<polygon fill="#000000" stroke="#000000" points="247.2855,-406.1697 243.155,-396.4133 240.2998,-406.6161 247.2855,-406.1697"/>
</g>
<!-- expressao_simples&#45;&gt;expressao_aditiva -->
<g id="edge72" class="edge">
<title>expressao_simples&#45;&gt;expressao_aditiva</title>
<path fill="none" stroke="#000000" d="M254.9262,-432.2022C257.3395,-424.1807 258.0076,-414.5231 256.9303,-405.5957"/>
<polygon fill="#000000" stroke="#000000" points="260.3148,-404.6782 254.8641,-395.593 253.4595,-406.0943 260.3148,-404.6782"/>
</g>
<!-- expressao_logica -->
<g id="node10" class="node">
<title>expressao_logica</title>
<ellipse fill="none" stroke="#000000" cx="237.179" cy="-522" rx="77.5685" ry="18"/>
<text text-anchor="middle" x="237.179" y="-517.8" font-family="Times,serif" font-size="14.00" fill="#000000">expressao_logica</text>
</g>
<!-- expressao_logica&#45;&gt;expressao_simples -->
<g id="edge8" class="edge">
<title>expressao_logica&#45;&gt;expressao_simples</title>
<path fill="none" stroke="#000000" d="M219.4318,-504.2022C217.0185,-496.1807 216.3504,-486.5231 217.4277,-477.5957"/>
<polygon fill="#000000" stroke="#000000" points="220.8985,-478.0943 219.4939,-467.593 214.0432,-476.6782 220.8985,-478.0943"/>
</g>
<!-- expressao_logica&#45;&gt;expressao_simples -->
<g id="edge30" class="edge">
<title>expressao_logica&#45;&gt;expressao_simples</title>
<path fill="none" stroke="#000000" d="M231.2266,-503.8314C230.4762,-496.131 230.2553,-486.9743 230.5639,-478.4166"/>
<polygon fill="#000000" stroke="#000000" points="234.0582,-478.6161 231.203,-468.4133 227.0725,-478.1697 234.0582,-478.6161"/>
</g>
<!-- expressao_logica&#45;&gt;expressao_simples -->
<g id="edge60" class="edge">
<title>expressao_logica&#45;&gt;expressao_simples</title>
<path fill="none" stroke="#000000" d="M243.1314,-503.8314C243.8818,-496.131 244.1027,-486.9743 243.7941,-478.4166"/>
<polygon fill="#000000" stroke="#000000" points="247.2855,-478.1697 243.155,-468.4133 240.2998,-478.6161 247.2855,-478.1697"/>
</g>
<!-- expressao_logica&#45;&gt;expressao_simples -->
<g id="edge73" class="edge">
<title>expressao_logica&#45;&gt;expressao_simples</title>
<path fill="none" stroke="#000000" d="M254.9262,-504.2022C257.3395,-496.1807 258.0076,-486.5231 256.9303,-477.5957"/>
<polygon fill="#000000" stroke="#000000" points="260.3148,-476.6782 254.8641,-467.593 253.4595,-478.0943 260.3148,-476.6782"/>
</g>
<!-- expressao -->
<g id="node11" class="node">
<title>expressao</title>
<ellipse fill="none" stroke="#000000" cx="237.179" cy="-594" rx="49.2163" ry="18"/>
<text text-anchor="middle" x="237.179" y="-589.8" font-family="Times,serif" font-size="14.00" fill="#000000">expressao</text>
</g>
<!-- expressao&#45;&gt;expressao_logica -->
<g id="edge9" class="edge">
<title>expressao&#45;&gt;expressao_logica</title>
<path fill="none" stroke="#000000" d="M219.6592,-576.937C217.0626,-568.7793 216.3181,-558.8079 217.4259,-549.6102"/>
<polygon fill="#000000" stroke="#000000" points="220.8794,-550.1922 219.4636,-539.6924 214.0226,-548.7834 220.8794,-550.1922"/>
</g>
<!-- expressao&#45;&gt;expressao_logica -->
<g id="edge31" class="edge">
<title>expressao&#45;&gt;expressao_logica</title>
<path fill="none" stroke="#000000" d="M231.2266,-575.8314C230.4762,-568.131 230.2553,-558.9743 230.5639,-550.4166"/>
<polygon fill="#000000" stroke="#000000" points="234.0582,-550.6161 231.203,-540.4133 227.0725,-550.1697 234.0582,-550.6161"/>
</g>
<!-- expressao&#45;&gt;expressao_logica -->
<g id="edge61" class="edge">
<title>expressao&#45;&gt;expressao_logica</title>
<path fill="none" stroke="#000000" d="M243.1314,-575.8314C243.8818,-568.131 244.1027,-558.9743 243.7941,-550.4166"/>
<polygon fill="#000000" stroke="#000000" points="247.2855,-550.1697 243.155,-540.4133 240.2998,-550.6161 247.2855,-550.1697"/>
</g>
<!-- expressao&#45;&gt;expressao_logica -->
<g id="edge74" class="edge">
<title>expressao&#45;&gt;expressao_logica</title>
<path fill="none" stroke="#000000" d="M254.6988,-576.937C257.2954,-568.7793 258.0399,-558.8079 256.9321,-549.6102"/>
<polygon fill="#000000" stroke="#000000" points="260.3354,-548.7834 254.8944,-539.6924 253.4786,-550.1922 260.3354,-548.7834"/>
</g>
<!-- atribuicao -->
<g id="node31" class="node">
<title>atribuicao</title>
<ellipse fill="none" stroke="#000000" cx="460.179" cy="-522" rx="49.7962" ry="18"/>
<text text-anchor="middle" x="460.179" y="-517.8" font-family="Times,serif" font-size="14.00" fill="#000000">atribuicao</text>
</g>
<!-- expressao&#45;&gt;atribuicao -->
<g id="edge64" class="edge">
<title>expressao&#45;&gt;atribuicao</title>
<path fill="none" stroke="#000000" d="M274.2532,-582.0298C312.4342,-569.7023 372.0432,-550.4564 413.4332,-537.0928"/>
<polygon fill="#000000" stroke="#000000" points="414.5752,-540.4021 423.0161,-533.9988 412.4244,-533.7407 414.5752,-540.4021"/>
</g>
<!-- indice -->
<g id="node12" class="node">
<title>indice</title>
<ellipse fill="none" stroke="#000000" cx="319.179" cy="-882" rx="34.769" ry="18"/>
<text text-anchor="middle" x="319.179" y="-877.8" font-family="Times,serif" font-size="14.00" fill="#000000">indice</text>
</g>
<!-- indice&#45;&gt;expressao -->
<g id="edge10" class="edge">
<title>indice&#45;&gt;expressao</title>
<path fill="none" stroke="#000000" d="M317.501,-863.7833C313.345,-823.5896 300.6229,-724.7819 270.179,-648 266.392,-638.4488 260.9682,-628.6699 255.6087,-620.104"/>
<polygon fill="#000000" stroke="#000000" points="258.5098,-618.145 250.1183,-611.6771 252.6448,-621.9663 258.5098,-618.145"/>
</g>
<!-- indice&#45;&gt;a -->
<g id="edge12" class="edge">
<title>indice&#45;&gt;a</title>
<path fill="none" stroke="#000000" d="M339.2775,-867.0816C353.8857,-856.2383 373.8018,-841.4553 389.7056,-829.6503"/>
<polygon fill="#000000" stroke="#000000" points="392.1255,-832.213 398.0691,-823.4424 387.9533,-826.5922 392.1255,-832.213"/>
</g>
<!-- var -->
<g id="node13" class="node">
<title>var</title>
<ellipse fill="none" stroke="#000000" cx="431.179" cy="-954" rx="27" ry="18"/>
<text text-anchor="middle" x="431.179" y="-949.8" font-family="Times,serif" font-size="14.00" fill="#000000">var</text>
</g>
<!-- var&#45;&gt;expressao -->
<g id="edge63" class="edge">
<title>var&#45;&gt;expressao</title>
<path fill="none" stroke="#000000" d="M405.2396,-948.2808C365.5798,-939.0195 292.6207,-919.7742 275.179,-900 248.1362,-869.3407 256.179,-850.8816 256.179,-810 256.179,-810 256.179,-810 256.179,-738 256.179,-697.5282 248.711,-651.2037 243.139,-622.2725"/>
<polygon fill="#000000" stroke="#000000" points="246.4967,-621.2111 241.1158,-612.0844 239.6307,-622.5746 246.4967,-621.2111"/>
</g>
<!-- var&#45;&gt;indice -->
<g id="edge11" class="edge">
<title>var&#45;&gt;indice</title>
<path fill="none" stroke="#000000" d="M411.6701,-941.4586C394.6043,-930.4877 369.5303,-914.3687 349.793,-901.6804"/>
<polygon fill="#000000" stroke="#000000" points="351.4524,-898.5864 341.1479,-896.1229 347.6671,-904.4746 351.4524,-898.5864"/>
</g>
<!-- i -->
<g id="node28" class="node">
<title>i</title>
<ellipse fill="none" stroke="#000000" cx="471.179" cy="-882" rx="27" ry="18"/>
<text text-anchor="middle" x="471.179" y="-877.8" font-family="Times,serif" font-size="14.00" fill="#000000">i</text>
</g>
<!-- var&#45;&gt;i -->
<g id="edge45" class="edge">
<title>var&#45;&gt;i</title>
<path fill="none" stroke="#000000" d="M435.3203,-935.8314C439.4699,-926.7731 445.4717,-915.6999 451.4672,-905.9568"/>
<polygon fill="#000000" stroke="#000000" points="454.4539,-907.7832 456.9183,-897.479 448.566,-903.9974 454.4539,-907.7832"/>
</g>
<!-- var&#45;&gt;i -->
<g id="edge53" class="edge">
<title>var&#45;&gt;i</title>
<path fill="none" stroke="#000000" d="M445.5368,-938.3771C451.3247,-929.7893 457.6704,-918.8947 462.7498,-908.9768"/>
<polygon fill="#000000" stroke="#000000" points="465.9502,-910.3985 467.1722,-899.8744 459.654,-907.3395 465.9502,-910.3985"/>
</g>
<!-- b -->
<g id="node29" class="node">
<title>b</title>
<ellipse fill="none" stroke="#000000" cx="399.179" cy="-882" rx="27" ry="18"/>
<text text-anchor="middle" x="399.179" y="-877.8" font-family="Times,serif" font-size="14.00" fill="#000000">b</text>
</g>
<!-- var&#45;&gt;b -->
<g id="edge46" class="edge">
<title>var&#45;&gt;b</title>
<path fill="none" stroke="#000000" d="M423.4327,-936.5708C419.6986,-928.1691 415.1386,-917.9091 410.9845,-908.5623"/>
<polygon fill="#000000" stroke="#000000" points="414.1138,-906.9853 406.854,-899.2687 407.7171,-909.8283 414.1138,-906.9853"/>
</g>
<!-- lista_variaveis&#45;&gt;var -->
<g id="edge13" class="edge">
<title>lista_variaveis&#45;&gt;var</title>
<path fill="none" stroke="#000000" d="M419.3476,-1008.2022C417.6726,-999.8515 417.2587,-989.7275 418.1057,-980.5003"/>
<polygon fill="#000000" stroke="#000000" points="421.5675,-981.016 419.5979,-970.6058 414.6457,-979.9721 421.5675,-981.016"/>
</g>
<!-- lista_variaveis&#45;&gt;var -->
<g id="edge47" class="edge">
<title>lista_variaveis&#45;&gt;var</title>
<path fill="none" stroke="#000000" d="M431.179,-1007.8314C431.179,-1000.131 431.179,-990.9743 431.179,-982.4166"/>
<polygon fill="#000000" stroke="#000000" points="434.6791,-982.4132 431.179,-972.4133 427.6791,-982.4133 434.6791,-982.4132"/>
</g>
<!-- lista_variaveis&#45;&gt;var -->
<g id="edge48" class="edge">
<title>lista_variaveis&#45;&gt;var</title>
<path fill="none" stroke="#000000" d="M443.0105,-1008.2022C444.6854,-999.8515 445.0993,-989.7275 444.2523,-980.5003"/>
<polygon fill="#000000" stroke="#000000" points="447.7123,-979.9721 442.7601,-970.6058 440.7905,-981.016 447.7123,-979.9721"/>
</g>
<!-- declaracao_variaveis -->
<g id="node16" class="node">
<title>declaracao_variaveis</title>
<ellipse fill="none" stroke="#000000" cx="658.179" cy="-666" rx="91.991" ry="18"/>
<text text-anchor="middle" x="658.179" y="-661.8" font-family="Times,serif" font-size="14.00" fill="#000000">declaracao_variaveis</text>
</g>
<!-- declaracao_variaveis&#45;&gt;tipo -->
<g id="edge14" class="edge">
<title>declaracao_variaveis&#45;&gt;tipo</title>
<path fill="none" stroke="#000000" d="M642.34,-684.0228C625.4151,-710.7027 602.179,-762.6637 602.179,-810 602.179,-954 602.179,-954 602.179,-954 602.179,-1007.5182 568.206,-1016.6923 522.179,-1044 490.0933,-1063.0364 388.5084,-1081.8475 333.3518,-1091.4449"/>
<polygon fill="#000000" stroke="#000000" points="332.5545,-1088.0307 323.297,-1093.1833 333.7471,-1094.9284 332.5545,-1088.0307"/>
</g>
<!-- declaracao_variaveis&#45;&gt;tipo -->
<g id="edge49" class="edge">
<title>declaracao_variaveis&#45;&gt;tipo</title>
<path fill="none" stroke="#000000" d="M654.083,-684.0228C643.4151,-710.7027 620.179,-762.6637 620.179,-810 620.179,-954 620.179,-954 620.179,-954 620.179,-1007.5182 586.206,-1016.6923 540.179,-1044 506.0149,-1064.2695 393.0561,-1084.2836 333.8252,-1093.1915"/>
<polygon fill="#000000" stroke="#000000" points="333.149,-1089.7533 323.766,-1094.6736 334.1694,-1096.6785 333.149,-1089.7533"/>
</g>
<!-- declaracao -->
<g id="node17" class="node">
<title>declaracao</title>
<ellipse fill="none" stroke="#000000" cx="297.179" cy="-1242" rx="52.1251" ry="18"/>
<text text-anchor="middle" x="297.179" y="-1237.8" font-family="Times,serif" font-size="14.00" fill="#000000">declaracao</text>
</g>
<!-- declaracao&#45;&gt;declaracao_variaveis -->
<g id="edge16" class="edge">
<title>declaracao&#45;&gt;declaracao_variaveis</title>
<path fill="none" stroke="#000000" d="M343.6344,-1233.6051C441.1347,-1214.6613 658.179,-1164.9697 658.179,-1098 658.179,-1098 658.179,-1098 658.179,-810 658.179,-769.876 658.179,-723.4631 658.179,-694.4177"/>
<polygon fill="#000000" stroke="#000000" points="661.6791,-694.1853 658.179,-684.1854 654.6791,-694.1854 661.6791,-694.1853"/>
</g>
<!-- declaracao_funcao -->
<g id="node27" class="node">
<title>declaracao_funcao</title>
<ellipse fill="none" stroke="#000000" cx="297.179" cy="-1170" rx="83.3288" ry="18"/>
<text text-anchor="middle" x="297.179" y="-1165.8" font-family="Times,serif" font-size="14.00" fill="#000000">declaracao_funcao</text>
</g>
<!-- declaracao&#45;&gt;declaracao_funcao -->
<g id="edge40" class="edge">
<title>declaracao&#45;&gt;declaracao_funcao</title>
<path fill="none" stroke="#000000" d="M291.2266,-1223.8314C290.4762,-1216.131 290.2553,-1206.9743 290.5639,-1198.4166"/>
<polygon fill="#000000" stroke="#000000" points="294.0582,-1198.6161 291.203,-1188.4133 287.0725,-1198.1697 294.0582,-1198.6161"/>
</g>
<!-- declaracao&#45;&gt;declaracao_funcao -->
<g id="edge83" class="edge">
<title>declaracao&#45;&gt;declaracao_funcao</title>
<path fill="none" stroke="#000000" d="M303.1314,-1223.8314C303.8818,-1216.131 304.1027,-1206.9743 303.7941,-1198.4166"/>
<polygon fill="#000000" stroke="#000000" points="307.2855,-1198.1697 303.155,-1188.4133 300.2998,-1198.6161 307.2855,-1198.1697"/>
</g>
<!-- lista_declaracoes -->
<g id="node18" class="node">
<title>lista_declaracoes</title>
<ellipse fill="none" stroke="#000000" cx="297.179" cy="-1314" rx="76.9792" ry="18"/>
<text text-anchor="middle" x="297.179" y="-1309.8" font-family="Times,serif" font-size="14.00" fill="#000000">lista_declaracoes</text>
</g>
<!-- lista_declaracoes&#45;&gt;declaracao -->
<g id="edge17" class="edge">
<title>lista_declaracoes&#45;&gt;declaracao</title>
<path fill="none" stroke="#000000" d="M285.3476,-1296.2022C283.7387,-1288.1807 283.2933,-1278.5231 284.0114,-1269.5957"/>
<polygon fill="#000000" stroke="#000000" points="287.4919,-1269.9771 285.3889,-1259.593 280.5573,-1269.022 287.4919,-1269.9771"/>
</g>
<!-- lista_declaracoes&#45;&gt;declaracao -->
<g id="edge41" class="edge">
<title>lista_declaracoes&#45;&gt;declaracao</title>
<path fill="none" stroke="#000000" d="M297.179,-1295.8314C297.179,-1288.131 297.179,-1278.9743 297.179,-1270.4166"/>
<polygon fill="#000000" stroke="#000000" points="300.6791,-1270.4132 297.179,-1260.4133 293.6791,-1270.4133 300.6791,-1270.4132"/>
</g>
<!-- lista_declaracoes&#45;&gt;declaracao -->
<g id="edge84" class="edge">
<title>lista_declaracoes&#45;&gt;declaracao</title>
<path fill="none" stroke="#000000" d="M309.0105,-1296.2022C310.6193,-1288.1807 311.0647,-1278.5231 310.3466,-1269.5957"/>
<polygon fill="#000000" stroke="#000000" points="313.8007,-1269.022 308.9691,-1259.593 306.8661,-1269.9771 313.8007,-1269.022"/>
</g>
<!-- parametro -->
<g id="node19" class="node">
<title>parametro</title>
<ellipse fill="none" stroke="#000000" cx="50.179" cy="-810" rx="50.3586" ry="18"/>
<text text-anchor="middle" x="50.179" y="-805.8" font-family="Times,serif" font-size="14.00" fill="#000000">parametro</text>
</g>
<!-- parametro&#45;&gt;tipo -->
<g id="edge20" class="edge">
<title>parametro&#45;&gt;tipo</title>
<path fill="none" stroke="#000000" d="M52.2651,-828.1303C58.3345,-872.2183 80.1116,-985.6884 148.179,-1044 180.4207,-1071.6207 227.9264,-1085.5631 260.5826,-1092.2817"/>
<polygon fill="#000000" stroke="#000000" points="260.1436,-1095.7614 270.6253,-1094.2174 261.4685,-1088.888 260.1436,-1095.7614"/>
</g>
<!-- parametro&#45;&gt;parametro -->
<g id="edge22" class="edge">
<title>parametro&#45;&gt;parametro</title>
<path fill="none" stroke="#000000" d="M84.9083,-823.0641C102.5443,-824.9719 118.358,-820.6172 118.358,-810 118.358,-801.4565 108.1183,-796.9681 94.9291,-796.5347"/>
<polygon fill="#000000" stroke="#000000" points="94.7603,-793.0386 84.9083,-796.9359 95.0404,-800.033 94.7603,-793.0386"/>
</g>
<!-- lista_parametros -->
<g id="node20" class="node">
<title>lista_parametros</title>
<ellipse fill="none" stroke="#000000" cx="153.179" cy="-882" rx="74.713" ry="18"/>
<text text-anchor="middle" x="153.179" y="-877.8" font-family="Times,serif" font-size="14.00" fill="#000000">lista_parametros</text>
</g>
<!-- lista_parametros&#45;&gt;parametro -->
<g id="edge23" class="edge">
<title>lista_parametros&#45;&gt;parametro</title>
<path fill="none" stroke="#000000" d="M123.4891,-865.3008C108.6253,-855.6468 90.8769,-843.3637 76.5032,-832.827"/>
<polygon fill="#000000" stroke="#000000" points="78.5902,-830.0174 68.4774,-826.8581 74.4128,-835.6343 78.5902,-830.0174"/>
</g>
<!-- lista_parametros&#45;&gt;parametro -->
<g id="edge43" class="edge">
<title>lista_parametros&#45;&gt;parametro</title>
<path fill="none" stroke="#000000" d="M134.1238,-864.5708C120.6996,-854.4575 102.4869,-841.6517 86.4009,-830.9871"/>
<polygon fill="#000000" stroke="#000000" points="88.0116,-827.8585 77.727,-825.3134 84.1798,-833.7165 88.0116,-827.8585"/>
</g>
<!-- corpo -->
<g id="node24" class="node">
<title>corpo</title>
<ellipse fill="none" stroke="#000000" cx="169.179" cy="-810" rx="33.0469" ry="18"/>
<text text-anchor="middle" x="169.179" y="-805.8" font-family="Times,serif" font-size="14.00" fill="#000000">corpo</text>
</g>
<!-- lista_parametros&#45;&gt;corpo -->
<g id="edge37" class="edge">
<title>lista_parametros&#45;&gt;corpo</title>
<path fill="none" stroke="#000000" d="M151.2641,-863.8314C152.2762,-855.7196 154.235,-845.9918 156.6067,-837.0505"/>
<polygon fill="#000000" stroke="#000000" points="159.976,-837.9985 159.4313,-827.4177 153.2588,-836.0288 159.976,-837.9985"/>
</g>
<!-- lista_parametros&#45;&gt;corpo -->
<g id="edge80" class="edge">
<title>lista_parametros&#45;&gt;corpo</title>
<path fill="none" stroke="#000000" d="M163.1689,-863.8314C165.6305,-856.131 167.8862,-846.9743 169.4793,-838.4166"/>
<polygon fill="#000000" stroke="#000000" points="172.9562,-838.8376 171.0632,-828.4133 166.0423,-837.7428 172.9562,-838.8376"/>
</g>
<!-- retorna -->
<g id="node22" class="node">
<title>retorna</title>
<ellipse fill="none" stroke="#000000" cx="152.179" cy="-666" rx="38.2607" ry="18"/>
<text text-anchor="middle" x="152.179" y="-661.8" font-family="Times,serif" font-size="14.00" fill="#000000">retorna</text>
</g>
<!-- retorna&#45;&gt;expressao -->
<g id="edge32" class="edge">
<title>retorna&#45;&gt;expressao</title>
<path fill="none" stroke="#000000" d="M166.4829,-648.937C177.0653,-639.0879 191.6686,-626.5952 204.9173,-616.0122"/>
<polygon fill="#000000" stroke="#000000" points="207.2395,-618.6388 212.9433,-609.7103 202.9166,-613.1332 207.2395,-618.6388"/>
</g>
<!-- retorna&#45;&gt;expressao -->
<g id="edge75" class="edge">
<title>retorna&#45;&gt;expressao</title>
<path fill="none" stroke="#000000" d="M174.9287,-651.4297C187.37,-641.9242 202.5827,-629.2847 214.9325,-618.2836"/>
<polygon fill="#000000" stroke="#000000" points="217.5278,-620.6546 222.5769,-611.3403 212.8213,-615.473 217.5278,-620.6546"/>
</g>
<!-- acao -->
<g id="node23" class="node">
<title>acao</title>
<ellipse fill="none" stroke="#000000" cx="169.179" cy="-738" rx="28.952" ry="18"/>
<text text-anchor="middle" x="169.179" y="-733.8" font-family="Times,serif" font-size="14.00" fill="#000000">acao</text>
</g>
<!-- acao&#45;&gt;expressao -->
<g id="edge65" class="edge">
<title>acao&#45;&gt;expressao</title>
<path fill="none" stroke="#000000" d="M179.3901,-720.7417C185.4324,-710.2632 193.0732,-696.5339 199.179,-684 209.2692,-663.287 219.3508,-639.2142 226.5918,-621.1796"/>
<polygon fill="#000000" stroke="#000000" points="229.8624,-622.427 230.3044,-611.8413 223.3576,-619.8408 229.8624,-622.427"/>
</g>
<!-- acao&#45;&gt;declaracao_variaveis -->
<g id="edge51" class="edge">
<title>acao&#45;&gt;declaracao_variaveis</title>
<path fill="none" stroke="#000000" d="M197.2261,-733.8704C269.1297,-723.2833 462.255,-694.8477 574.3974,-678.3359"/>
<polygon fill="#000000" stroke="#000000" points="574.9408,-681.7938 584.3243,-676.8743 573.9211,-674.8684 574.9408,-681.7938"/>
</g>
<!-- acao&#45;&gt;retorna -->
<g id="edge33" class="edge">
<title>acao&#45;&gt;retorna</title>
<path fill="none" stroke="#000000" d="M159.3103,-720.937C156.5896,-712.9865 154.0485,-703.3134 152.2526,-694.3127"/>
<polygon fill="#000000" stroke="#000000" points="155.6585,-693.4649 150.5207,-684.1992 148.7589,-694.6465 155.6585,-693.4649"/>
</g>
<!-- acao&#45;&gt;retorna -->
<g id="edge76" class="edge">
<title>acao&#45;&gt;retorna</title>
<path fill="none" stroke="#000000" d="M170.8416,-719.8314C169.7168,-711.7196 167.6229,-701.9918 165.127,-693.0505"/>
<polygon fill="#000000" stroke="#000000" points="168.4503,-691.9495 162.1686,-683.4177 161.7588,-694.0046 168.4503,-691.9495"/>
</g>
<!-- corpo&#45;&gt;acao -->
<g id="edge34" class="edge">
<title>corpo&#45;&gt;acao</title>
<path fill="none" stroke="#000000" d="M152.1437,-794.3771C148.8822,-785.1954 148.1024,-773.3769 149.8044,-762.9343"/>
<polygon fill="#000000" stroke="#000000" points="153.2327,-763.6557 152.3336,-753.099 146.4533,-761.9122 153.2327,-763.6557"/>
</g>
<!-- corpo&#45;&gt;acao -->
<g id="edge52" class="edge">
<title>corpo&#45;&gt;acao</title>
<path fill="none" stroke="#000000" d="M163.2633,-792.2022C162.4735,-784.3271 162.2445,-774.875 162.5761,-766.0852"/>
<polygon fill="#000000" stroke="#000000" points="166.086,-766.0532 163.2588,-755.8425 159.1014,-765.5876 166.086,-766.0532"/>
</g>
<!-- corpo&#45;&gt;acao -->
<g id="edge66" class="edge">
<title>corpo&#45;&gt;acao</title>
<path fill="none" stroke="#000000" d="M175.0947,-792.2022C175.8845,-784.3271 176.1135,-774.875 175.7819,-766.0852"/>
<polygon fill="#000000" stroke="#000000" points="179.2566,-765.5876 175.0992,-755.8425 172.2721,-766.0532 179.2566,-765.5876"/>
</g>
<!-- corpo&#45;&gt;acao -->
<g id="edge77" class="edge">
<title>corpo&#45;&gt;acao</title>
<path fill="none" stroke="#000000" d="M186.2143,-794.3771C189.4758,-785.1954 190.2556,-773.3769 188.5536,-762.9343"/>
<polygon fill="#000000" stroke="#000000" points="191.9047,-761.9122 186.0244,-753.099 185.1253,-763.6557 191.9047,-761.9122"/>
</g>
<!-- func -->
<g id="node26" class="node">
<title>func</title>
<ellipse fill="none" stroke="#000000" cx="166.179" cy="-954" rx="28.3913" ry="18"/>
<text text-anchor="middle" x="166.179" y="-949.8" font-family="Times,serif" font-size="14.00" fill="#000000">func</text>
</g>
<!-- cabecalho&#45;&gt;func -->
<g id="edge35" class="edge">
<title>cabecalho&#45;&gt;func</title>
<path fill="none" stroke="#000000" d="M269.7171,-1010.9064C248.3159,-999.1439 218.6237,-982.8246 196.5216,-970.6768"/>
<polygon fill="#000000" stroke="#000000" points="198.0096,-967.5009 187.5602,-965.7515 194.638,-973.6354 198.0096,-967.5009"/>
</g>
<!-- principal -->
<g id="node32" class="node">
<title>principal</title>
<ellipse fill="none" stroke="#000000" cx="284.179" cy="-954" rx="45.2227" ry="18"/>
<text text-anchor="middle" x="284.179" y="-949.8" font-family="Times,serif" font-size="14.00" fill="#000000">principal</text>
</g>
<!-- cabecalho&#45;&gt;principal -->
<g id="edge78" class="edge">
<title>cabecalho&#45;&gt;principal</title>
<path fill="none" stroke="#000000" d="M293.8986,-1007.8314C292.5082,-1000.131 290.8549,-990.9743 289.3098,-982.4166"/>
<polygon fill="#000000" stroke="#000000" points="292.7248,-981.6322 287.5036,-972.4133 285.8362,-982.8761 292.7248,-981.6322"/>
</g>
<!-- func&#45;&gt;lista_parametros -->
<g id="edge36" class="edge">
<title>func&#45;&gt;lista_parametros</title>
<path fill="none" stroke="#000000" d="M162.8986,-935.8314C161.5082,-928.131 159.8549,-918.9743 158.3098,-910.4166"/>
<polygon fill="#000000" stroke="#000000" points="161.7248,-909.6322 156.5036,-900.4133 154.8362,-910.8761 161.7248,-909.6322"/>
</g>
<!-- declaracao_funcao&#45;&gt;tipo -->
<g id="edge38" class="edge">
<title>declaracao_funcao&#45;&gt;tipo</title>
<path fill="none" stroke="#000000" d="M291.2266,-1151.8314C290.4646,-1144.0125 290.2486,-1134.6923 290.5785,-1126.0221"/>
<polygon fill="#000000" stroke="#000000" points="294.0794,-1126.1239 291.2517,-1115.9134 287.0949,-1125.6587 294.0794,-1126.1239"/>
</g>
<!-- declaracao_funcao&#45;&gt;tipo -->
<g id="edge81" class="edge">
<title>declaracao_funcao&#45;&gt;tipo</title>
<path fill="none" stroke="#000000" d="M303.1314,-1151.8314C303.8934,-1144.0125 304.1094,-1134.6923 303.7795,-1126.0221"/>
<polygon fill="#000000" stroke="#000000" points="307.2631,-1125.6587 303.1063,-1115.9134 300.2786,-1126.1239 307.2631,-1125.6587"/>
</g>
<!-- atribuicao&#45;&gt;var -->
<g id="edge62" class="edge">
<title>atribuicao&#45;&gt;var</title>
<path fill="none" stroke="#000000" d="M469.1803,-539.8174C496.3469,-596.2719 571.789,-774.8344 507.179,-900 497.9937,-917.7942 479.9362,-931.0014 463.7273,-939.8992"/>
<polygon fill="#000000" stroke="#000000" points="461.7794,-936.9646 454.4784,-944.6422 464.9737,-943.1934 461.7794,-936.9646"/>
</g>
<!-- principal&#45;&gt;lista_parametros -->
<g id="edge79" class="edge">
<title>principal&#45;&gt;lista_parametros</title>
<path fill="none" stroke="#000000" d="M257.3531,-939.256C238.7042,-929.0062 213.539,-915.1749 192.6143,-903.6744"/>
<polygon fill="#000000" stroke="#000000" points="194.0878,-900.4904 183.6383,-898.741 190.7161,-906.6249 194.0878,-900.4904"/>
</g>
<!-- programa -->
<g id="node33" class="node">
<title>programa</title>
<ellipse fill="none" stroke="#000000" cx="297.179" cy="-1386" rx="48.0742" ry="18"/>
<text text-anchor="middle" x="297.179" y="-1381.8" font-family="Times,serif" font-size="14.00" fill="#000000">programa</text>
</g>
<!-- programa&#45;&gt;lista_declaracoes -->
<g id="edge85" class="edge">
<title>programa&#45;&gt;lista_declaracoes</title>
<path fill="none" stroke="#000000" d="M297.179,-1367.8314C297.179,-1360.131 297.179,-1350.9743 297.179,-1342.4166"/>
<polygon fill="#000000" stroke="#000000" points="300.6791,-1342.4132 297.179,-1332.4133 293.6791,-1342.4133 300.6791,-1342.4132"/>
</g>
</g>
</svg>
