<?xml version="1.0" encoding="UTF-8" standalone="no"?>
<!DOCTYPE svg PUBLIC "-//W3C//DTD SVG 1.1//EN"
 "http://www.w3.org/Graphics/SVG/1.1/DTD/svg11.dtd">
<!-- Generated by graphviz version 2.40.1 (20161225.0304)
 -->
<!-- Title: G Pages: 1 -->
<svg width="940pt" height="1196pt"
 viewBox="0.00 0.00 939.62 1196.00" xmlns="http://www.w3.org/2000/svg" xmlns:xlink="http://www.w3.org/1999/xlink">
<g id="graph0" class="graph" transform="scale(1 1) rotate(0) translate(4 1192)">
<title>G</title>
<polygon fill="#ffffff" stroke="transparent" points="-4,4 -4,-1192 935.617,-1192 935.617,4 -4,4"/>
<!-- tipo -->
<g id="node1" class="node">
<title>tipo</title>
<ellipse fill="none" stroke="#000000" cx="674.5799" cy="-594" rx="27" ry="18"/>
<text text-anchor="middle" x="674.5799" y="-589.8" font-family="Times,serif" font-size="14.00" fill="#000000">tipo</text>
</g>
<!-- inteiro -->
<g id="node2" class="node">
<title>inteiro</title>
<ellipse fill="none" stroke="#000000" cx="674.5799" cy="-522" rx="36.4936" ry="18"/>
<text text-anchor="middle" x="674.5799" y="-517.8" font-family="Times,serif" font-size="14.00" fill="#000000">inteiro</text>
</g>
<!-- tipo&#45;&gt;inteiro -->
<g id="edge1" class="edge">
<title>tipo&#45;&gt;inteiro</title>
<path fill="none" stroke="#000000" d="M653.9146,-582.1107C647.7138,-572.3125 646.0653,-558.1044 648.9691,-545.9614"/>
<polygon fill="#000000" stroke="#000000" points="652.3223,-546.9828 652.4789,-536.3891 645.7502,-544.573 652.3223,-546.9828"/>
</g>
<!-- tipo&#45;&gt;inteiro -->
<g id="edge18" class="edge">
<title>tipo&#45;&gt;inteiro</title>
<path fill="none" stroke="#000000" d="M663.0582,-577.6621C661.1722,-569.2525 660.6347,-558.7781 661.4457,-549.1915"/>
<polygon fill="#000000" stroke="#000000" points="664.9127,-549.6703 662.8549,-539.2773 657.9824,-548.6852 664.9127,-549.6703"/>
</g>
<!-- tipo&#45;&gt;inteiro -->
<g id="edge19" class="edge">
<title>tipo&#45;&gt;inteiro</title>
<path fill="none" stroke="#000000" d="M674.5799,-575.8314C674.5799,-568.131 674.5799,-558.9743 674.5799,-550.4166"/>
<polygon fill="#000000" stroke="#000000" points="678.08,-550.4132 674.5799,-540.4133 671.08,-550.4133 678.08,-550.4132"/>
</g>
<!-- tipo&#45;&gt;inteiro -->
<g id="edge43" class="edge">
<title>tipo&#45;&gt;inteiro</title>
<path fill="none" stroke="#000000" d="M686.1015,-577.6621C687.9875,-569.2525 688.5251,-558.7781 687.7141,-549.1915"/>
<polygon fill="#000000" stroke="#000000" points="691.1774,-548.6852 686.3048,-539.2773 684.2471,-549.6703 691.1774,-548.6852"/>
</g>
<!-- tipo&#45;&gt;inteiro -->
<g id="edge45" class="edge">
<title>tipo&#45;&gt;inteiro</title>
<path fill="none" stroke="#000000" d="M695.2452,-582.1107C701.446,-572.3125 703.0945,-558.1044 700.1907,-545.9614"/>
<polygon fill="#000000" stroke="#000000" points="703.4096,-544.573 696.6808,-536.3891 696.8374,-546.9828 703.4096,-544.573"/>
</g>
<!-- a -->
<g id="node14" class="node">
<title>a</title>
<ellipse fill="none" stroke="#000000" cx="593.5799" cy="-522" rx="27" ry="18"/>
<text text-anchor="middle" x="593.5799" y="-517.8" font-family="Times,serif" font-size="14.00" fill="#000000">a</text>
</g>
<!-- tipo&#45;&gt;a -->
<g id="edge21" class="edge">
<title>tipo&#45;&gt;a</title>
<path fill="none" stroke="#000000" d="M658.1883,-579.4297C646.5506,-569.0851 630.7371,-555.0286 617.668,-543.4116"/>
<polygon fill="#000000" stroke="#000000" points="619.7465,-540.5763 609.9471,-536.5486 615.0959,-545.8082 619.7465,-540.5763"/>
</g>
<!-- numero -->
<g id="node3" class="node">
<title>numero</title>
<ellipse fill="none" stroke="#000000" cx="107.5799" cy="-90" rx="40.5712" ry="18"/>
<text text-anchor="middle" x="107.5799" y="-85.8" font-family="Times,serif" font-size="14.00" fill="#000000">numero</text>
</g>
<!-- 1024 -->
<g id="node4" class="node">
<title>1024</title>
<ellipse fill="none" stroke="#000000" cx="32.5799" cy="-18" rx="30.2015" ry="18"/>
<text text-anchor="middle" x="32.5799" y="-13.8" font-family="Times,serif" font-size="14.00" fill="#000000">1024</text>
</g>
<!-- numero&#45;&gt;1024 -->
<g id="edge2" class="edge">
<title>numero&#45;&gt;1024</title>
<path fill="none" stroke="#000000" d="M90.5612,-73.6621C80.3777,-63.8859 67.2874,-51.3193 56.1225,-40.601"/>
<polygon fill="#000000" stroke="#000000" points="58.3978,-37.9334 48.76,-33.5329 53.55,-42.9831 58.3978,-37.9334"/>
</g>
<!-- 0 -->
<g id="node21" class="node">
<title>0</title>
<ellipse fill="none" stroke="#000000" cx="107.5799" cy="-18" rx="27" ry="18"/>
<text text-anchor="middle" x="107.5799" y="-13.8" font-family="Times,serif" font-size="14.00" fill="#000000">0</text>
</g>
<!-- numero&#45;&gt;0 -->
<g id="edge24" class="edge">
<title>numero&#45;&gt;0</title>
<path fill="none" stroke="#000000" d="M101.6275,-71.8314C100.8655,-64.0125 100.6495,-54.6923 100.9794,-46.0221"/>
<polygon fill="#000000" stroke="#000000" points="104.4803,-46.1239 101.6526,-35.9134 97.4958,-45.6587 104.4803,-46.1239"/>
</g>
<!-- numero&#45;&gt;0 -->
<g id="edge69" class="edge">
<title>numero&#45;&gt;0</title>
<path fill="none" stroke="#000000" d="M113.5323,-71.8314C114.2942,-64.0125 114.5103,-54.6923 114.1803,-46.0221"/>
<polygon fill="#000000" stroke="#000000" points="117.664,-45.6587 113.5072,-35.9134 110.6795,-46.1239 117.664,-45.6587"/>
</g>
<!-- 1 -->
<g id="node30" class="node">
<title>1</title>
<ellipse fill="none" stroke="#000000" cx="179.5799" cy="-18" rx="27" ry="18"/>
<text text-anchor="middle" x="179.5799" y="-13.8" font-family="Times,serif" font-size="14.00" fill="#000000">1</text>
</g>
<!-- numero&#45;&gt;1 -->
<g id="edge56" class="edge">
<title>numero&#45;&gt;1</title>
<path fill="none" stroke="#000000" d="M124.2791,-73.3008C134.0402,-63.5397 146.489,-51.0909 157.1029,-40.477"/>
<polygon fill="#000000" stroke="#000000" points="159.8462,-42.6834 164.4424,-33.1374 154.8965,-37.7337 159.8462,-42.6834"/>
</g>
<!-- fator -->
<g id="node5" class="node">
<title>fator</title>
<ellipse fill="none" stroke="#000000" cx="107.5799" cy="-162" rx="29.0318" ry="18"/>
<text text-anchor="middle" x="107.5799" y="-157.8" font-family="Times,serif" font-size="14.00" fill="#000000">fator</text>
</g>
<!-- fator&#45;&gt;numero -->
<g id="edge3" class="edge">
<title>fator&#45;&gt;numero</title>
<path fill="none" stroke="#000000" d="M90.8017,-147.0816C87.467,-138.1845 86.5346,-126.6351 88.0043,-116.2547"/>
<polygon fill="#000000" stroke="#000000" points="91.4389,-116.9361 90.2748,-106.4055 84.6178,-115.3637 91.4389,-116.9361"/>
</g>
<!-- fator&#45;&gt;numero -->
<g id="edge25" class="edge">
<title>fator&#45;&gt;numero</title>
<path fill="none" stroke="#000000" d="M101.6642,-144.2022C100.8744,-136.3271 100.6454,-126.875 100.977,-118.0852"/>
<polygon fill="#000000" stroke="#000000" points="104.4868,-118.0532 101.6597,-107.8425 97.5023,-117.5876 104.4868,-118.0532"/>
</g>
<!-- fator&#45;&gt;numero -->
<g id="edge57" class="edge">
<title>fator&#45;&gt;numero</title>
<path fill="none" stroke="#000000" d="M113.4956,-144.2022C114.2854,-136.3271 114.5144,-126.875 114.1827,-118.0852"/>
<polygon fill="#000000" stroke="#000000" points="117.6574,-117.5876 113.5001,-107.8425 110.6729,-118.0532 117.6574,-117.5876"/>
</g>
<!-- fator&#45;&gt;numero -->
<g id="edge70" class="edge">
<title>fator&#45;&gt;numero</title>
<path fill="none" stroke="#000000" d="M124.3581,-147.0816C127.6927,-138.1845 128.6252,-126.6351 127.1555,-116.2547"/>
<polygon fill="#000000" stroke="#000000" points="130.5419,-115.3637 124.885,-106.4055 123.7208,-116.9361 130.5419,-115.3637"/>
</g>
<!-- expressao_unaria -->
<g id="node6" class="node">
<title>expressao_unaria</title>
<ellipse fill="none" stroke="#000000" cx="107.5799" cy="-234" rx="78.1308" ry="18"/>
<text text-anchor="middle" x="107.5799" y="-229.8" font-family="Times,serif" font-size="14.00" fill="#000000">expressao_unaria</text>
</g>
<!-- expressao_unaria&#45;&gt;fator -->
<g id="edge4" class="edge">
<title>expressao_unaria&#45;&gt;fator</title>
<path fill="none" stroke="#000000" d="M89.8327,-216.2022C87.1829,-207.3947 86.6372,-196.6147 88.1955,-186.9946"/>
<polygon fill="#000000" stroke="#000000" points="91.6239,-187.7149 90.7122,-177.1594 84.8424,-185.9796 91.6239,-187.7149"/>
</g>
<!-- expressao_unaria&#45;&gt;fator -->
<g id="edge26" class="edge">
<title>expressao_unaria&#45;&gt;fator</title>
<path fill="none" stroke="#000000" d="M101.6275,-215.8314C100.8655,-208.0125 100.6495,-198.6923 100.9794,-190.0221"/>
<polygon fill="#000000" stroke="#000000" points="104.4803,-190.1239 101.6526,-179.9134 97.4958,-189.6587 104.4803,-190.1239"/>
</g>
<!-- expressao_unaria&#45;&gt;fator -->
<g id="edge58" class="edge">
<title>expressao_unaria&#45;&gt;fator</title>
<path fill="none" stroke="#000000" d="M113.5323,-215.8314C114.2942,-208.0125 114.5103,-198.6923 114.1803,-190.0221"/>
<polygon fill="#000000" stroke="#000000" points="117.664,-189.6587 113.5072,-179.9134 110.6795,-190.1239 117.664,-189.6587"/>
</g>
<!-- expressao_unaria&#45;&gt;fator -->
<g id="edge71" class="edge">
<title>expressao_unaria&#45;&gt;fator</title>
<path fill="none" stroke="#000000" d="M125.3271,-216.2022C127.9769,-207.3947 128.5226,-196.6147 126.9643,-186.9946"/>
<polygon fill="#000000" stroke="#000000" points="130.3174,-185.9796 124.4475,-177.1594 123.5359,-187.7149 130.3174,-185.9796"/>
</g>
<!-- expressao_multiplicativa -->
<g id="node7" class="node">
<title>expressao_multiplicativa</title>
<ellipse fill="none" stroke="#000000" cx="107.5799" cy="-306" rx="107.6598" ry="18"/>
<text text-anchor="middle" x="107.5799" y="-301.8" font-family="Times,serif" font-size="14.00" fill="#000000">expressao_multiplicativa</text>
</g>
<!-- expressao_multiplicativa&#45;&gt;expressao_unaria -->
<g id="edge5" class="edge">
<title>expressao_multiplicativa&#45;&gt;expressao_unaria</title>
<path fill="none" stroke="#000000" d="M89.8327,-288.2022C87.4194,-280.1807 86.7513,-270.5231 87.8285,-261.5957"/>
<polygon fill="#000000" stroke="#000000" points="91.2994,-262.0943 89.8948,-251.593 84.4441,-260.6782 91.2994,-262.0943"/>
</g>
<!-- expressao_multiplicativa&#45;&gt;expressao_unaria -->
<g id="edge27" class="edge">
<title>expressao_multiplicativa&#45;&gt;expressao_unaria</title>
<path fill="none" stroke="#000000" d="M101.6275,-287.8314C100.8771,-280.131 100.6562,-270.9743 100.9648,-262.4166"/>
<polygon fill="#000000" stroke="#000000" points="104.4591,-262.6161 101.6039,-252.4133 97.4733,-262.1697 104.4591,-262.6161"/>
</g>
<!-- expressao_multiplicativa&#45;&gt;expressao_unaria -->
<g id="edge59" class="edge">
<title>expressao_multiplicativa&#45;&gt;expressao_unaria</title>
<path fill="none" stroke="#000000" d="M113.5323,-287.8314C114.2827,-280.131 114.5036,-270.9743 114.195,-262.4166"/>
<polygon fill="#000000" stroke="#000000" points="117.6864,-262.1697 113.5559,-252.4133 110.7007,-262.6161 117.6864,-262.1697"/>
</g>
<!-- expressao_multiplicativa&#45;&gt;expressao_unaria -->
<g id="edge72" class="edge">
<title>expressao_multiplicativa&#45;&gt;expressao_unaria</title>
<path fill="none" stroke="#000000" d="M125.3271,-288.2022C127.7404,-280.1807 128.4084,-270.5231 127.3312,-261.5957"/>
<polygon fill="#000000" stroke="#000000" points="130.7157,-260.6782 125.265,-251.593 123.8604,-262.0943 130.7157,-260.6782"/>
</g>
<!-- expressao_aditiva -->
<g id="node8" class="node">
<title>expressao_aditiva</title>
<ellipse fill="none" stroke="#000000" cx="107.5799" cy="-378" rx="80.4364" ry="18"/>
<text text-anchor="middle" x="107.5799" y="-373.8" font-family="Times,serif" font-size="14.00" fill="#000000">expressao_aditiva</text>
</g>
<!-- expressao_aditiva&#45;&gt;expressao_multiplicativa -->
<g id="edge6" class="edge">
<title>expressao_aditiva&#45;&gt;expressao_multiplicativa</title>
<path fill="none" stroke="#000000" d="M89.8327,-360.2022C87.4374,-352.2406 86.7614,-342.6671 87.8047,-333.7957"/>
<polygon fill="#000000" stroke="#000000" points="91.2658,-334.3382 89.8193,-323.8425 84.4049,-332.9494 91.2658,-334.3382"/>
</g>
<!-- expressao_aditiva&#45;&gt;expressao_multiplicativa -->
<g id="edge28" class="edge">
<title>expressao_aditiva&#45;&gt;expressao_multiplicativa</title>
<path fill="none" stroke="#000000" d="M101.6275,-359.8314C100.8771,-352.131 100.6562,-342.9743 100.9648,-334.4166"/>
<polygon fill="#000000" stroke="#000000" points="104.4591,-334.6161 101.6039,-324.4133 97.4733,-334.1697 104.4591,-334.6161"/>
</g>
<!-- expressao_aditiva&#45;&gt;expressao_multiplicativa -->
<g id="edge60" class="edge">
<title>expressao_aditiva&#45;&gt;expressao_multiplicativa</title>
<path fill="none" stroke="#000000" d="M113.5323,-359.8314C114.2827,-352.131 114.5036,-342.9743 114.195,-334.4166"/>
<polygon fill="#000000" stroke="#000000" points="117.6864,-334.1697 113.5559,-324.4133 110.7007,-334.6161 117.6864,-334.1697"/>
</g>
<!-- expressao_aditiva&#45;&gt;expressao_multiplicativa -->
<g id="edge73" class="edge">
<title>expressao_aditiva&#45;&gt;expressao_multiplicativa</title>
<path fill="none" stroke="#000000" d="M125.3271,-360.2022C127.7224,-352.2406 128.3984,-342.6671 127.3551,-333.7957"/>
<polygon fill="#000000" stroke="#000000" points="130.7548,-332.9494 125.3405,-323.8425 123.8939,-334.3382 130.7548,-332.9494"/>
</g>
<!-- expressao_simples -->
<g id="node9" class="node">
<title>expressao_simples</title>
<ellipse fill="none" stroke="#000000" cx="107.5799" cy="-450" rx="83.3847" ry="18"/>
<text text-anchor="middle" x="107.5799" y="-445.8" font-family="Times,serif" font-size="14.00" fill="#000000">expressao_simples</text>
</g>
<!-- expressao_simples&#45;&gt;expressao_aditiva -->
<g id="edge7" class="edge">
<title>expressao_simples&#45;&gt;expressao_aditiva</title>
<path fill="none" stroke="#000000" d="M89.8327,-432.2022C87.4194,-424.1807 86.7513,-414.5231 87.8285,-405.5957"/>
<polygon fill="#000000" stroke="#000000" points="91.2994,-406.0943 89.8948,-395.593 84.4441,-404.6782 91.2994,-406.0943"/>
</g>
<!-- expressao_simples&#45;&gt;expressao_aditiva -->
<g id="edge29" class="edge">
<title>expressao_simples&#45;&gt;expressao_aditiva</title>
<path fill="none" stroke="#000000" d="M101.6275,-431.8314C100.8771,-424.131 100.6562,-414.9743 100.9648,-406.4166"/>
<polygon fill="#000000" stroke="#000000" points="104.4591,-406.6161 101.6039,-396.4133 97.4733,-406.1697 104.4591,-406.6161"/>
</g>
<!-- expressao_simples&#45;&gt;expressao_aditiva -->
<g id="edge61" class="edge">
<title>expressao_simples&#45;&gt;expressao_aditiva</title>
<path fill="none" stroke="#000000" d="M113.5323,-431.8314C114.2827,-424.131 114.5036,-414.9743 114.195,-406.4166"/>
<polygon fill="#000000" stroke="#000000" points="117.6864,-406.1697 113.5559,-396.4133 110.7007,-406.6161 117.6864,-406.1697"/>
</g>
<!-- expressao_simples&#45;&gt;expressao_aditiva -->
<g id="edge74" class="edge">
<title>expressao_simples&#45;&gt;expressao_aditiva</title>
<path fill="none" stroke="#000000" d="M125.3271,-432.2022C127.7404,-424.1807 128.4084,-414.5231 127.3312,-405.5957"/>
<polygon fill="#000000" stroke="#000000" points="130.7157,-404.6782 125.265,-395.593 123.8604,-406.0943 130.7157,-404.6782"/>
</g>
<!-- expressao_logica -->
<g id="node10" class="node">
<title>expressao_logica</title>
<ellipse fill="none" stroke="#000000" cx="107.5799" cy="-522" rx="77.5685" ry="18"/>
<text text-anchor="middle" x="107.5799" y="-517.8" font-family="Times,serif" font-size="14.00" fill="#000000">expressao_logica</text>
</g>
<!-- expressao_logica&#45;&gt;expressao_simples -->
<g id="edge8" class="edge">
<title>expressao_logica&#45;&gt;expressao_simples</title>
<path fill="none" stroke="#000000" d="M89.8327,-504.2022C87.4194,-496.1807 86.7513,-486.5231 87.8285,-477.5957"/>
<polygon fill="#000000" stroke="#000000" points="91.2994,-478.0943 89.8948,-467.593 84.4441,-476.6782 91.2994,-478.0943"/>
</g>
<!-- expressao_logica&#45;&gt;expressao_simples -->
<g id="edge30" class="edge">
<title>expressao_logica&#45;&gt;expressao_simples</title>
<path fill="none" stroke="#000000" d="M101.6275,-503.8314C100.8771,-496.131 100.6562,-486.9743 100.9648,-478.4166"/>
<polygon fill="#000000" stroke="#000000" points="104.4591,-478.6161 101.6039,-468.4133 97.4733,-478.1697 104.4591,-478.6161"/>
</g>
<!-- expressao_logica&#45;&gt;expressao_simples -->
<g id="edge62" class="edge">
<title>expressao_logica&#45;&gt;expressao_simples</title>
<path fill="none" stroke="#000000" d="M113.5323,-503.8314C114.2827,-496.131 114.5036,-486.9743 114.195,-478.4166"/>
<polygon fill="#000000" stroke="#000000" points="117.6864,-478.1697 113.5559,-468.4133 110.7007,-478.6161 117.6864,-478.1697"/>
</g>
<!-- expressao_logica&#45;&gt;expressao_simples -->
<g id="edge75" class="edge">
<title>expressao_logica&#45;&gt;expressao_simples</title>
<path fill="none" stroke="#000000" d="M125.3271,-504.2022C127.7404,-496.1807 128.4084,-486.5231 127.3312,-477.5957"/>
<polygon fill="#000000" stroke="#000000" points="130.7157,-476.6782 125.265,-467.593 123.8604,-478.0943 130.7157,-476.6782"/>
</g>
<!-- expressao -->
<g id="node11" class="node">
<title>expressao</title>
<ellipse fill="none" stroke="#000000" cx="228.5799" cy="-594" rx="49.2163" ry="18"/>
<text text-anchor="middle" x="228.5799" y="-589.8" font-family="Times,serif" font-size="14.00" fill="#000000">expressao</text>
</g>
<!-- expressao&#45;&gt;expressao_logica -->
<g id="edge9" class="edge">
<title>expressao&#45;&gt;expressao_logica</title>
<path fill="none" stroke="#000000" d="M192.4029,-581.7862C171.2708,-571.9252 146.2871,-557.7545 128.2245,-545.6841"/>
<polygon fill="#000000" stroke="#000000" points="130.1731,-542.7761 119.9606,-539.9554 126.185,-548.529 130.1731,-542.7761"/>
</g>
<!-- expressao&#45;&gt;expressao_logica -->
<g id="edge31" class="edge">
<title>expressao&#45;&gt;expressao_logica</title>
<path fill="none" stroke="#000000" d="M198.8582,-579.6028C180.8516,-569.6575 158.0037,-556.2217 139.6121,-544.8278"/>
<polygon fill="#000000" stroke="#000000" points="141.315,-541.7646 130.9822,-539.4227 137.5993,-547.6971 141.315,-541.7646"/>
</g>
<!-- expressao&#45;&gt;expressao_logica -->
<g id="edge63" class="edge">
<title>expressao&#45;&gt;expressao_logica</title>
<path fill="none" stroke="#000000" d="M206.8839,-577.6621C191.0419,-567.5615 169.2211,-554.482 150.0198,-543.54"/>
<polygon fill="#000000" stroke="#000000" points="151.5574,-540.3889 141.1282,-538.5225 148.1172,-546.4852 151.5574,-540.3889"/>
</g>
<!-- expressao&#45;&gt;expressao_logica -->
<g id="edge76" class="edge">
<title>expressao&#45;&gt;expressao_logica</title>
<path fill="none" stroke="#000000" d="M216.6712,-576.3868C202.306,-565.9424 180.2201,-552.6756 159.2757,-541.8598"/>
<polygon fill="#000000" stroke="#000000" points="160.5877,-538.602 150.0813,-537.2363 157.4429,-544.8559 160.5877,-538.602"/>
</g>
<!-- atribuicao -->
<g id="node31" class="node">
<title>atribuicao</title>
<ellipse fill="none" stroke="#000000" cx="252.5799" cy="-522" rx="49.7962" ry="18"/>
<text text-anchor="middle" x="252.5799" y="-517.8" font-family="Times,serif" font-size="14.00" fill="#000000">atribuicao</text>
</g>
<!-- expressao&#45;&gt;atribuicao -->
<g id="edge66" class="edge">
<title>expressao&#45;&gt;atribuicao</title>
<path fill="none" stroke="#000000" d="M234.6361,-575.8314C237.2997,-567.8406 240.4859,-558.2819 243.4294,-549.4514"/>
<polygon fill="#000000" stroke="#000000" points="246.7668,-550.5071 246.6087,-539.9134 240.126,-548.2934 246.7668,-550.5071"/>
</g>
<!-- indice -->
<g id="node12" class="node">
<title>indice</title>
<ellipse fill="none" stroke="#000000" cx="362.5799" cy="-666" rx="34.769" ry="18"/>
<text text-anchor="middle" x="362.5799" y="-661.8" font-family="Times,serif" font-size="14.00" fill="#000000">indice</text>
</g>
<!-- indice&#45;&gt;expressao -->
<g id="edge10" class="edge">
<title>indice&#45;&gt;expressao</title>
<path fill="none" stroke="#000000" d="M338.3135,-652.9613C317.9394,-642.0141 288.5171,-626.2051 265.2662,-613.7121"/>
<polygon fill="#000000" stroke="#000000" points="266.8345,-610.5815 256.3689,-608.9314 263.5212,-616.7478 266.8345,-610.5815"/>
</g>
<!-- indice&#45;&gt;a -->
<g id="edge12" class="edge">
<title>indice&#45;&gt;a</title>
<path fill="none" stroke="#000000" d="M385.1497,-651.9305C427.4029,-625.5909 518.3658,-568.8867 564.8937,-539.8823"/>
<polygon fill="#000000" stroke="#000000" points="566.9446,-542.7282 573.5792,-534.4679 563.2415,-536.7879 566.9446,-542.7282"/>
</g>
<!-- var -->
<g id="node13" class="node">
<title>var</title>
<ellipse fill="none" stroke="#000000" cx="415.5799" cy="-450" rx="27" ry="18"/>
<text text-anchor="middle" x="415.5799" y="-445.8" font-family="Times,serif" font-size="14.00" fill="#000000">var</text>
</g>
<!-- var&#45;&gt;expressao -->
<g id="edge65" class="edge">
<title>var&#45;&gt;expressao</title>
<path fill="none" stroke="#000000" d="M399.2915,-464.5766C374.6804,-486.518 329.0376,-526.8636 311.5799,-540 296.078,-551.6647 278.1142,-563.5388 262.8714,-573.1711"/>
<polygon fill="#000000" stroke="#000000" points="260.8715,-570.2937 254.2504,-578.5648 264.5843,-576.228 260.8715,-570.2937"/>
</g>
<!-- var&#45;&gt;indice -->
<g id="edge11" class="edge">
<title>var&#45;&gt;indice</title>
<path fill="none" stroke="#000000" d="M405.006,-466.8833C398.9966,-477.2289 391.8427,-490.9502 387.5799,-504 372.8132,-549.2051 366.6723,-604.4229 364.1881,-637.319"/>
<polygon fill="#000000" stroke="#000000" points="360.6773,-637.3549 363.4786,-647.5726 367.6606,-637.8381 360.6773,-637.3549"/>
</g>
<!-- i -->
<g id="node28" class="node">
<title>i</title>
<ellipse fill="none" stroke="#000000" cx="415.5799" cy="-378" rx="27" ry="18"/>
<text text-anchor="middle" x="415.5799" y="-373.8" font-family="Times,serif" font-size="14.00" fill="#000000">i</text>
</g>
<!-- var&#45;&gt;i -->
<g id="edge46" class="edge">
<title>var&#45;&gt;i</title>
<path fill="none" stroke="#000000" d="M409.6642,-432.2022C408.8597,-424.1807 408.637,-414.5231 408.9961,-405.5957"/>
<polygon fill="#000000" stroke="#000000" points="412.4895,-405.8099 409.6848,-395.593 405.5061,-405.3289 412.4895,-405.8099"/>
</g>
<!-- var&#45;&gt;i -->
<g id="edge55" class="edge">
<title>var&#45;&gt;i</title>
<path fill="none" stroke="#000000" d="M421.4956,-432.2022C422.3,-424.1807 422.5227,-414.5231 422.1637,-405.5957"/>
<polygon fill="#000000" stroke="#000000" points="425.6537,-405.3289 421.4749,-395.593 418.6702,-405.8099 425.6537,-405.3289"/>
</g>
<!-- b -->
<g id="node29" class="node">
<title>b</title>
<ellipse fill="none" stroke="#000000" cx="343.5799" cy="-378" rx="27" ry="18"/>
<text text-anchor="middle" x="343.5799" y="-373.8" font-family="Times,serif" font-size="14.00" fill="#000000">b</text>
</g>
<!-- var&#45;&gt;b -->
<g id="edge47" class="edge">
<title>var&#45;&gt;b</title>
<path fill="none" stroke="#000000" d="M400.3105,-434.7307C390.3829,-424.803 377.2646,-411.6847 366.1435,-400.5637"/>
<polygon fill="#000000" stroke="#000000" points="368.3732,-397.8436 358.8272,-393.2473 363.4234,-402.7933 368.3732,-397.8436"/>
</g>
<!-- lista_variaveis -->
<g id="node15" class="node">
<title>lista_variaveis</title>
<ellipse fill="none" stroke="#000000" cx="463.5799" cy="-522" rx="66.6267" ry="18"/>
<text text-anchor="middle" x="463.5799" y="-517.8" font-family="Times,serif" font-size="14.00" fill="#000000">lista_variaveis</text>
</g>
<!-- lista_variaveis&#45;&gt;var -->
<g id="edge13" class="edge">
<title>lista_variaveis&#45;&gt;var</title>
<path fill="none" stroke="#000000" d="M440.5247,-504.937C433.2335,-496.6409 425.9688,-486.469 420.545,-477.1428"/>
<polygon fill="#000000" stroke="#000000" points="423.5793,-475.3939 415.8019,-468.1992 417.3951,-478.6735 423.5793,-475.3939"/>
</g>
<!-- lista_variaveis&#45;&gt;var -->
<g id="edge48" class="edge">
<title>lista_variaveis&#45;&gt;var</title>
<path fill="none" stroke="#000000" d="M451.7147,-504.2022C445.8482,-495.4025 438.6691,-484.6338 432.26,-475.0202"/>
<polygon fill="#000000" stroke="#000000" points="435.1097,-472.9849 426.6504,-466.6058 429.2853,-476.8678 435.1097,-472.9849"/>
</g>
<!-- lista_variaveis&#45;&gt;var -->
<g id="edge49" class="edge">
<title>lista_variaveis&#45;&gt;var</title>
<path fill="none" stroke="#000000" d="M463.3722,-503.8314C458.6113,-493.7395 450.3639,-481.1464 441.714,-470.6783"/>
<polygon fill="#000000" stroke="#000000" points="444.3173,-468.3386 435.0721,-463.164 439.0725,-472.9746 444.3173,-468.3386"/>
</g>
<!-- lista_variaveis&#45;&gt;lista_variaveis -->
<g id="edge50" class="edge">
<title>lista_variaveis&#45;&gt;lista_variaveis</title>
<path fill="none" stroke="#000000" d="M508.9536,-535.233C530.0023,-536.6766 548.393,-532.2656 548.393,-522 548.393,-513.4186 535.5417,-508.9283 519.0294,-508.5292"/>
<polygon fill="#000000" stroke="#000000" points="518.8682,-505.0319 508.9536,-508.767 519.0334,-512.03 518.8682,-505.0319"/>
</g>
<!-- declaracao_variaveis -->
<g id="node16" class="node">
<title>declaracao_variaveis</title>
<ellipse fill="none" stroke="#000000" cx="507.5799" cy="-666" rx="91.991" ry="18"/>
<text text-anchor="middle" x="507.5799" y="-661.8" font-family="Times,serif" font-size="14.00" fill="#000000">declaracao_variaveis</text>
</g>
<!-- declaracao_variaveis&#45;&gt;tipo -->
<g id="edge14" class="edge">
<title>declaracao_variaveis&#45;&gt;tipo</title>
<path fill="none" stroke="#000000" d="M540.9135,-649.1192C569.9878,-635.9744 611.788,-618.0388 640.9546,-606.2458"/>
<polygon fill="#000000" stroke="#000000" points="642.34,-609.4613 650.3249,-602.4977 639.7403,-602.9619 642.34,-609.4613"/>
</g>
<!-- declaracao_variaveis&#45;&gt;tipo -->
<g id="edge51" class="edge">
<title>declaracao_variaveis&#45;&gt;tipo</title>
<path fill="none" stroke="#000000" d="M550.3626,-650.0209C579.6488,-637.9921 617.6777,-621.5908 643.9748,-609.6443"/>
<polygon fill="#000000" stroke="#000000" points="645.4645,-612.8117 653.0944,-605.4608 642.5458,-606.4492 645.4645,-612.8117"/>
</g>
<!-- declaracao_variaveis&#45;&gt;lista_variaveis -->
<g id="edge15" class="edge">
<title>declaracao_variaveis&#45;&gt;lista_variaveis</title>
<path fill="none" stroke="#000000" d="M497.4524,-648.0535C487.4487,-623.4774 473.6104,-579.1008 466.6848,-550.0974"/>
<polygon fill="#000000" stroke="#000000" points="470.0636,-549.1681 464.466,-540.1727 463.2322,-550.6955 470.0636,-549.1681"/>
</g>
<!-- declaracao_variaveis&#45;&gt;lista_variaveis -->
<g id="edge52" class="edge">
<title>declaracao_variaveis&#45;&gt;lista_variaveis</title>
<path fill="none" stroke="#000000" d="M506.6804,-647.7623C501.591,-622.9846 488.2474,-578.4714 477.4578,-549.5939"/>
<polygon fill="#000000" stroke="#000000" points="480.6492,-548.1435 473.7656,-540.0896 474.1243,-550.6784 480.6492,-548.1435"/>
</g>
<!-- declaracao -->
<g id="node17" class="node">
<title>declaracao</title>
<ellipse fill="none" stroke="#000000" cx="765.5799" cy="-1170" rx="52.1251" ry="18"/>
<text text-anchor="middle" x="765.5799" y="-1165.8" font-family="Times,serif" font-size="14.00" fill="#000000">declaracao</text>
</g>
<!-- declaracao&#45;&gt;declaracao_variaveis -->
<g id="edge16" class="edge">
<title>declaracao&#45;&gt;declaracao_variaveis</title>
<path fill="none" stroke="#000000" d="M715.258,-1164.9611C647.1188,-1157.3037 530.0493,-1140.9385 495.5799,-1116 458.3308,-1089.0504 444.5799,-1071.9758 444.5799,-1026 444.5799,-1026 444.5799,-1026 444.5799,-810 444.5799,-765.9247 469.6589,-720.1433 488.1705,-692.3541"/>
<polygon fill="#000000" stroke="#000000" points="491.1384,-694.2148 493.9098,-683.9888 485.3663,-690.2546 491.1384,-694.2148"/>
</g>
<!-- lista_declaracoes -->
<g id="node18" class="node">
<title>lista_declaracoes</title>
<ellipse fill="none" stroke="#000000" cx="765.5799" cy="-1098" rx="76.9792" ry="18"/>
<text text-anchor="middle" x="765.5799" y="-1093.8" font-family="Times,serif" font-size="14.00" fill="#000000">lista_declaracoes</text>
</g>
<!-- declaracao&#45;&gt;lista_declaracoes -->
<g id="edge42" class="edge">
<title>declaracao&#45;&gt;lista_declaracoes</title>
<path fill="none" stroke="#000000" d="M742.5366,-1153.6621C738.7645,-1145.2525 737.6895,-1134.7781 739.3115,-1125.1915"/>
<polygon fill="#000000" stroke="#000000" points="742.762,-1125.8532 742.13,-1115.2773 736.0288,-1123.939 742.762,-1125.8532"/>
</g>
<!-- declaracao&#45;&gt;lista_declaracoes -->
<g id="edge87" class="edge">
<title>declaracao&#45;&gt;lista_declaracoes</title>
<path fill="none" stroke="#000000" d="M788.6232,-1153.6621C792.3952,-1145.2525 793.4703,-1134.7781 791.8483,-1125.1915"/>
<polygon fill="#000000" stroke="#000000" points="795.131,-1123.939 789.0298,-1115.2773 788.3978,-1125.8532 795.131,-1123.939"/>
</g>
<!-- declaracao_funcao -->
<g id="node27" class="node">
<title>declaracao_funcao</title>
<ellipse fill="none" stroke="#000000" cx="587.5799" cy="-1098" rx="83.3288" ry="18"/>
<text text-anchor="middle" x="587.5799" y="-1093.8" font-family="Times,serif" font-size="14.00" fill="#000000">declaracao_funcao</text>
</g>
<!-- declaracao&#45;&gt;declaracao_funcao -->
<g id="edge40" class="edge">
<title>declaracao&#45;&gt;declaracao_funcao</title>
<path fill="none" stroke="#000000" d="M728.4412,-1157.1278C700.247,-1146.3607 661.5174,-1130.807 631.752,-1118.3543"/>
<polygon fill="#000000" stroke="#000000" points="633.0024,-1115.0832 622.4277,-1114.4301 630.287,-1121.5351 633.0024,-1115.0832"/>
</g>
<!-- declaracao&#45;&gt;declaracao_funcao -->
<g id="edge85" class="edge">
<title>declaracao&#45;&gt;declaracao_funcao</title>
<path fill="none" stroke="#000000" d="M734.7002,-1155.256C708.925,-1144.2673 671.7416,-1129.162 641.161,-1117.2256"/>
<polygon fill="#000000" stroke="#000000" points="642.076,-1113.8263 631.4871,-1113.4707 639.543,-1120.352 642.076,-1113.8263"/>
</g>
<!-- lista_declaracoes&#45;&gt;declaracao -->
<g id="edge17" class="edge">
<title>lista_declaracoes&#45;&gt;declaracao</title>
<path fill="none" stroke="#000000" d="M753.7395,-1115.8425C752.1469,-1123.8102 751.7005,-1133.3854 752.4004,-1142.2542"/>
<polygon fill="#000000" stroke="#000000" points="748.9372,-1142.7628 753.7484,-1152.2022 755.8738,-1141.8228 748.9372,-1142.7628"/>
</g>
<!-- lista_declaracoes&#45;&gt;declaracao -->
<g id="edge41" class="edge">
<title>lista_declaracoes&#45;&gt;declaracao</title>
<path fill="none" stroke="#000000" d="M765.5799,-1116.4133C765.5799,-1124.0593 765.5799,-1133.1084 765.5799,-1141.5726"/>
<polygon fill="#000000" stroke="#000000" points="762.08,-1141.8313 765.5799,-1151.8314 769.08,-1141.8314 762.08,-1141.8313"/>
</g>
<!-- lista_declaracoes&#45;&gt;declaracao -->
<g id="edge86" class="edge">
<title>lista_declaracoes&#45;&gt;declaracao</title>
<path fill="none" stroke="#000000" d="M777.4203,-1115.8425C779.0129,-1123.8102 779.4592,-1133.3854 778.7594,-1142.2542"/>
<polygon fill="#000000" stroke="#000000" points="775.286,-1141.8228 777.4113,-1152.2022 782.2226,-1142.7628 775.286,-1141.8228"/>
</g>
<!-- parametro -->
<g id="node19" class="node">
<title>parametro</title>
<ellipse fill="none" stroke="#000000" cx="547.5799" cy="-810" rx="50.3586" ry="18"/>
<text text-anchor="middle" x="547.5799" y="-805.8" font-family="Times,serif" font-size="14.00" fill="#000000">parametro</text>
</g>
<!-- parametro&#45;&gt;tipo -->
<g id="edge20" class="edge">
<title>parametro&#45;&gt;tipo</title>
<path fill="none" stroke="#000000" d="M557.9728,-792.3238C580.3721,-754.2274 633.2814,-664.2399 659.4225,-619.7795"/>
<polygon fill="#000000" stroke="#000000" points="662.5225,-621.4125 664.5738,-611.0182 656.4882,-617.8646 662.5225,-621.4125"/>
</g>
<!-- parametro&#45;&gt;parametro -->
<g id="edge22" class="edge">
<title>parametro&#45;&gt;parametro</title>
<path fill="none" stroke="#000000" d="M582.3092,-823.0641C599.9452,-824.9719 615.7589,-820.6172 615.7589,-810 615.7589,-801.4565 605.5192,-796.9681 592.33,-796.5347"/>
<polygon fill="#000000" stroke="#000000" points="592.1612,-793.0386 582.3092,-796.9359 592.4412,-800.033 592.1612,-793.0386"/>
</g>
<!-- lista_parametros -->
<g id="node20" class="node">
<title>lista_parametros</title>
<ellipse fill="none" stroke="#000000" cx="547.5799" cy="-882" rx="74.713" ry="18"/>
<text text-anchor="middle" x="547.5799" y="-877.8" font-family="Times,serif" font-size="14.00" fill="#000000">lista_parametros</text>
</g>
<!-- lista_parametros&#45;&gt;parametro -->
<g id="edge23" class="edge">
<title>lista_parametros&#45;&gt;parametro</title>
<path fill="none" stroke="#000000" d="M541.6275,-863.8314C540.8655,-856.0125 540.6495,-846.6923 540.9794,-838.0221"/>
<polygon fill="#000000" stroke="#000000" points="544.4803,-838.1239 541.6526,-827.9134 537.4958,-837.6587 544.4803,-838.1239"/>
</g>
<!-- lista_parametros&#45;&gt;parametro -->
<g id="edge44" class="edge">
<title>lista_parametros&#45;&gt;parametro</title>
<path fill="none" stroke="#000000" d="M553.5323,-863.8314C554.2942,-856.0125 554.5103,-846.6923 554.1803,-838.0221"/>
<polygon fill="#000000" stroke="#000000" points="557.664,-837.6587 553.5072,-827.9134 550.6795,-838.1239 557.664,-837.6587"/>
</g>
<!-- corpo -->
<g id="node24" class="node">
<title>corpo</title>
<ellipse fill="none" stroke="#000000" cx="327.5799" cy="-810" rx="33.0469" ry="18"/>
<text text-anchor="middle" x="327.5799" y="-805.8" font-family="Times,serif" font-size="14.00" fill="#000000">corpo</text>
</g>
<!-- lista_parametros&#45;&gt;corpo -->
<g id="edge37" class="edge">
<title>lista_parametros&#45;&gt;corpo</title>
<path fill="none" stroke="#000000" d="M499.7037,-868.1177C459.0618,-855.3806 401.7151,-836.6125 364.5246,-823.877"/>
<polygon fill="#000000" stroke="#000000" points="365.1949,-820.406 354.6001,-820.455 362.913,-827.0236 365.1949,-820.406"/>
</g>
<!-- lista_parametros&#45;&gt;corpo -->
<g id="edge82" class="edge">
<title>lista_parametros&#45;&gt;corpo</title>
<path fill="none" stroke="#000000" d="M506.8176,-866.8186C466.7679,-853.1642 406.2518,-833.4219 366.7503,-821.1671"/>
<polygon fill="#000000" stroke="#000000" points="367.7727,-817.8199 357.1855,-818.2211 365.7122,-824.5097 367.7727,-817.8199"/>
</g>
<!-- retorna -->
<g id="node22" class="node">
<title>retorna</title>
<ellipse fill="none" stroke="#000000" cx="271.5799" cy="-666" rx="38.2607" ry="18"/>
<text text-anchor="middle" x="271.5799" y="-661.8" font-family="Times,serif" font-size="14.00" fill="#000000">retorna</text>
</g>
<!-- retorna&#45;&gt;expressao -->
<g id="edge32" class="edge">
<title>retorna&#45;&gt;expressao</title>
<path fill="none" stroke="#000000" d="M255.806,-649.3008C249.9083,-640.9508 243.4916,-630.6341 238.2467,-621.1816"/>
<polygon fill="#000000" stroke="#000000" points="241.2244,-619.3254 233.455,-612.1222 235.0366,-622.5983 241.2244,-619.3254"/>
</g>
<!-- retorna&#45;&gt;expressao -->
<g id="edge77" class="edge">
<title>retorna&#45;&gt;expressao</title>
<path fill="none" stroke="#000000" d="M266.6816,-647.8314C262.4532,-639.3707 256.5356,-629.1521 250.5569,-619.9014"/>
<polygon fill="#000000" stroke="#000000" points="253.3402,-617.7678 244.8592,-611.4177 247.5291,-621.6706 253.3402,-617.7678"/>
</g>
<!-- acao -->
<g id="node23" class="node">
<title>acao</title>
<ellipse fill="none" stroke="#000000" cx="327.5799" cy="-738" rx="28.952" ry="18"/>
<text text-anchor="middle" x="327.5799" y="-733.8" font-family="Times,serif" font-size="14.00" fill="#000000">acao</text>
</g>
<!-- acao&#45;&gt;expressao -->
<g id="edge67" class="edge">
<title>acao&#45;&gt;expressao</title>
<path fill="none" stroke="#000000" d="M300.1706,-732.0553C275.5626,-725.1077 240.8805,-710.951 224.5799,-684 213.3793,-665.4813 215.4558,-640.687 219.7287,-621.8121"/>
<polygon fill="#000000" stroke="#000000" points="223.1477,-622.5698 222.2581,-612.0124 216.3699,-620.8203 223.1477,-622.5698"/>
</g>
<!-- acao&#45;&gt;declaracao_variaveis -->
<g id="edge53" class="edge">
<title>acao&#45;&gt;declaracao_variaveis</title>
<path fill="none" stroke="#000000" d="M351.8555,-728.2898C378.7839,-717.5184 422.9729,-699.8428 457.4129,-686.0668"/>
<polygon fill="#000000" stroke="#000000" points="458.8609,-689.2573 466.8458,-682.2936 456.2611,-682.7579 458.8609,-689.2573"/>
</g>
<!-- acao&#45;&gt;retorna -->
<g id="edge33" class="edge">
<title>acao&#45;&gt;retorna</title>
<path fill="none" stroke="#000000" d="M310.6988,-723.4297C302.6125,-714.5053 293.1961,-702.8183 285.5215,-692.3183"/>
<polygon fill="#000000" stroke="#000000" points="288.1791,-690.0142 279.5519,-683.8642 282.461,-694.0519 288.1791,-690.0142"/>
</g>
<!-- acao&#45;&gt;retorna -->
<g id="edge78" class="edge">
<title>acao&#45;&gt;retorna</title>
<path fill="none" stroke="#000000" d="M319.9021,-720.5708C313.699,-711.3758 304.9905,-699.9548 296.6024,-689.9413"/>
<polygon fill="#000000" stroke="#000000" points="299.1788,-687.5696 289.9979,-682.2817 293.8774,-692.1407 299.1788,-687.5696"/>
</g>
<!-- corpo&#45;&gt;acao -->
<g id="edge34" class="edge">
<title>corpo&#45;&gt;acao</title>
<path fill="none" stroke="#000000" d="M310.5446,-794.3771C307.2831,-785.1954 306.5033,-773.3769 308.2053,-762.9343"/>
<polygon fill="#000000" stroke="#000000" points="311.6336,-763.6557 310.7345,-753.099 304.8541,-761.9122 311.6336,-763.6557"/>
</g>
<!-- corpo&#45;&gt;acao -->
<g id="edge54" class="edge">
<title>corpo&#45;&gt;acao</title>
<path fill="none" stroke="#000000" d="M321.6642,-792.2022C320.8744,-784.3271 320.6454,-774.875 320.977,-766.0852"/>
<polygon fill="#000000" stroke="#000000" points="324.4868,-766.0532 321.6597,-755.8425 317.5023,-765.5876 324.4868,-766.0532"/>
</g>
<!-- corpo&#45;&gt;acao -->
<g id="edge68" class="edge">
<title>corpo&#45;&gt;acao</title>
<path fill="none" stroke="#000000" d="M333.4956,-792.2022C334.2854,-784.3271 334.5144,-774.875 334.1827,-766.0852"/>
<polygon fill="#000000" stroke="#000000" points="337.6574,-765.5876 333.5001,-755.8425 330.6729,-766.0532 337.6574,-765.5876"/>
</g>
<!-- corpo&#45;&gt;acao -->
<g id="edge79" class="edge">
<title>corpo&#45;&gt;acao</title>
<path fill="none" stroke="#000000" d="M344.6151,-794.3771C347.8767,-785.1954 348.6564,-773.3769 346.9545,-762.9343"/>
<polygon fill="#000000" stroke="#000000" points="350.3056,-761.9122 344.4253,-753.099 343.5262,-763.6557 350.3056,-761.9122"/>
</g>
<!-- cabecalho -->
<g id="node25" class="node">
<title>cabecalho</title>
<ellipse fill="none" stroke="#000000" cx="587.5799" cy="-1026" rx="49.7787" ry="18"/>
<text text-anchor="middle" x="587.5799" y="-1021.8" font-family="Times,serif" font-size="14.00" fill="#000000">cabecalho</text>
</g>
<!-- func -->
<g id="node26" class="node">
<title>func</title>
<ellipse fill="none" stroke="#000000" cx="609.5799" cy="-954" rx="28.3913" ry="18"/>
<text text-anchor="middle" x="609.5799" y="-949.8" font-family="Times,serif" font-size="14.00" fill="#000000">func</text>
</g>
<!-- cabecalho&#45;&gt;func -->
<g id="edge35" class="edge">
<title>cabecalho&#45;&gt;func</title>
<path fill="none" stroke="#000000" d="M593.1314,-1007.8314C595.5468,-999.9266 598.431,-990.4872 601.1048,-981.7365"/>
<polygon fill="#000000" stroke="#000000" points="604.5313,-982.4997 604.1063,-971.9134 597.8369,-980.4541 604.5313,-982.4997"/>
</g>
<!-- principal -->
<g id="node32" class="node">
<title>principal</title>
<ellipse fill="none" stroke="#000000" cx="517.5799" cy="-954" rx="45.2227" ry="18"/>
<text text-anchor="middle" x="517.5799" y="-949.8" font-family="Times,serif" font-size="14.00" fill="#000000">principal</text>
</g>
<!-- cabecalho&#45;&gt;principal -->
<g id="edge80" class="edge">
<title>cabecalho&#45;&gt;principal</title>
<path fill="none" stroke="#000000" d="M570.9909,-1008.937C562.0989,-999.791 550.9905,-988.3652 541.2108,-978.3061"/>
<polygon fill="#000000" stroke="#000000" points="543.5301,-975.6707 534.0498,-970.9405 538.5111,-980.5503 543.5301,-975.6707"/>
</g>
<!-- func&#45;&gt;lista_parametros -->
<g id="edge36" class="edge">
<title>func&#45;&gt;lista_parametros</title>
<path fill="none" stroke="#000000" d="M595.8201,-938.0209C588.107,-929.0637 578.3061,-917.682 569.5559,-907.5206"/>
<polygon fill="#000000" stroke="#000000" points="572.0012,-904.9964 562.8237,-899.7025 566.6968,-909.5641 572.0012,-904.9964"/>
</g>
<!-- declaracao_funcao&#45;&gt;tipo -->
<g id="edge38" class="edge">
<title>declaracao_funcao&#45;&gt;tipo</title>
<path fill="none" stroke="#000000" d="M604.4814,-1080.1429C615.3527,-1070.5996 628.7241,-1057.9504 637.5799,-1044 660.0309,-1008.6331 665.5799,-995.8911 665.5799,-954 665.5799,-954 665.5799,-954 665.5799,-738 665.5799,-697.6543 665.5799,-650.9501 667.8346,-621.9378"/>
<polygon fill="#000000" stroke="#000000" points="671.3424,-622.0237 668.8139,-611.735 664.3744,-621.3548 671.3424,-622.0237"/>
</g>
<!-- declaracao_funcao&#45;&gt;tipo -->
<g id="edge83" class="edge">
<title>declaracao_funcao&#45;&gt;tipo</title>
<path fill="none" stroke="#000000" d="M619.0792,-1081.3293C632.2211,-1071.6603 646.352,-1058.5366 655.5799,-1044 678.0309,-1008.6331 683.5799,-995.8911 683.5799,-954 683.5799,-954 683.5799,-954 683.5799,-738 683.5799,-697.6543 683.5799,-650.9501 681.3252,-621.9378"/>
<polygon fill="#000000" stroke="#000000" points="684.7854,-621.3548 680.3459,-611.735 677.8174,-622.0237 684.7854,-621.3548"/>
</g>
<!-- declaracao_funcao&#45;&gt;cabecalho -->
<g id="edge39" class="edge">
<title>declaracao_funcao&#45;&gt;cabecalho</title>
<path fill="none" stroke="#000000" d="M581.6275,-1079.8314C580.8655,-1072.0125 580.6495,-1062.6923 580.9794,-1054.0221"/>
<polygon fill="#000000" stroke="#000000" points="584.4803,-1054.1239 581.6526,-1043.9134 577.4958,-1053.6587 584.4803,-1054.1239"/>
</g>
<!-- declaracao_funcao&#45;&gt;cabecalho -->
<g id="edge84" class="edge">
<title>declaracao_funcao&#45;&gt;cabecalho</title>
<path fill="none" stroke="#000000" d="M593.5323,-1079.8314C594.2942,-1072.0125 594.5103,-1062.6923 594.1803,-1054.0221"/>
<polygon fill="#000000" stroke="#000000" points="597.664,-1053.6587 593.5072,-1043.9134 590.6795,-1054.1239 597.664,-1053.6587"/>
</g>
<!-- atribuicao&#45;&gt;var -->
<g id="edge64" class="edge">
<title>atribuicao&#45;&gt;var</title>
<path fill="none" stroke="#000000" d="M284.3949,-507.9468C313.029,-495.2985 354.8949,-476.8057 383.5844,-464.133"/>
<polygon fill="#000000" stroke="#000000" points="385.0375,-467.3174 392.7706,-460.0752 382.2091,-460.9143 385.0375,-467.3174"/>
</g>
<!-- principal&#45;&gt;lista_parametros -->
<g id="edge81" class="edge">
<title>principal&#45;&gt;lista_parametros</title>
<path fill="none" stroke="#000000" d="M524.9956,-936.2022C528.3596,-928.1287 532.4142,-918.3976 536.154,-909.422"/>
<polygon fill="#000000" stroke="#000000" points="539.4256,-910.6701 540.0411,-900.0931 532.9641,-907.9777 539.4256,-910.6701"/>
</g>
<!-- programa -->
<g id="node33" class="node">
<title>programa</title>
<ellipse fill="none" stroke="#000000" cx="883.5799" cy="-1170" rx="48.0742" ry="18"/>
<text text-anchor="middle" x="883.5799" y="-1165.8" font-family="Times,serif" font-size="14.00" fill="#000000">programa</text>
</g>
<!-- programa&#45;&gt;lista_declaracoes -->
<g id="edge88" class="edge">
<title>programa&#45;&gt;lista_declaracoes</title>
<path fill="none" stroke="#000000" d="M858.2659,-1154.5542C841.8546,-1144.5405 820.2138,-1131.336 801.9709,-1120.2047"/>
<polygon fill="#000000" stroke="#000000" points="803.6855,-1117.1508 793.326,-1114.9298 800.0394,-1123.1263 803.6855,-1117.1508"/>
</g>
</g>
</svg>
