<?xml version="1.0" encoding="UTF-8" standalone="no"?>
<!DOCTYPE svg PUBLIC "-//W3C//DTD SVG 1.1//EN"
 "http://www.w3.org/Graphics/SVG/1.1/DTD/svg11.dtd">
<!-- Generated by graphviz version 2.40.1 (20161225.0304)
 -->
<!-- Title: G Pages: 1 -->
<svg width="693pt" height="1124pt"
 viewBox="0.00 0.00 692.89 1124.00" xmlns="http://www.w3.org/2000/svg" xmlns:xlink="http://www.w3.org/1999/xlink">
<g id="graph0" class="graph" transform="scale(1 1) rotate(0) translate(4 1120)">
<title>G</title>
<polygon fill="#ffffff" stroke="transparent" points="-4,4 -4,-1120 688.8934,-1120 688.8934,4 -4,4"/>
<!-- tipo -->
<g id="node1" class="node">
<title>tipo</title>
<ellipse fill="none" stroke="#000000" cx="280.8564" cy="-954" rx="27" ry="18"/>
<text text-anchor="middle" x="280.8564" y="-949.8" font-family="Times,serif" font-size="14.00" fill="#000000">tipo</text>
</g>
<!-- flutuante -->
<g id="node2" class="node">
<title>flutuante</title>
<ellipse fill="none" stroke="#000000" cx="180.8564" cy="-882" rx="45.2227" ry="18"/>
<text text-anchor="middle" x="180.8564" y="-877.8" font-family="Times,serif" font-size="14.00" fill="#000000">flutuante</text>
</g>
<!-- tipo&#45;&gt;flutuante -->
<g id="edge1" class="edge">
<title>tipo&#45;&gt;flutuante</title>
<path fill="none" stroke="#000000" d="M262.0471,-940.4574C247.7861,-930.1894 227.8887,-915.8633 211.3609,-903.9633"/>
<polygon fill="#000000" stroke="#000000" points="213.2333,-900.9986 203.0729,-897.9959 209.1432,-906.6794 213.2333,-900.9986"/>
</g>
<!-- inteiro -->
<g id="node9" class="node">
<title>inteiro</title>
<ellipse fill="none" stroke="#000000" cx="280.8564" cy="-882" rx="36.4936" ry="18"/>
<text text-anchor="middle" x="280.8564" y="-877.8" font-family="Times,serif" font-size="14.00" fill="#000000">inteiro</text>
</g>
<!-- tipo&#45;&gt;inteiro -->
<g id="edge8" class="edge">
<title>tipo&#45;&gt;inteiro</title>
<path fill="none" stroke="#000000" d="M274.9406,-936.2022C274.1509,-928.3271 273.9218,-918.875 274.2535,-910.0852"/>
<polygon fill="#000000" stroke="#000000" points="277.7633,-910.0532 274.9361,-899.8425 270.7788,-909.5876 277.7633,-910.0532"/>
</g>
<!-- tipo&#45;&gt;inteiro -->
<g id="edge16" class="edge">
<title>tipo&#45;&gt;inteiro</title>
<path fill="none" stroke="#000000" d="M286.7721,-936.2022C287.5618,-928.3271 287.7909,-918.875 287.4592,-910.0852"/>
<polygon fill="#000000" stroke="#000000" points="290.9339,-909.5876 286.7766,-899.8425 283.9494,-910.0532 290.9339,-909.5876"/>
</g>
<!-- var -->
<g id="node3" class="node">
<title>var</title>
<ellipse fill="none" stroke="#000000" cx="353.8564" cy="-666" rx="27" ry="18"/>
<text text-anchor="middle" x="353.8564" y="-661.8" font-family="Times,serif" font-size="14.00" fill="#000000">var</text>
</g>
<!-- a -->
<g id="node4" class="node">
<title>a</title>
<ellipse fill="none" stroke="#000000" cx="491.8564" cy="-594" rx="27" ry="18"/>
<text text-anchor="middle" x="491.8564" y="-589.8" font-family="Times,serif" font-size="14.00" fill="#000000">a</text>
</g>
<!-- var&#45;&gt;a -->
<g id="edge2" class="edge">
<title>var&#45;&gt;a</title>
<path fill="none" stroke="#000000" d="M367.0431,-650.1993C388.8283,-636.2898 427.6682,-616.4321 457.1159,-604.4245"/>
<polygon fill="#000000" stroke="#000000" points="458.6668,-607.5761 466.7043,-600.6732 456.1164,-601.0572 458.6668,-607.5761"/>
</g>
<!-- var&#45;&gt;a -->
<g id="edge32" class="edge">
<title>var&#45;&gt;a</title>
<path fill="none" stroke="#000000" d="M373.2121,-653.1278C395.7597,-640.3915 432.9606,-620.9577 459.7928,-607.8812"/>
<polygon fill="#000000" stroke="#000000" points="461.3166,-611.0322 468.8102,-603.5425 458.2815,-604.7244 461.3166,-611.0322"/>
</g>
<!-- var&#45;&gt;a -->
<g id="edge46" class="edge">
<title>var&#45;&gt;a</title>
<path fill="none" stroke="#000000" d="M376.9417,-656.439C400.9418,-645.06 438.1877,-625.8267 463.8249,-611.7068"/>
<polygon fill="#000000" stroke="#000000" points="465.6685,-614.6862 472.699,-606.7601 462.2602,-608.572 465.6685,-614.6862"/>
</g>
<!-- var&#45;&gt;a -->
<g id="edge61" class="edge">
<title>var&#45;&gt;a</title>
<path fill="none" stroke="#000000" d="M379.2775,-659.2264C405.966,-649.2495 444.6061,-630.1694 469.8483,-615.2118"/>
<polygon fill="#000000" stroke="#000000" points="471.798,-618.122 478.495,-609.9121 468.14,-612.1538 471.798,-618.122"/>
</g>
<!-- b -->
<g id="node10" class="node">
<title>b</title>
<ellipse fill="none" stroke="#000000" cx="271.8564" cy="-594" rx="27" ry="18"/>
<text text-anchor="middle" x="271.8564" y="-589.8" font-family="Times,serif" font-size="14.00" fill="#000000">b</text>
</g>
<!-- var&#45;&gt;b -->
<g id="edge9" class="edge">
<title>var&#45;&gt;b</title>
<path fill="none" stroke="#000000" d="M329.9588,-657.1714C313.5323,-647.8171 294.3427,-632.6112 281.3966,-619.4622"/>
<polygon fill="#000000" stroke="#000000" points="283.9042,-617.0182 274.5637,-612.0177 278.7472,-621.7516 283.9042,-617.0182"/>
</g>
<!-- var&#45;&gt;b -->
<g id="edge18" class="edge">
<title>var&#45;&gt;b</title>
<path fill="none" stroke="#000000" d="M334.3062,-653.4586C321.4892,-643.5157 304.9838,-629.3444 292.0635,-617.3306"/>
<polygon fill="#000000" stroke="#000000" points="294.2065,-614.5388 284.547,-610.1862 289.3839,-619.6125 294.2065,-614.5388"/>
</g>
<!-- var&#45;&gt;b -->
<g id="edge47" class="edge">
<title>var&#45;&gt;b</title>
<path fill="none" stroke="#000000" d="M341.3779,-650.0209C330.1753,-639.0771 313.6925,-624.5139 299.5004,-612.9791"/>
<polygon fill="#000000" stroke="#000000" points="301.471,-610.0743 291.4662,-606.5878 297.113,-615.5524 301.471,-610.0743"/>
</g>
<!-- var&#45;&gt;b -->
<g id="edge60" class="edge">
<title>var&#45;&gt;b</title>
<path fill="none" stroke="#000000" d="M351.0215,-647.8314C340.6308,-635.5569 321.9899,-619.5825 304.5782,-608.2315"/>
<polygon fill="#000000" stroke="#000000" points="305.9923,-604.9936 295.6353,-602.7611 302.3396,-610.965 305.9923,-604.9936"/>
</g>
<!-- expressao -->
<g id="node21" class="node">
<title>expressao</title>
<ellipse fill="none" stroke="#000000" cx="177.8564" cy="-594" rx="49.2163" ry="18"/>
<text text-anchor="middle" x="177.8564" y="-589.8" font-family="Times,serif" font-size="14.00" fill="#000000">expressao</text>
</g>
<!-- var&#45;&gt;expressao -->
<g id="edge28" class="edge">
<title>var&#45;&gt;expressao</title>
<path fill="none" stroke="#000000" d="M328.1185,-660.2296C295.7448,-650.408 243.5641,-629.992 209.2848,-614.4079"/>
<polygon fill="#000000" stroke="#000000" points="210.6662,-611.1905 200.1223,-610.1533 207.7181,-617.5394 210.6662,-611.1905"/>
</g>
<!-- var&#45;&gt;expressao -->
<g id="edge42" class="edge">
<title>var&#45;&gt;expressao</title>
<path fill="none" stroke="#000000" d="M329.5457,-657.8806C300.3455,-646.9217 251.342,-627.081 216.8806,-612.409"/>
<polygon fill="#000000" stroke="#000000" points="218.1449,-609.143 207.5748,-608.4195 215.3867,-615.5767 218.1449,-609.143"/>
</g>
<!-- var&#45;&gt;expressao -->
<g id="edge56" class="edge">
<title>var&#45;&gt;expressao</title>
<path fill="none" stroke="#000000" d="M332.1351,-655.0647C304.9949,-643.1265 258.2117,-623.8876 223.1925,-610.1964"/>
<polygon fill="#000000" stroke="#000000" points="224.2422,-606.8495 213.6534,-606.4926 221.7085,-613.3749 224.2422,-606.8495"/>
</g>
<!-- var&#45;&gt;expressao -->
<g id="edge70" class="edge">
<title>var&#45;&gt;expressao</title>
<path fill="none" stroke="#000000" d="M336.2958,-652.1177C310.2184,-639.3261 264.0586,-620.452 227.685,-607.7141"/>
<polygon fill="#000000" stroke="#000000" points="228.7842,-604.391 218.1895,-604.455 226.5117,-611.0119 228.7842,-604.391"/>
</g>
<!-- lista_variaveis -->
<g id="node5" class="node">
<title>lista_variaveis</title>
<ellipse fill="none" stroke="#000000" cx="353.8564" cy="-810" rx="66.6267" ry="18"/>
<text text-anchor="middle" x="353.8564" y="-805.8" font-family="Times,serif" font-size="14.00" fill="#000000">lista_variaveis</text>
</g>
<!-- lista_variaveis&#45;&gt;var -->
<g id="edge3" class="edge">
<title>lista_variaveis&#45;&gt;var</title>
<path fill="none" stroke="#000000" d="M349.1832,-791.7623C346.7234,-767.201 346.4486,-723.2474 348.3589,-694.3541"/>
<polygon fill="#000000" stroke="#000000" points="351.8715,-694.3416 349.1981,-684.0896 344.8948,-693.7712 351.8715,-694.3416"/>
</g>
<!-- lista_variaveis&#45;&gt;var -->
<g id="edge10" class="edge">
<title>lista_variaveis&#45;&gt;var</title>
<path fill="none" stroke="#000000" d="M358.5295,-791.7623C360.9893,-767.201 361.2641,-723.2474 359.3538,-694.3541"/>
<polygon fill="#000000" stroke="#000000" points="362.8179,-693.7712 358.5146,-684.0896 355.8412,-694.3416 362.8179,-693.7712"/>
</g>
<!-- declaracao_variaveis -->
<g id="node6" class="node">
<title>declaracao_variaveis</title>
<ellipse fill="none" stroke="#000000" cx="331.8564" cy="-1026" rx="91.991" ry="18"/>
<text text-anchor="middle" x="331.8564" y="-1021.8" font-family="Times,serif" font-size="14.00" fill="#000000">declaracao_variaveis</text>
</g>
<!-- declaracao_variaveis&#45;&gt;tipo -->
<g id="edge4" class="edge">
<title>declaracao_variaveis&#45;&gt;tipo</title>
<path fill="none" stroke="#000000" d="M313.3339,-1008.2022C306.495,-999.7448 299.0145,-989.4685 292.8571,-980.147"/>
<polygon fill="#000000" stroke="#000000" points="295.7395,-978.1571 287.4231,-971.593 289.8309,-981.9106 295.7395,-978.1571"/>
</g>
<!-- declaracao_variaveis&#45;&gt;tipo -->
<g id="edge11" class="edge">
<title>declaracao_variaveis&#45;&gt;tipo</title>
<path fill="none" stroke="#000000" d="M324.9393,-1007.8314C319.2133,-998.4581 311.1745,-986.9272 303.4481,-976.9452"/>
<polygon fill="#000000" stroke="#000000" points="306.0725,-974.6229 297.0892,-969.0059 300.6089,-978.999 306.0725,-974.6229"/>
</g>
<!-- declaracao_variaveis&#45;&gt;lista_variaveis -->
<g id="edge5" class="edge">
<title>declaracao_variaveis&#45;&gt;lista_variaveis</title>
<path fill="none" stroke="#000000" d="M329.7483,-1007.9555C330.1237,-970.3144 338.7385,-883.1867 346.268,-838.1246"/>
<polygon fill="#000000" stroke="#000000" points="349.7375,-838.6051 348.0531,-828.1451 342.8469,-837.3725 349.7375,-838.6051"/>
</g>
<!-- declaracao_variaveis&#45;&gt;lista_variaveis -->
<g id="edge12" class="edge">
<title>declaracao_variaveis&#45;&gt;lista_variaveis</title>
<path fill="none" stroke="#000000" d="M337.6401,-1007.9555C344.917,-970.3938 354.0273,-883.5541 355.7051,-838.4103"/>
<polygon fill="#000000" stroke="#000000" points="359.2107,-838.23 355.9634,-828.1451 352.2129,-838.0538 359.2107,-838.23"/>
</g>
<!-- declaracao -->
<g id="node7" class="node">
<title>declaracao</title>
<ellipse fill="none" stroke="#000000" cx="518.8564" cy="-1098" rx="52.1251" ry="18"/>
<text text-anchor="middle" x="518.8564" y="-1093.8" font-family="Times,serif" font-size="14.00" fill="#000000">declaracao</text>
</g>
<!-- declaracao&#45;&gt;declaracao_variaveis -->
<g id="edge6" class="edge">
<title>declaracao&#45;&gt;declaracao_variaveis</title>
<path fill="none" stroke="#000000" d="M481.0166,-1085.4586C451.4235,-1074.6873 410.2647,-1058.9534 378.6279,-1046.3762"/>
<polygon fill="#000000" stroke="#000000" points="379.7234,-1043.0449 369.1386,-1042.5832 377.1252,-1049.5448 379.7234,-1043.0449"/>
</g>
<!-- declaracao&#45;&gt;declaracao_variaveis -->
<g id="edge13" class="edge">
<title>declaracao&#45;&gt;declaracao_variaveis</title>
<path fill="none" stroke="#000000" d="M486.9899,-1083.6028C459.7127,-1072.5469 419.9658,-1057.1774 387.4894,-1045.0949"/>
<polygon fill="#000000" stroke="#000000" points="388.6966,-1041.8097 378.1035,-1041.6202 386.2663,-1048.3743 388.6966,-1041.8097"/>
</g>
<!-- lista_declaracoes -->
<g id="node8" class="node">
<title>lista_declaracoes</title>
<ellipse fill="none" stroke="#000000" cx="518.8564" cy="-1026" rx="76.9792" ry="18"/>
<text text-anchor="middle" x="518.8564" y="-1021.8" font-family="Times,serif" font-size="14.00" fill="#000000">lista_declaracoes</text>
</g>
<!-- declaracao&#45;&gt;lista_declaracoes -->
<g id="edge15" class="edge">
<title>declaracao&#45;&gt;lista_declaracoes</title>
<path fill="none" stroke="#000000" d="M495.8131,-1081.6621C492.041,-1073.2525 490.966,-1062.7781 492.5879,-1053.1915"/>
<polygon fill="#000000" stroke="#000000" points="496.0384,-1053.8532 495.4065,-1043.2773 489.3052,-1051.939 496.0384,-1053.8532"/>
</g>
<!-- declaracao&#45;&gt;lista_declaracoes -->
<g id="edge81" class="edge">
<title>declaracao&#45;&gt;lista_declaracoes</title>
<path fill="none" stroke="#000000" d="M541.8996,-1081.6621C545.6717,-1073.2525 546.7467,-1062.7781 545.1248,-1053.1915"/>
<polygon fill="#000000" stroke="#000000" points="548.4075,-1051.939 542.3062,-1043.2773 541.6743,-1053.8532 548.4075,-1051.939"/>
</g>
<!-- declaracao_funcao -->
<g id="node28" class="node">
<title>declaracao_funcao</title>
<ellipse fill="none" stroke="#000000" cx="138.8564" cy="-1026" rx="83.3288" ry="18"/>
<text text-anchor="middle" x="138.8564" y="-1021.8" font-family="Times,serif" font-size="14.00" fill="#000000">declaracao_funcao</text>
</g>
<!-- declaracao&#45;&gt;declaracao_funcao -->
<g id="edge79" class="edge">
<title>declaracao&#45;&gt;declaracao_funcao</title>
<path fill="none" stroke="#000000" d="M472.4461,-1089.4142C415.5084,-1078.854 316.0429,-1060.3194 230.8564,-1044 224.3053,-1042.745 217.4938,-1041.4305 210.6731,-1040.1077"/>
<polygon fill="#000000" stroke="#000000" points="211.187,-1036.6421 200.7029,-1038.1696 209.8513,-1043.5135 211.187,-1036.6421"/>
</g>
<!-- lista_declaracoes&#45;&gt;declaracao -->
<g id="edge7" class="edge">
<title>lista_declaracoes&#45;&gt;declaracao</title>
<path fill="none" stroke="#000000" d="M507.0159,-1043.8425C505.4234,-1051.8102 504.977,-1061.3854 505.6768,-1070.2542"/>
<polygon fill="#000000" stroke="#000000" points="502.2137,-1070.7628 507.0249,-1080.2022 509.1503,-1069.8228 502.2137,-1070.7628"/>
</g>
<!-- lista_declaracoes&#45;&gt;declaracao -->
<g id="edge14" class="edge">
<title>lista_declaracoes&#45;&gt;declaracao</title>
<path fill="none" stroke="#000000" d="M518.8564,-1044.4133C518.8564,-1052.0593 518.8564,-1061.1084 518.8564,-1069.5726"/>
<polygon fill="#000000" stroke="#000000" points="515.3565,-1069.8313 518.8564,-1079.8314 522.3565,-1069.8314 515.3565,-1069.8313"/>
</g>
<!-- lista_declaracoes&#45;&gt;declaracao -->
<g id="edge80" class="edge">
<title>lista_declaracoes&#45;&gt;declaracao</title>
<path fill="none" stroke="#000000" d="M530.6968,-1043.8425C532.2894,-1051.8102 532.7357,-1061.3854 532.0359,-1070.2542"/>
<polygon fill="#000000" stroke="#000000" points="528.5624,-1069.8228 530.6878,-1080.2022 535.499,-1070.7628 528.5624,-1069.8228"/>
</g>
<!-- lista_parametros -->
<g id="node11" class="node">
<title>lista_parametros</title>
<ellipse fill="none" stroke="#000000" cx="74.8564" cy="-810" rx="74.713" ry="18"/>
<text text-anchor="middle" x="74.8564" y="-805.8" font-family="Times,serif" font-size="14.00" fill="#000000">lista_parametros</text>
</g>
<!-- parametro -->
<g id="node12" class="node">
<title>parametro</title>
<ellipse fill="none" stroke="#000000" cx="74.8564" cy="-738" rx="50.3586" ry="18"/>
<text text-anchor="middle" x="74.8564" y="-733.8" font-family="Times,serif" font-size="14.00" fill="#000000">parametro</text>
</g>
<!-- lista_parametros&#45;&gt;parametro -->
<g id="edge17" class="edge">
<title>lista_parametros&#45;&gt;parametro</title>
<path fill="none" stroke="#000000" d="M74.8564,-791.8314C74.8564,-784.131 74.8564,-774.9743 74.8564,-766.4166"/>
<polygon fill="#000000" stroke="#000000" points="78.3565,-766.4132 74.8564,-756.4133 71.3565,-766.4133 78.3565,-766.4132"/>
</g>
<!-- corpo -->
<g id="node24" class="node">
<title>corpo</title>
<ellipse fill="none" stroke="#000000" cx="177.8564" cy="-738" rx="33.0469" ry="18"/>
<text text-anchor="middle" x="177.8564" y="-733.8" font-family="Times,serif" font-size="14.00" fill="#000000">corpo</text>
</g>
<!-- lista_parametros&#45;&gt;corpo -->
<g id="edge76" class="edge">
<title>lista_parametros&#45;&gt;corpo</title>
<path fill="none" stroke="#000000" d="M99.2659,-792.937C114.2237,-782.481 133.4439,-769.0456 149.1326,-758.0788"/>
<polygon fill="#000000" stroke="#000000" points="151.2449,-760.8726 157.4357,-752.2746 147.2344,-755.1353 151.2449,-760.8726"/>
</g>
<!-- numero -->
<g id="node13" class="node">
<title>numero</title>
<ellipse fill="none" stroke="#000000" cx="177.8564" cy="-90" rx="40.5712" ry="18"/>
<text text-anchor="middle" x="177.8564" y="-85.8" font-family="Times,serif" font-size="14.00" fill="#000000">numero</text>
</g>
<!-- 18 -->
<g id="node14" class="node">
<title>18</title>
<ellipse fill="none" stroke="#000000" cx="141.8564" cy="-18" rx="27" ry="18"/>
<text text-anchor="middle" x="141.8564" y="-13.8" font-family="Times,serif" font-size="14.00" fill="#000000">18</text>
</g>
<!-- numero&#45;&gt;18 -->
<g id="edge19" class="edge">
<title>numero&#45;&gt;18</title>
<path fill="none" stroke="#000000" d="M168.9575,-72.2022C164.7541,-63.7955 159.6522,-53.5917 155.0138,-44.3149"/>
<polygon fill="#000000" stroke="#000000" points="158.0077,-42.4762 150.405,-35.0972 151.7467,-45.6068 158.0077,-42.4762"/>
</g>
<!-- 1.0 -->
<g id="node25" class="node">
<title>1.0</title>
<ellipse fill="none" stroke="#000000" cx="213.8564" cy="-18" rx="27" ry="18"/>
<text text-anchor="middle" x="213.8564" y="-13.8" font-family="Times,serif" font-size="14.00" fill="#000000">1.0</text>
</g>
<!-- numero&#45;&gt;1.0 -->
<g id="edge33" class="edge">
<title>numero&#45;&gt;1.0</title>
<path fill="none" stroke="#000000" d="M186.7552,-72.2022C190.9586,-63.7955 196.0605,-53.5917 200.6989,-44.3149"/>
<polygon fill="#000000" stroke="#000000" points="203.9661,-45.6068 205.3077,-35.0972 197.7051,-42.4762 203.9661,-45.6068"/>
</g>
<!-- fator -->
<g id="node15" class="node">
<title>fator</title>
<ellipse fill="none" stroke="#000000" cx="177.8564" cy="-162" rx="29.0318" ry="18"/>
<text text-anchor="middle" x="177.8564" y="-157.8" font-family="Times,serif" font-size="14.00" fill="#000000">fator</text>
</g>
<!-- fator&#45;&gt;var -->
<g id="edge48" class="edge">
<title>fator&#45;&gt;var</title>
<path fill="none" stroke="#000000" d="M206.6738,-165.6971C270.8118,-175.2441 418.8564,-207.3268 418.8564,-306 418.8564,-522 418.8564,-522 418.8564,-522 418.8564,-567.6533 389.0684,-613.3419 369.5896,-640.6438"/>
<polygon fill="#000000" stroke="#000000" points="366.69,-638.6808 363.6784,-648.8386 372.3672,-642.776 366.69,-638.6808"/>
</g>
<!-- fator&#45;&gt;var -->
<g id="edge62" class="edge">
<title>fator&#45;&gt;var</title>
<path fill="none" stroke="#000000" d="M207.0518,-164.5256C274.9759,-172.4517 436.8564,-202.8189 436.8564,-306 436.8564,-522 436.8564,-522 436.8564,-522 436.8564,-570.351 403.444,-618.7416 378.7916,-645.2873"/>
<polygon fill="#000000" stroke="#000000" points="376.2507,-642.8798 371.7878,-652.4888 381.2689,-647.7602 376.2507,-642.8798"/>
</g>
<!-- fator&#45;&gt;numero -->
<g id="edge20" class="edge">
<title>fator&#45;&gt;numero</title>
<path fill="none" stroke="#000000" d="M171.9406,-144.2022C171.1509,-136.3271 170.9218,-126.875 171.2535,-118.0852"/>
<polygon fill="#000000" stroke="#000000" points="174.7633,-118.0532 171.9361,-107.8425 167.7788,-117.5876 174.7633,-118.0532"/>
</g>
<!-- fator&#45;&gt;numero -->
<g id="edge34" class="edge">
<title>fator&#45;&gt;numero</title>
<path fill="none" stroke="#000000" d="M183.7721,-144.2022C184.5618,-136.3271 184.7909,-126.875 184.4592,-118.0852"/>
<polygon fill="#000000" stroke="#000000" points="187.9339,-117.5876 183.7766,-107.8425 180.9494,-118.0532 187.9339,-117.5876"/>
</g>
<!-- expressao_unaria -->
<g id="node16" class="node">
<title>expressao_unaria</title>
<ellipse fill="none" stroke="#000000" cx="177.8564" cy="-234" rx="78.1308" ry="18"/>
<text text-anchor="middle" x="177.8564" y="-229.8" font-family="Times,serif" font-size="14.00" fill="#000000">expressao_unaria</text>
</g>
<!-- expressao_unaria&#45;&gt;fator -->
<g id="edge21" class="edge">
<title>expressao_unaria&#45;&gt;fator</title>
<path fill="none" stroke="#000000" d="M160.1092,-216.2022C157.4594,-207.3947 156.9136,-196.6147 158.4719,-186.9946"/>
<polygon fill="#000000" stroke="#000000" points="161.9003,-187.7149 160.9887,-177.1594 155.1188,-185.9796 161.9003,-187.7149"/>
</g>
<!-- expressao_unaria&#45;&gt;fator -->
<g id="edge35" class="edge">
<title>expressao_unaria&#45;&gt;fator</title>
<path fill="none" stroke="#000000" d="M171.904,-215.8314C171.142,-208.0125 170.926,-198.6923 171.2559,-190.0221"/>
<polygon fill="#000000" stroke="#000000" points="174.7568,-190.1239 171.9291,-179.9134 167.7722,-189.6587 174.7568,-190.1239"/>
</g>
<!-- expressao_unaria&#45;&gt;fator -->
<g id="edge49" class="edge">
<title>expressao_unaria&#45;&gt;fator</title>
<path fill="none" stroke="#000000" d="M183.8088,-215.8314C184.5707,-208.0125 184.7867,-198.6923 184.4568,-190.0221"/>
<polygon fill="#000000" stroke="#000000" points="187.9405,-189.6587 183.7836,-179.9134 180.9559,-190.1239 187.9405,-189.6587"/>
</g>
<!-- expressao_unaria&#45;&gt;fator -->
<g id="edge63" class="edge">
<title>expressao_unaria&#45;&gt;fator</title>
<path fill="none" stroke="#000000" d="M195.6035,-216.2022C198.2533,-207.3947 198.7991,-196.6147 197.2408,-186.9946"/>
<polygon fill="#000000" stroke="#000000" points="200.5939,-185.9796 194.724,-177.1594 193.8124,-187.7149 200.5939,-185.9796"/>
</g>
<!-- expressao_multiplicativa -->
<g id="node17" class="node">
<title>expressao_multiplicativa</title>
<ellipse fill="none" stroke="#000000" cx="177.8564" cy="-306" rx="107.6598" ry="18"/>
<text text-anchor="middle" x="177.8564" y="-301.8" font-family="Times,serif" font-size="14.00" fill="#000000">expressao_multiplicativa</text>
</g>
<!-- expressao_multiplicativa&#45;&gt;expressao_unaria -->
<g id="edge22" class="edge">
<title>expressao_multiplicativa&#45;&gt;expressao_unaria</title>
<path fill="none" stroke="#000000" d="M160.1092,-288.2022C157.6959,-280.1807 157.0278,-270.5231 158.105,-261.5957"/>
<polygon fill="#000000" stroke="#000000" points="161.5758,-262.0943 160.1713,-251.593 154.7206,-260.6782 161.5758,-262.0943"/>
</g>
<!-- expressao_multiplicativa&#45;&gt;expressao_unaria -->
<g id="edge36" class="edge">
<title>expressao_multiplicativa&#45;&gt;expressao_unaria</title>
<path fill="none" stroke="#000000" d="M171.904,-287.8314C171.1535,-280.131 170.9326,-270.9743 171.2413,-262.4166"/>
<polygon fill="#000000" stroke="#000000" points="174.7356,-262.6161 171.8804,-252.4133 167.7498,-262.1697 174.7356,-262.6161"/>
</g>
<!-- expressao_multiplicativa&#45;&gt;expressao_unaria -->
<g id="edge50" class="edge">
<title>expressao_multiplicativa&#45;&gt;expressao_unaria</title>
<path fill="none" stroke="#000000" d="M183.8088,-287.8314C184.5592,-280.131 184.7801,-270.9743 184.4714,-262.4166"/>
<polygon fill="#000000" stroke="#000000" points="187.9629,-262.1697 183.8324,-252.4133 180.9771,-262.6161 187.9629,-262.1697"/>
</g>
<!-- expressao_multiplicativa&#45;&gt;expressao_unaria -->
<g id="edge64" class="edge">
<title>expressao_multiplicativa&#45;&gt;expressao_unaria</title>
<path fill="none" stroke="#000000" d="M195.6035,-288.2022C198.0169,-280.1807 198.6849,-270.5231 197.6077,-261.5957"/>
<polygon fill="#000000" stroke="#000000" points="200.9922,-260.6782 195.5415,-251.593 194.1369,-262.0943 200.9922,-260.6782"/>
</g>
<!-- expressao_aditiva -->
<g id="node18" class="node">
<title>expressao_aditiva</title>
<ellipse fill="none" stroke="#000000" cx="177.8564" cy="-378" rx="80.4364" ry="18"/>
<text text-anchor="middle" x="177.8564" y="-373.8" font-family="Times,serif" font-size="14.00" fill="#000000">expressao_aditiva</text>
</g>
<!-- expressao_aditiva&#45;&gt;expressao_multiplicativa -->
<g id="edge23" class="edge">
<title>expressao_aditiva&#45;&gt;expressao_multiplicativa</title>
<path fill="none" stroke="#000000" d="M160.1092,-360.2022C157.7139,-352.2406 157.0379,-342.6671 158.0812,-333.7957"/>
<polygon fill="#000000" stroke="#000000" points="161.5423,-334.3382 160.0957,-323.8425 154.6814,-332.9494 161.5423,-334.3382"/>
</g>
<!-- expressao_aditiva&#45;&gt;expressao_multiplicativa -->
<g id="edge37" class="edge">
<title>expressao_aditiva&#45;&gt;expressao_multiplicativa</title>
<path fill="none" stroke="#000000" d="M171.904,-359.8314C171.1535,-352.131 170.9326,-342.9743 171.2413,-334.4166"/>
<polygon fill="#000000" stroke="#000000" points="174.7356,-334.6161 171.8804,-324.4133 167.7498,-334.1697 174.7356,-334.6161"/>
</g>
<!-- expressao_aditiva&#45;&gt;expressao_multiplicativa -->
<g id="edge51" class="edge">
<title>expressao_aditiva&#45;&gt;expressao_multiplicativa</title>
<path fill="none" stroke="#000000" d="M183.8088,-359.8314C184.5592,-352.131 184.7801,-342.9743 184.4714,-334.4166"/>
<polygon fill="#000000" stroke="#000000" points="187.9629,-334.1697 183.8324,-324.4133 180.9771,-334.6161 187.9629,-334.1697"/>
</g>
<!-- expressao_aditiva&#45;&gt;expressao_multiplicativa -->
<g id="edge65" class="edge">
<title>expressao_aditiva&#45;&gt;expressao_multiplicativa</title>
<path fill="none" stroke="#000000" d="M195.6035,-360.2022C197.9988,-352.2406 198.6748,-342.6671 197.6315,-333.7957"/>
<polygon fill="#000000" stroke="#000000" points="201.0313,-332.9494 195.617,-323.8425 194.1704,-334.3382 201.0313,-332.9494"/>
</g>
<!-- expressao_simples -->
<g id="node19" class="node">
<title>expressao_simples</title>
<ellipse fill="none" stroke="#000000" cx="177.8564" cy="-450" rx="83.3847" ry="18"/>
<text text-anchor="middle" x="177.8564" y="-445.8" font-family="Times,serif" font-size="14.00" fill="#000000">expressao_simples</text>
</g>
<!-- expressao_simples&#45;&gt;expressao_aditiva -->
<g id="edge24" class="edge">
<title>expressao_simples&#45;&gt;expressao_aditiva</title>
<path fill="none" stroke="#000000" d="M160.1092,-432.2022C157.6959,-424.1807 157.0278,-414.5231 158.105,-405.5957"/>
<polygon fill="#000000" stroke="#000000" points="161.5758,-406.0943 160.1713,-395.593 154.7206,-404.6782 161.5758,-406.0943"/>
</g>
<!-- expressao_simples&#45;&gt;expressao_aditiva -->
<g id="edge38" class="edge">
<title>expressao_simples&#45;&gt;expressao_aditiva</title>
<path fill="none" stroke="#000000" d="M171.904,-431.8314C171.1535,-424.131 170.9326,-414.9743 171.2413,-406.4166"/>
<polygon fill="#000000" stroke="#000000" points="174.7356,-406.6161 171.8804,-396.4133 167.7498,-406.1697 174.7356,-406.6161"/>
</g>
<!-- expressao_simples&#45;&gt;expressao_aditiva -->
<g id="edge52" class="edge">
<title>expressao_simples&#45;&gt;expressao_aditiva</title>
<path fill="none" stroke="#000000" d="M183.8088,-431.8314C184.5592,-424.131 184.7801,-414.9743 184.4714,-406.4166"/>
<polygon fill="#000000" stroke="#000000" points="187.9629,-406.1697 183.8324,-396.4133 180.9771,-406.6161 187.9629,-406.1697"/>
</g>
<!-- expressao_simples&#45;&gt;expressao_aditiva -->
<g id="edge66" class="edge">
<title>expressao_simples&#45;&gt;expressao_aditiva</title>
<path fill="none" stroke="#000000" d="M195.6035,-432.2022C198.0169,-424.1807 198.6849,-414.5231 197.6077,-405.5957"/>
<polygon fill="#000000" stroke="#000000" points="200.9922,-404.6782 195.5415,-395.593 194.1369,-406.0943 200.9922,-404.6782"/>
</g>
<!-- expressao_logica -->
<g id="node20" class="node">
<title>expressao_logica</title>
<ellipse fill="none" stroke="#000000" cx="177.8564" cy="-522" rx="77.5685" ry="18"/>
<text text-anchor="middle" x="177.8564" y="-517.8" font-family="Times,serif" font-size="14.00" fill="#000000">expressao_logica</text>
</g>
<!-- expressao_logica&#45;&gt;expressao_simples -->
<g id="edge25" class="edge">
<title>expressao_logica&#45;&gt;expressao_simples</title>
<path fill="none" stroke="#000000" d="M160.1092,-504.2022C157.6959,-496.1807 157.0278,-486.5231 158.105,-477.5957"/>
<polygon fill="#000000" stroke="#000000" points="161.5758,-478.0943 160.1713,-467.593 154.7206,-476.6782 161.5758,-478.0943"/>
</g>
<!-- expressao_logica&#45;&gt;expressao_simples -->
<g id="edge39" class="edge">
<title>expressao_logica&#45;&gt;expressao_simples</title>
<path fill="none" stroke="#000000" d="M171.904,-503.8314C171.1535,-496.131 170.9326,-486.9743 171.2413,-478.4166"/>
<polygon fill="#000000" stroke="#000000" points="174.7356,-478.6161 171.8804,-468.4133 167.7498,-478.1697 174.7356,-478.6161"/>
</g>
<!-- expressao_logica&#45;&gt;expressao_simples -->
<g id="edge53" class="edge">
<title>expressao_logica&#45;&gt;expressao_simples</title>
<path fill="none" stroke="#000000" d="M183.8088,-503.8314C184.5592,-496.131 184.7801,-486.9743 184.4714,-478.4166"/>
<polygon fill="#000000" stroke="#000000" points="187.9629,-478.1697 183.8324,-468.4133 180.9771,-478.6161 187.9629,-478.1697"/>
</g>
<!-- expressao_logica&#45;&gt;expressao_simples -->
<g id="edge67" class="edge">
<title>expressao_logica&#45;&gt;expressao_simples</title>
<path fill="none" stroke="#000000" d="M195.6035,-504.2022C198.0169,-496.1807 198.6849,-486.5231 197.6077,-477.5957"/>
<polygon fill="#000000" stroke="#000000" points="200.9922,-476.6782 195.5415,-467.593 194.1369,-478.0943 200.9922,-476.6782"/>
</g>
<!-- expressao&#45;&gt;expressao_logica -->
<g id="edge26" class="edge">
<title>expressao&#45;&gt;expressao_logica</title>
<path fill="none" stroke="#000000" d="M160.3366,-576.937C157.7399,-568.7793 156.9955,-558.8079 158.1033,-549.6102"/>
<polygon fill="#000000" stroke="#000000" points="161.5567,-550.1922 160.141,-539.6924 154.7,-548.7834 161.5567,-550.1922"/>
</g>
<!-- expressao&#45;&gt;expressao_logica -->
<g id="edge40" class="edge">
<title>expressao&#45;&gt;expressao_logica</title>
<path fill="none" stroke="#000000" d="M171.904,-575.8314C171.1535,-568.131 170.9326,-558.9743 171.2413,-550.4166"/>
<polygon fill="#000000" stroke="#000000" points="174.7356,-550.6161 171.8804,-540.4133 167.7498,-550.1697 174.7356,-550.6161"/>
</g>
<!-- expressao&#45;&gt;expressao_logica -->
<g id="edge54" class="edge">
<title>expressao&#45;&gt;expressao_logica</title>
<path fill="none" stroke="#000000" d="M183.8088,-575.8314C184.5592,-568.131 184.7801,-558.9743 184.4714,-550.4166"/>
<polygon fill="#000000" stroke="#000000" points="187.9629,-550.1697 183.8324,-540.4133 180.9771,-550.6161 187.9629,-550.1697"/>
</g>
<!-- expressao&#45;&gt;expressao_logica -->
<g id="edge68" class="edge">
<title>expressao&#45;&gt;expressao_logica</title>
<path fill="none" stroke="#000000" d="M195.3761,-576.937C197.9728,-568.7793 198.7172,-558.8079 197.6095,-549.6102"/>
<polygon fill="#000000" stroke="#000000" points="201.0128,-548.7834 195.5717,-539.6924 194.156,-550.1922 201.0128,-548.7834"/>
</g>
<!-- atribuicao -->
<g id="node22" class="node">
<title>atribuicao</title>
<ellipse fill="none" stroke="#000000" cx="331.8564" cy="-522" rx="49.7962" ry="18"/>
<text text-anchor="middle" x="331.8564" y="-517.8" font-family="Times,serif" font-size="14.00" fill="#000000">atribuicao</text>
</g>
<!-- expressao&#45;&gt;atribuicao -->
<g id="edge29" class="edge">
<title>expressao&#45;&gt;atribuicao</title>
<path fill="none" stroke="#000000" d="M196.5012,-577.1192C218.7065,-564.8924 253.9663,-548.5206 283.4605,-536.8027"/>
<polygon fill="#000000" stroke="#000000" points="284.7547,-540.0548 292.8101,-533.1729 282.2212,-533.5293 284.7547,-540.0548"/>
</g>
<!-- expressao&#45;&gt;atribuicao -->
<g id="edge43" class="edge">
<title>expressao&#45;&gt;atribuicao</title>
<path fill="none" stroke="#000000" d="M204.8798,-578.7307C228.1201,-567.2099 261.873,-551.3923 288.7969,-539.3855"/>
<polygon fill="#000000" stroke="#000000" points="290.2781,-542.5575 298.007,-535.3108 287.4459,-536.156 290.2781,-542.5575"/>
</g>
<!-- expressao&#45;&gt;atribuicao -->
<g id="edge57" class="edge">
<title>expressao&#45;&gt;atribuicao</title>
<path fill="none" stroke="#000000" d="M211.4664,-580.7941C236.4608,-569.8385 270.3688,-554.0986 295.8932,-541.6611"/>
<polygon fill="#000000" stroke="#000000" points="297.4536,-544.7941 304.8856,-537.2432 294.3669,-538.5114 297.4536,-544.7941"/>
</g>
<!-- expressao&#45;&gt;atribuicao -->
<g id="edge71" class="edge">
<title>expressao&#45;&gt;atribuicao</title>
<path fill="none" stroke="#000000" d="M216.6895,-582.9078C244.264,-572.4844 279.4595,-556.5967 304.2741,-543.6614"/>
<polygon fill="#000000" stroke="#000000" points="306.0719,-546.669 313.2387,-538.8659 302.7701,-540.4966 306.0719,-546.669"/>
</g>
<!-- atribuicao&#45;&gt;var -->
<g id="edge27" class="edge">
<title>atribuicao&#45;&gt;var</title>
<path fill="none" stroke="#000000" d="M320.7186,-539.6099C316.7244,-565.1366 323.3476,-612.5219 334.4306,-641.4609"/>
<polygon fill="#000000" stroke="#000000" points="331.3235,-643.0922 338.5267,-650.8616 337.7408,-640.296 331.3235,-643.0922"/>
</g>
<!-- atribuicao&#45;&gt;var -->
<g id="edge41" class="edge">
<title>atribuicao&#45;&gt;var</title>
<path fill="none" stroke="#000000" d="M329.9749,-540.3394C331.2973,-565.2488 337.8841,-609.9692 344.2804,-638.7954"/>
<polygon fill="#000000" stroke="#000000" points="340.9004,-639.7107 346.6182,-648.6302 347.7106,-638.0919 340.9004,-639.7107"/>
</g>
<!-- atribuicao&#45;&gt;var -->
<g id="edge55" class="edge">
<title>atribuicao&#45;&gt;var</title>
<path fill="none" stroke="#000000" d="M339.2783,-540.0896C345.4874,-564.5727 352.4847,-608.5174 355.0067,-637.4713"/>
<polygon fill="#000000" stroke="#000000" points="351.5382,-638.0377 355.7432,-647.7623 358.5204,-637.5379 351.5382,-638.0377"/>
</g>
<!-- atribuicao&#45;&gt;var -->
<g id="edge69" class="edge">
<title>atribuicao&#45;&gt;var</title>
<path fill="none" stroke="#000000" d="M348.1926,-539.2178C359.7802,-563.991 367.6223,-609.9195 365.9384,-639.1674"/>
<polygon fill="#000000" stroke="#000000" points="362.4185,-639.1611 364.8146,-649.4814 369.3773,-639.9194 362.4185,-639.1611"/>
</g>
<!-- acao -->
<g id="node23" class="node">
<title>acao</title>
<ellipse fill="none" stroke="#000000" cx="177.8564" cy="-666" rx="28.952" ry="18"/>
<text text-anchor="middle" x="177.8564" y="-661.8" font-family="Times,serif" font-size="14.00" fill="#000000">acao</text>
</g>
<!-- acao&#45;&gt;expressao -->
<g id="edge30" class="edge">
<title>acao&#45;&gt;expressao</title>
<path fill="none" stroke="#000000" d="M161.0782,-651.0816C157.7898,-642.3081 156.8374,-630.9554 158.2209,-620.6878"/>
<polygon fill="#000000" stroke="#000000" points="161.6396,-621.4378 160.3831,-610.9178 154.8049,-619.9252 161.6396,-621.4378"/>
</g>
<!-- acao&#45;&gt;expressao -->
<g id="edge44" class="edge">
<title>acao&#45;&gt;expressao</title>
<path fill="none" stroke="#000000" d="M171.9406,-648.2022C171.1568,-640.3864 170.9253,-631.0171 171.2461,-622.2836"/>
<polygon fill="#000000" stroke="#000000" points="174.7524,-622.2999 171.9113,-612.0931 167.7673,-621.8439 174.7524,-622.2999"/>
</g>
<!-- acao&#45;&gt;expressao -->
<g id="edge58" class="edge">
<title>acao&#45;&gt;expressao</title>
<path fill="none" stroke="#000000" d="M183.7721,-648.2022C184.5559,-640.3864 184.7874,-631.0171 184.4666,-622.2836"/>
<polygon fill="#000000" stroke="#000000" points="187.9454,-621.8439 183.8014,-612.0931 180.9603,-622.2999 187.9454,-621.8439"/>
</g>
<!-- acao&#45;&gt;expressao -->
<g id="edge72" class="edge">
<title>acao&#45;&gt;expressao</title>
<path fill="none" stroke="#000000" d="M194.6345,-651.0816C197.9229,-642.3081 198.8753,-630.9554 197.4918,-620.6878"/>
<polygon fill="#000000" stroke="#000000" points="200.9078,-619.9252 195.3296,-610.9178 194.0732,-621.4378 200.9078,-619.9252"/>
</g>
<!-- corpo&#45;&gt;acao -->
<g id="edge31" class="edge">
<title>corpo&#45;&gt;acao</title>
<path fill="none" stroke="#000000" d="M160.8211,-722.3771C157.5596,-713.1954 156.7798,-701.3769 158.4817,-690.9343"/>
<polygon fill="#000000" stroke="#000000" points="161.9101,-691.6557 161.011,-681.099 155.1306,-689.9122 161.9101,-691.6557"/>
</g>
<!-- corpo&#45;&gt;acao -->
<g id="edge45" class="edge">
<title>corpo&#45;&gt;acao</title>
<path fill="none" stroke="#000000" d="M171.9406,-720.2022C171.1509,-712.3271 170.9218,-702.875 171.2535,-694.0852"/>
<polygon fill="#000000" stroke="#000000" points="174.7633,-694.0532 171.9361,-683.8425 167.7788,-693.5876 174.7633,-694.0532"/>
</g>
<!-- corpo&#45;&gt;acao -->
<g id="edge59" class="edge">
<title>corpo&#45;&gt;acao</title>
<path fill="none" stroke="#000000" d="M183.7721,-720.2022C184.5618,-712.3271 184.7909,-702.875 184.4592,-694.0852"/>
<polygon fill="#000000" stroke="#000000" points="187.9339,-693.5876 183.7766,-683.8425 180.9494,-694.0532 187.9339,-693.5876"/>
</g>
<!-- corpo&#45;&gt;acao -->
<g id="edge73" class="edge">
<title>corpo&#45;&gt;acao</title>
<path fill="none" stroke="#000000" d="M194.8916,-722.3771C198.1531,-713.1954 198.9329,-701.3769 197.231,-690.9343"/>
<polygon fill="#000000" stroke="#000000" points="200.5821,-689.9122 194.7018,-681.099 193.8027,-691.6557 200.5821,-689.9122"/>
</g>
<!-- cabecalho -->
<g id="node26" class="node">
<title>cabecalho</title>
<ellipse fill="none" stroke="#000000" cx="115.8564" cy="-954" rx="49.7787" ry="18"/>
<text text-anchor="middle" x="115.8564" y="-949.8" font-family="Times,serif" font-size="14.00" fill="#000000">cabecalho</text>
</g>
<!-- principal -->
<g id="node27" class="node">
<title>principal</title>
<ellipse fill="none" stroke="#000000" cx="71.8564" cy="-882" rx="45.2227" ry="18"/>
<text text-anchor="middle" x="71.8564" y="-877.8" font-family="Times,serif" font-size="14.00" fill="#000000">principal</text>
</g>
<!-- cabecalho&#45;&gt;principal -->
<g id="edge74" class="edge">
<title>cabecalho&#45;&gt;principal</title>
<path fill="none" stroke="#000000" d="M104.98,-936.2022C99.8115,-927.7448 93.5315,-917.4685 87.8351,-908.147"/>
<polygon fill="#000000" stroke="#000000" points="90.8087,-906.3008 82.6077,-899.593 84.8357,-909.951 90.8087,-906.3008"/>
</g>
<!-- principal&#45;&gt;lista_parametros -->
<g id="edge75" class="edge">
<title>principal&#45;&gt;lista_parametros</title>
<path fill="none" stroke="#000000" d="M72.6134,-863.8314C72.9342,-856.131 73.3158,-846.9743 73.6723,-838.4166"/>
<polygon fill="#000000" stroke="#000000" points="77.1697,-838.5503 74.0891,-828.4133 70.1758,-838.2589 77.1697,-838.5503"/>
</g>
<!-- declaracao_funcao&#45;&gt;tipo -->
<g id="edge77" class="edge">
<title>declaracao_funcao&#45;&gt;tipo</title>
<path fill="none" stroke="#000000" d="M171.7909,-1009.3008C195.4099,-997.325 227.008,-981.3034 250.1121,-969.5886"/>
<polygon fill="#000000" stroke="#000000" points="251.7989,-972.6576 259.135,-965.0136 248.6332,-966.4143 251.7989,-972.6576"/>
</g>
<!-- declaracao_funcao&#45;&gt;cabecalho -->
<g id="edge78" class="edge">
<title>declaracao_funcao&#45;&gt;cabecalho</title>
<path fill="none" stroke="#000000" d="M133.0525,-1007.8314C130.4999,-999.8406 127.4464,-990.2819 124.6256,-981.4514"/>
<polygon fill="#000000" stroke="#000000" points="127.9557,-980.3741 121.5787,-971.9134 121.2877,-982.5043 127.9557,-980.3741"/>
</g>
<!-- programa -->
<g id="node29" class="node">
<title>programa</title>
<ellipse fill="none" stroke="#000000" cx="636.8564" cy="-1098" rx="48.0742" ry="18"/>
<text text-anchor="middle" x="636.8564" y="-1093.8" font-family="Times,serif" font-size="14.00" fill="#000000">programa</text>
</g>
<!-- programa&#45;&gt;lista_declaracoes -->
<g id="edge82" class="edge">
<title>programa&#45;&gt;lista_declaracoes</title>
<path fill="none" stroke="#000000" d="M611.5424,-1082.5542C595.131,-1072.5405 573.4903,-1059.336 555.2474,-1048.2047"/>
<polygon fill="#000000" stroke="#000000" points="556.9619,-1045.1508 546.6025,-1042.9298 553.3159,-1051.1263 556.9619,-1045.1508"/>
</g>
</g>
</svg>
