<?xml version="1.0" encoding="UTF-8" standalone="no"?>
<!DOCTYPE svg PUBLIC "-//W3C//DTD SVG 1.1//EN"
 "http://www.w3.org/Graphics/SVG/1.1/DTD/svg11.dtd">
<!-- Generated by graphviz version 2.40.1 (20161225.0304)
 -->
<!-- Title: G Pages: 1 -->
<svg width="192pt" height="188pt"
 viewBox="0.00 0.00 191.99 188.00" xmlns="http://www.w3.org/2000/svg" xmlns:xlink="http://www.w3.org/1999/xlink">
<g id="graph0" class="graph" transform="scale(1 1) rotate(0) translate(4 184)">
<title>G</title>
<polygon fill="#ffffff" stroke="transparent" points="-4,4 -4,-184 187.991,-184 187.991,4 -4,4"/>
<!-- declaracao_variaveis -->
<g id="node1" class="node">
<title>declaracao_variaveis</title>
<ellipse fill="none" stroke="#000000" cx="91.9955" cy="-90" rx="91.991" ry="18"/>
<text text-anchor="middle" x="91.9955" y="-85.8" font-family="Times,serif" font-size="14.00" fill="#000000">declaracao_variaveis</text>
</g>
<!-- a -->
<g id="node2" class="node">
<title>a</title>
<ellipse fill="none" stroke="#000000" cx="55.9955" cy="-18" rx="27" ry="18"/>
<text text-anchor="middle" x="55.9955" y="-13.8" font-family="Times,serif" font-size="14.00" fill="#000000">a</text>
</g>
<!-- declaracao_variaveis&#45;&gt;a -->
<g id="edge1" class="edge">
<title>declaracao_variaveis&#45;&gt;a</title>
<path fill="none" stroke="#000000" d="M82.9112,-71.8314C78.7681,-63.5451 73.7818,-53.5727 69.2329,-44.4748"/>
<polygon fill="#000000" stroke="#000000" points="72.307,-42.7967 64.7044,-35.4177 66.0461,-45.9273 72.307,-42.7967"/>
</g>
<!-- b -->
<g id="node4" class="node">
<title>b</title>
<ellipse fill="none" stroke="#000000" cx="127.9955" cy="-18" rx="27" ry="18"/>
<text text-anchor="middle" x="127.9955" y="-13.8" font-family="Times,serif" font-size="14.00" fill="#000000">b</text>
</g>
<!-- declaracao_variaveis&#45;&gt;b -->
<g id="edge3" class="edge">
<title>declaracao_variaveis&#45;&gt;b</title>
<path fill="none" stroke="#000000" d="M101.0798,-71.8314C105.2229,-63.5451 110.2092,-53.5727 114.7581,-44.4748"/>
<polygon fill="#000000" stroke="#000000" points="117.945,-45.9273 119.2866,-35.4177 111.684,-42.7967 117.945,-45.9273"/>
</g>
<!-- declaracao -->
<g id="node3" class="node">
<title>declaracao</title>
<ellipse fill="none" stroke="#000000" cx="91.9955" cy="-162" rx="52.1251" ry="18"/>
<text text-anchor="middle" x="91.9955" y="-157.8" font-family="Times,serif" font-size="14.00" fill="#000000">declaracao</text>
</g>
<!-- declaracao&#45;&gt;declaracao_variaveis -->
<g id="edge2" class="edge">
<title>declaracao&#45;&gt;declaracao_variaveis</title>
<path fill="none" stroke="#000000" d="M86.0431,-143.8314C85.2927,-136.131 85.0718,-126.9743 85.3804,-118.4166"/>
<polygon fill="#000000" stroke="#000000" points="88.8747,-118.6161 86.0195,-108.4133 81.889,-118.1697 88.8747,-118.6161"/>
</g>
<!-- declaracao&#45;&gt;declaracao_variaveis -->
<g id="edge4" class="edge">
<title>declaracao&#45;&gt;declaracao_variaveis</title>
<path fill="none" stroke="#000000" d="M97.9479,-143.8314C98.6983,-136.131 98.9192,-126.9743 98.6106,-118.4166"/>
<polygon fill="#000000" stroke="#000000" points="102.1021,-118.1697 97.9715,-108.4133 95.1163,-118.6161 102.1021,-118.1697"/>
</g>
</g>
</svg>
