<?xml version="1.0" encoding="UTF-8" standalone="no"?>
<!DOCTYPE svg PUBLIC "-//W3C//DTD SVG 1.1//EN"
 "http://www.w3.org/Graphics/SVG/1.1/DTD/svg11.dtd">
<!-- Generated by graphviz version 2.40.1 (20161225.0304)
 -->
<!-- Title: G Pages: 1 -->
<svg width="472pt" height="620pt"
 viewBox="0.00 0.00 472.24 620.00" xmlns="http://www.w3.org/2000/svg" xmlns:xlink="http://www.w3.org/1999/xlink">
<g id="graph0" class="graph" transform="scale(1 1) rotate(0) translate(4 616)">
<title>G</title>
<polygon fill="#ffffff" stroke="transparent" points="-4,4 -4,-616 468.2415,-616 468.2415,4 -4,4"/>
<!-- declaracao_variaveis -->
<g id="node1" class="node">
<title>declaracao_variaveis</title>
<ellipse fill="none" stroke="#000000" cx="91.9955" cy="-234" rx="91.991" ry="18"/>
<text text-anchor="middle" x="91.9955" y="-229.8" font-family="Times,serif" font-size="14.00" fill="#000000">declaracao_variaveis</text>
</g>
<!-- a -->
<g id="node2" class="node">
<title>a</title>
<ellipse fill="none" stroke="#000000" cx="177.9955" cy="-18" rx="27" ry="18"/>
<text text-anchor="middle" x="177.9955" y="-13.8" font-family="Times,serif" font-size="14.00" fill="#000000">a</text>
</g>
<!-- declaracao_variaveis&#45;&gt;a -->
<g id="edge1" class="edge">
<title>declaracao_variaveis&#45;&gt;a</title>
<path fill="none" stroke="#000000" d="M88.4619,-215.5869C83.3855,-183.9766 77.2494,-118.3227 102.9955,-72 112.5737,-54.7667 130.2375,-41.6356 146.0175,-32.6392"/>
<polygon fill="#000000" stroke="#000000" points="147.8525,-35.6269 155.0155,-27.8203 144.5477,-29.4561 147.8525,-35.6269"/>
</g>
<!-- b -->
<g id="node4" class="node">
<title>b</title>
<ellipse fill="none" stroke="#000000" cx="138.9955" cy="-90" rx="27" ry="18"/>
<text text-anchor="middle" x="138.9955" y="-85.8" font-family="Times,serif" font-size="14.00" fill="#000000">b</text>
</g>
<!-- declaracao_variaveis&#45;&gt;b -->
<g id="edge3" class="edge">
<title>declaracao_variaveis&#45;&gt;b</title>
<path fill="none" stroke="#000000" d="M97.9481,-215.7623C106.0439,-190.958 120.5951,-146.3758 130.0195,-117.5009"/>
<polygon fill="#000000" stroke="#000000" points="133.4627,-118.2317 133.2383,-107.6392 126.8081,-116.0597 133.4627,-118.2317"/>
</g>
<!-- declaracao -->
<g id="node3" class="node">
<title>declaracao</title>
<ellipse fill="none" stroke="#000000" cx="151.9955" cy="-594" rx="52.1251" ry="18"/>
<text text-anchor="middle" x="151.9955" y="-589.8" font-family="Times,serif" font-size="14.00" fill="#000000">declaracao</text>
</g>
<!-- declaracao&#45;&gt;declaracao_variaveis -->
<g id="edge2" class="edge">
<title>declaracao&#45;&gt;declaracao_variaveis</title>
<path fill="none" stroke="#000000" d="M133.7444,-576.7856C112.9891,-550.7078 82.9955,-499.0208 82.9955,-450 82.9955,-450 82.9955,-450 82.9955,-378 82.9955,-337.876 82.9955,-291.4631 85.2133,-262.4177"/>
<polygon fill="#000000" stroke="#000000" points="88.7238,-262.4694 86.1765,-252.1854 81.7546,-261.8133 88.7238,-262.4694"/>
</g>
<!-- declaracao&#45;&gt;declaracao_variaveis -->
<g id="edge4" class="edge">
<title>declaracao&#45;&gt;declaracao_variaveis</title>
<path fill="none" stroke="#000000" d="M144.8997,-575.9118C130.3299,-549.5658 100.9955,-498.4792 100.9955,-450 100.9955,-450 100.9955,-450 100.9955,-378 100.9955,-337.876 100.9955,-291.4631 98.7777,-262.4177"/>
<polygon fill="#000000" stroke="#000000" points="102.2364,-261.8133 97.8145,-252.1854 95.2672,-262.4694 102.2364,-261.8133"/>
</g>
<!-- declaracao_funcao -->
<g id="node11" class="node">
<title>declaracao_funcao</title>
<ellipse fill="none" stroke="#000000" cx="211.9955" cy="-522" rx="83.3288" ry="18"/>
<text text-anchor="middle" x="211.9955" y="-517.8" font-family="Times,serif" font-size="14.00" fill="#000000">declaracao_funcao</text>
</g>
<!-- declaracao&#45;&gt;declaracao_funcao -->
<g id="edge16" class="edge">
<title>declaracao&#45;&gt;declaracao_funcao</title>
<path fill="none" stroke="#000000" d="M160.9112,-576.2022C167.3666,-567.396 176.1664,-556.6179 184.7014,-546.9989"/>
<polygon fill="#000000" stroke="#000000" points="187.2986,-549.3451 191.4396,-539.593 182.121,-544.6342 187.2986,-549.3451"/>
</g>
<!-- declaracao&#45;&gt;declaracao_funcao -->
<g id="edge28" class="edge">
<title>declaracao&#45;&gt;declaracao_funcao</title>
<path fill="none" stroke="#000000" d="M171.7123,-577.3008C179.8274,-568.6899 188.9883,-557.9874 196.6077,-548.2981"/>
<polygon fill="#000000" stroke="#000000" points="199.5615,-550.1965 202.8416,-540.1222 193.995,-545.9522 199.5615,-550.1965"/>
</g>
<!-- acao -->
<g id="node5" class="node">
<title>acao</title>
<ellipse fill="none" stroke="#000000" cx="250.9955" cy="-378" rx="28.952" ry="18"/>
<text text-anchor="middle" x="250.9955" y="-373.8" font-family="Times,serif" font-size="14.00" fill="#000000">acao</text>
</g>
<!-- expressao -->
<g id="node6" class="node">
<title>expressao</title>
<ellipse fill="none" stroke="#000000" cx="250.9955" cy="-234" rx="49.2163" ry="18"/>
<text text-anchor="middle" x="250.9955" y="-229.8" font-family="Times,serif" font-size="14.00" fill="#000000">expressao</text>
</g>
<!-- acao&#45;&gt;expressao -->
<g id="edge5" class="edge">
<title>acao&#45;&gt;expressao</title>
<path fill="none" stroke="#000000" d="M241.8865,-360.9158C236.7269,-336.4984 236.1144,-291.335 240.0489,-261.9918"/>
<polygon fill="#000000" stroke="#000000" points="243.5286,-262.4012 241.7042,-251.9647 236.6221,-261.2611 243.5286,-262.4012"/>
</g>
<!-- acao&#45;&gt;expressao -->
<g id="edge18" class="edge">
<title>acao&#45;&gt;expressao</title>
<path fill="none" stroke="#000000" d="M250.9955,-359.7623C250.9955,-335.201 250.9955,-291.2474 250.9955,-262.3541"/>
<polygon fill="#000000" stroke="#000000" points="254.4956,-262.0896 250.9955,-252.0896 247.4956,-262.0897 254.4956,-262.0896"/>
</g>
<!-- acao&#45;&gt;expressao -->
<g id="edge23" class="edge">
<title>acao&#45;&gt;expressao</title>
<path fill="none" stroke="#000000" d="M260.1045,-360.9158C265.2641,-336.4984 265.8766,-291.335 261.9421,-261.9918"/>
<polygon fill="#000000" stroke="#000000" points="265.3689,-261.2611 260.2868,-251.9647 258.4624,-262.4012 265.3689,-261.2611"/>
</g>
<!-- retorna -->
<g id="node10" class="node">
<title>retorna</title>
<ellipse fill="none" stroke="#000000" cx="334.9955" cy="-306" rx="38.2607" ry="18"/>
<text text-anchor="middle" x="334.9955" y="-301.8" font-family="Times,serif" font-size="14.00" fill="#000000">retorna</text>
</g>
<!-- acao&#45;&gt;retorna -->
<g id="edge10" class="edge">
<title>acao&#45;&gt;retorna</title>
<path fill="none" stroke="#000000" d="M267.9942,-363.4297C279.6659,-353.4253 295.3879,-339.9494 308.6688,-328.5657"/>
<polygon fill="#000000" stroke="#000000" points="311.2498,-330.9633 316.5646,-321.7979 306.6942,-325.6485 311.2498,-330.9633"/>
</g>
<!-- atribuicao -->
<g id="node7" class="node">
<title>atribuicao</title>
<ellipse fill="none" stroke="#000000" cx="250.9955" cy="-162" rx="49.7962" ry="18"/>
<text text-anchor="middle" x="250.9955" y="-157.8" font-family="Times,serif" font-size="14.00" fill="#000000">atribuicao</text>
</g>
<!-- expressao&#45;&gt;atribuicao -->
<g id="edge6" class="edge">
<title>expressao&#45;&gt;atribuicao</title>
<path fill="none" stroke="#000000" d="M245.0431,-215.8314C244.2811,-208.0125 244.0651,-198.6923 244.395,-190.0221"/>
<polygon fill="#000000" stroke="#000000" points="247.8959,-190.1239 245.0682,-179.9134 240.9114,-189.6587 247.8959,-190.1239"/>
</g>
<!-- expressao&#45;&gt;atribuicao -->
<g id="edge19" class="edge">
<title>expressao&#45;&gt;atribuicao</title>
<path fill="none" stroke="#000000" d="M256.9479,-215.8314C257.7099,-208.0125 257.9259,-198.6923 257.596,-190.0221"/>
<polygon fill="#000000" stroke="#000000" points="261.0796,-189.6587 256.9228,-179.9134 254.0951,-190.1239 261.0796,-189.6587"/>
</g>
<!-- atribuicao&#45;&gt;a -->
<g id="edge7" class="edge">
<title>atribuicao&#45;&gt;a</title>
<path fill="none" stroke="#000000" d="M237.1947,-144.6995C229.4277,-134.4326 219.9277,-120.9326 212.9955,-108 202.2195,-87.8965 193.0118,-63.7407 186.749,-45.5183"/>
<polygon fill="#000000" stroke="#000000" points="189.9921,-44.1803 183.497,-35.8099 183.3546,-46.4038 189.9921,-44.1803"/>
</g>
<!-- atribuicao&#45;&gt;b -->
<g id="edge20" class="edge">
<title>atribuicao&#45;&gt;b</title>
<path fill="none" stroke="#000000" d="M226.4166,-146.1993C208.93,-134.9579 185.3998,-119.8313 167.1563,-108.1033"/>
<polygon fill="#000000" stroke="#000000" points="168.9792,-105.1144 158.6747,-102.6509 165.1938,-111.0027 168.9792,-105.1144"/>
</g>
<!-- fator -->
<g id="node8" class="node">
<title>fator</title>
<ellipse fill="none" stroke="#000000" cx="250.9955" cy="-90" rx="29.0318" ry="18"/>
<text text-anchor="middle" x="250.9955" y="-85.8" font-family="Times,serif" font-size="14.00" fill="#000000">fator</text>
</g>
<!-- atribuicao&#45;&gt;fator -->
<g id="edge8" class="edge">
<title>atribuicao&#45;&gt;fator</title>
<path fill="none" stroke="#000000" d="M233.4757,-144.937C230.6071,-135.9248 229.999,-124.6992 231.6515,-114.7486"/>
<polygon fill="#000000" stroke="#000000" points="235.0605,-115.5459 234.1918,-104.9868 228.2861,-113.783 235.0605,-115.5459"/>
</g>
<!-- atribuicao&#45;&gt;fator -->
<g id="edge12" class="edge">
<title>atribuicao&#45;&gt;fator</title>
<path fill="none" stroke="#000000" d="M245.0431,-143.8314C244.2811,-136.0125 244.0651,-126.6923 244.395,-118.0221"/>
<polygon fill="#000000" stroke="#000000" points="247.8959,-118.1239 245.0682,-107.9134 240.9114,-117.6587 247.8959,-118.1239"/>
</g>
<!-- atribuicao&#45;&gt;fator -->
<g id="edge21" class="edge">
<title>atribuicao&#45;&gt;fator</title>
<path fill="none" stroke="#000000" d="M256.9479,-143.8314C257.7099,-136.0125 257.9259,-126.6923 257.596,-118.0221"/>
<polygon fill="#000000" stroke="#000000" points="261.0796,-117.6587 256.9228,-107.9134 254.0951,-118.1239 261.0796,-117.6587"/>
</g>
<!-- atribuicao&#45;&gt;fator -->
<g id="edge24" class="edge">
<title>atribuicao&#45;&gt;fator</title>
<path fill="none" stroke="#000000" d="M268.5153,-144.937C271.3839,-135.9248 271.992,-124.6992 270.3396,-114.7486"/>
<polygon fill="#000000" stroke="#000000" points="273.7049,-113.783 267.7992,-104.9868 266.9305,-115.5459 273.7049,-113.783"/>
</g>
<!-- fator&#45;&gt;a -->
<g id="edge13" class="edge">
<title>fator&#45;&gt;a</title>
<path fill="none" stroke="#000000" d="M235.1556,-74.3771C225.0706,-64.4302 211.848,-51.3888 200.6606,-40.3547"/>
<polygon fill="#000000" stroke="#000000" points="202.8817,-37.6293 193.3043,-33.099 197.9662,-42.6131 202.8817,-37.6293"/>
</g>
<!-- 10.2 -->
<g id="node9" class="node">
<title>10.2</title>
<ellipse fill="none" stroke="#000000" cx="250.9955" cy="-18" rx="27.8725" ry="18"/>
<text text-anchor="middle" x="250.9955" y="-13.8" font-family="Times,serif" font-size="14.00" fill="#000000">10.2</text>
</g>
<!-- fator&#45;&gt;10.2 -->
<g id="edge9" class="edge">
<title>fator&#45;&gt;10.2</title>
<path fill="none" stroke="#000000" d="M250.9955,-71.8314C250.9955,-64.131 250.9955,-54.9743 250.9955,-46.4166"/>
<polygon fill="#000000" stroke="#000000" points="254.4956,-46.4132 250.9955,-36.4133 247.4956,-46.4133 254.4956,-46.4132"/>
</g>
<!-- 5 -->
<g id="node15" class="node">
<title>5</title>
<ellipse fill="none" stroke="#000000" cx="323.9955" cy="-18" rx="27" ry="18"/>
<text text-anchor="middle" x="323.9955" y="-13.8" font-family="Times,serif" font-size="14.00" fill="#000000">5</text>
</g>
<!-- fator&#45;&gt;5 -->
<g id="edge22" class="edge">
<title>fator&#45;&gt;5</title>
<path fill="none" stroke="#000000" d="M266.8354,-74.3771C276.9204,-64.4302 290.143,-51.3888 301.3304,-40.3547"/>
<polygon fill="#000000" stroke="#000000" points="304.0248,-42.6131 308.6868,-33.099 299.1093,-37.6293 304.0248,-42.6131"/>
</g>
<!-- retorna&#45;&gt;expressao -->
<g id="edge11" class="edge">
<title>retorna&#45;&gt;expressao</title>
<path fill="none" stroke="#000000" d="M316.3532,-290.0209C305.1721,-280.4371 290.7528,-268.0777 278.3038,-257.4071"/>
<polygon fill="#000000" stroke="#000000" points="280.3318,-254.5356 270.4614,-250.6851 275.7762,-259.8504 280.3318,-254.5356"/>
</g>
<!-- func -->
<g id="node12" class="node">
<title>func</title>
<ellipse fill="none" stroke="#000000" cx="211.9955" cy="-450" rx="28.3913" ry="18"/>
<text text-anchor="middle" x="211.9955" y="-445.8" font-family="Times,serif" font-size="14.00" fill="#000000">func</text>
</g>
<!-- declaracao_funcao&#45;&gt;func -->
<g id="edge14" class="edge">
<title>declaracao_funcao&#45;&gt;func</title>
<path fill="none" stroke="#000000" d="M211.9955,-503.8314C211.9955,-496.131 211.9955,-486.9743 211.9955,-478.4166"/>
<polygon fill="#000000" stroke="#000000" points="215.4956,-478.4132 211.9955,-468.4133 208.4956,-478.4133 215.4956,-478.4132"/>
</g>
<!-- principal -->
<g id="node16" class="node">
<title>principal</title>
<ellipse fill="none" stroke="#000000" cx="303.9955" cy="-450" rx="45.2227" ry="18"/>
<text text-anchor="middle" x="303.9955" y="-445.8" font-family="Times,serif" font-size="14.00" fill="#000000">principal</text>
</g>
<!-- declaracao_funcao&#45;&gt;principal -->
<g id="edge25" class="edge">
<title>declaracao_funcao&#45;&gt;principal</title>
<path fill="none" stroke="#000000" d="M234.2661,-504.5708C246.597,-494.9206 262.0606,-482.8186 275.2904,-472.4649"/>
<polygon fill="#000000" stroke="#000000" points="277.4731,-475.2011 283.1911,-466.2817 273.159,-469.6885 277.4731,-475.2011"/>
</g>
<!-- func&#45;&gt;acao -->
<g id="edge15" class="edge">
<title>func&#45;&gt;acao</title>
<path fill="none" stroke="#000000" d="M221.238,-432.937C225.8331,-424.4537 231.4905,-414.0092 236.6343,-404.513"/>
<polygon fill="#000000" stroke="#000000" points="239.8631,-405.9006 241.5485,-395.4407 233.7081,-402.5666 239.8631,-405.9006"/>
</g>
<!-- tipo -->
<g id="node13" class="node">
<title>tipo</title>
<ellipse fill="none" stroke="#000000" cx="375.9955" cy="-378" rx="27" ry="18"/>
<text text-anchor="middle" x="375.9955" y="-373.8" font-family="Times,serif" font-size="14.00" fill="#000000">tipo</text>
</g>
<!-- inteiro -->
<g id="node14" class="node">
<title>inteiro</title>
<ellipse fill="none" stroke="#000000" cx="427.9955" cy="-306" rx="36.4936" ry="18"/>
<text text-anchor="middle" x="427.9955" y="-301.8" font-family="Times,serif" font-size="14.00" fill="#000000">inteiro</text>
</g>
<!-- tipo&#45;&gt;inteiro -->
<g id="edge17" class="edge">
<title>tipo&#45;&gt;inteiro</title>
<path fill="none" stroke="#000000" d="M387.7951,-361.6621C394.3032,-352.6509 402.5236,-341.2688 409.8325,-331.1488"/>
<polygon fill="#000000" stroke="#000000" points="412.6825,-333.1806 415.7,-323.0245 407.0077,-329.0821 412.6825,-333.1806"/>
</g>
<!-- principal&#45;&gt;acao -->
<g id="edge26" class="edge">
<title>principal&#45;&gt;acao</title>
<path fill="none" stroke="#000000" d="M291.1657,-432.5708C284.6259,-423.6866 276.5566,-412.7245 269.3699,-402.9615"/>
<polygon fill="#000000" stroke="#000000" points="272.0891,-400.7514 263.3422,-394.7729 266.4518,-404.9012 272.0891,-400.7514"/>
</g>
<!-- principal&#45;&gt;tipo -->
<g id="edge27" class="edge">
<title>principal&#45;&gt;tipo</title>
<path fill="none" stroke="#000000" d="M321.0585,-432.937C330.8296,-423.1659 343.2027,-410.7928 353.7316,-400.2639"/>
<polygon fill="#000000" stroke="#000000" points="356.4125,-402.5327 361.0087,-392.9868 351.4628,-397.583 356.4125,-402.5327"/>
</g>
</g>
</svg>
