<?xml version="1.0" encoding="UTF-8" standalone="no"?>
<!DOCTYPE svg PUBLIC "-//W3C//DTD SVG 1.1//EN"
 "http://www.w3.org/Graphics/SVG/1.1/DTD/svg11.dtd">
<!-- Generated by graphviz version 2.40.1 (20161225.0304)
 -->
<!-- Title: G Pages: 1 -->
<svg width="805pt" height="980pt"
 viewBox="0.00 0.00 805.41 980.00" xmlns="http://www.w3.org/2000/svg" xmlns:xlink="http://www.w3.org/1999/xlink">
<g id="graph0" class="graph" transform="scale(1 1) rotate(0) translate(4 976)">
<title>G</title>
<polygon fill="#ffffff" stroke="transparent" points="-4,4 -4,-976 801.4143,-976 801.4143,4 -4,4"/>
<!-- tipo -->
<g id="node1" class="node">
<title>tipo</title>
<ellipse fill="none" stroke="#000000" cx="191.4143" cy="-810" rx="27" ry="18"/>
<text text-anchor="middle" x="191.4143" y="-805.8" font-family="Times,serif" font-size="14.00" fill="#000000">tipo</text>
</g>
<!-- inteiro -->
<g id="node2" class="node">
<title>inteiro</title>
<ellipse fill="none" stroke="#000000" cx="191.4143" cy="-738" rx="36.4936" ry="18"/>
<text text-anchor="middle" x="191.4143" y="-733.8" font-family="Times,serif" font-size="14.00" fill="#000000">inteiro</text>
</g>
<!-- tipo&#45;&gt;inteiro -->
<g id="edge1" class="edge">
<title>tipo&#45;&gt;inteiro</title>
<path fill="none" stroke="#000000" d="M179.8927,-793.6621C178.0067,-785.2525 177.4691,-774.7781 178.2801,-765.1915"/>
<polygon fill="#000000" stroke="#000000" points="181.7472,-765.6703 179.6894,-755.2773 174.8168,-764.6852 181.7472,-765.6703"/>
</g>
<!-- tipo&#45;&gt;inteiro -->
<g id="edge8" class="edge">
<title>tipo&#45;&gt;inteiro</title>
<path fill="none" stroke="#000000" d="M191.4143,-791.8314C191.4143,-784.131 191.4143,-774.9743 191.4143,-766.4166"/>
<polygon fill="#000000" stroke="#000000" points="194.9144,-766.4132 191.4143,-756.4133 187.9144,-766.4133 194.9144,-766.4132"/>
</g>
<!-- tipo&#45;&gt;inteiro -->
<g id="edge10" class="edge">
<title>tipo&#45;&gt;inteiro</title>
<path fill="none" stroke="#000000" d="M202.936,-793.6621C204.822,-785.2525 205.3595,-774.7781 204.5486,-765.1915"/>
<polygon fill="#000000" stroke="#000000" points="208.0119,-764.6852 203.1393,-755.2773 201.0815,-765.6703 208.0119,-764.6852"/>
</g>
<!-- var -->
<g id="node3" class="node">
<title>var</title>
<ellipse fill="none" stroke="#000000" cx="417.4143" cy="-738" rx="27" ry="18"/>
<text text-anchor="middle" x="417.4143" y="-733.8" font-family="Times,serif" font-size="14.00" fill="#000000">var</text>
</g>
<!-- a -->
<g id="node4" class="node">
<title>a</title>
<ellipse fill="none" stroke="#000000" cx="345.4143" cy="-666" rx="27" ry="18"/>
<text text-anchor="middle" x="345.4143" y="-661.8" font-family="Times,serif" font-size="14.00" fill="#000000">a</text>
</g>
<!-- var&#45;&gt;a -->
<g id="edge2" class="edge">
<title>var&#45;&gt;a</title>
<path fill="none" stroke="#000000" d="M396.0393,-726.75C383.4078,-717.2764 368.5602,-703.3706 357.7171,-691.2532"/>
<polygon fill="#000000" stroke="#000000" points="360.3725,-688.973 351.2334,-683.6132 355.0353,-693.5024 360.3725,-688.973"/>
</g>
<!-- var&#45;&gt;a -->
<g id="edge17" class="edge">
<title>var&#45;&gt;a</title>
<path fill="none" stroke="#000000" d="M402.145,-722.7307C392.2173,-712.803 379.099,-699.6847 367.978,-688.5637"/>
<polygon fill="#000000" stroke="#000000" points="370.2077,-685.8436 360.6617,-681.2473 365.2579,-690.7933 370.2077,-685.8436"/>
</g>
<!-- var&#45;&gt;a -->
<g id="edge31" class="edge">
<title>var&#45;&gt;a</title>
<path fill="none" stroke="#000000" d="M411.448,-720.2022C402.5709,-709.0979 388.3285,-694.8579 374.9989,-683.7606"/>
<polygon fill="#000000" stroke="#000000" points="376.8825,-680.7872 366.8734,-677.3131 372.5314,-686.2707 376.8825,-680.7872"/>
</g>
<!-- ret -->
<g id="node11" class="node">
<title>ret</title>
<ellipse fill="none" stroke="#000000" cx="417.4143" cy="-666" rx="27" ry="18"/>
<text text-anchor="middle" x="417.4143" y="-661.8" font-family="Times,serif" font-size="14.00" fill="#000000">ret</text>
</g>
<!-- var&#45;&gt;ret -->
<g id="edge11" class="edge">
<title>var&#45;&gt;ret</title>
<path fill="none" stroke="#000000" d="M400.7684,-723.4297C397.1247,-713.9634 396.2438,-701.3888 398.1258,-690.4197"/>
<polygon fill="#000000" stroke="#000000" points="401.5632,-691.1142 400.7768,-680.5486 394.8028,-689.2986 401.5632,-691.1142"/>
</g>
<!-- var&#45;&gt;ret -->
<g id="edge47" class="edge">
<title>var&#45;&gt;ret</title>
<path fill="none" stroke="#000000" d="M411.4986,-720.2022C410.6942,-712.1807 410.4715,-702.5231 410.8306,-693.5957"/>
<polygon fill="#000000" stroke="#000000" points="414.324,-693.8099 411.5193,-683.593 407.3405,-693.3289 414.324,-693.8099"/>
</g>
<!-- var&#45;&gt;ret -->
<g id="edge61" class="edge">
<title>var&#45;&gt;ret</title>
<path fill="none" stroke="#000000" d="M423.3301,-720.2022C424.1345,-712.1807 424.3572,-702.5231 423.9981,-693.5957"/>
<polygon fill="#000000" stroke="#000000" points="427.4881,-693.3289 423.3094,-683.593 420.5047,-693.8099 427.4881,-693.3289"/>
</g>
<!-- var&#45;&gt;ret -->
<g id="edge80" class="edge">
<title>var&#45;&gt;ret</title>
<path fill="none" stroke="#000000" d="M434.0603,-723.4297C437.704,-713.9634 438.5849,-701.3888 436.7029,-690.4197"/>
<polygon fill="#000000" stroke="#000000" points="440.0259,-689.2986 434.0519,-680.5486 433.2654,-691.1142 440.0259,-689.2986"/>
</g>
<!-- expressao -->
<g id="node22" class="node">
<title>expressao</title>
<ellipse fill="none" stroke="#000000" cx="511.4143" cy="-666" rx="49.2163" ry="18"/>
<text text-anchor="middle" x="511.4143" y="-661.8" font-family="Times,serif" font-size="14.00" fill="#000000">expressao</text>
</g>
<!-- var&#45;&gt;expressao -->
<g id="edge27" class="edge">
<title>var&#45;&gt;expressao</title>
<path fill="none" stroke="#000000" d="M427.6145,-721.3008C439.0776,-710.7588 456.7235,-697.0819 473.1141,-685.9673"/>
<polygon fill="#000000" stroke="#000000" points="475.1085,-688.8447 481.5316,-680.4188 471.256,-683.0002 475.1085,-688.8447"/>
</g>
<!-- var&#45;&gt;expressao -->
<g id="edge57" class="edge">
<title>var&#45;&gt;expressao</title>
<path fill="none" stroke="#000000" d="M435.5385,-724.1177C448.6826,-714.0498 466.7462,-700.2139 481.9512,-688.5675"/>
<polygon fill="#000000" stroke="#000000" points="484.2444,-691.2198 490.0549,-682.3604 479.9878,-685.6626 484.2444,-691.2198"/>
</g>
<!-- var&#45;&gt;expressao -->
<g id="edge71" class="edge">
<title>var&#45;&gt;expressao</title>
<path fill="none" stroke="#000000" d="M440.1746,-727.9887C456.3449,-718.3384 476.9697,-703.3531 492.2562,-690.5337"/>
<polygon fill="#000000" stroke="#000000" points="494.8867,-692.8846 500.1373,-683.6823 490.2941,-687.6018 494.8867,-692.8846"/>
</g>
<!-- lista_variaveis -->
<g id="node5" class="node">
<title>lista_variaveis</title>
<ellipse fill="none" stroke="#000000" cx="384.4143" cy="-810" rx="66.6267" ry="18"/>
<text text-anchor="middle" x="384.4143" y="-805.8" font-family="Times,serif" font-size="14.00" fill="#000000">lista_variaveis</text>
</g>
<!-- lista_variaveis&#45;&gt;var -->
<g id="edge3" class="edge">
<title>lista_variaveis&#45;&gt;var</title>
<path fill="none" stroke="#000000" d="M386.7892,-791.8314C389.9464,-783.083 394.6484,-772.455 399.5142,-762.9611"/>
<polygon fill="#000000" stroke="#000000" points="402.7053,-764.4179 404.3834,-753.9568 396.5479,-761.0882 402.7053,-764.4179"/>
</g>
<!-- lista_variaveis&#45;&gt;var -->
<g id="edge12" class="edge">
<title>lista_variaveis&#45;&gt;var</title>
<path fill="none" stroke="#000000" d="M398.4874,-792.2022C402.9974,-784.1287 407.6778,-774.3976 411.4226,-765.422"/>
<polygon fill="#000000" stroke="#000000" points="414.6883,-766.6812 415.0667,-756.0931 408.168,-764.1342 414.6883,-766.6812"/>
</g>
<!-- declaracao_variaveis -->
<g id="node6" class="node">
<title>declaracao_variaveis</title>
<ellipse fill="none" stroke="#000000" cx="276.4143" cy="-882" rx="91.991" ry="18"/>
<text text-anchor="middle" x="276.4143" y="-877.8" font-family="Times,serif" font-size="14.00" fill="#000000">declaracao_variaveis</text>
</g>
<!-- declaracao_variaveis&#45;&gt;tipo -->
<g id="edge4" class="edge">
<title>declaracao_variaveis&#45;&gt;tipo</title>
<path fill="none" stroke="#000000" d="M249.96,-864.5708C237.6318,-854.9674 223.2818,-842.936 211.7964,-832.6157"/>
<polygon fill="#000000" stroke="#000000" points="214.0974,-829.9769 204.3627,-825.7951 209.3649,-835.1348 214.0974,-829.9769"/>
</g>
<!-- declaracao_variaveis&#45;&gt;tipo -->
<g id="edge13" class="edge">
<title>declaracao_variaveis&#45;&gt;tipo</title>
<path fill="none" stroke="#000000" d="M261.3188,-864.2022C249.6956,-853.4427 233.5504,-839.7394 219.6255,-828.8034"/>
<polygon fill="#000000" stroke="#000000" points="221.3632,-825.7244 211.3025,-822.4028 217.096,-831.2734 221.3632,-825.7244"/>
</g>
<!-- declaracao_variaveis&#45;&gt;lista_variaveis -->
<g id="edge5" class="edge">
<title>declaracao_variaveis&#45;&gt;lista_variaveis</title>
<path fill="none" stroke="#000000" d="M296.937,-864.3868C310.6898,-854.5513 329.0773,-842.2128 345.4934,-831.7753"/>
<polygon fill="#000000" stroke="#000000" points="347.7624,-834.4833 354.3686,-826.2003 344.0389,-828.5557 347.7624,-834.4833"/>
</g>
<!-- declaracao_variaveis&#45;&gt;lista_variaveis -->
<g id="edge14" class="edge">
<title>declaracao_variaveis&#45;&gt;lista_variaveis</title>
<path fill="none" stroke="#000000" d="M307.8488,-864.937C323.1466,-855.4122 341.3115,-843.4149 356.1659,-833.0635"/>
<polygon fill="#000000" stroke="#000000" points="358.3332,-835.8177 364.4826,-827.19 354.2952,-830.0998 358.3332,-835.8177"/>
</g>
<!-- declaracao -->
<g id="node7" class="node">
<title>declaracao</title>
<ellipse fill="none" stroke="#000000" cx="404.4143" cy="-954" rx="52.1251" ry="18"/>
<text text-anchor="middle" x="404.4143" y="-949.8" font-family="Times,serif" font-size="14.00" fill="#000000">declaracao</text>
</g>
<!-- declaracao&#45;&gt;declaracao_variaveis -->
<g id="edge6" class="edge">
<title>declaracao&#45;&gt;declaracao_variaveis</title>
<path fill="none" stroke="#000000" d="M376.9551,-938.5542C359.1186,-928.5211 335.5874,-915.2849 315.7745,-904.1401"/>
<polygon fill="#000000" stroke="#000000" points="317.3985,-901.0379 306.9668,-899.1857 313.9666,-907.1389 317.3985,-901.0379"/>
</g>
<!-- lista_declaracoes -->
<g id="node8" class="node">
<title>lista_declaracoes</title>
<ellipse fill="none" stroke="#000000" cx="463.4143" cy="-882" rx="76.9792" ry="18"/>
<text text-anchor="middle" x="463.4143" y="-877.8" font-family="Times,serif" font-size="14.00" fill="#000000">lista_declaracoes</text>
</g>
<!-- declaracao&#45;&gt;lista_declaracoes -->
<g id="edge98" class="edge">
<title>declaracao&#45;&gt;lista_declaracoes</title>
<path fill="none" stroke="#000000" d="M407.3977,-935.8314C412.9407,-926.956 421.4758,-916.1462 430.4245,-906.5486"/>
<polygon fill="#000000" stroke="#000000" points="433.1499,-908.7676 437.6405,-899.1715 428.1459,-903.8727 433.1499,-908.7676"/>
</g>
<!-- declaracao_funcao -->
<g id="node33" class="node">
<title>declaracao_funcao</title>
<ellipse fill="none" stroke="#000000" cx="83.4143" cy="-882" rx="83.3288" ry="18"/>
<text text-anchor="middle" x="83.4143" y="-877.8" font-family="Times,serif" font-size="14.00" fill="#000000">declaracao_funcao</text>
</g>
<!-- declaracao&#45;&gt;declaracao_funcao -->
<g id="edge96" class="edge">
<title>declaracao&#45;&gt;declaracao_funcao</title>
<path fill="none" stroke="#000000" d="M360.4537,-944.1397C306.505,-932.039 214.4426,-911.3895 151.3595,-897.24"/>
<polygon fill="#000000" stroke="#000000" points="152.0178,-893.8008 141.4942,-895.0273 150.4857,-900.6311 152.0178,-893.8008"/>
</g>
<!-- lista_declaracoes&#45;&gt;declaracao -->
<g id="edge7" class="edge">
<title>lista_declaracoes&#45;&gt;declaracao</title>
<path fill="none" stroke="#000000" d="M448.8537,-899.7689C441.743,-908.4464 433.059,-919.0438 425.2603,-928.5608"/>
<polygon fill="#000000" stroke="#000000" points="422.3277,-926.6176 418.6966,-936.5708 427.742,-931.0544 422.3277,-926.6176"/>
</g>
<!-- lista_declaracoes&#45;&gt;declaracao -->
<g id="edge97" class="edge">
<title>lista_declaracoes&#45;&gt;declaracao</title>
<path fill="none" stroke="#000000" d="M460.4,-900.2181C454.5953,-909.5014 445.5276,-920.8914 436.1404,-930.7959"/>
<polygon fill="#000000" stroke="#000000" points="433.5228,-928.4644 428.9484,-938.0209 438.4839,-933.4028 433.5228,-928.4644"/>
</g>
<!-- lista_parametros -->
<g id="node9" class="node">
<title>lista_parametros</title>
<ellipse fill="none" stroke="#000000" cx="83.4143" cy="-666" rx="74.713" ry="18"/>
<text text-anchor="middle" x="83.4143" y="-661.8" font-family="Times,serif" font-size="14.00" fill="#000000">lista_parametros</text>
</g>
<!-- parametro -->
<g id="node10" class="node">
<title>parametro</title>
<ellipse fill="none" stroke="#000000" cx="75.4143" cy="-594" rx="50.3586" ry="18"/>
<text text-anchor="middle" x="75.4143" y="-589.8" font-family="Times,serif" font-size="14.00" fill="#000000">parametro</text>
</g>
<!-- lista_parametros&#45;&gt;parametro -->
<g id="edge9" class="edge">
<title>lista_parametros&#45;&gt;parametro</title>
<path fill="none" stroke="#000000" d="M81.3956,-647.8314C80.54,-640.131 79.5226,-630.9743 78.5717,-622.4166"/>
<polygon fill="#000000" stroke="#000000" points="82.0433,-621.9656 77.4603,-612.4133 75.0861,-622.7386 82.0433,-621.9656"/>
</g>
<!-- corpo -->
<g id="node13" class="node">
<title>corpo</title>
<ellipse fill="none" stroke="#000000" cx="176.4143" cy="-594" rx="33.0469" ry="18"/>
<text text-anchor="middle" x="176.4143" y="-589.8" font-family="Times,serif" font-size="14.00" fill="#000000">corpo</text>
</g>
<!-- lista_parametros&#45;&gt;corpo -->
<g id="edge93" class="edge">
<title>lista_parametros&#45;&gt;corpo</title>
<path fill="none" stroke="#000000" d="M105.927,-648.5708C118.9262,-638.507 135.3693,-625.7768 149.1038,-615.1436"/>
<polygon fill="#000000" stroke="#000000" points="151.4858,-617.7259 157.2504,-608.8366 147.2005,-612.1908 151.4858,-617.7259"/>
</g>
<!-- acao -->
<g id="node12" class="node">
<title>acao</title>
<ellipse fill="none" stroke="#000000" cx="216.4143" cy="-522" rx="28.952" ry="18"/>
<text text-anchor="middle" x="216.4143" y="-517.8" font-family="Times,serif" font-size="14.00" fill="#000000">acao</text>
</g>
<!-- acao&#45;&gt;declaracao_variaveis -->
<g id="edge15" class="edge">
<title>acao&#45;&gt;declaracao_variaveis</title>
<path fill="none" stroke="#000000" d="M224.3066,-539.3241C235.7025,-565.9654 255.4143,-618.8608 255.4143,-666 255.4143,-738 255.4143,-738 255.4143,-738 255.4143,-778.7271 263.7413,-825.2616 269.9082,-854.1405"/>
<polygon fill="#000000" stroke="#000000" points="266.4966,-854.9232 272.0631,-863.9379 273.3332,-853.4194 266.4966,-854.9232"/>
</g>
<!-- acao&#45;&gt;expressao -->
<g id="edge29" class="edge">
<title>acao&#45;&gt;expressao</title>
<path fill="none" stroke="#000000" d="M225.7157,-539.1406C246.8926,-558.7873 292.475,-590.9776 335.4143,-612 356.6542,-622.3987 415.0007,-641.4775 459.1867,-653.948"/>
<polygon fill="#000000" stroke="#000000" points="458.3751,-657.355 468.9469,-656.6574 460.2475,-650.61 458.3751,-657.355"/>
</g>
<!-- acao&#45;&gt;expressao -->
<g id="edge59" class="edge">
<title>acao&#45;&gt;expressao</title>
<path fill="none" stroke="#000000" d="M234.5772,-536.0947C260.0011,-555.3063 308.1747,-589.8514 353.4143,-612 373.2156,-621.6944 425.2673,-638.9329 464.2537,-651.3279"/>
<polygon fill="#000000" stroke="#000000" points="463.2664,-654.6865 473.8565,-654.3673 465.3788,-648.0128 463.2664,-654.6865"/>
</g>
<!-- acao&#45;&gt;expressao -->
<g id="edge73" class="edge">
<title>acao&#45;&gt;expressao</title>
<path fill="none" stroke="#000000" d="M240.4846,-532.4074C271.4557,-550.5653 323.1076,-588.3498 371.4143,-612 389.7984,-621.0005 435.9817,-636.504 470.6768,-648.5966"/>
<polygon fill="#000000" stroke="#000000" points="469.5305,-651.9036 480.1253,-651.9087 471.8461,-645.2976 469.5305,-651.9036"/>
</g>
<!-- se -->
<g id="node29" class="node">
<title>se</title>
<ellipse fill="none" stroke="#000000" cx="369.4143" cy="-450" rx="27" ry="18"/>
<text text-anchor="middle" x="369.4143" y="-445.8" font-family="Times,serif" font-size="14.00" fill="#000000">se</text>
</g>
<!-- acao&#45;&gt;se -->
<g id="edge78" class="edge">
<title>acao&#45;&gt;se</title>
<path fill="none" stroke="#000000" d="M239.6517,-511.0647C265.7886,-498.765 308.3929,-478.716 337.6062,-464.9685"/>
<polygon fill="#000000" stroke="#000000" points="339.3989,-467.9931 346.9568,-460.5683 336.4183,-461.6594 339.3989,-467.9931"/>
</g>
<!-- retorna -->
<g id="node30" class="node">
<title>retorna</title>
<ellipse fill="none" stroke="#000000" cx="271.4143" cy="-450" rx="38.2607" ry="18"/>
<text text-anchor="middle" x="271.4143" y="-445.8" font-family="Times,serif" font-size="14.00" fill="#000000">retorna</text>
</g>
<!-- acao&#45;&gt;retorna -->
<g id="edge89" class="edge">
<title>acao&#45;&gt;retorna</title>
<path fill="none" stroke="#000000" d="M228.8947,-505.6621C235.7782,-496.6509 244.4729,-485.2688 252.2035,-475.1488"/>
<polygon fill="#000000" stroke="#000000" points="255.1204,-477.0959 258.4095,-467.0245 249.5577,-472.8466 255.1204,-477.0959"/>
</g>
<!-- corpo&#45;&gt;acao -->
<g id="edge16" class="edge">
<title>corpo&#45;&gt;acao</title>
<path fill="none" stroke="#000000" d="M156.7657,-579.4297C155.6648,-566.6228 166.1525,-548.1269 181.7445,-535.6139"/>
<polygon fill="#000000" stroke="#000000" points="184.0948,-538.244 190.3291,-529.6775 180.1134,-532.4865 184.0948,-538.244"/>
</g>
<!-- corpo&#45;&gt;acao -->
<g id="edge30" class="edge">
<title>corpo&#45;&gt;acao</title>
<path fill="none" stroke="#000000" d="M168.5548,-576.2022C171.2256,-565.716 178.4325,-552.4336 187.2381,-541.6419"/>
<polygon fill="#000000" stroke="#000000" points="190.0871,-543.7118 194.2348,-533.9626 184.9127,-538.9974 190.0871,-543.7118"/>
</g>
<!-- corpo&#45;&gt;acao -->
<g id="edge60" class="edge">
<title>corpo&#45;&gt;acao</title>
<path fill="none" stroke="#000000" d="M180.5556,-575.8314C184.605,-566.9918 190.4183,-556.2334 196.2683,-546.6648"/>
<polygon fill="#000000" stroke="#000000" points="199.3973,-548.2681 201.832,-537.9568 193.4985,-544.4992 199.3973,-548.2681"/>
</g>
<!-- corpo&#45;&gt;acao -->
<g id="edge74" class="edge">
<title>corpo&#45;&gt;acao</title>
<path fill="none" stroke="#000000" d="M191.2518,-577.6621C196.8616,-569.2603 202.9434,-558.7974 207.8614,-549.2181"/>
<polygon fill="#000000" stroke="#000000" points="211.0983,-550.5652 212.3308,-540.0423 204.8052,-547.4999 211.0983,-550.5652"/>
</g>
<!-- corpo&#45;&gt;acao -->
<g id="edge79" class="edge">
<title>corpo&#45;&gt;acao</title>
<path fill="none" stroke="#000000" d="M199.5132,-581.1278C208.3833,-572.2089 216.406,-560.0056 221.0907,-549.001"/>
<polygon fill="#000000" stroke="#000000" points="224.4633,-549.9549 224.383,-539.3603 217.839,-547.6925 224.4633,-549.9549"/>
</g>
<!-- corpo&#45;&gt;acao -->
<g id="edge90" class="edge">
<title>corpo&#45;&gt;acao</title>
<path fill="none" stroke="#000000" d="M205.3,-584.5873C220.3439,-574.7599 231.8803,-558.9604 235.1834,-545.6948"/>
<polygon fill="#000000" stroke="#000000" points="238.7019,-545.557 235.9179,-535.3345 231.7194,-545.0619 238.7019,-545.557"/>
</g>
<!-- corpo&#45;&gt;corpo -->
<g id="edge77" class="edge">
<title>corpo&#45;&gt;corpo</title>
<path fill="none" stroke="#000000" d="M200.0326,-606.6563C214.1504,-609.4688 227.4378,-605.25 227.4378,-594 227.4378,-585.5625 219.9636,-581.0801 210.2706,-580.5527"/>
<polygon fill="#000000" stroke="#000000" points="209.7333,-577.0837 200.0326,-581.3438 210.2725,-584.0629 209.7333,-577.0837"/>
</g>
<!-- numero -->
<g id="node14" class="node">
<title>numero</title>
<ellipse fill="none" stroke="#000000" cx="511.4143" cy="-90" rx="40.5712" ry="18"/>
<text text-anchor="middle" x="511.4143" y="-85.8" font-family="Times,serif" font-size="14.00" fill="#000000">numero</text>
</g>
<!-- 10 -->
<g id="node15" class="node">
<title>10</title>
<ellipse fill="none" stroke="#000000" cx="403.4143" cy="-18" rx="27" ry="18"/>
<text text-anchor="middle" x="403.4143" y="-13.8" font-family="Times,serif" font-size="14.00" fill="#000000">10</text>
</g>
<!-- numero&#45;&gt;10 -->
<g id="edge18" class="edge">
<title>numero&#45;&gt;10</title>
<path fill="none" stroke="#000000" d="M488.774,-74.9064C471.9769,-63.7084 448.9847,-48.3802 431.0944,-36.4534"/>
<polygon fill="#000000" stroke="#000000" points="433.0333,-33.5395 422.7713,-30.9046 429.1503,-39.3638 433.0333,-33.5395"/>
</g>
<!-- 5 -->
<g id="node26" class="node">
<title>5</title>
<ellipse fill="none" stroke="#000000" cx="475.4143" cy="-18" rx="27" ry="18"/>
<text text-anchor="middle" x="475.4143" y="-13.8" font-family="Times,serif" font-size="14.00" fill="#000000">5</text>
</g>
<!-- numero&#45;&gt;5 -->
<g id="edge38" class="edge">
<title>numero&#45;&gt;5</title>
<path fill="none" stroke="#000000" d="M502.5155,-72.2022C498.3121,-63.7955 493.2102,-53.5917 488.5718,-44.3149"/>
<polygon fill="#000000" stroke="#000000" points="491.5656,-42.4762 483.963,-35.0972 485.3046,-45.6068 491.5656,-42.4762"/>
</g>
<!-- 1 -->
<g id="node27" class="node">
<title>1</title>
<ellipse fill="none" stroke="#000000" cx="547.4143" cy="-18" rx="27" ry="18"/>
<text text-anchor="middle" x="547.4143" y="-13.8" font-family="Times,serif" font-size="14.00" fill="#000000">1</text>
</g>
<!-- numero&#45;&gt;1 -->
<g id="edge48" class="edge">
<title>numero&#45;&gt;1</title>
<path fill="none" stroke="#000000" d="M520.3132,-72.2022C524.5166,-63.7955 529.6185,-53.5917 534.2569,-44.3149"/>
<polygon fill="#000000" stroke="#000000" points="537.524,-45.6068 538.8657,-35.0972 531.263,-42.4762 537.524,-45.6068"/>
</g>
<!-- 0 -->
<g id="node28" class="node">
<title>0</title>
<ellipse fill="none" stroke="#000000" cx="619.4143" cy="-18" rx="27" ry="18"/>
<text text-anchor="middle" x="619.4143" y="-13.8" font-family="Times,serif" font-size="14.00" fill="#000000">0</text>
</g>
<!-- numero&#45;&gt;0 -->
<g id="edge62" class="edge">
<title>numero&#45;&gt;0</title>
<path fill="none" stroke="#000000" d="M534.0547,-74.9064C550.8518,-63.7084 573.844,-48.3802 591.7343,-36.4534"/>
<polygon fill="#000000" stroke="#000000" points="593.6784,-39.3638 600.0574,-30.9046 589.7954,-33.5395 593.6784,-39.3638"/>
</g>
<!-- fator -->
<g id="node16" class="node">
<title>fator</title>
<ellipse fill="none" stroke="#000000" cx="511.4143" cy="-162" rx="29.0318" ry="18"/>
<text text-anchor="middle" x="511.4143" y="-157.8" font-family="Times,serif" font-size="14.00" fill="#000000">fator</text>
</g>
<!-- fator&#45;&gt;var -->
<g id="edge32" class="edge">
<title>fator&#45;&gt;var</title>
<path fill="none" stroke="#000000" d="M540.6715,-164.0958C610.347,-170.6841 779.4143,-197.5994 779.4143,-306 779.4143,-594 779.4143,-594 779.4143,-594 779.4143,-664.2696 545.185,-713.7844 453.4657,-731.1624"/>
<polygon fill="#000000" stroke="#000000" points="452.7014,-727.7446 443.5178,-733.0277 453.9916,-734.6247 452.7014,-727.7446"/>
</g>
<!-- fator&#45;&gt;var -->
<g id="edge81" class="edge">
<title>fator&#45;&gt;var</title>
<path fill="none" stroke="#000000" d="M540.6225,-163.3613C613.6709,-168.5435 797.4143,-192.9923 797.4143,-306 797.4143,-594 797.4143,-594 797.4143,-594 797.4143,-666.3387 549.188,-716.6823 453.8928,-732.6136"/>
<polygon fill="#000000" stroke="#000000" points="453.1445,-729.1894 443.8416,-734.2595 454.2758,-736.0974 453.1445,-729.1894"/>
</g>
<!-- fator&#45;&gt;numero -->
<g id="edge19" class="edge">
<title>fator&#45;&gt;numero</title>
<path fill="none" stroke="#000000" d="M494.6362,-147.0816C491.3015,-138.1845 490.369,-126.6351 491.8388,-116.2547"/>
<polygon fill="#000000" stroke="#000000" points="495.2734,-116.9361 494.1092,-106.4055 488.4523,-115.3637 495.2734,-116.9361"/>
</g>
<!-- fator&#45;&gt;numero -->
<g id="edge39" class="edge">
<title>fator&#45;&gt;numero</title>
<path fill="none" stroke="#000000" d="M505.4986,-144.2022C504.7089,-136.3271 504.4798,-126.875 504.8115,-118.0852"/>
<polygon fill="#000000" stroke="#000000" points="508.3213,-118.0532 505.4941,-107.8425 501.3368,-117.5876 508.3213,-118.0532"/>
</g>
<!-- fator&#45;&gt;numero -->
<g id="edge49" class="edge">
<title>fator&#45;&gt;numero</title>
<path fill="none" stroke="#000000" d="M517.3301,-144.2022C518.1198,-136.3271 518.3489,-126.875 518.0172,-118.0852"/>
<polygon fill="#000000" stroke="#000000" points="521.4919,-117.5876 517.3346,-107.8425 514.5074,-118.0532 521.4919,-117.5876"/>
</g>
<!-- fator&#45;&gt;numero -->
<g id="edge63" class="edge">
<title>fator&#45;&gt;numero</title>
<path fill="none" stroke="#000000" d="M528.1925,-147.0816C531.5272,-138.1845 532.4597,-126.6351 530.9899,-116.2547"/>
<polygon fill="#000000" stroke="#000000" points="534.3764,-115.3637 528.7195,-106.4055 527.5553,-116.9361 534.3764,-115.3637"/>
</g>
<!-- expressao_unaria -->
<g id="node17" class="node">
<title>expressao_unaria</title>
<ellipse fill="none" stroke="#000000" cx="511.4143" cy="-234" rx="78.1308" ry="18"/>
<text text-anchor="middle" x="511.4143" y="-229.8" font-family="Times,serif" font-size="14.00" fill="#000000">expressao_unaria</text>
</g>
<!-- expressao_unaria&#45;&gt;fator -->
<g id="edge20" class="edge">
<title>expressao_unaria&#45;&gt;fator</title>
<path fill="none" stroke="#000000" d="M482.2147,-216.937C476.4926,-206.151 476.1672,-192.1944 481.2384,-181.0477"/>
<polygon fill="#000000" stroke="#000000" points="484.2877,-182.7772 486.7675,-172.4766 478.4054,-178.9826 484.2877,-182.7772"/>
</g>
<!-- expressao_unaria&#45;&gt;fator -->
<g id="edge33" class="edge">
<title>expressao_unaria&#45;&gt;fator</title>
<path fill="none" stroke="#000000" d="M493.6672,-216.2022C491.0174,-207.3947 490.4716,-196.6147 492.0299,-186.9946"/>
<polygon fill="#000000" stroke="#000000" points="495.4583,-187.7149 494.5467,-177.1594 488.6768,-185.9796 495.4583,-187.7149"/>
</g>
<!-- expressao_unaria&#45;&gt;fator -->
<g id="edge40" class="edge">
<title>expressao_unaria&#45;&gt;fator</title>
<path fill="none" stroke="#000000" d="M505.4619,-215.8314C504.7,-208.0125 504.484,-198.6923 504.8139,-190.0221"/>
<polygon fill="#000000" stroke="#000000" points="508.3148,-190.1239 505.4871,-179.9134 501.3302,-189.6587 508.3148,-190.1239"/>
</g>
<!-- expressao_unaria&#45;&gt;fator -->
<g id="edge50" class="edge">
<title>expressao_unaria&#45;&gt;fator</title>
<path fill="none" stroke="#000000" d="M517.3667,-215.8314C518.1287,-208.0125 518.3447,-198.6923 518.0148,-190.0221"/>
<polygon fill="#000000" stroke="#000000" points="521.4985,-189.6587 517.3416,-179.9134 514.5139,-190.1239 521.4985,-189.6587"/>
</g>
<!-- expressao_unaria&#45;&gt;fator -->
<g id="edge64" class="edge">
<title>expressao_unaria&#45;&gt;fator</title>
<path fill="none" stroke="#000000" d="M529.1615,-216.2022C531.8113,-207.3947 532.3571,-196.6147 530.7988,-186.9946"/>
<polygon fill="#000000" stroke="#000000" points="534.1519,-185.9796 528.282,-177.1594 527.3704,-187.7149 534.1519,-185.9796"/>
</g>
<!-- expressao_unaria&#45;&gt;fator -->
<g id="edge82" class="edge">
<title>expressao_unaria&#45;&gt;fator</title>
<path fill="none" stroke="#000000" d="M540.6139,-216.937C546.3361,-206.151 546.6615,-192.1944 541.5903,-181.0477"/>
<polygon fill="#000000" stroke="#000000" points="544.4232,-178.9826 536.0612,-172.4766 538.541,-182.7772 544.4232,-178.9826"/>
</g>
<!-- expressao_multiplicativa -->
<g id="node18" class="node">
<title>expressao_multiplicativa</title>
<ellipse fill="none" stroke="#000000" cx="511.4143" cy="-306" rx="107.6598" ry="18"/>
<text text-anchor="middle" x="511.4143" y="-301.8" font-family="Times,serif" font-size="14.00" fill="#000000">expressao_multiplicativa</text>
</g>
<!-- expressao_multiplicativa&#45;&gt;expressao_unaria -->
<g id="edge21" class="edge">
<title>expressao_multiplicativa&#45;&gt;expressao_unaria</title>
<path fill="none" stroke="#000000" d="M482.0232,-288.5708C477.6255,-280.0455 476.5555,-269.6069 478.8131,-260.1505"/>
<polygon fill="#000000" stroke="#000000" points="482.096,-261.3642 482.3704,-250.7729 475.5511,-258.8814 482.096,-261.3642"/>
</g>
<!-- expressao_multiplicativa&#45;&gt;expressao_unaria -->
<g id="edge34" class="edge">
<title>expressao_multiplicativa&#45;&gt;expressao_unaria</title>
<path fill="none" stroke="#000000" d="M493.6672,-288.2022C491.2538,-280.1807 490.5858,-270.5231 491.663,-261.5957"/>
<polygon fill="#000000" stroke="#000000" points="495.1338,-262.0943 493.7292,-251.593 488.2785,-260.6782 495.1338,-262.0943"/>
</g>
<!-- expressao_multiplicativa&#45;&gt;expressao_unaria -->
<g id="edge41" class="edge">
<title>expressao_multiplicativa&#45;&gt;expressao_unaria</title>
<path fill="none" stroke="#000000" d="M505.4619,-287.8314C504.7115,-280.131 504.4906,-270.9743 504.7993,-262.4166"/>
<polygon fill="#000000" stroke="#000000" points="508.2936,-262.6161 505.4383,-252.4133 501.3078,-262.1697 508.2936,-262.6161"/>
</g>
<!-- expressao_multiplicativa&#45;&gt;expressao_unaria -->
<g id="edge51" class="edge">
<title>expressao_multiplicativa&#45;&gt;expressao_unaria</title>
<path fill="none" stroke="#000000" d="M517.3667,-287.8314C518.1172,-280.131 518.3381,-270.9743 518.0294,-262.4166"/>
<polygon fill="#000000" stroke="#000000" points="521.5209,-262.1697 517.3903,-252.4133 514.5351,-262.6161 521.5209,-262.1697"/>
</g>
<!-- expressao_multiplicativa&#45;&gt;expressao_unaria -->
<g id="edge65" class="edge">
<title>expressao_multiplicativa&#45;&gt;expressao_unaria</title>
<path fill="none" stroke="#000000" d="M529.1615,-288.2022C531.5748,-280.1807 532.2429,-270.5231 531.1657,-261.5957"/>
<polygon fill="#000000" stroke="#000000" points="534.5501,-260.6782 529.0994,-251.593 527.6949,-262.0943 534.5501,-260.6782"/>
</g>
<!-- expressao_multiplicativa&#45;&gt;expressao_unaria -->
<g id="edge83" class="edge">
<title>expressao_multiplicativa&#45;&gt;expressao_unaria</title>
<path fill="none" stroke="#000000" d="M540.8055,-288.5708C545.2032,-280.0455 546.2732,-269.6069 544.0156,-260.1505"/>
<polygon fill="#000000" stroke="#000000" points="547.2776,-258.8814 540.4583,-250.7729 540.7327,-261.3642 547.2776,-258.8814"/>
</g>
<!-- expressao_aditiva -->
<g id="node19" class="node">
<title>expressao_aditiva</title>
<ellipse fill="none" stroke="#000000" cx="511.4143" cy="-378" rx="80.4364" ry="18"/>
<text text-anchor="middle" x="511.4143" y="-373.8" font-family="Times,serif" font-size="14.00" fill="#000000">expressao_aditiva</text>
</g>
<!-- expressao_aditiva&#45;&gt;expressao_multiplicativa -->
<g id="edge22" class="edge">
<title>expressao_aditiva&#45;&gt;expressao_multiplicativa</title>
<path fill="none" stroke="#000000" d="M482.2147,-360.937C477.808,-352.6305 476.602,-342.4435 478.5966,-333.1077"/>
<polygon fill="#000000" stroke="#000000" points="481.9809,-334.0355 482.0172,-323.4407 475.3819,-331.7004 481.9809,-334.0355"/>
</g>
<!-- expressao_aditiva&#45;&gt;expressao_multiplicativa -->
<g id="edge35" class="edge">
<title>expressao_aditiva&#45;&gt;expressao_multiplicativa</title>
<path fill="none" stroke="#000000" d="M493.6672,-360.2022C491.2719,-352.2406 490.5959,-342.6671 491.6392,-333.7957"/>
<polygon fill="#000000" stroke="#000000" points="495.1003,-334.3382 493.6537,-323.8425 488.2394,-332.9494 495.1003,-334.3382"/>
</g>
<!-- expressao_aditiva&#45;&gt;expressao_multiplicativa -->
<g id="edge42" class="edge">
<title>expressao_aditiva&#45;&gt;expressao_multiplicativa</title>
<path fill="none" stroke="#000000" d="M505.4619,-359.8314C504.7115,-352.131 504.4906,-342.9743 504.7993,-334.4166"/>
<polygon fill="#000000" stroke="#000000" points="508.2936,-334.6161 505.4383,-324.4133 501.3078,-334.1697 508.2936,-334.6161"/>
</g>
<!-- expressao_aditiva&#45;&gt;expressao_multiplicativa -->
<g id="edge52" class="edge">
<title>expressao_aditiva&#45;&gt;expressao_multiplicativa</title>
<path fill="none" stroke="#000000" d="M517.3667,-359.8314C518.1172,-352.131 518.3381,-342.9743 518.0294,-334.4166"/>
<polygon fill="#000000" stroke="#000000" points="521.5209,-334.1697 517.3903,-324.4133 514.5351,-334.6161 521.5209,-334.1697"/>
</g>
<!-- expressao_aditiva&#45;&gt;expressao_multiplicativa -->
<g id="edge66" class="edge">
<title>expressao_aditiva&#45;&gt;expressao_multiplicativa</title>
<path fill="none" stroke="#000000" d="M529.1615,-360.2022C531.5568,-352.2406 532.2328,-342.6671 531.1895,-333.7957"/>
<polygon fill="#000000" stroke="#000000" points="534.5893,-332.9494 529.175,-323.8425 527.7284,-334.3382 534.5893,-332.9494"/>
</g>
<!-- expressao_aditiva&#45;&gt;expressao_multiplicativa -->
<g id="edge84" class="edge">
<title>expressao_aditiva&#45;&gt;expressao_multiplicativa</title>
<path fill="none" stroke="#000000" d="M540.6139,-360.937C545.0207,-352.6305 546.2267,-342.4435 544.2321,-333.1077"/>
<polygon fill="#000000" stroke="#000000" points="547.4468,-331.7004 540.8114,-323.4407 540.8477,-334.0355 547.4468,-331.7004"/>
</g>
<!-- expressao_simples -->
<g id="node20" class="node">
<title>expressao_simples</title>
<ellipse fill="none" stroke="#000000" cx="511.4143" cy="-522" rx="83.3847" ry="18"/>
<text text-anchor="middle" x="511.4143" y="-517.8" font-family="Times,serif" font-size="14.00" fill="#000000">expressao_simples</text>
</g>
<!-- expressao_simples&#45;&gt;expressao_aditiva -->
<g id="edge23" class="edge">
<title>expressao_simples&#45;&gt;expressao_aditiva</title>
<path fill="none" stroke="#000000" d="M492.9573,-504.3428C482.7857,-479.6202 481.6972,-434.4608 489.6916,-405.3639"/>
<polygon fill="#000000" stroke="#000000" points="493.0371,-406.3956 492.8981,-395.8017 486.4003,-404.17 493.0371,-406.3956"/>
</g>
<!-- expressao_simples&#45;&gt;expressao_aditiva -->
<g id="edge36" class="edge">
<title>expressao_simples&#45;&gt;expressao_aditiva</title>
<path fill="none" stroke="#000000" d="M502.1267,-504.0535C497.1381,-479.4774 496.5804,-435.1008 500.4536,-406.0974"/>
<polygon fill="#000000" stroke="#000000" points="503.9167,-406.6073 502.081,-396.1727 497.0089,-405.4745 503.9167,-406.6073"/>
</g>
<!-- expressao_simples&#45;&gt;expressao_aditiva -->
<g id="edge53" class="edge">
<title>expressao_simples&#45;&gt;expressao_aditiva</title>
<path fill="none" stroke="#000000" d="M511.4143,-503.7623C511.4143,-479.201 511.4143,-435.2474 511.4143,-406.3541"/>
<polygon fill="#000000" stroke="#000000" points="514.9144,-406.0896 511.4143,-396.0896 507.9144,-406.0897 514.9144,-406.0896"/>
</g>
<!-- expressao_simples&#45;&gt;expressao_aditiva -->
<g id="edge67" class="edge">
<title>expressao_simples&#45;&gt;expressao_aditiva</title>
<path fill="none" stroke="#000000" d="M520.702,-504.0535C525.6906,-479.4774 526.2483,-435.1008 522.3751,-406.0974"/>
<polygon fill="#000000" stroke="#000000" points="525.8198,-405.4745 520.7477,-396.1727 518.912,-406.6073 525.8198,-405.4745"/>
</g>
<!-- expressao_simples&#45;&gt;expressao_aditiva -->
<g id="edge85" class="edge">
<title>expressao_simples&#45;&gt;expressao_aditiva</title>
<path fill="none" stroke="#000000" d="M529.8714,-504.3428C540.043,-479.6202 541.1315,-434.4608 533.1371,-405.3639"/>
<polygon fill="#000000" stroke="#000000" points="536.4284,-404.17 529.9306,-395.8017 529.7916,-406.3956 536.4284,-404.17"/>
</g>
<!-- operador_relacional -->
<g id="node24" class="node">
<title>operador_relacional</title>
<ellipse fill="none" stroke="#000000" cx="663.4143" cy="-450" rx="88.0037" ry="18"/>
<text text-anchor="middle" x="663.4143" y="-445.8" font-family="Times,serif" font-size="14.00" fill="#000000">operador_relacional</text>
</g>
<!-- expressao_simples&#45;&gt;operador_relacional -->
<g id="edge43" class="edge">
<title>expressao_simples&#45;&gt;operador_relacional</title>
<path fill="none" stroke="#000000" d="M546.2862,-505.4817C567.9328,-495.2281 595.9494,-481.9571 619.1539,-470.9655"/>
<polygon fill="#000000" stroke="#000000" points="620.9028,-474.0099 628.4419,-466.5659 617.9062,-467.6837 620.9028,-474.0099"/>
</g>
<!-- expressao_logica -->
<g id="node21" class="node">
<title>expressao_logica</title>
<ellipse fill="none" stroke="#000000" cx="511.4143" cy="-594" rx="77.5685" ry="18"/>
<text text-anchor="middle" x="511.4143" y="-589.8" font-family="Times,serif" font-size="14.00" fill="#000000">expressao_logica</text>
</g>
<!-- expressao_logica&#45;&gt;expressao_simples -->
<g id="edge24" class="edge">
<title>expressao_logica&#45;&gt;expressao_simples</title>
<path fill="none" stroke="#000000" d="M487.9014,-576.5708C484.5322,-568.4065 483.6045,-558.4873 485.1183,-549.3566"/>
<polygon fill="#000000" stroke="#000000" points="488.547,-550.0911 487.8648,-539.5182 481.8048,-548.2089 488.547,-550.0911"/>
</g>
<!-- expressao_logica&#45;&gt;expressao_simples -->
<g id="edge45" class="edge">
<title>expressao_logica&#45;&gt;expressao_simples</title>
<path fill="none" stroke="#000000" d="M499.5829,-576.2022C497.986,-568.2406 497.5354,-558.6671 498.2309,-549.7957"/>
<polygon fill="#000000" stroke="#000000" points="501.7052,-550.2208 499.5739,-539.8425 494.768,-549.2847 501.7052,-550.2208"/>
</g>
<!-- expressao_logica&#45;&gt;expressao_simples -->
<g id="edge54" class="edge">
<title>expressao_logica&#45;&gt;expressao_simples</title>
<path fill="none" stroke="#000000" d="M511.4143,-575.8314C511.4143,-568.131 511.4143,-558.9743 511.4143,-550.4166"/>
<polygon fill="#000000" stroke="#000000" points="514.9144,-550.4132 511.4143,-540.4133 507.9144,-550.4133 514.9144,-550.4132"/>
</g>
<!-- expressao_logica&#45;&gt;expressao_simples -->
<g id="edge68" class="edge">
<title>expressao_logica&#45;&gt;expressao_simples</title>
<path fill="none" stroke="#000000" d="M523.2458,-576.2022C524.8427,-568.2406 525.2933,-558.6671 524.5978,-549.7957"/>
<polygon fill="#000000" stroke="#000000" points="528.0606,-549.2847 523.2548,-539.8425 521.1235,-550.2208 528.0606,-549.2847"/>
</g>
<!-- expressao_logica&#45;&gt;expressao_simples -->
<g id="edge86" class="edge">
<title>expressao_logica&#45;&gt;expressao_simples</title>
<path fill="none" stroke="#000000" d="M534.9273,-576.5708C538.2965,-568.4065 539.2242,-558.4873 537.7104,-549.3566"/>
<polygon fill="#000000" stroke="#000000" points="541.0239,-548.2089 534.9639,-539.5182 534.2817,-550.0911 541.0239,-548.2089"/>
</g>
<!-- expressao&#45;&gt;corpo -->
<g id="edge76" class="edge">
<title>expressao&#45;&gt;corpo</title>
<path fill="none" stroke="#000000" d="M474.7654,-653.9683C467.7178,-651.8418 460.3666,-649.751 453.4143,-648 409.4427,-636.9254 284.2463,-613.6352 218.27,-601.5837"/>
<polygon fill="#000000" stroke="#000000" points="218.6768,-598.1002 208.2111,-599.7496 217.4211,-604.9867 218.6768,-598.1002"/>
</g>
<!-- expressao&#45;&gt;expressao_logica -->
<g id="edge25" class="edge">
<title>expressao&#45;&gt;expressao_logica</title>
<path fill="none" stroke="#000000" d="M488.5342,-650.0209C484.5939,-641.4728 483.48,-630.7167 485.1926,-620.9202"/>
<polygon fill="#000000" stroke="#000000" points="488.5902,-621.7699 488.0004,-611.1915 481.8647,-619.8288 488.5902,-621.7699"/>
</g>
<!-- expressao&#45;&gt;expressao_logica -->
<g id="edge46" class="edge">
<title>expressao&#45;&gt;expressao_logica</title>
<path fill="none" stroke="#000000" d="M499.5829,-648.2022C497.986,-640.2406 497.5354,-630.6671 498.2309,-621.7957"/>
<polygon fill="#000000" stroke="#000000" points="501.7052,-622.2208 499.5739,-611.8425 494.768,-621.2847 501.7052,-622.2208"/>
</g>
<!-- expressao&#45;&gt;expressao_logica -->
<g id="edge55" class="edge">
<title>expressao&#45;&gt;expressao_logica</title>
<path fill="none" stroke="#000000" d="M511.4143,-647.8314C511.4143,-640.131 511.4143,-630.9743 511.4143,-622.4166"/>
<polygon fill="#000000" stroke="#000000" points="514.9144,-622.4132 511.4143,-612.4133 507.9144,-622.4133 514.9144,-622.4132"/>
</g>
<!-- expressao&#45;&gt;expressao_logica -->
<g id="edge69" class="edge">
<title>expressao&#45;&gt;expressao_logica</title>
<path fill="none" stroke="#000000" d="M523.2458,-648.2022C524.8427,-640.2406 525.2933,-630.6671 524.5978,-621.7957"/>
<polygon fill="#000000" stroke="#000000" points="528.0606,-621.2847 523.2548,-611.8425 521.1235,-622.2208 528.0606,-621.2847"/>
</g>
<!-- expressao&#45;&gt;expressao_logica -->
<g id="edge87" class="edge">
<title>expressao&#45;&gt;expressao_logica</title>
<path fill="none" stroke="#000000" d="M534.2945,-650.0209C538.2348,-641.4728 539.3487,-630.7167 537.6361,-620.9202"/>
<polygon fill="#000000" stroke="#000000" points="540.964,-619.8288 534.8283,-611.1915 534.2385,-621.7699 540.964,-619.8288"/>
</g>
<!-- atribuicao -->
<g id="node23" class="node">
<title>atribuicao</title>
<ellipse fill="none" stroke="#000000" cx="656.4143" cy="-594" rx="49.7962" ry="18"/>
<text text-anchor="middle" x="656.4143" y="-589.8" font-family="Times,serif" font-size="14.00" fill="#000000">atribuicao</text>
</g>
<!-- expressao&#45;&gt;atribuicao -->
<g id="edge28" class="edge">
<title>expressao&#45;&gt;atribuicao</title>
<path fill="none" stroke="#000000" d="M532.7954,-649.6621C553.6265,-638.0221 585.0081,-622.4262 611.171,-610.7043"/>
<polygon fill="#000000" stroke="#000000" points="612.804,-613.8096 620.5447,-606.5755 609.9823,-607.4035 612.804,-613.8096"/>
</g>
<!-- expressao&#45;&gt;atribuicao -->
<g id="edge58" class="edge">
<title>expressao&#45;&gt;atribuicao</title>
<path fill="none" stroke="#000000" d="M540.7573,-651.4297C562.966,-640.4019 593.6697,-625.1559 617.8608,-613.1438"/>
<polygon fill="#000000" stroke="#000000" points="619.7151,-616.1309 627.1151,-608.5486 616.6019,-609.8613 619.7151,-616.1309"/>
</g>
<!-- expressao&#45;&gt;atribuicao -->
<g id="edge72" class="edge">
<title>expressao&#45;&gt;atribuicao</title>
<path fill="none" stroke="#000000" d="M547.2051,-653.4586C571.4625,-642.9769 602.6776,-627.7958 625.7827,-615.3973"/>
<polygon fill="#000000" stroke="#000000" points="627.7359,-618.3184 634.8315,-610.4506 624.3782,-612.1762 627.7359,-618.3184"/>
</g>
<!-- atribuicao&#45;&gt;var -->
<g id="edge26" class="edge">
<title>atribuicao&#45;&gt;var</title>
<path fill="none" stroke="#000000" d="M632.4336,-609.8308C611.6457,-629.7052 583.029,-663.6533 551.4143,-684 519.9541,-704.2473 479.9351,-718.0682 451.4157,-726.656"/>
<polygon fill="#000000" stroke="#000000" points="450.0703,-723.4035 441.466,-729.5854 452.0474,-730.1185 450.0703,-723.4035"/>
</g>
<!-- atribuicao&#45;&gt;var -->
<g id="edge56" class="edge">
<title>atribuicao&#45;&gt;var</title>
<path fill="none" stroke="#000000" d="M643.5245,-611.5886C627.989,-631.6562 600.1153,-664.2414 569.4143,-684 533.0778,-707.3856 485.3236,-722.1982 453.1162,-730.2766"/>
<polygon fill="#000000" stroke="#000000" points="452.1368,-726.9125 443.2397,-732.6651 453.7823,-733.7163 452.1368,-726.9125"/>
</g>
<!-- atribuicao&#45;&gt;var -->
<g id="edge70" class="edge">
<title>atribuicao&#45;&gt;var</title>
<path fill="none" stroke="#000000" d="M656.0567,-612.3106C645.325,-632.4302 617.7498,-664.4766 587.4143,-684 546.516,-710.3215 491.1534,-725.7823 454.1545,-733.0043"/>
<polygon fill="#000000" stroke="#000000" points="453.4372,-729.5774 444.2332,-734.825 454.7007,-736.4625 453.4372,-729.5774"/>
</g>
<!-- operador_relacional&#45;&gt;expressao_aditiva -->
<g id="edge44" class="edge">
<title>operador_relacional&#45;&gt;expressao_aditiva</title>
<path fill="none" stroke="#000000" d="M628.1604,-433.3008C606.4239,-423.0045 578.3739,-409.7177 555.2167,-398.7485"/>
<polygon fill="#000000" stroke="#000000" points="556.4887,-395.4783 545.953,-394.3604 553.4921,-401.8044 556.4887,-395.4783"/>
</g>
<!-- &gt; -->
<g id="node25" class="node">
<title>&gt;</title>
<ellipse fill="none" stroke="#000000" cx="663.4143" cy="-378" rx="27" ry="18"/>
<text text-anchor="middle" x="663.4143" y="-373.8" font-family="Times,serif" font-size="14.00" fill="#000000">&gt;</text>
</g>
<!-- operador_relacional&#45;&gt;&gt; -->
<g id="edge37" class="edge">
<title>operador_relacional&#45;&gt;&gt;</title>
<path fill="none" stroke="#000000" d="M663.4143,-431.8314C663.4143,-424.131 663.4143,-414.9743 663.4143,-406.4166"/>
<polygon fill="#000000" stroke="#000000" points="666.9144,-406.4132 663.4143,-396.4133 659.9144,-406.4133 666.9144,-406.4132"/>
</g>
<!-- se&#45;&gt;expressao -->
<g id="edge75" class="edge">
<title>se&#45;&gt;expressao</title>
<path fill="none" stroke="#000000" d="M371.533,-468.1935C376.0888,-500.3359 389.405,-567.9282 424.4143,-612 436.2458,-626.8941 453.3856,-638.7714 469.3294,-647.5517"/>
<polygon fill="#000000" stroke="#000000" points="468.0461,-650.8303 478.5295,-652.363 471.29,-644.6273 468.0461,-650.8303"/>
</g>
<!-- retorna&#45;&gt;expressao -->
<g id="edge88" class="edge">
<title>retorna&#45;&gt;expressao</title>
<path fill="none" stroke="#000000" d="M281.6229,-467.4703C301.1557,-499.6542 346.6869,-568.9469 400.4143,-612 420.065,-627.7466 445.0619,-640.4145 466.3572,-649.5126"/>
<polygon fill="#000000" stroke="#000000" points="465.2701,-652.8505 475.8486,-653.4398 467.9465,-646.3823 465.2701,-652.8505"/>
</g>
<!-- cabecalho -->
<g id="node31" class="node">
<title>cabecalho</title>
<ellipse fill="none" stroke="#000000" cx="83.4143" cy="-810" rx="49.7787" ry="18"/>
<text text-anchor="middle" x="83.4143" y="-805.8" font-family="Times,serif" font-size="14.00" fill="#000000">cabecalho</text>
</g>
<!-- principal -->
<g id="node32" class="node">
<title>principal</title>
<ellipse fill="none" stroke="#000000" cx="83.4143" cy="-738" rx="45.2227" ry="18"/>
<text text-anchor="middle" x="83.4143" y="-733.8" font-family="Times,serif" font-size="14.00" fill="#000000">principal</text>
</g>
<!-- cabecalho&#45;&gt;principal -->
<g id="edge91" class="edge">
<title>cabecalho&#45;&gt;principal</title>
<path fill="none" stroke="#000000" d="M83.4143,-791.8314C83.4143,-784.131 83.4143,-774.9743 83.4143,-766.4166"/>
<polygon fill="#000000" stroke="#000000" points="86.9144,-766.4132 83.4143,-756.4133 79.9144,-766.4133 86.9144,-766.4132"/>
</g>
<!-- principal&#45;&gt;lista_parametros -->
<g id="edge92" class="edge">
<title>principal&#45;&gt;lista_parametros</title>
<path fill="none" stroke="#000000" d="M83.4143,-719.8314C83.4143,-712.131 83.4143,-702.9743 83.4143,-694.4166"/>
<polygon fill="#000000" stroke="#000000" points="86.9144,-694.4132 83.4143,-684.4133 79.9144,-694.4133 86.9144,-694.4132"/>
</g>
<!-- declaracao_funcao&#45;&gt;tipo -->
<g id="edge94" class="edge">
<title>declaracao_funcao&#45;&gt;tipo</title>
<path fill="none" stroke="#000000" d="M109.283,-864.7542C125.6056,-853.8725 146.6857,-839.8191 163.4026,-828.6745"/>
<polygon fill="#000000" stroke="#000000" points="165.8039,-831.2802 172.1829,-822.8209 161.921,-825.4558 165.8039,-831.2802"/>
</g>
<!-- declaracao_funcao&#45;&gt;cabecalho -->
<g id="edge95" class="edge">
<title>declaracao_funcao&#45;&gt;cabecalho</title>
<path fill="none" stroke="#000000" d="M83.4143,-863.8314C83.4143,-856.131 83.4143,-846.9743 83.4143,-838.4166"/>
<polygon fill="#000000" stroke="#000000" points="86.9144,-838.4132 83.4143,-828.4133 79.9144,-838.4133 86.9144,-838.4132"/>
</g>
<!-- programa -->
<g id="node34" class="node">
<title>programa</title>
<ellipse fill="none" stroke="#000000" cx="522.4143" cy="-954" rx="48.0742" ry="18"/>
<text text-anchor="middle" x="522.4143" y="-949.8" font-family="Times,serif" font-size="14.00" fill="#000000">programa</text>
</g>
<!-- programa&#45;&gt;lista_declaracoes -->
<g id="edge99" class="edge">
<title>programa&#45;&gt;lista_declaracoes</title>
<path fill="none" stroke="#000000" d="M508.1321,-936.5708C500.9916,-927.857 492.213,-917.1441 484.3302,-907.5244"/>
<polygon fill="#000000" stroke="#000000" points="487.0204,-905.2853 477.975,-899.7689 481.606,-909.7221 487.0204,-905.2853"/>
</g>
</g>
</svg>
