<?xml version="1.0" encoding="UTF-8" standalone="no"?>
<!DOCTYPE svg PUBLIC "-//W3C//DTD SVG 1.1//EN"
 "http://www.w3.org/Graphics/SVG/1.1/DTD/svg11.dtd">
<!-- Generated by graphviz version 2.40.1 (20161225.0304)
 -->
<!-- Title: G Pages: 1 -->
<svg width="719pt" height="1340pt"
 viewBox="0.00 0.00 718.62 1340.00" xmlns="http://www.w3.org/2000/svg" xmlns:xlink="http://www.w3.org/1999/xlink">
<g id="graph0" class="graph" transform="scale(1 1) rotate(0) translate(4 1336)">
<title>G</title>
<polygon fill="#ffffff" stroke="transparent" points="-4,4 -4,-1336 714.617,-1336 714.617,4 -4,4"/>
<!-- tipo -->
<g id="node1" class="node">
<title>tipo</title>
<ellipse fill="none" stroke="#000000" cx="408.5799" cy="-738" rx="27" ry="18"/>
<text text-anchor="middle" x="408.5799" y="-733.8" font-family="Times,serif" font-size="14.00" fill="#000000">tipo</text>
</g>
<!-- inteiro -->
<g id="node2" class="node">
<title>inteiro</title>
<ellipse fill="none" stroke="#000000" cx="408.5799" cy="-666" rx="36.4936" ry="18"/>
<text text-anchor="middle" x="408.5799" y="-661.8" font-family="Times,serif" font-size="14.00" fill="#000000">inteiro</text>
</g>
<!-- tipo&#45;&gt;inteiro -->
<g id="edge1" class="edge">
<title>tipo&#45;&gt;inteiro</title>
<path fill="none" stroke="#000000" d="M397.0582,-721.6621C395.1722,-713.2525 394.6347,-702.7781 395.4457,-693.1915"/>
<polygon fill="#000000" stroke="#000000" points="398.9127,-693.6703 396.8549,-683.2773 391.9824,-692.6852 398.9127,-693.6703"/>
</g>
<!-- tipo&#45;&gt;inteiro -->
<g id="edge8" class="edge">
<title>tipo&#45;&gt;inteiro</title>
<path fill="none" stroke="#000000" d="M408.5799,-719.8314C408.5799,-712.131 408.5799,-702.9743 408.5799,-694.4166"/>
<polygon fill="#000000" stroke="#000000" points="412.08,-694.4132 408.5799,-684.4133 405.08,-694.4133 412.08,-694.4132"/>
</g>
<!-- tipo&#45;&gt;inteiro -->
<g id="edge10" class="edge">
<title>tipo&#45;&gt;inteiro</title>
<path fill="none" stroke="#000000" d="M420.1015,-721.6621C421.9875,-713.2525 422.5251,-702.7781 421.7141,-693.1915"/>
<polygon fill="#000000" stroke="#000000" points="425.1774,-692.6852 420.3048,-683.2773 418.2471,-693.6703 425.1774,-692.6852"/>
</g>
<!-- var -->
<g id="node3" class="node">
<title>var</title>
<ellipse fill="none" stroke="#000000" cx="296.5799" cy="-666" rx="27" ry="18"/>
<text text-anchor="middle" x="296.5799" y="-661.8" font-family="Times,serif" font-size="14.00" fill="#000000">var</text>
</g>
<!-- a -->
<g id="node4" class="node">
<title>a</title>
<ellipse fill="none" stroke="#000000" cx="296.5799" cy="-594" rx="27" ry="18"/>
<text text-anchor="middle" x="296.5799" y="-589.8" font-family="Times,serif" font-size="14.00" fill="#000000">a</text>
</g>
<!-- var&#45;&gt;a -->
<g id="edge2" class="edge">
<title>var&#45;&gt;a</title>
<path fill="none" stroke="#000000" d="M285.0582,-649.6621C283.1449,-641.1306 282.6194,-630.474 283.4818,-620.7753"/>
<polygon fill="#000000" stroke="#000000" points="286.9603,-621.1776 284.9623,-610.7729 280.0357,-620.1526 286.9603,-621.1776"/>
</g>
<!-- var&#45;&gt;a -->
<g id="edge17" class="edge">
<title>var&#45;&gt;a</title>
<path fill="none" stroke="#000000" d="M296.5799,-647.8314C296.5799,-640.131 296.5799,-630.9743 296.5799,-622.4166"/>
<polygon fill="#000000" stroke="#000000" points="300.08,-622.4132 296.5799,-612.4133 293.08,-622.4133 300.08,-622.4132"/>
</g>
<!-- var&#45;&gt;a -->
<g id="edge32" class="edge">
<title>var&#45;&gt;a</title>
<path fill="none" stroke="#000000" d="M308.1015,-649.6621C310.0149,-641.1306 310.5404,-630.474 309.678,-620.7753"/>
<polygon fill="#000000" stroke="#000000" points="313.124,-620.1526 308.1975,-610.7729 306.1995,-621.1776 313.124,-620.1526"/>
</g>
<!-- b -->
<g id="node11" class="node">
<title>b</title>
<ellipse fill="none" stroke="#000000" cx="368.5799" cy="-594" rx="27" ry="18"/>
<text text-anchor="middle" x="368.5799" y="-589.8" font-family="Times,serif" font-size="14.00" fill="#000000">b</text>
</g>
<!-- var&#45;&gt;b -->
<g id="edge11" class="edge">
<title>var&#45;&gt;b</title>
<path fill="none" stroke="#000000" d="M307.4783,-649.3008C316.8292,-638.8049 330.3235,-625.2014 342.3385,-614.1132"/>
<polygon fill="#000000" stroke="#000000" points="344.8733,-616.5406 349.962,-607.2478 340.1889,-611.339 344.8733,-616.5406"/>
</g>
<!-- var&#45;&gt;b -->
<g id="edge31" class="edge">
<title>var&#45;&gt;b</title>
<path fill="none" stroke="#000000" d="M315.1499,-652.7941C326.1546,-643.1624 339.8371,-629.8327 350.7023,-618.3002"/>
<polygon fill="#000000" stroke="#000000" points="353.5219,-620.4043 357.7067,-610.6709 348.3655,-615.6702 353.5219,-620.4043"/>
</g>
<!-- expressao -->
<g id="node22" class="node">
<title>expressao</title>
<ellipse fill="none" stroke="#000000" cx="136.5799" cy="-594" rx="49.2163" ry="18"/>
<text text-anchor="middle" x="136.5799" y="-589.8" font-family="Times,serif" font-size="14.00" fill="#000000">expressao</text>
</g>
<!-- var&#45;&gt;expressao -->
<g id="edge27" class="edge">
<title>var&#45;&gt;expressao</title>
<path fill="none" stroke="#000000" d="M272.6957,-657.3151C246.3308,-646.4685 203.9029,-627.5966 173.3475,-613.2703"/>
<polygon fill="#000000" stroke="#000000" points="174.8136,-610.092 164.2768,-608.984 171.8228,-616.421 174.8136,-610.092"/>
</g>
<!-- var&#45;&gt;expressao -->
<g id="edge41" class="edge">
<title>var&#45;&gt;expressao</title>
<path fill="none" stroke="#000000" d="M275.6577,-654.2717C251.458,-642.5353 211.293,-624.3567 180.2642,-611.0315"/>
<polygon fill="#000000" stroke="#000000" points="181.5273,-607.7653 170.9557,-607.0644 178.7829,-614.2048 181.5273,-607.7653"/>
</g>
<!-- lista_variaveis -->
<g id="node5" class="node">
<title>lista_variaveis</title>
<ellipse fill="none" stroke="#000000" cx="296.5799" cy="-738" rx="66.6267" ry="18"/>
<text text-anchor="middle" x="296.5799" y="-733.8" font-family="Times,serif" font-size="14.00" fill="#000000">lista_variaveis</text>
</g>
<!-- lista_variaveis&#45;&gt;var -->
<g id="edge3" class="edge">
<title>lista_variaveis&#45;&gt;var</title>
<path fill="none" stroke="#000000" d="M290.6275,-719.8314C289.8655,-712.0125 289.6495,-702.6923 289.9794,-694.0221"/>
<polygon fill="#000000" stroke="#000000" points="293.4803,-694.1239 290.6526,-683.9134 286.4958,-693.6587 293.4803,-694.1239"/>
</g>
<!-- lista_variaveis&#45;&gt;var -->
<g id="edge12" class="edge">
<title>lista_variaveis&#45;&gt;var</title>
<path fill="none" stroke="#000000" d="M302.5323,-719.8314C303.2942,-712.0125 303.5103,-702.6923 303.1803,-694.0221"/>
<polygon fill="#000000" stroke="#000000" points="306.664,-693.6587 302.5072,-683.9134 299.6795,-694.1239 306.664,-693.6587"/>
</g>
<!-- declaracao_variaveis -->
<g id="node6" class="node">
<title>declaracao_variaveis</title>
<ellipse fill="none" stroke="#000000" cx="301.5799" cy="-810" rx="91.991" ry="18"/>
<text text-anchor="middle" x="301.5799" y="-805.8" font-family="Times,serif" font-size="14.00" fill="#000000">declaracao_variaveis</text>
</g>
<!-- declaracao_variaveis&#45;&gt;tipo -->
<g id="edge4" class="edge">
<title>declaracao_variaveis&#45;&gt;tipo</title>
<path fill="none" stroke="#000000" d="M321.8579,-792.3868C337.7597,-780.9003 359.9352,-766.0001 377.9596,-754.7008"/>
<polygon fill="#000000" stroke="#000000" points="380.2759,-757.3846 386.9517,-749.1574 376.6025,-751.4259 380.2759,-757.3846"/>
</g>
<!-- declaracao_variaveis&#45;&gt;tipo -->
<g id="edge13" class="edge">
<title>declaracao_variaveis&#45;&gt;tipo</title>
<path fill="none" stroke="#000000" d="M332.7773,-792.937C349.1606,-782.6474 368.8496,-769.4724 384.1284,-758.604"/>
<polygon fill="#000000" stroke="#000000" points="386.5031,-761.2061 392.5563,-752.5107 382.4018,-755.5334 386.5031,-761.2061"/>
</g>
<!-- declaracao_variaveis&#45;&gt;lista_variaveis -->
<g id="edge5" class="edge">
<title>declaracao_variaveis&#45;&gt;lista_variaveis</title>
<path fill="none" stroke="#000000" d="M294.3658,-791.8314C293.0806,-784.131 292.2238,-774.9743 291.9382,-766.4166"/>
<polygon fill="#000000" stroke="#000000" points="295.4382,-766.3936 291.8826,-756.4133 288.4383,-766.4326 295.4382,-766.3936"/>
</g>
<!-- declaracao_variaveis&#45;&gt;lista_variaveis -->
<g id="edge14" class="edge">
<title>declaracao_variaveis&#45;&gt;lista_variaveis</title>
<path fill="none" stroke="#000000" d="M306.2706,-791.8314C306.4896,-784.0125 306.0583,-774.6923 305.1263,-766.0221"/>
<polygon fill="#000000" stroke="#000000" points="308.5673,-765.3503 303.7511,-755.9134 301.6312,-766.294 308.5673,-765.3503"/>
</g>
<!-- declaracao -->
<g id="node7" class="node">
<title>declaracao</title>
<ellipse fill="none" stroke="#000000" cx="544.5799" cy="-1314" rx="52.1251" ry="18"/>
<text text-anchor="middle" x="544.5799" y="-1309.8" font-family="Times,serif" font-size="14.00" fill="#000000">declaracao</text>
</g>
<!-- declaracao&#45;&gt;declaracao_variaveis -->
<g id="edge6" class="edge">
<title>declaracao&#45;&gt;declaracao_variaveis</title>
<path fill="none" stroke="#000000" d="M495.6958,-1307.5216C440.5616,-1299.2126 355.688,-1283.0681 333.5799,-1260 305.2928,-1230.4847 314.5799,-1210.8816 314.5799,-1170 314.5799,-1170 314.5799,-1170 314.5799,-954 314.5799,-913.7128 309.4702,-867.3414 305.6578,-838.3495"/>
<polygon fill="#000000" stroke="#000000" points="309.0852,-837.5772 304.2735,-828.138 302.1486,-838.5175 309.0852,-837.5772"/>
</g>
<!-- lista_declaracoes -->
<g id="node8" class="node">
<title>lista_declaracoes</title>
<ellipse fill="none" stroke="#000000" cx="603.5799" cy="-1242" rx="76.9792" ry="18"/>
<text text-anchor="middle" x="603.5799" y="-1237.8" font-family="Times,serif" font-size="14.00" fill="#000000">lista_declaracoes</text>
</g>
<!-- declaracao&#45;&gt;lista_declaracoes -->
<g id="edge63" class="edge">
<title>declaracao&#45;&gt;lista_declaracoes</title>
<path fill="none" stroke="#000000" d="M547.5633,-1295.8314C553.1063,-1286.956 561.6413,-1276.1462 570.59,-1266.5486"/>
<polygon fill="#000000" stroke="#000000" points="573.3155,-1268.7676 577.8061,-1259.1715 568.3114,-1263.8727 573.3155,-1268.7676"/>
</g>
<!-- declaracao_funcao -->
<g id="node28" class="node">
<title>declaracao_funcao</title>
<ellipse fill="none" stroke="#000000" cx="425.5799" cy="-1242" rx="83.3288" ry="18"/>
<text text-anchor="middle" x="425.5799" y="-1237.8" font-family="Times,serif" font-size="14.00" fill="#000000">declaracao_funcao</text>
</g>
<!-- declaracao&#45;&gt;declaracao_funcao -->
<g id="edge61" class="edge">
<title>declaracao&#45;&gt;declaracao_funcao</title>
<path fill="none" stroke="#000000" d="M518.4648,-1298.1993C502.0019,-1288.2386 480.4975,-1275.2275 462.3264,-1264.2332"/>
<polygon fill="#000000" stroke="#000000" points="464.0782,-1261.2024 453.7106,-1259.0202 460.4546,-1267.1915 464.0782,-1261.2024"/>
</g>
<!-- lista_declaracoes&#45;&gt;declaracao -->
<g id="edge7" class="edge">
<title>lista_declaracoes&#45;&gt;declaracao</title>
<path fill="none" stroke="#000000" d="M589.0193,-1259.7689C581.9086,-1268.4464 573.2246,-1279.0438 565.4259,-1288.5608"/>
<polygon fill="#000000" stroke="#000000" points="562.4932,-1286.6176 558.8621,-1296.5708 567.9076,-1291.0544 562.4932,-1286.6176"/>
</g>
<!-- lista_declaracoes&#45;&gt;declaracao -->
<g id="edge62" class="edge">
<title>lista_declaracoes&#45;&gt;declaracao</title>
<path fill="none" stroke="#000000" d="M600.5656,-1260.2181C594.7609,-1269.5014 585.6931,-1280.8914 576.3059,-1290.7959"/>
<polygon fill="#000000" stroke="#000000" points="573.6883,-1288.4644 569.114,-1298.0209 578.6494,-1293.4028 573.6883,-1288.4644"/>
</g>
<!-- lista_parametros -->
<g id="node9" class="node">
<title>lista_parametros</title>
<ellipse fill="none" stroke="#000000" cx="211.5799" cy="-1026" rx="74.713" ry="18"/>
<text text-anchor="middle" x="211.5799" y="-1021.8" font-family="Times,serif" font-size="14.00" fill="#000000">lista_parametros</text>
</g>
<!-- parametro -->
<g id="node10" class="node">
<title>parametro</title>
<ellipse fill="none" stroke="#000000" cx="236.5799" cy="-954" rx="50.3586" ry="18"/>
<text text-anchor="middle" x="236.5799" y="-949.8" font-family="Times,serif" font-size="14.00" fill="#000000">parametro</text>
</g>
<!-- lista_parametros&#45;&gt;parametro -->
<g id="edge9" class="edge">
<title>lista_parametros&#45;&gt;parametro</title>
<path fill="none" stroke="#000000" d="M217.8884,-1007.8314C220.663,-999.8406 223.982,-990.2819 227.0481,-981.4514"/>
<polygon fill="#000000" stroke="#000000" points="230.3861,-982.5082 230.3599,-971.9134 223.7734,-980.2121 230.3861,-982.5082"/>
</g>
<!-- corpo -->
<g id="node13" class="node">
<title>corpo</title>
<ellipse fill="none" stroke="#000000" cx="135.5799" cy="-954" rx="33.0469" ry="18"/>
<text text-anchor="middle" x="135.5799" y="-949.8" font-family="Times,serif" font-size="14.00" fill="#000000">corpo</text>
</g>
<!-- lista_parametros&#45;&gt;corpo -->
<g id="edge58" class="edge">
<title>lista_parametros&#45;&gt;corpo</title>
<path fill="none" stroke="#000000" d="M192.7934,-1008.2022C182.7479,-998.6855 170.2715,-986.8657 159.5355,-976.6948"/>
<polygon fill="#000000" stroke="#000000" points="161.7521,-973.9734 152.0854,-969.6368 156.9378,-979.0551 161.7521,-973.9734"/>
</g>
<!-- acao -->
<g id="node12" class="node">
<title>acao</title>
<ellipse fill="none" stroke="#000000" cx="135.5799" cy="-882" rx="28.952" ry="18"/>
<text text-anchor="middle" x="135.5799" y="-877.8" font-family="Times,serif" font-size="14.00" fill="#000000">acao</text>
</g>
<!-- acao&#45;&gt;declaracao_variaveis -->
<g id="edge15" class="edge">
<title>acao&#45;&gt;declaracao_variaveis</title>
<path fill="none" stroke="#000000" d="M159.3636,-871.6842C184.062,-860.9716 223.3575,-843.9278 254.39,-830.4679"/>
<polygon fill="#000000" stroke="#000000" points="255.9487,-833.6069 263.7302,-826.4167 253.1632,-827.185 255.9487,-833.6069"/>
</g>
<!-- acao&#45;&gt;expressao -->
<g id="edge29" class="edge">
<title>acao&#45;&gt;expressao</title>
<path fill="none" stroke="#000000" d="M132.1558,-863.9843C128.2285,-815.2939 128.4556,-680.7961 132.2763,-622.0573"/>
<polygon fill="#000000" stroke="#000000" points="135.7721,-622.243 133.0313,-612.0089 128.7918,-621.7185 135.7721,-622.243"/>
</g>
<!-- acao&#45;&gt;expressao -->
<g id="edge43" class="edge">
<title>acao&#45;&gt;expressao</title>
<path fill="none" stroke="#000000" d="M139.1291,-863.9843C143.3945,-815.2939 144.1014,-680.7961 140.6887,-622.0573"/>
<polygon fill="#000000" stroke="#000000" points="144.1758,-621.7476 140.0034,-612.0089 137.192,-622.2239 144.1758,-621.7476"/>
</g>
<!-- retorna -->
<g id="node25" class="node">
<title>retorna</title>
<ellipse fill="none" stroke="#000000" cx="61.5799" cy="-810" rx="38.2607" ry="18"/>
<text text-anchor="middle" x="61.5799" y="-805.8" font-family="Times,serif" font-size="14.00" fill="#000000">retorna</text>
</g>
<!-- acao&#45;&gt;retorna -->
<g id="edge54" class="edge">
<title>acao&#45;&gt;retorna</title>
<path fill="none" stroke="#000000" d="M119.8864,-866.7307C109.9587,-857.0713 96.9267,-844.3915 85.7015,-833.4696"/>
<polygon fill="#000000" stroke="#000000" points="87.8872,-830.713 78.2792,-826.248 83.0057,-835.7301 87.8872,-830.713"/>
</g>
<!-- corpo&#45;&gt;acao -->
<g id="edge16" class="edge">
<title>corpo&#45;&gt;acao</title>
<path fill="none" stroke="#000000" d="M118.5446,-938.3771C115.2831,-929.1954 114.5033,-917.3769 116.2053,-906.9343"/>
<polygon fill="#000000" stroke="#000000" points="119.6336,-907.6557 118.7345,-897.099 112.8541,-905.9122 119.6336,-907.6557"/>
</g>
<!-- corpo&#45;&gt;acao -->
<g id="edge30" class="edge">
<title>corpo&#45;&gt;acao</title>
<path fill="none" stroke="#000000" d="M129.6642,-936.2022C128.8744,-928.3271 128.6454,-918.875 128.977,-910.0852"/>
<polygon fill="#000000" stroke="#000000" points="132.4868,-910.0532 129.6597,-899.8425 125.5023,-909.5876 132.4868,-910.0532"/>
</g>
<!-- corpo&#45;&gt;acao -->
<g id="edge44" class="edge">
<title>corpo&#45;&gt;acao</title>
<path fill="none" stroke="#000000" d="M141.4956,-936.2022C142.2854,-928.3271 142.5144,-918.875 142.1827,-910.0852"/>
<polygon fill="#000000" stroke="#000000" points="145.6574,-909.5876 141.5001,-899.8425 138.6729,-910.0532 145.6574,-909.5876"/>
</g>
<!-- corpo&#45;&gt;acao -->
<g id="edge55" class="edge">
<title>corpo&#45;&gt;acao</title>
<path fill="none" stroke="#000000" d="M152.6151,-938.3771C155.8767,-929.1954 156.6564,-917.3769 154.9545,-906.9343"/>
<polygon fill="#000000" stroke="#000000" points="158.3056,-905.9122 152.4253,-897.099 151.5262,-907.6557 158.3056,-905.9122"/>
</g>
<!-- numero -->
<g id="node14" class="node">
<title>numero</title>
<ellipse fill="none" stroke="#000000" cx="107.5799" cy="-90" rx="40.5712" ry="18"/>
<text text-anchor="middle" x="107.5799" y="-85.8" font-family="Times,serif" font-size="14.00" fill="#000000">numero</text>
</g>
<!-- 10 -->
<g id="node15" class="node">
<title>10</title>
<ellipse fill="none" stroke="#000000" cx="71.5799" cy="-18" rx="27" ry="18"/>
<text text-anchor="middle" x="71.5799" y="-13.8" font-family="Times,serif" font-size="14.00" fill="#000000">10</text>
</g>
<!-- numero&#45;&gt;10 -->
<g id="edge18" class="edge">
<title>numero&#45;&gt;10</title>
<path fill="none" stroke="#000000" d="M98.681,-72.2022C94.4777,-63.7955 89.3758,-53.5917 84.7373,-44.3149"/>
<polygon fill="#000000" stroke="#000000" points="87.7312,-42.4762 80.1285,-35.0972 81.4702,-45.6068 87.7312,-42.4762"/>
</g>
<!-- 0 -->
<g id="node24" class="node">
<title>0</title>
<ellipse fill="none" stroke="#000000" cx="143.5799" cy="-18" rx="27" ry="18"/>
<text text-anchor="middle" x="143.5799" y="-13.8" font-family="Times,serif" font-size="14.00" fill="#000000">0</text>
</g>
<!-- numero&#45;&gt;0 -->
<g id="edge45" class="edge">
<title>numero&#45;&gt;0</title>
<path fill="none" stroke="#000000" d="M116.4788,-72.2022C120.6821,-63.7955 125.784,-53.5917 130.4224,-44.3149"/>
<polygon fill="#000000" stroke="#000000" points="133.6896,-45.6068 135.0313,-35.0972 127.4286,-42.4762 133.6896,-45.6068"/>
</g>
<!-- fator -->
<g id="node16" class="node">
<title>fator</title>
<ellipse fill="none" stroke="#000000" cx="107.5799" cy="-162" rx="29.0318" ry="18"/>
<text text-anchor="middle" x="107.5799" y="-157.8" font-family="Times,serif" font-size="14.00" fill="#000000">fator</text>
</g>
<!-- fator&#45;&gt;var -->
<g id="edge33" class="edge">
<title>fator&#45;&gt;var</title>
<path fill="none" stroke="#000000" d="M135.07,-168.2763C211.9509,-186.6193 423.5799,-242.8475 423.5799,-306 423.5799,-522 423.5799,-522 423.5799,-522 423.5799,-562.8816 429.5676,-579.6438 404.5799,-612 386.6415,-635.2281 356.0234,-649.2003 331.9589,-657.0935"/>
<polygon fill="#000000" stroke="#000000" points="330.6388,-653.8373 322.1029,-660.1133 332.6895,-660.5302 330.6388,-653.8373"/>
</g>
<!-- fator&#45;&gt;numero -->
<g id="edge19" class="edge">
<title>fator&#45;&gt;numero</title>
<path fill="none" stroke="#000000" d="M101.6642,-144.2022C100.8744,-136.3271 100.6454,-126.875 100.977,-118.0852"/>
<polygon fill="#000000" stroke="#000000" points="104.4868,-118.0532 101.6597,-107.8425 97.5023,-117.5876 104.4868,-118.0532"/>
</g>
<!-- fator&#45;&gt;numero -->
<g id="edge46" class="edge">
<title>fator&#45;&gt;numero</title>
<path fill="none" stroke="#000000" d="M113.4956,-144.2022C114.2854,-136.3271 114.5144,-126.875 114.1827,-118.0852"/>
<polygon fill="#000000" stroke="#000000" points="117.6574,-117.5876 113.5001,-107.8425 110.6729,-118.0532 117.6574,-117.5876"/>
</g>
<!-- expressao_unaria -->
<g id="node17" class="node">
<title>expressao_unaria</title>
<ellipse fill="none" stroke="#000000" cx="107.5799" cy="-234" rx="78.1308" ry="18"/>
<text text-anchor="middle" x="107.5799" y="-229.8" font-family="Times,serif" font-size="14.00" fill="#000000">expressao_unaria</text>
</g>
<!-- expressao_unaria&#45;&gt;fator -->
<g id="edge20" class="edge">
<title>expressao_unaria&#45;&gt;fator</title>
<path fill="none" stroke="#000000" d="M95.7484,-216.2022C94.0735,-207.8515 93.6596,-197.7275 94.5066,-188.5003"/>
<polygon fill="#000000" stroke="#000000" points="97.9684,-189.016 95.9988,-178.6058 91.0466,-187.9721 97.9684,-189.016"/>
</g>
<!-- expressao_unaria&#45;&gt;fator -->
<g id="edge34" class="edge">
<title>expressao_unaria&#45;&gt;fator</title>
<path fill="none" stroke="#000000" d="M107.5799,-215.8314C107.5799,-208.131 107.5799,-198.9743 107.5799,-190.4166"/>
<polygon fill="#000000" stroke="#000000" points="111.08,-190.4132 107.5799,-180.4133 104.08,-190.4133 111.08,-190.4132"/>
</g>
<!-- expressao_unaria&#45;&gt;fator -->
<g id="edge47" class="edge">
<title>expressao_unaria&#45;&gt;fator</title>
<path fill="none" stroke="#000000" d="M119.4113,-216.2022C121.0862,-207.8515 121.5002,-197.7275 120.6531,-188.5003"/>
<polygon fill="#000000" stroke="#000000" points="124.1131,-187.9721 119.161,-178.6058 117.1914,-189.016 124.1131,-187.9721"/>
</g>
<!-- expressao_multiplicativa -->
<g id="node18" class="node">
<title>expressao_multiplicativa</title>
<ellipse fill="none" stroke="#000000" cx="107.5799" cy="-306" rx="107.6598" ry="18"/>
<text text-anchor="middle" x="107.5799" y="-301.8" font-family="Times,serif" font-size="14.00" fill="#000000">expressao_multiplicativa</text>
</g>
<!-- expressao_multiplicativa&#45;&gt;expressao_unaria -->
<g id="edge21" class="edge">
<title>expressao_multiplicativa&#45;&gt;expressao_unaria</title>
<path fill="none" stroke="#000000" d="M95.6751,-287.8314C94.1512,-280.0125 93.7191,-270.6923 94.3789,-262.0221"/>
<polygon fill="#000000" stroke="#000000" points="97.8744,-262.288 95.7253,-251.9134 90.9356,-261.3638 97.8744,-262.288"/>
</g>
<!-- expressao_multiplicativa&#45;&gt;expressao_unaria -->
<g id="edge35" class="edge">
<title>expressao_multiplicativa&#45;&gt;expressao_unaria</title>
<path fill="none" stroke="#000000" d="M107.5799,-287.8314C107.5799,-280.131 107.5799,-270.9743 107.5799,-262.4166"/>
<polygon fill="#000000" stroke="#000000" points="111.08,-262.4132 107.5799,-252.4133 104.08,-262.4133 111.08,-262.4132"/>
</g>
<!-- expressao_multiplicativa&#45;&gt;expressao_unaria -->
<g id="edge48" class="edge">
<title>expressao_multiplicativa&#45;&gt;expressao_unaria</title>
<path fill="none" stroke="#000000" d="M119.4847,-287.8314C121.0086,-280.0125 121.4407,-270.6923 120.7808,-262.0221"/>
<polygon fill="#000000" stroke="#000000" points="124.2241,-261.3638 119.4344,-251.9134 117.2854,-262.288 124.2241,-261.3638"/>
</g>
<!-- expressao_aditiva -->
<g id="node19" class="node">
<title>expressao_aditiva</title>
<ellipse fill="none" stroke="#000000" cx="107.5799" cy="-378" rx="80.4364" ry="18"/>
<text text-anchor="middle" x="107.5799" y="-373.8" font-family="Times,serif" font-size="14.00" fill="#000000">expressao_aditiva</text>
</g>
<!-- expressao_aditiva&#45;&gt;expressao_multiplicativa -->
<g id="edge22" class="edge">
<title>expressao_aditiva&#45;&gt;expressao_multiplicativa</title>
<path fill="none" stroke="#000000" d="M95.6751,-359.8314C94.1512,-352.0125 93.7191,-342.6923 94.3789,-334.0221"/>
<polygon fill="#000000" stroke="#000000" points="97.8744,-334.288 95.7253,-323.9134 90.9356,-333.3638 97.8744,-334.288"/>
</g>
<!-- expressao_aditiva&#45;&gt;expressao_multiplicativa -->
<g id="edge36" class="edge">
<title>expressao_aditiva&#45;&gt;expressao_multiplicativa</title>
<path fill="none" stroke="#000000" d="M107.5799,-359.8314C107.5799,-352.131 107.5799,-342.9743 107.5799,-334.4166"/>
<polygon fill="#000000" stroke="#000000" points="111.08,-334.4132 107.5799,-324.4133 104.08,-334.4133 111.08,-334.4132"/>
</g>
<!-- expressao_aditiva&#45;&gt;expressao_multiplicativa -->
<g id="edge49" class="edge">
<title>expressao_aditiva&#45;&gt;expressao_multiplicativa</title>
<path fill="none" stroke="#000000" d="M119.4847,-359.8314C121.0086,-352.0125 121.4407,-342.6923 120.7808,-334.0221"/>
<polygon fill="#000000" stroke="#000000" points="124.2241,-333.3638 119.4344,-323.9134 117.2854,-334.288 124.2241,-333.3638"/>
</g>
<!-- expressao_simples -->
<g id="node20" class="node">
<title>expressao_simples</title>
<ellipse fill="none" stroke="#000000" cx="107.5799" cy="-450" rx="83.3847" ry="18"/>
<text text-anchor="middle" x="107.5799" y="-445.8" font-family="Times,serif" font-size="14.00" fill="#000000">expressao_simples</text>
</g>
<!-- expressao_simples&#45;&gt;expressao_aditiva -->
<g id="edge23" class="edge">
<title>expressao_simples&#45;&gt;expressao_aditiva</title>
<path fill="none" stroke="#000000" d="M95.6751,-431.8314C94.1512,-424.0125 93.7191,-414.6923 94.3789,-406.0221"/>
<polygon fill="#000000" stroke="#000000" points="97.8744,-406.288 95.7253,-395.9134 90.9356,-405.3638 97.8744,-406.288"/>
</g>
<!-- expressao_simples&#45;&gt;expressao_aditiva -->
<g id="edge37" class="edge">
<title>expressao_simples&#45;&gt;expressao_aditiva</title>
<path fill="none" stroke="#000000" d="M107.5799,-431.8314C107.5799,-424.131 107.5799,-414.9743 107.5799,-406.4166"/>
<polygon fill="#000000" stroke="#000000" points="111.08,-406.4132 107.5799,-396.4133 104.08,-406.4133 111.08,-406.4132"/>
</g>
<!-- expressao_simples&#45;&gt;expressao_aditiva -->
<g id="edge50" class="edge">
<title>expressao_simples&#45;&gt;expressao_aditiva</title>
<path fill="none" stroke="#000000" d="M119.4847,-431.8314C121.0086,-424.0125 121.4407,-414.6923 120.7808,-406.0221"/>
<polygon fill="#000000" stroke="#000000" points="124.2241,-405.3638 119.4344,-395.9134 117.2854,-406.288 124.2241,-405.3638"/>
</g>
<!-- expressao_logica -->
<g id="node21" class="node">
<title>expressao_logica</title>
<ellipse fill="none" stroke="#000000" cx="107.5799" cy="-522" rx="77.5685" ry="18"/>
<text text-anchor="middle" x="107.5799" y="-517.8" font-family="Times,serif" font-size="14.00" fill="#000000">expressao_logica</text>
</g>
<!-- expressao_logica&#45;&gt;expressao_simples -->
<g id="edge24" class="edge">
<title>expressao_logica&#45;&gt;expressao_simples</title>
<path fill="none" stroke="#000000" d="M95.7484,-504.2022C94.1516,-496.2406 93.7009,-486.6671 94.3964,-477.7957"/>
<polygon fill="#000000" stroke="#000000" points="97.8707,-478.2208 95.7395,-467.8425 90.9336,-477.2847 97.8707,-478.2208"/>
</g>
<!-- expressao_logica&#45;&gt;expressao_simples -->
<g id="edge38" class="edge">
<title>expressao_logica&#45;&gt;expressao_simples</title>
<path fill="none" stroke="#000000" d="M107.5799,-503.8314C107.5799,-496.131 107.5799,-486.9743 107.5799,-478.4166"/>
<polygon fill="#000000" stroke="#000000" points="111.08,-478.4132 107.5799,-468.4133 104.08,-478.4133 111.08,-478.4132"/>
</g>
<!-- expressao_logica&#45;&gt;expressao_simples -->
<g id="edge51" class="edge">
<title>expressao_logica&#45;&gt;expressao_simples</title>
<path fill="none" stroke="#000000" d="M119.4113,-504.2022C121.0082,-496.2406 121.4589,-486.6671 120.7633,-477.7957"/>
<polygon fill="#000000" stroke="#000000" points="124.2262,-477.2847 119.4203,-467.8425 117.2891,-478.2208 124.2262,-477.2847"/>
</g>
<!-- expressao&#45;&gt;expressao_logica -->
<g id="edge25" class="edge">
<title>expressao&#45;&gt;expressao_logica</title>
<path fill="none" stroke="#000000" d="M118.0274,-576.937C113.0849,-568.9001 108.6318,-559.1029 105.6648,-550.0195"/>
<polygon fill="#000000" stroke="#000000" points="108.9966,-548.9332 102.9994,-540.1992 102.241,-550.7668 108.9966,-548.9332"/>
</g>
<!-- expressao&#45;&gt;expressao_logica -->
<g id="edge39" class="edge">
<title>expressao&#45;&gt;expressao_logica</title>
<path fill="none" stroke="#000000" d="M129.262,-575.8314C126.0922,-567.9617 122.3099,-558.5712 118.7986,-549.8533"/>
<polygon fill="#000000" stroke="#000000" points="121.9791,-548.3815 114.9963,-540.4133 115.486,-550.9968 121.9791,-548.3815"/>
</g>
<!-- expressao&#45;&gt;expressao_logica -->
<g id="edge52" class="edge">
<title>expressao&#45;&gt;expressao_logica</title>
<path fill="none" stroke="#000000" d="M141.1667,-575.8314C139.47,-567.6688 135.9242,-557.87 131.5152,-548.8827"/>
<polygon fill="#000000" stroke="#000000" points="134.4944,-547.0344 126.6495,-539.9134 128.3415,-550.3723 134.4944,-547.0344"/>
</g>
<!-- atribuicao -->
<g id="node23" class="node">
<title>atribuicao</title>
<ellipse fill="none" stroke="#000000" cx="252.5799" cy="-522" rx="49.7962" ry="18"/>
<text text-anchor="middle" x="252.5799" y="-517.8" font-family="Times,serif" font-size="14.00" fill="#000000">atribuicao</text>
</g>
<!-- expressao&#45;&gt;atribuicao -->
<g id="edge28" class="edge">
<title>expressao&#45;&gt;atribuicao</title>
<path fill="none" stroke="#000000" d="M157.4117,-577.4817C173.3305,-566.8728 195.5191,-553.0337 214.5253,-541.8312"/>
<polygon fill="#000000" stroke="#000000" points="216.4006,-544.7893 223.2785,-536.7304 212.8762,-538.7413 216.4006,-544.7893"/>
</g>
<!-- expressao&#45;&gt;atribuicao -->
<g id="edge42" class="edge">
<title>expressao&#45;&gt;atribuicao</title>
<path fill="none" stroke="#000000" d="M165.6029,-579.4297C183.1319,-569.3521 205.2925,-555.752 222.9224,-544.3162"/>
<polygon fill="#000000" stroke="#000000" points="225.2437,-546.979 231.6802,-538.5634 221.4005,-541.1284 225.2437,-546.979"/>
</g>
<!-- atribuicao&#45;&gt;var -->
<g id="edge26" class="edge">
<title>atribuicao&#45;&gt;var</title>
<path fill="none" stroke="#000000" d="M244.8927,-539.7959C242.1821,-558.3551 243.1452,-588.0283 251.5799,-612 255.745,-623.8376 263.1,-635.596 270.8219,-645.1036"/>
<polygon fill="#000000" stroke="#000000" points="268.392,-647.6398 277.6314,-652.8247 273.6419,-643.0096 268.392,-647.6398"/>
</g>
<!-- atribuicao&#45;&gt;var -->
<g id="edge40" class="edge">
<title>atribuicao&#45;&gt;var</title>
<path fill="none" stroke="#000000" d="M258.3654,-540.1409C260.1943,-558.7213 261.1973,-588.1763 269.5799,-612 272.9854,-621.6787 278.5233,-631.3044 283.8405,-639.6902"/>
<polygon fill="#000000" stroke="#000000" points="281.0226,-641.7768 289.4124,-648.2468 286.8885,-637.957 281.0226,-641.7768"/>
</g>
<!-- retorna&#45;&gt;expressao -->
<g id="edge53" class="edge">
<title>retorna&#45;&gt;expressao</title>
<path fill="none" stroke="#000000" d="M66.8151,-791.8349C75.6399,-761.6743 94.399,-699.4845 113.5799,-648 116.8527,-639.2151 120.7437,-629.7702 124.3858,-621.2743"/>
<polygon fill="#000000" stroke="#000000" points="127.7133,-622.3991 128.495,-611.8332 121.2949,-619.6055 127.7133,-622.3991"/>
</g>
<!-- cabecalho -->
<g id="node26" class="node">
<title>cabecalho</title>
<ellipse fill="none" stroke="#000000" cx="230.5799" cy="-1170" rx="49.7787" ry="18"/>
<text text-anchor="middle" x="230.5799" y="-1165.8" font-family="Times,serif" font-size="14.00" fill="#000000">cabecalho</text>
</g>
<!-- principal -->
<g id="node27" class="node">
<title>principal</title>
<ellipse fill="none" stroke="#000000" cx="223.5799" cy="-1098" rx="45.2227" ry="18"/>
<text text-anchor="middle" x="223.5799" y="-1093.8" font-family="Times,serif" font-size="14.00" fill="#000000">principal</text>
</g>
<!-- cabecalho&#45;&gt;principal -->
<g id="edge56" class="edge">
<title>cabecalho&#45;&gt;principal</title>
<path fill="none" stroke="#000000" d="M228.8135,-1151.8314C228.0648,-1144.131 227.1746,-1134.9743 226.3426,-1126.4166"/>
<polygon fill="#000000" stroke="#000000" points="229.8214,-1126.0276 225.3701,-1116.4133 222.8542,-1126.7051 229.8214,-1126.0276"/>
</g>
<!-- principal&#45;&gt;lista_parametros -->
<g id="edge57" class="edge">
<title>principal&#45;&gt;lista_parametros</title>
<path fill="none" stroke="#000000" d="M220.5518,-1079.8314C219.2684,-1072.131 217.7423,-1062.9743 216.316,-1054.4166"/>
<polygon fill="#000000" stroke="#000000" points="219.7452,-1053.7018 214.6488,-1044.4133 212.8405,-1054.8526 219.7452,-1053.7018"/>
</g>
<!-- declaracao_funcao&#45;&gt;tipo -->
<g id="edge59" class="edge">
<title>declaracao_funcao&#45;&gt;tipo</title>
<path fill="none" stroke="#000000" d="M425.1655,-1223.8157C424.5797,-1196.5008 423.5799,-1143.2544 423.5799,-1098 423.5799,-1098 423.5799,-1098 423.5799,-882 423.5799,-841.6589 417.6841,-795.3012 413.2851,-766.327"/>
<polygon fill="#000000" stroke="#000000" points="416.6923,-765.4608 411.6879,-756.1223 409.7765,-766.5433 416.6923,-765.4608"/>
</g>
<!-- declaracao_funcao&#45;&gt;cabecalho -->
<g id="edge60" class="edge">
<title>declaracao_funcao&#45;&gt;cabecalho</title>
<path fill="none" stroke="#000000" d="M383.2678,-1226.3771C351.3929,-1214.6079 307.7842,-1198.5062 275.3308,-1186.5234"/>
<polygon fill="#000000" stroke="#000000" points="276.2358,-1183.1267 265.6425,-1182.9462 273.8112,-1189.6934 276.2358,-1183.1267"/>
</g>
<!-- programa -->
<g id="node29" class="node">
<title>programa</title>
<ellipse fill="none" stroke="#000000" cx="662.5799" cy="-1314" rx="48.0742" ry="18"/>
<text text-anchor="middle" x="662.5799" y="-1309.8" font-family="Times,serif" font-size="14.00" fill="#000000">programa</text>
</g>
<!-- programa&#45;&gt;lista_declaracoes -->
<g id="edge64" class="edge">
<title>programa&#45;&gt;lista_declaracoes</title>
<path fill="none" stroke="#000000" d="M648.2976,-1296.5708C641.1571,-1287.857 632.3785,-1277.1441 624.4957,-1267.5244"/>
<polygon fill="#000000" stroke="#000000" points="627.1859,-1265.2853 618.1405,-1259.7689 621.7716,-1269.7221 627.1859,-1265.2853"/>
</g>
</g>
</svg>
