<?xml version="1.0" encoding="UTF-8" standalone="no"?>
<!DOCTYPE svg PUBLIC "-//W3C//DTD SVG 1.1//EN"
 "http://www.w3.org/Graphics/SVG/1.1/DTD/svg11.dtd">
<!-- Generated by graphviz version 2.40.1 (20161225.0304)
 -->
<!-- Title: G Pages: 1 -->
<svg width="514pt" height="1556pt"
 viewBox="0.00 0.00 513.56 1556.00" xmlns="http://www.w3.org/2000/svg" xmlns:xlink="http://www.w3.org/1999/xlink">
<g id="graph0" class="graph" transform="scale(1 1) rotate(0) translate(4 1552)">
<title>G</title>
<polygon fill="#ffffff" stroke="transparent" points="-4,4 -4,-1552 509.5648,-1552 509.5648,4 -4,4"/>
<!-- tipo -->
<g id="node1" class="node">
<title>tipo</title>
<ellipse fill="none" stroke="#000000" cx="201.5648" cy="-810" rx="27" ry="18"/>
<text text-anchor="middle" x="201.5648" y="-805.8" font-family="Times,serif" font-size="14.00" fill="#000000">tipo</text>
</g>
<!-- inteiro -->
<g id="node2" class="node">
<title>inteiro</title>
<ellipse fill="none" stroke="#000000" cx="201.5648" cy="-738" rx="36.4936" ry="18"/>
<text text-anchor="middle" x="201.5648" y="-733.8" font-family="Times,serif" font-size="14.00" fill="#000000">inteiro</text>
</g>
<!-- tipo&#45;&gt;inteiro -->
<g id="edge1" class="edge">
<title>tipo&#45;&gt;inteiro</title>
<path fill="none" stroke="#000000" d="M184.9189,-795.4297C181.4551,-786.4308 180.488,-774.623 182.0177,-764.0557"/>
<polygon fill="#000000" stroke="#000000" points="185.4881,-764.5885 184.3797,-754.0518 178.6754,-762.9799 185.4881,-764.5885"/>
</g>
<!-- tipo&#45;&gt;inteiro -->
<g id="edge3" class="edge">
<title>tipo&#45;&gt;inteiro</title>
<path fill="none" stroke="#000000" d="M195.6491,-792.2022C194.8593,-784.3271 194.6303,-774.875 194.962,-766.0852"/>
<polygon fill="#000000" stroke="#000000" points="198.4718,-766.0532 195.6446,-755.8425 191.4873,-765.5876 198.4718,-766.0532"/>
</g>
<!-- tipo&#45;&gt;inteiro -->
<g id="edge10" class="edge">
<title>tipo&#45;&gt;inteiro</title>
<path fill="none" stroke="#000000" d="M207.4805,-792.2022C208.2703,-784.3271 208.4993,-774.875 208.1677,-766.0852"/>
<polygon fill="#000000" stroke="#000000" points="211.6424,-765.5876 207.485,-755.8425 204.6579,-766.0532 211.6424,-765.5876"/>
</g>
<!-- tipo&#45;&gt;inteiro -->
<g id="edge17" class="edge">
<title>tipo&#45;&gt;inteiro</title>
<path fill="none" stroke="#000000" d="M218.2107,-795.4297C221.6745,-786.4308 222.6416,-774.623 221.1119,-764.0557"/>
<polygon fill="#000000" stroke="#000000" points="224.4542,-762.9799 218.75,-754.0518 217.6415,-764.5885 224.4542,-762.9799"/>
</g>
<!-- lista_parametros -->
<g id="node3" class="node">
<title>lista_parametros</title>
<ellipse fill="none" stroke="#000000" cx="203.5648" cy="-1098" rx="74.713" ry="18"/>
<text text-anchor="middle" x="203.5648" y="-1093.8" font-family="Times,serif" font-size="14.00" fill="#000000">lista_parametros</text>
</g>
<!-- parametro -->
<g id="node4" class="node">
<title>parametro</title>
<ellipse fill="none" stroke="#000000" cx="304.5648" cy="-1026" rx="50.3586" ry="18"/>
<text text-anchor="middle" x="304.5648" y="-1021.8" font-family="Times,serif" font-size="14.00" fill="#000000">parametro</text>
</g>
<!-- lista_parametros&#45;&gt;parametro -->
<g id="edge2" class="edge">
<title>lista_parametros&#45;&gt;parametro</title>
<path fill="none" stroke="#000000" d="M227.5004,-1080.937C241.2518,-1071.1341 258.6769,-1058.7122 273.4777,-1048.1611"/>
<polygon fill="#000000" stroke="#000000" points="275.7303,-1050.8536 281.8414,-1042.1989 271.6669,-1045.1537 275.7303,-1050.8536"/>
</g>
<!-- corpo -->
<g id="node10" class="node">
<title>corpo</title>
<ellipse fill="none" stroke="#000000" cx="203.5648" cy="-1026" rx="33.0469" ry="18"/>
<text text-anchor="middle" x="203.5648" y="-1021.8" font-family="Times,serif" font-size="14.00" fill="#000000">corpo</text>
</g>
<!-- lista_parametros&#45;&gt;corpo -->
<g id="edge72" class="edge">
<title>lista_parametros&#45;&gt;corpo</title>
<path fill="none" stroke="#000000" d="M203.5648,-1079.8314C203.5648,-1072.131 203.5648,-1062.9743 203.5648,-1054.4166"/>
<polygon fill="#000000" stroke="#000000" points="207.0649,-1054.4132 203.5648,-1044.4133 200.0649,-1054.4133 207.0649,-1054.4132"/>
</g>
<!-- var -->
<g id="node5" class="node">
<title>var</title>
<ellipse fill="none" stroke="#000000" cx="358.5648" cy="-738" rx="27" ry="18"/>
<text text-anchor="middle" x="358.5648" y="-733.8" font-family="Times,serif" font-size="14.00" fill="#000000">var</text>
</g>
<!-- a -->
<g id="node6" class="node">
<title>a</title>
<ellipse fill="none" stroke="#000000" cx="478.5648" cy="-666" rx="27" ry="18"/>
<text text-anchor="middle" x="478.5648" y="-661.8" font-family="Times,serif" font-size="14.00" fill="#000000">a</text>
</g>
<!-- var&#45;&gt;a -->
<g id="edge4" class="edge">
<title>var&#45;&gt;a</title>
<path fill="none" stroke="#000000" d="M372.9932,-722.5542C391.3116,-709.7139 421.634,-691.6273 445.4629,-679.3926"/>
<polygon fill="#000000" stroke="#000000" points="447.177,-682.4489 454.5657,-674.8557 444.0545,-676.1839 447.177,-682.4489"/>
</g>
<!-- var&#45;&gt;a -->
<g id="edge24" class="edge">
<title>var&#45;&gt;a</title>
<path fill="none" stroke="#000000" d="M378.6501,-725.9488C398.119,-714.2675 427.8494,-696.4293 449.8212,-683.2461"/>
<polygon fill="#000000" stroke="#000000" points="451.6398,-686.2367 458.414,-678.0905 448.0383,-680.2343 451.6398,-686.2367"/>
</g>
<!-- var&#45;&gt;a -->
<g id="edge52" class="edge">
<title>var&#45;&gt;a</title>
<path fill="none" stroke="#000000" d="M382.5077,-729.1714C404.0842,-718.7886 434.4719,-701.1966 455.6466,-687.2099"/>
<polygon fill="#000000" stroke="#000000" points="457.7971,-689.9804 464.1049,-681.4679 453.8654,-684.1888 457.7971,-689.9804"/>
</g>
<!-- b -->
<g id="node11" class="node">
<title>b</title>
<ellipse fill="none" stroke="#000000" cx="222.5648" cy="-666" rx="27" ry="18"/>
<text text-anchor="middle" x="222.5648" y="-661.8" font-family="Times,serif" font-size="14.00" fill="#000000">b</text>
</g>
<!-- var&#45;&gt;b -->
<g id="edge11" class="edge">
<title>var&#45;&gt;b</title>
<path fill="none" stroke="#000000" d="M334.3015,-729.8806C309.4326,-719.2027 272.2582,-700.0926 247.3284,-685.5476"/>
<polygon fill="#000000" stroke="#000000" points="249.1232,-682.5428 238.7433,-680.4195 245.5335,-688.5523 249.1232,-682.5428"/>
</g>
<!-- var&#45;&gt;b -->
<g id="edge38" class="edge">
<title>var&#45;&gt;b</title>
<path fill="none" stroke="#000000" d="M337.3148,-726.75C314.6926,-714.7735 278.6909,-695.7138 253.0488,-682.1386"/>
<polygon fill="#000000" stroke="#000000" points="254.5899,-678.9943 244.1144,-677.4086 251.3147,-685.1808 254.5899,-678.9943"/>
</g>
<!-- var&#45;&gt;b -->
<g id="edge58" class="edge">
<title>var&#45;&gt;b</title>
<path fill="none" stroke="#000000" d="M342.1405,-723.4297C320.4212,-710.1236 283.4628,-690.6764 255.992,-678.1786"/>
<polygon fill="#000000" stroke="#000000" points="257.2723,-674.9178 246.7115,-674.0693 254.4381,-681.3184 257.2723,-674.9178"/>
</g>
<!-- c -->
<g id="node12" class="node">
<title>c</title>
<ellipse fill="none" stroke="#000000" cx="294.5648" cy="-666" rx="27" ry="18"/>
<text text-anchor="middle" x="294.5648" y="-661.8" font-family="Times,serif" font-size="14.00" fill="#000000">c</text>
</g>
<!-- var&#45;&gt;c -->
<g id="edge18" class="edge">
<title>var&#45;&gt;c</title>
<path fill="none" stroke="#000000" d="M344.6778,-722.3771C336.0395,-712.659 324.7755,-699.987 315.1151,-689.1191"/>
<polygon fill="#000000" stroke="#000000" points="317.6844,-686.7413 308.4248,-681.5924 312.4525,-691.3918 317.6844,-686.7413"/>
</g>
<!-- expressao -->
<g id="node21" class="node">
<title>expressao</title>
<ellipse fill="none" stroke="#000000" cx="128.5648" cy="-666" rx="49.2163" ry="18"/>
<text text-anchor="middle" x="128.5648" y="-661.8" font-family="Times,serif" font-size="14.00" fill="#000000">expressao</text>
</g>
<!-- var&#45;&gt;expressao -->
<g id="edge34" class="edge">
<title>var&#45;&gt;expressao</title>
<path fill="none" stroke="#000000" d="M333.2259,-731.3555C294.644,-720.1751 221.0621,-697.3064 173.3732,-681.8115"/>
<polygon fill="#000000" stroke="#000000" points="174.2043,-678.4011 163.6118,-678.6238 172.0312,-685.0552 174.2043,-678.4011"/>
</g>
<!-- var&#45;&gt;expressao -->
<g id="edge48" class="edge">
<title>var&#45;&gt;expressao</title>
<path fill="none" stroke="#000000" d="M334.9766,-729.1714C298.0179,-716.8054 226.12,-694.2133 177.6465,-679.6654"/>
<polygon fill="#000000" stroke="#000000" points="178.564,-676.2867 167.9806,-676.7791 176.5611,-682.9941 178.564,-676.2867"/>
</g>
<!-- lista_variaveis -->
<g id="node7" class="node">
<title>lista_variaveis</title>
<ellipse fill="none" stroke="#000000" cx="358.5648" cy="-810" rx="66.6267" ry="18"/>
<text text-anchor="middle" x="358.5648" y="-805.8" font-family="Times,serif" font-size="14.00" fill="#000000">lista_variaveis</text>
</g>
<!-- lista_variaveis&#45;&gt;var -->
<g id="edge5" class="edge">
<title>lista_variaveis&#45;&gt;var</title>
<path fill="none" stroke="#000000" d="M346.7334,-792.2022C345.0584,-783.8515 344.6445,-773.7275 345.4916,-764.5003"/>
<polygon fill="#000000" stroke="#000000" points="348.9533,-765.016 346.9837,-754.6058 342.0315,-763.9721 348.9533,-765.016"/>
</g>
<!-- lista_variaveis&#45;&gt;var -->
<g id="edge12" class="edge">
<title>lista_variaveis&#45;&gt;var</title>
<path fill="none" stroke="#000000" d="M358.5648,-791.8314C358.5648,-784.131 358.5648,-774.9743 358.5648,-766.4166"/>
<polygon fill="#000000" stroke="#000000" points="362.0649,-766.4132 358.5648,-756.4133 355.0649,-766.4133 362.0649,-766.4132"/>
</g>
<!-- lista_variaveis&#45;&gt;var -->
<g id="edge19" class="edge">
<title>lista_variaveis&#45;&gt;var</title>
<path fill="none" stroke="#000000" d="M370.3963,-792.2022C372.0712,-783.8515 372.4851,-773.7275 371.6381,-764.5003"/>
<polygon fill="#000000" stroke="#000000" points="375.0981,-763.9721 370.1459,-754.6058 368.1763,-765.016 375.0981,-763.9721"/>
</g>
<!-- declaracao_variaveis -->
<g id="node8" class="node">
<title>declaracao_variaveis</title>
<ellipse fill="none" stroke="#000000" cx="351.5648" cy="-882" rx="91.991" ry="18"/>
<text text-anchor="middle" x="351.5648" y="-877.8" font-family="Times,serif" font-size="14.00" fill="#000000">declaracao_variaveis</text>
</g>
<!-- declaracao_variaveis&#45;&gt;tipo -->
<g id="edge6" class="edge">
<title>declaracao_variaveis&#45;&gt;tipo</title>
<path fill="none" stroke="#000000" d="M307.248,-866.1993C281.5677,-855.1157 250.4123,-840.2553 228.326,-828.5993"/>
<polygon fill="#000000" stroke="#000000" points="229.9216,-825.4833 219.4581,-823.8204 226.6008,-831.6455 229.9216,-825.4833"/>
</g>
<!-- declaracao_variaveis&#45;&gt;tipo -->
<g id="edge13" class="edge">
<title>declaracao_variaveis&#45;&gt;tipo</title>
<path fill="none" stroke="#000000" d="M316.7748,-865.3008C291.4087,-853.1251 257.3302,-836.7674 232.8264,-825.0056"/>
<polygon fill="#000000" stroke="#000000" points="234.147,-821.7572 223.6172,-820.5852 231.1179,-828.0679 234.147,-821.7572"/>
</g>
<!-- declaracao_variaveis&#45;&gt;tipo -->
<g id="edge20" class="edge">
<title>declaracao_variaveis&#45;&gt;tipo</title>
<path fill="none" stroke="#000000" d="M327.0105,-864.5708C301.8542,-851.1684 263.5565,-833.0371 235.5561,-821.4276"/>
<polygon fill="#000000" stroke="#000000" points="236.7027,-818.116 226.1199,-817.6116 234.0783,-824.6054 236.7027,-818.116"/>
</g>
<!-- declaracao_variaveis&#45;&gt;lista_variaveis -->
<g id="edge7" class="edge">
<title>declaracao_variaveis&#45;&gt;lista_variaveis</title>
<path fill="none" stroke="#000000" d="M341.4264,-863.8314C340.6543,-855.9266 341.1473,-846.4872 342.6894,-837.7365"/>
<polygon fill="#000000" stroke="#000000" points="346.1178,-838.4457 344.9687,-827.9134 339.2989,-836.8635 346.1178,-838.4457"/>
</g>
<!-- declaracao_variaveis&#45;&gt;lista_variaveis -->
<g id="edge14" class="edge">
<title>declaracao_variaveis&#45;&gt;lista_variaveis</title>
<path fill="none" stroke="#000000" d="M353.3312,-863.8314C354.0799,-856.131 354.9701,-846.9743 355.8021,-838.4166"/>
<polygon fill="#000000" stroke="#000000" points="359.2905,-838.7051 356.7746,-828.4133 352.3233,-838.0276 359.2905,-838.7051"/>
</g>
<!-- declaracao_variaveis&#45;&gt;lista_variaveis -->
<g id="edge21" class="edge">
<title>declaracao_variaveis&#45;&gt;lista_variaveis</title>
<path fill="none" stroke="#000000" d="M365.236,-863.8314C367.5201,-856.0125 368.8583,-846.6923 369.0414,-838.0221"/>
<polygon fill="#000000" stroke="#000000" points="372.5351,-837.7811 368.6778,-827.9134 365.5396,-838.0328 372.5351,-837.7811"/>
</g>
<!-- acao -->
<g id="node9" class="node">
<title>acao</title>
<ellipse fill="none" stroke="#000000" cx="203.5648" cy="-954" rx="28.952" ry="18"/>
<text text-anchor="middle" x="203.5648" y="-949.8" font-family="Times,serif" font-size="14.00" fill="#000000">acao</text>
</g>
<!-- acao&#45;&gt;declaracao_variaveis -->
<g id="edge8" class="edge">
<title>acao&#45;&gt;declaracao_variaveis</title>
<path fill="none" stroke="#000000" d="M221.7974,-939.7751C241.178,-928.9604 271.6345,-913.9461 298.3631,-901.9341"/>
<polygon fill="#000000" stroke="#000000" points="299.9143,-905.075 307.6375,-897.8223 297.0771,-898.6757 299.9143,-905.075"/>
</g>
<!-- acao&#45;&gt;declaracao_variaveis -->
<g id="edge15" class="edge">
<title>acao&#45;&gt;declaracao_variaveis</title>
<path fill="none" stroke="#000000" d="M226.3655,-942.9078C248.0527,-932.3573 281.2475,-916.2084 308.0087,-903.1894"/>
<polygon fill="#000000" stroke="#000000" points="309.7156,-906.2514 317.1768,-898.7293 306.6533,-899.9567 309.7156,-906.2514"/>
</g>
<!-- acao&#45;&gt;declaracao_variaveis -->
<g id="edge22" class="edge">
<title>acao&#45;&gt;declaracao_variaveis</title>
<path fill="none" stroke="#000000" d="M229.5302,-945.7407C254.5389,-935.696 291.4142,-918.3403 318.3678,-904.2733"/>
<polygon fill="#000000" stroke="#000000" points="320.2597,-907.2316 327.4521,-899.4522 316.9782,-901.0484 320.2597,-907.2316"/>
</g>
<!-- acao&#45;&gt;expressao -->
<g id="edge36" class="edge">
<title>acao&#45;&gt;expressao</title>
<path fill="none" stroke="#000000" d="M181.9932,-942.05C169.3725,-932.0261 154.9754,-916.6997 147.5648,-900 116.8372,-830.7553 115.9109,-739.2665 121.1565,-693.9334"/>
<polygon fill="#000000" stroke="#000000" points="124.6337,-694.3385 122.525,-683.9557 117.6986,-693.3873 124.6337,-694.3385"/>
</g>
<!-- acao&#45;&gt;expressao -->
<g id="edge50" class="edge">
<title>acao&#45;&gt;expressao</title>
<path fill="none" stroke="#000000" d="M191.9267,-936.9706C183.0383,-927.1965 171.8159,-914.0869 165.5648,-900 134.9141,-830.9284 133.9157,-739.7238 132.3579,-694.2743"/>
<polygon fill="#000000" stroke="#000000" points="135.8544,-694.1125 131.9569,-684.2605 128.86,-694.3926 135.8544,-694.1125"/>
</g>
<!-- retorna -->
<g id="node26" class="node">
<title>retorna</title>
<ellipse fill="none" stroke="#000000" cx="203.5648" cy="-882" rx="38.2607" ry="18"/>
<text text-anchor="middle" x="203.5648" y="-877.8" font-family="Times,serif" font-size="14.00" fill="#000000">retorna</text>
</g>
<!-- acao&#45;&gt;retorna -->
<g id="edge68" class="edge">
<title>acao&#45;&gt;retorna</title>
<path fill="none" stroke="#000000" d="M203.5648,-935.8314C203.5648,-928.131 203.5648,-918.9743 203.5648,-910.4166"/>
<polygon fill="#000000" stroke="#000000" points="207.0649,-910.4132 203.5648,-900.4133 200.0649,-910.4133 207.0649,-910.4132"/>
</g>
<!-- corpo&#45;&gt;acao -->
<g id="edge9" class="edge">
<title>corpo&#45;&gt;acao</title>
<path fill="none" stroke="#000000" d="M177.9907,-1014.432C168.76,-1003.063 167.3455,-985.5389 173.7471,-972.2836"/>
<polygon fill="#000000" stroke="#000000" points="176.7062,-974.1562 179.4277,-963.9168 170.9148,-970.2241 176.7062,-974.1562"/>
</g>
<!-- corpo&#45;&gt;acao -->
<g id="edge16" class="edge">
<title>corpo&#45;&gt;acao</title>
<path fill="none" stroke="#000000" d="M186.5295,-1010.3771C183.268,-1001.1954 182.4882,-989.3769 184.1902,-978.9343"/>
<polygon fill="#000000" stroke="#000000" points="187.6185,-979.6557 186.7194,-969.099 180.8391,-977.9122 187.6185,-979.6557"/>
</g>
<!-- corpo&#45;&gt;acao -->
<g id="edge23" class="edge">
<title>corpo&#45;&gt;acao</title>
<path fill="none" stroke="#000000" d="M197.6491,-1008.2022C196.8593,-1000.3271 196.6303,-990.875 196.962,-982.0852"/>
<polygon fill="#000000" stroke="#000000" points="200.4718,-982.0532 197.6446,-971.8425 193.4873,-981.5876 200.4718,-982.0532"/>
</g>
<!-- corpo&#45;&gt;acao -->
<g id="edge37" class="edge">
<title>corpo&#45;&gt;acao</title>
<path fill="none" stroke="#000000" d="M209.4805,-1008.2022C210.2703,-1000.3271 210.4993,-990.875 210.1677,-982.0852"/>
<polygon fill="#000000" stroke="#000000" points="213.6424,-981.5876 209.485,-971.8425 206.6579,-982.0532 213.6424,-981.5876"/>
</g>
<!-- corpo&#45;&gt;acao -->
<g id="edge51" class="edge">
<title>corpo&#45;&gt;acao</title>
<path fill="none" stroke="#000000" d="M220.6001,-1010.3771C223.8616,-1001.1954 224.6414,-989.3769 222.9394,-978.9343"/>
<polygon fill="#000000" stroke="#000000" points="226.2905,-977.9122 220.4102,-969.099 219.5111,-979.6557 226.2905,-977.9122"/>
</g>
<!-- corpo&#45;&gt;acao -->
<g id="edge69" class="edge">
<title>corpo&#45;&gt;acao</title>
<path fill="none" stroke="#000000" d="M229.1389,-1014.432C238.3696,-1003.063 239.7841,-985.5389 233.3825,-972.2836"/>
<polygon fill="#000000" stroke="#000000" points="236.2148,-970.2241 227.7019,-963.9168 230.4235,-974.1562 236.2148,-970.2241"/>
</g>
<!-- numero -->
<g id="node13" class="node">
<title>numero</title>
<ellipse fill="none" stroke="#000000" cx="187.5648" cy="-90" rx="40.5712" ry="18"/>
<text text-anchor="middle" x="187.5648" y="-85.8" font-family="Times,serif" font-size="14.00" fill="#000000">numero</text>
</g>
<!-- 1 -->
<g id="node14" class="node">
<title>1</title>
<ellipse fill="none" stroke="#000000" cx="151.5648" cy="-18" rx="27" ry="18"/>
<text text-anchor="middle" x="151.5648" y="-13.8" font-family="Times,serif" font-size="14.00" fill="#000000">1</text>
</g>
<!-- numero&#45;&gt;1 -->
<g id="edge25" class="edge">
<title>numero&#45;&gt;1</title>
<path fill="none" stroke="#000000" d="M178.6659,-72.2022C174.4626,-63.7955 169.3607,-53.5917 164.7223,-44.3149"/>
<polygon fill="#000000" stroke="#000000" points="167.7161,-42.4762 160.1134,-35.0972 161.4551,-45.6068 167.7161,-42.4762"/>
</g>
<!-- 2 -->
<g id="node23" class="node">
<title>2</title>
<ellipse fill="none" stroke="#000000" cx="223.5648" cy="-18" rx="27" ry="18"/>
<text text-anchor="middle" x="223.5648" y="-13.8" font-family="Times,serif" font-size="14.00" fill="#000000">2</text>
</g>
<!-- numero&#45;&gt;2 -->
<g id="edge39" class="edge">
<title>numero&#45;&gt;2</title>
<path fill="none" stroke="#000000" d="M196.4637,-72.2022C200.667,-63.7955 205.7689,-53.5917 210.4074,-44.3149"/>
<polygon fill="#000000" stroke="#000000" points="213.6745,-45.6068 215.0162,-35.0972 207.4135,-42.4762 213.6745,-45.6068"/>
</g>
<!-- fator -->
<g id="node15" class="node">
<title>fator</title>
<ellipse fill="none" stroke="#000000" cx="187.5648" cy="-162" rx="29.0318" ry="18"/>
<text text-anchor="middle" x="187.5648" y="-157.8" font-family="Times,serif" font-size="14.00" fill="#000000">fator</text>
</g>
<!-- fator&#45;&gt;var -->
<g id="edge53" class="edge">
<title>fator&#45;&gt;var</title>
<path fill="none" stroke="#000000" d="M215.9762,-167.3158C275.2033,-179.4481 405.5648,-215.4594 405.5648,-306 405.5648,-594 405.5648,-594 405.5648,-594 405.5648,-637.1907 383.4112,-683.0167 369.2112,-711.0767"/>
<polygon fill="#000000" stroke="#000000" points="365.9719,-709.7259 364.5695,-720.2275 372.2147,-712.8926 365.9719,-709.7259"/>
</g>
<!-- fator&#45;&gt;var -->
<g id="edge59" class="edge">
<title>fator&#45;&gt;var</title>
<path fill="none" stroke="#000000" d="M216.3036,-165.6258C279.4176,-175.8805 423.5648,-210.7924 423.5648,-306 423.5648,-594 423.5648,-594 423.5648,-594 423.5648,-639.2622 399.2352,-687.4186 380.0716,-714.9893"/>
<polygon fill="#000000" stroke="#000000" points="377.1525,-713.0517 374.0686,-723.1878 382.8003,-717.1871 377.1525,-713.0517"/>
</g>
<!-- fator&#45;&gt;numero -->
<g id="edge26" class="edge">
<title>fator&#45;&gt;numero</title>
<path fill="none" stroke="#000000" d="M181.6491,-144.2022C180.8593,-136.3271 180.6303,-126.875 180.962,-118.0852"/>
<polygon fill="#000000" stroke="#000000" points="184.4718,-118.0532 181.6446,-107.8425 177.4873,-117.5876 184.4718,-118.0532"/>
</g>
<!-- fator&#45;&gt;numero -->
<g id="edge40" class="edge">
<title>fator&#45;&gt;numero</title>
<path fill="none" stroke="#000000" d="M193.4805,-144.2022C194.2703,-136.3271 194.4993,-126.875 194.1677,-118.0852"/>
<polygon fill="#000000" stroke="#000000" points="197.6424,-117.5876 193.485,-107.8425 190.6579,-118.0532 197.6424,-117.5876"/>
</g>
<!-- expressao_unaria -->
<g id="node16" class="node">
<title>expressao_unaria</title>
<ellipse fill="none" stroke="#000000" cx="187.5648" cy="-234" rx="78.1308" ry="18"/>
<text text-anchor="middle" x="187.5648" y="-229.8" font-family="Times,serif" font-size="14.00" fill="#000000">expressao_unaria</text>
</g>
<!-- expressao_unaria&#45;&gt;fator -->
<g id="edge27" class="edge">
<title>expressao_unaria&#45;&gt;fator</title>
<path fill="none" stroke="#000000" d="M169.8176,-216.2022C167.1678,-207.3947 166.6221,-196.6147 168.1804,-186.9946"/>
<polygon fill="#000000" stroke="#000000" points="171.6088,-187.7149 170.6971,-177.1594 164.8273,-185.9796 171.6088,-187.7149"/>
</g>
<!-- expressao_unaria&#45;&gt;fator -->
<g id="edge41" class="edge">
<title>expressao_unaria&#45;&gt;fator</title>
<path fill="none" stroke="#000000" d="M181.6124,-215.8314C180.8504,-208.0125 180.6344,-198.6923 180.9643,-190.0221"/>
<polygon fill="#000000" stroke="#000000" points="184.4652,-190.1239 181.6375,-179.9134 177.4807,-189.6587 184.4652,-190.1239"/>
</g>
<!-- expressao_unaria&#45;&gt;fator -->
<g id="edge54" class="edge">
<title>expressao_unaria&#45;&gt;fator</title>
<path fill="none" stroke="#000000" d="M193.5172,-215.8314C194.2792,-208.0125 194.4952,-198.6923 194.1653,-190.0221"/>
<polygon fill="#000000" stroke="#000000" points="197.6489,-189.6587 193.4921,-179.9134 190.6644,-190.1239 197.6489,-189.6587"/>
</g>
<!-- expressao_unaria&#45;&gt;fator -->
<g id="edge60" class="edge">
<title>expressao_unaria&#45;&gt;fator</title>
<path fill="none" stroke="#000000" d="M205.312,-216.2022C207.9618,-207.3947 208.5075,-196.6147 206.9492,-186.9946"/>
<polygon fill="#000000" stroke="#000000" points="210.3023,-185.9796 204.4325,-177.1594 203.5208,-187.7149 210.3023,-185.9796"/>
</g>
<!-- expressao_multiplicativa -->
<g id="node17" class="node">
<title>expressao_multiplicativa</title>
<ellipse fill="none" stroke="#000000" cx="187.5648" cy="-306" rx="107.6598" ry="18"/>
<text text-anchor="middle" x="187.5648" y="-301.8" font-family="Times,serif" font-size="14.00" fill="#000000">expressao_multiplicativa</text>
</g>
<!-- expressao_multiplicativa&#45;&gt;expressao_unaria -->
<g id="edge28" class="edge">
<title>expressao_multiplicativa&#45;&gt;expressao_unaria</title>
<path fill="none" stroke="#000000" d="M169.8176,-288.2022C167.4043,-280.1807 166.7363,-270.5231 167.8135,-261.5957"/>
<polygon fill="#000000" stroke="#000000" points="171.2843,-262.0943 169.8797,-251.593 164.429,-260.6782 171.2843,-262.0943"/>
</g>
<!-- expressao_multiplicativa&#45;&gt;expressao_unaria -->
<g id="edge42" class="edge">
<title>expressao_multiplicativa&#45;&gt;expressao_unaria</title>
<path fill="none" stroke="#000000" d="M181.6124,-287.8314C180.862,-280.131 180.6411,-270.9743 180.9497,-262.4166"/>
<polygon fill="#000000" stroke="#000000" points="184.444,-262.6161 181.5888,-252.4133 177.4583,-262.1697 184.444,-262.6161"/>
</g>
<!-- expressao_multiplicativa&#45;&gt;expressao_unaria -->
<g id="edge55" class="edge">
<title>expressao_multiplicativa&#45;&gt;expressao_unaria</title>
<path fill="none" stroke="#000000" d="M193.5172,-287.8314C194.2676,-280.131 194.4885,-270.9743 194.1799,-262.4166"/>
<polygon fill="#000000" stroke="#000000" points="197.6714,-262.1697 193.5408,-252.4133 190.6856,-262.6161 197.6714,-262.1697"/>
</g>
<!-- expressao_multiplicativa&#45;&gt;expressao_unaria -->
<g id="edge61" class="edge">
<title>expressao_multiplicativa&#45;&gt;expressao_unaria</title>
<path fill="none" stroke="#000000" d="M205.312,-288.2022C207.7253,-280.1807 208.3934,-270.5231 207.3162,-261.5957"/>
<polygon fill="#000000" stroke="#000000" points="210.7006,-260.6782 205.2499,-251.593 203.8453,-262.0943 210.7006,-260.6782"/>
</g>
<!-- expressao_aditiva -->
<g id="node18" class="node">
<title>expressao_aditiva</title>
<ellipse fill="none" stroke="#000000" cx="128.5648" cy="-450" rx="80.4364" ry="18"/>
<text text-anchor="middle" x="128.5648" y="-445.8" font-family="Times,serif" font-size="14.00" fill="#000000">expressao_aditiva</text>
</g>
<!-- expressao_aditiva&#45;&gt;expressao_multiplicativa -->
<g id="edge29" class="edge">
<title>expressao_aditiva&#45;&gt;expressao_multiplicativa</title>
<path fill="none" stroke="#000000" d="M126.6909,-431.7623C131.9252,-406.7682 149.913,-361.6924 165.7787,-332.8409"/>
<polygon fill="#000000" stroke="#000000" points="168.8629,-334.499 170.8365,-324.0896 162.8023,-330.9962 168.8629,-334.499"/>
</g>
<!-- expressao_aditiva&#45;&gt;expressao_multiplicativa -->
<g id="edge43" class="edge">
<title>expressao_aditiva&#45;&gt;expressao_multiplicativa</title>
<path fill="none" stroke="#000000" d="M135.9179,-432.0535C146.0314,-407.3696 164.329,-362.7111 176.2087,-333.7167"/>
<polygon fill="#000000" stroke="#000000" points="179.5664,-334.7531 180.119,-324.1727 173.089,-332.0992 179.5664,-334.7531"/>
</g>
<!-- expressao_aditiva&#45;&gt;expressao_multiplicativa -->
<g id="edge56" class="edge">
<title>expressao_aditiva&#45;&gt;expressao_multiplicativa</title>
<path fill="none" stroke="#000000" d="M145.0279,-432.3428C160.0943,-407.8619 178.918,-363.342 186.979,-334.222"/>
<polygon fill="#000000" stroke="#000000" points="190.4404,-334.803 189.4349,-324.256 183.6438,-333.128 190.4404,-334.803"/>
</g>
<!-- operador_soma -->
<g id="node24" class="node">
<title>operador_soma</title>
<ellipse fill="none" stroke="#000000" cx="70.5648" cy="-378" rx="70.6297" ry="18"/>
<text text-anchor="middle" x="70.5648" y="-373.8" font-family="Times,serif" font-size="14.00" fill="#000000">operador_soma</text>
</g>
<!-- expressao_aditiva&#45;&gt;operador_soma -->
<g id="edge62" class="edge">
<title>expressao_aditiva&#45;&gt;operador_soma</title>
<path fill="none" stroke="#000000" d="M114.2277,-432.2022C107.3262,-423.6348 98.9211,-413.2009 91.3352,-403.7839"/>
<polygon fill="#000000" stroke="#000000" points="93.937,-401.4344 84.938,-395.8425 88.4857,-405.8258 93.937,-401.4344"/>
</g>
<!-- expressao_simples -->
<g id="node19" class="node">
<title>expressao_simples</title>
<ellipse fill="none" stroke="#000000" cx="128.5648" cy="-522" rx="83.3847" ry="18"/>
<text text-anchor="middle" x="128.5648" y="-517.8" font-family="Times,serif" font-size="14.00" fill="#000000">expressao_simples</text>
</g>
<!-- expressao_simples&#45;&gt;expressao_aditiva -->
<g id="edge30" class="edge">
<title>expressao_simples&#45;&gt;expressao_aditiva</title>
<path fill="none" stroke="#000000" d="M116.66,-503.8314C115.1361,-496.0125 114.704,-486.6923 115.3639,-478.0221"/>
<polygon fill="#000000" stroke="#000000" points="118.8593,-478.288 116.7103,-467.9134 111.9206,-477.3638 118.8593,-478.288"/>
</g>
<!-- expressao_simples&#45;&gt;expressao_aditiva -->
<g id="edge44" class="edge">
<title>expressao_simples&#45;&gt;expressao_aditiva</title>
<path fill="none" stroke="#000000" d="M128.5648,-503.8314C128.5648,-496.131 128.5648,-486.9743 128.5648,-478.4166"/>
<polygon fill="#000000" stroke="#000000" points="132.0649,-478.4132 128.5648,-468.4133 125.0649,-478.4133 132.0649,-478.4132"/>
</g>
<!-- expressao_simples&#45;&gt;expressao_aditiva -->
<g id="edge64" class="edge">
<title>expressao_simples&#45;&gt;expressao_aditiva</title>
<path fill="none" stroke="#000000" d="M140.4696,-503.8314C141.9935,-496.0125 142.4256,-486.6923 141.7657,-478.0221"/>
<polygon fill="#000000" stroke="#000000" points="145.2091,-477.3638 140.4194,-467.9134 138.2703,-478.288 145.2091,-477.3638"/>
</g>
<!-- expressao_logica -->
<g id="node20" class="node">
<title>expressao_logica</title>
<ellipse fill="none" stroke="#000000" cx="128.5648" cy="-594" rx="77.5685" ry="18"/>
<text text-anchor="middle" x="128.5648" y="-589.8" font-family="Times,serif" font-size="14.00" fill="#000000">expressao_logica</text>
</g>
<!-- expressao_logica&#45;&gt;expressao_simples -->
<g id="edge31" class="edge">
<title>expressao_logica&#45;&gt;expressao_simples</title>
<path fill="none" stroke="#000000" d="M116.7334,-576.2022C115.1365,-568.2406 114.6858,-558.6671 115.3814,-549.7957"/>
<polygon fill="#000000" stroke="#000000" points="118.8556,-550.2208 116.7244,-539.8425 111.9185,-549.2847 118.8556,-550.2208"/>
</g>
<!-- expressao_logica&#45;&gt;expressao_simples -->
<g id="edge45" class="edge">
<title>expressao_logica&#45;&gt;expressao_simples</title>
<path fill="none" stroke="#000000" d="M128.5648,-575.8314C128.5648,-568.131 128.5648,-558.9743 128.5648,-550.4166"/>
<polygon fill="#000000" stroke="#000000" points="132.0649,-550.4132 128.5648,-540.4133 125.0649,-550.4133 132.0649,-550.4132"/>
</g>
<!-- expressao_logica&#45;&gt;expressao_simples -->
<g id="edge65" class="edge">
<title>expressao_logica&#45;&gt;expressao_simples</title>
<path fill="none" stroke="#000000" d="M140.3963,-576.2022C141.9931,-568.2406 142.4438,-558.6671 141.7483,-549.7957"/>
<polygon fill="#000000" stroke="#000000" points="145.2111,-549.2847 140.4052,-539.8425 138.274,-550.2208 145.2111,-549.2847"/>
</g>
<!-- expressao&#45;&gt;expressao_logica -->
<g id="edge32" class="edge">
<title>expressao&#45;&gt;expressao_logica</title>
<path fill="none" stroke="#000000" d="M116.7334,-648.2022C115.1365,-640.2406 114.6858,-630.6671 115.3814,-621.7957"/>
<polygon fill="#000000" stroke="#000000" points="118.8556,-622.2208 116.7244,-611.8425 111.9185,-621.2847 118.8556,-622.2208"/>
</g>
<!-- expressao&#45;&gt;expressao_logica -->
<g id="edge46" class="edge">
<title>expressao&#45;&gt;expressao_logica</title>
<path fill="none" stroke="#000000" d="M128.5648,-647.8314C128.5648,-640.131 128.5648,-630.9743 128.5648,-622.4166"/>
<polygon fill="#000000" stroke="#000000" points="132.0649,-622.4132 128.5648,-612.4133 125.0649,-622.4133 132.0649,-622.4132"/>
</g>
<!-- expressao&#45;&gt;expressao_logica -->
<g id="edge66" class="edge">
<title>expressao&#45;&gt;expressao_logica</title>
<path fill="none" stroke="#000000" d="M140.3963,-648.2022C141.9931,-640.2406 142.4438,-630.6671 141.7483,-621.7957"/>
<polygon fill="#000000" stroke="#000000" points="145.2111,-621.2847 140.4052,-611.8425 138.274,-622.2208 145.2111,-621.2847"/>
</g>
<!-- atribuicao -->
<g id="node22" class="node">
<title>atribuicao</title>
<ellipse fill="none" stroke="#000000" cx="300.5648" cy="-594" rx="49.7962" ry="18"/>
<text text-anchor="middle" x="300.5648" y="-589.8" font-family="Times,serif" font-size="14.00" fill="#000000">atribuicao</text>
</g>
<!-- expressao&#45;&gt;atribuicao -->
<g id="edge35" class="edge">
<title>expressao&#45;&gt;atribuicao</title>
<path fill="none" stroke="#000000" d="M157.8229,-651.4297C184.6449,-639.5647 224.5784,-622.8167 255.4515,-610.4671"/>
<polygon fill="#000000" stroke="#000000" points="257.1267,-613.5678 265.1287,-606.6238 254.5429,-607.0621 257.1267,-613.5678"/>
</g>
<!-- expressao&#45;&gt;atribuicao -->
<g id="edge49" class="edge">
<title>expressao&#45;&gt;atribuicao</title>
<path fill="none" stroke="#000000" d="M163.7918,-653.4586C192.4076,-642.1884 232.5534,-625.4852 262.0113,-612.6496"/>
<polygon fill="#000000" stroke="#000000" points="263.4211,-615.8532 271.1718,-608.6299 260.6083,-609.4432 263.4211,-615.8532"/>
</g>
<!-- atribuicao&#45;&gt;var -->
<g id="edge33" class="edge">
<title>atribuicao&#45;&gt;var</title>
<path fill="none" stroke="#000000" d="M303.8765,-612.0219C308.8979,-622.3012 316.2484,-635.5767 321.5648,-648 330.5277,-668.9441 338.0229,-693.7254 344.4436,-711.9762"/>
<polygon fill="#000000" stroke="#000000" points="341.1649,-713.2014 347.9026,-721.3779 347.7344,-710.7844 341.1649,-713.2014"/>
</g>
<!-- atribuicao&#45;&gt;var -->
<g id="edge47" class="edge">
<title>atribuicao&#45;&gt;var</title>
<path fill="none" stroke="#000000" d="M319.0484,-611.0521C326.4291,-621.4575 334.0796,-635.1824 339.5648,-648 348.2294,-668.2472 355.5225,-692.0803 359.1835,-710.1329"/>
<polygon fill="#000000" stroke="#000000" points="355.7417,-710.7702 360.9024,-720.0232 362.6384,-709.5716 355.7417,-710.7702"/>
</g>
<!-- operador_soma&#45;&gt;expressao_multiplicativa -->
<g id="edge63" class="edge">
<title>operador_soma&#45;&gt;expressao_multiplicativa</title>
<path fill="none" stroke="#000000" d="M97.701,-361.3008C113.3371,-351.6786 133.2173,-339.4446 150.3016,-328.9312"/>
<polygon fill="#000000" stroke="#000000" points="152.2612,-331.835 158.9434,-323.6132 148.5924,-325.8734 152.2612,-331.835"/>
</g>
<!-- + -->
<g id="node25" class="node">
<title>+</title>
<ellipse fill="none" stroke="#000000" cx="34.5648" cy="-306" rx="27" ry="18"/>
<text text-anchor="middle" x="34.5648" y="-301.8" font-family="Times,serif" font-size="14.00" fill="#000000">+</text>
</g>
<!-- operador_soma&#45;&gt;+ -->
<g id="edge57" class="edge">
<title>operador_soma&#45;&gt;+</title>
<path fill="none" stroke="#000000" d="M61.4805,-359.8314C57.3374,-351.5451 52.3512,-341.5727 47.8022,-332.4748"/>
<polygon fill="#000000" stroke="#000000" points="50.8764,-330.7967 43.2737,-323.4177 44.6154,-333.9273 50.8764,-330.7967"/>
</g>
<!-- retorna&#45;&gt;expressao -->
<g id="edge67" class="edge">
<title>retorna&#45;&gt;expressao</title>
<path fill="none" stroke="#000000" d="M216.6221,-864.5257C238.2817,-833.2248 276.4376,-766.5228 246.5648,-720 238.1436,-706.8852 204.3569,-692.173 175.083,-681.421"/>
<polygon fill="#000000" stroke="#000000" points="175.966,-678.0193 165.3715,-677.9345 173.6007,-684.6076 175.966,-678.0193"/>
</g>
<!-- cabecalho -->
<g id="node27" class="node">
<title>cabecalho</title>
<ellipse fill="none" stroke="#000000" cx="181.5648" cy="-1242" rx="49.7787" ry="18"/>
<text text-anchor="middle" x="181.5648" y="-1237.8" font-family="Times,serif" font-size="14.00" fill="#000000">cabecalho</text>
</g>
<!-- principal -->
<g id="node28" class="node">
<title>principal</title>
<ellipse fill="none" stroke="#000000" cx="192.5648" cy="-1170" rx="45.2227" ry="18"/>
<text text-anchor="middle" x="192.5648" y="-1165.8" font-family="Times,serif" font-size="14.00" fill="#000000">principal</text>
</g>
<!-- cabecalho&#45;&gt;principal -->
<g id="edge70" class="edge">
<title>cabecalho&#45;&gt;principal</title>
<path fill="none" stroke="#000000" d="M184.3406,-1223.8314C185.517,-1216.131 186.916,-1206.9743 188.2234,-1198.4166"/>
<polygon fill="#000000" stroke="#000000" points="191.7012,-1198.8272 189.7517,-1188.4133 184.7815,-1197.7699 191.7012,-1198.8272"/>
</g>
<!-- principal&#45;&gt;lista_parametros -->
<g id="edge71" class="edge">
<title>principal&#45;&gt;lista_parametros</title>
<path fill="none" stroke="#000000" d="M195.3406,-1151.8314C196.517,-1144.131 197.916,-1134.9743 199.2234,-1126.4166"/>
<polygon fill="#000000" stroke="#000000" points="202.7012,-1126.8272 200.7517,-1116.4133 195.7815,-1125.7699 202.7012,-1126.8272"/>
</g>
<!-- declaracao_funcao -->
<g id="node29" class="node">
<title>declaracao_funcao</title>
<ellipse fill="none" stroke="#000000" cx="120.5648" cy="-1314" rx="83.3288" ry="18"/>
<text text-anchor="middle" x="120.5648" y="-1309.8" font-family="Times,serif" font-size="14.00" fill="#000000">declaracao_funcao</text>
</g>
<!-- declaracao_funcao&#45;&gt;tipo -->
<g id="edge73" class="edge">
<title>declaracao_funcao&#45;&gt;tipo</title>
<path fill="none" stroke="#000000" d="M112.2939,-1295.7881C100.8458,-1268.8727 81.5648,-1216.6212 81.5648,-1170 81.5648,-1170 81.5648,-1170 81.5648,-954 81.5648,-897.4494 136.8576,-851.3209 172.3773,-827.5224"/>
<polygon fill="#000000" stroke="#000000" points="174.4584,-830.3442 180.9361,-821.9603 170.6439,-824.4747 174.4584,-830.3442"/>
</g>
<!-- declaracao_funcao&#45;&gt;cabecalho -->
<g id="edge74" class="edge">
<title>declaracao_funcao&#45;&gt;cabecalho</title>
<path fill="none" stroke="#000000" d="M135.6435,-1296.2022C143.0855,-1287.4182 152.1899,-1276.672 160.3238,-1267.0714"/>
<polygon fill="#000000" stroke="#000000" points="163.0763,-1269.2369 166.8701,-1259.3446 157.7354,-1264.712 163.0763,-1269.2369"/>
</g>
<!-- declaracao -->
<g id="node30" class="node">
<title>declaracao</title>
<ellipse fill="none" stroke="#000000" cx="120.5648" cy="-1386" rx="52.1251" ry="18"/>
<text text-anchor="middle" x="120.5648" y="-1381.8" font-family="Times,serif" font-size="14.00" fill="#000000">declaracao</text>
</g>
<!-- declaracao&#45;&gt;declaracao_funcao -->
<g id="edge75" class="edge">
<title>declaracao&#45;&gt;declaracao_funcao</title>
<path fill="none" stroke="#000000" d="M120.5648,-1367.8314C120.5648,-1360.131 120.5648,-1350.9743 120.5648,-1342.4166"/>
<polygon fill="#000000" stroke="#000000" points="124.0649,-1342.4132 120.5648,-1332.4133 117.0649,-1342.4133 124.0649,-1342.4132"/>
</g>
<!-- lista_declaracoes -->
<g id="node31" class="node">
<title>lista_declaracoes</title>
<ellipse fill="none" stroke="#000000" cx="120.5648" cy="-1458" rx="76.9792" ry="18"/>
<text text-anchor="middle" x="120.5648" y="-1453.8" font-family="Times,serif" font-size="14.00" fill="#000000">lista_declaracoes</text>
</g>
<!-- lista_declaracoes&#45;&gt;declaracao -->
<g id="edge76" class="edge">
<title>lista_declaracoes&#45;&gt;declaracao</title>
<path fill="none" stroke="#000000" d="M120.5648,-1439.8314C120.5648,-1432.131 120.5648,-1422.9743 120.5648,-1414.4166"/>
<polygon fill="#000000" stroke="#000000" points="124.0649,-1414.4132 120.5648,-1404.4133 117.0649,-1414.4133 124.0649,-1414.4132"/>
</g>
<!-- programa -->
<g id="node32" class="node">
<title>programa</title>
<ellipse fill="none" stroke="#000000" cx="120.5648" cy="-1530" rx="48.0742" ry="18"/>
<text text-anchor="middle" x="120.5648" y="-1525.8" font-family="Times,serif" font-size="14.00" fill="#000000">programa</text>
</g>
<!-- programa&#45;&gt;lista_declaracoes -->
<g id="edge77" class="edge">
<title>programa&#45;&gt;lista_declaracoes</title>
<path fill="none" stroke="#000000" d="M120.5648,-1511.8314C120.5648,-1504.131 120.5648,-1494.9743 120.5648,-1486.4166"/>
<polygon fill="#000000" stroke="#000000" points="124.0649,-1486.4132 120.5648,-1476.4133 117.0649,-1486.4133 124.0649,-1486.4132"/>
</g>
</g>
</svg>
