<?xml version="1.0" encoding="UTF-8" standalone="no"?>
<!DOCTYPE svg PUBLIC "-//W3C//DTD SVG 1.1//EN"
 "http://www.w3.org/Graphics/SVG/1.1/DTD/svg11.dtd">
<!-- Generated by graphviz version 2.40.1 (20161225.0304)
 -->
<!-- Title: G Pages: 1 -->
<svg width="474pt" height="404pt"
 viewBox="0.00 0.00 473.64 404.00" xmlns="http://www.w3.org/2000/svg" xmlns:xlink="http://www.w3.org/1999/xlink">
<g id="graph0" class="graph" transform="scale(1 1) rotate(0) translate(4 400)">
<title>G</title>
<polygon fill="#ffffff" stroke="transparent" points="-4,4 -4,-400 469.6434,-400 469.6434,4 -4,4"/>
<!-- declaracao -->
<g id="node1" class="node">
<title>declaracao</title>
<ellipse fill="none" stroke="#000000" cx="284.9955" cy="-378" rx="52.1251" ry="18"/>
<text text-anchor="middle" x="284.9955" y="-373.8" font-family="Times,serif" font-size="14.00" fill="#000000">declaracao</text>
</g>
<!-- declaracao_variaveis -->
<g id="node2" class="node">
<title>declaracao_variaveis</title>
<ellipse fill="none" stroke="#000000" cx="91.9955" cy="-306" rx="91.991" ry="18"/>
<text text-anchor="middle" x="91.9955" y="-301.8" font-family="Times,serif" font-size="14.00" fill="#000000">declaracao_variaveis</text>
</g>
<!-- declaracao&#45;&gt;declaracao_variaveis -->
<g id="edge1" class="edge">
<title>declaracao&#45;&gt;declaracao_variaveis</title>
<path fill="none" stroke="#000000" d="M249.146,-364.6261C219.6783,-353.6329 177.5215,-337.9061 144.2883,-325.5082"/>
<polygon fill="#000000" stroke="#000000" points="145.321,-322.1579 134.7284,-321.9418 142.8743,-328.7164 145.321,-322.1579"/>
</g>
<!-- declaracao_funcao -->
<g id="node12" class="node">
<title>declaracao_funcao</title>
<ellipse fill="none" stroke="#000000" cx="284.9955" cy="-306" rx="83.3288" ry="18"/>
<text text-anchor="middle" x="284.9955" y="-301.8" font-family="Times,serif" font-size="14.00" fill="#000000">declaracao_funcao</text>
</g>
<!-- declaracao&#45;&gt;declaracao_funcao -->
<g id="edge11" class="edge">
<title>declaracao&#45;&gt;declaracao_funcao</title>
<path fill="none" stroke="#000000" d="M267.4757,-360.937C264.8791,-352.7793 264.1346,-342.8079 265.2424,-333.6102"/>
<polygon fill="#000000" stroke="#000000" points="268.6959,-334.1922 267.2801,-323.6924 261.8391,-332.7834 268.6959,-334.1922"/>
</g>
<!-- declaracao&#45;&gt;declaracao_funcao -->
<g id="edge20" class="edge">
<title>declaracao&#45;&gt;declaracao_funcao</title>
<path fill="none" stroke="#000000" d="M279.0431,-359.8314C278.2927,-352.131 278.0718,-342.9743 278.3804,-334.4166"/>
<polygon fill="#000000" stroke="#000000" points="281.8747,-334.6161 279.0195,-324.4133 274.889,-334.1697 281.8747,-334.6161"/>
</g>
<!-- declaracao&#45;&gt;declaracao_funcao -->
<g id="edge29" class="edge">
<title>declaracao&#45;&gt;declaracao_funcao</title>
<path fill="none" stroke="#000000" d="M290.9479,-359.8314C291.6983,-352.131 291.9192,-342.9743 291.6106,-334.4166"/>
<polygon fill="#000000" stroke="#000000" points="295.1021,-334.1697 290.9715,-324.4133 288.1163,-334.6161 295.1021,-334.1697"/>
</g>
<!-- declaracao&#45;&gt;declaracao_funcao -->
<g id="edge34" class="edge">
<title>declaracao&#45;&gt;declaracao_funcao</title>
<path fill="none" stroke="#000000" d="M302.5153,-360.937C305.1119,-352.7793 305.8564,-342.8079 304.7486,-333.6102"/>
<polygon fill="#000000" stroke="#000000" points="308.1519,-332.7834 302.7109,-323.6924 301.2951,-334.1922 308.1519,-332.7834"/>
</g>
<!-- func -->
<g id="node3" class="node">
<title>func</title>
<ellipse fill="none" stroke="#000000" cx="96.9955" cy="-234" rx="28.3913" ry="18"/>
<text text-anchor="middle" x="96.9955" y="-229.8" font-family="Times,serif" font-size="14.00" fill="#000000">func</text>
</g>
<!-- declaracao_variaveis&#45;&gt;func -->
<g id="edge2" class="edge">
<title>declaracao_variaveis&#45;&gt;func</title>
<path fill="none" stroke="#000000" d="M93.2572,-287.8314C93.792,-280.131 94.4278,-270.9743 95.0221,-262.4166"/>
<polygon fill="#000000" stroke="#000000" points="98.5155,-262.6317 95.7168,-252.4133 91.5323,-262.1467 98.5155,-262.6317"/>
</g>
<!-- tipo -->
<g id="node4" class="node">
<title>tipo</title>
<ellipse fill="none" stroke="#000000" cx="189.9955" cy="-162" rx="27" ry="18"/>
<text text-anchor="middle" x="189.9955" y="-157.8" font-family="Times,serif" font-size="14.00" fill="#000000">tipo</text>
</g>
<!-- func&#45;&gt;tipo -->
<g id="edge10" class="edge">
<title>func&#45;&gt;tipo</title>
<path fill="none" stroke="#000000" d="M115.3693,-219.7751C129.3046,-208.9865 148.6382,-194.0186 164.1349,-182.0211"/>
<polygon fill="#000000" stroke="#000000" points="166.5262,-184.5961 172.2909,-175.7068 162.241,-179.061 166.5262,-184.5961"/>
</g>
<!-- acao -->
<g id="node6" class="node">
<title>acao</title>
<ellipse fill="none" stroke="#000000" cx="283.9955" cy="-162" rx="28.952" ry="18"/>
<text text-anchor="middle" x="283.9955" y="-157.8" font-family="Times,serif" font-size="14.00" fill="#000000">acao</text>
</g>
<!-- func&#45;&gt;acao -->
<g id="edge9" class="edge">
<title>func&#45;&gt;acao</title>
<path fill="none" stroke="#000000" d="M119.3419,-222.984C124.4454,-220.5889 129.8748,-218.1351 134.9955,-216 173.3267,-200.0178 218.2543,-184.1099 248.6749,-173.7445"/>
<polygon fill="#000000" stroke="#000000" points="250.0557,-176.9722 258.4048,-170.4497 247.8105,-170.3421 250.0557,-176.9722"/>
</g>
<!-- inteiro -->
<g id="node5" class="node">
<title>inteiro</title>
<ellipse fill="none" stroke="#000000" cx="189.9955" cy="-90" rx="36.4936" ry="18"/>
<text text-anchor="middle" x="189.9955" y="-85.8" font-family="Times,serif" font-size="14.00" fill="#000000">inteiro</text>
</g>
<!-- tipo&#45;&gt;inteiro -->
<g id="edge3" class="edge">
<title>tipo&#45;&gt;inteiro</title>
<path fill="none" stroke="#000000" d="M173.3496,-147.4297C169.8858,-138.4308 168.9187,-126.623 170.4484,-116.0557"/>
<polygon fill="#000000" stroke="#000000" points="173.9188,-116.5885 172.8104,-106.0518 167.1061,-114.9799 173.9188,-116.5885"/>
</g>
<!-- tipo&#45;&gt;inteiro -->
<g id="edge12" class="edge">
<title>tipo&#45;&gt;inteiro</title>
<path fill="none" stroke="#000000" d="M184.0798,-144.2022C183.29,-136.3271 183.061,-126.875 183.3926,-118.0852"/>
<polygon fill="#000000" stroke="#000000" points="186.9025,-118.0532 184.0753,-107.8425 179.9179,-117.5876 186.9025,-118.0532"/>
</g>
<!-- tipo&#45;&gt;inteiro -->
<g id="edge21" class="edge">
<title>tipo&#45;&gt;inteiro</title>
<path fill="none" stroke="#000000" d="M195.9112,-144.2022C196.701,-136.3271 196.93,-126.875 196.5984,-118.0852"/>
<polygon fill="#000000" stroke="#000000" points="200.0731,-117.5876 195.9157,-107.8425 193.0886,-118.0532 200.0731,-117.5876"/>
</g>
<!-- tipo&#45;&gt;inteiro -->
<g id="edge30" class="edge">
<title>tipo&#45;&gt;inteiro</title>
<path fill="none" stroke="#000000" d="M206.6414,-147.4297C210.1052,-138.4308 211.0723,-126.623 209.5426,-116.0557"/>
<polygon fill="#000000" stroke="#000000" points="212.8849,-114.9799 207.1807,-106.0518 206.0722,-116.5885 212.8849,-114.9799"/>
</g>
<!-- retorna -->
<g id="node7" class="node">
<title>retorna</title>
<ellipse fill="none" stroke="#000000" cx="283.9955" cy="-90" rx="38.2607" ry="18"/>
<text text-anchor="middle" x="283.9955" y="-85.8" font-family="Times,serif" font-size="14.00" fill="#000000">retorna</text>
</g>
<!-- acao&#45;&gt;retorna -->
<g id="edge4" class="edge">
<title>acao&#45;&gt;retorna</title>
<path fill="none" stroke="#000000" d="M272.3939,-145.3008C270.6027,-137.091 270.079,-126.98 270.8229,-117.6585"/>
<polygon fill="#000000" stroke="#000000" points="274.3093,-117.9962 272.2013,-107.6132 267.3743,-117.0445 274.3093,-117.9962"/>
</g>
<!-- acao&#45;&gt;retorna -->
<g id="edge13" class="edge">
<title>acao&#45;&gt;retorna</title>
<path fill="none" stroke="#000000" d="M283.9955,-143.8314C283.9955,-136.131 283.9955,-126.9743 283.9955,-118.4166"/>
<polygon fill="#000000" stroke="#000000" points="287.4956,-118.4132 283.9955,-108.4133 280.4956,-118.4133 287.4956,-118.4132"/>
</g>
<!-- acao&#45;&gt;retorna -->
<g id="edge22" class="edge">
<title>acao&#45;&gt;retorna</title>
<path fill="none" stroke="#000000" d="M295.5971,-145.3008C297.3883,-137.091 297.912,-126.98 297.1681,-117.6585"/>
<polygon fill="#000000" stroke="#000000" points="300.6167,-117.0445 295.7897,-107.6132 293.6817,-117.9962 300.6167,-117.0445"/>
</g>
<!-- expressao -->
<g id="node8" class="node">
<title>expressao</title>
<ellipse fill="none" stroke="#000000" cx="283.9955" cy="-18" rx="49.2163" ry="18"/>
<text text-anchor="middle" x="283.9955" y="-13.8" font-family="Times,serif" font-size="14.00" fill="#000000">expressao</text>
</g>
<!-- retorna&#45;&gt;expressao -->
<g id="edge5" class="edge">
<title>retorna&#45;&gt;expressao</title>
<path fill="none" stroke="#000000" d="M272.239,-72.5708C270.5725,-64.4942 270.1007,-54.7004 270.8235,-45.6514"/>
<polygon fill="#000000" stroke="#000000" points="274.3219,-45.9026 272.2207,-35.5182 267.3875,-44.9464 274.3219,-45.9026"/>
</g>
<!-- retorna&#45;&gt;expressao -->
<g id="edge14" class="edge">
<title>retorna&#45;&gt;expressao</title>
<path fill="none" stroke="#000000" d="M283.9955,-71.8314C283.9955,-64.131 283.9955,-54.9743 283.9955,-46.4166"/>
<polygon fill="#000000" stroke="#000000" points="287.4956,-46.4132 283.9955,-36.4133 280.4956,-46.4133 287.4956,-46.4132"/>
</g>
<!-- retorna&#45;&gt;expressao -->
<g id="edge23" class="edge">
<title>retorna&#45;&gt;expressao</title>
<path fill="none" stroke="#000000" d="M295.752,-72.5708C297.4185,-64.4942 297.8903,-54.7004 297.1675,-45.6514"/>
<polygon fill="#000000" stroke="#000000" points="300.6035,-44.9464 295.7703,-35.5182 293.6691,-45.9026 300.6035,-44.9464"/>
</g>
<!-- atribuicao -->
<g id="node9" class="node">
<title>atribuicao</title>
<ellipse fill="none" stroke="#000000" cx="415.9955" cy="-378" rx="49.7962" ry="18"/>
<text text-anchor="middle" x="415.9955" y="-373.8" font-family="Times,serif" font-size="14.00" fill="#000000">atribuicao</text>
</g>
<!-- fator -->
<g id="node10" class="node">
<title>fator</title>
<ellipse fill="none" stroke="#000000" cx="415.9955" cy="-306" rx="29.0318" ry="18"/>
<text text-anchor="middle" x="415.9955" y="-301.8" font-family="Times,serif" font-size="14.00" fill="#000000">fator</text>
</g>
<!-- atribuicao&#45;&gt;fator -->
<g id="edge6" class="edge">
<title>atribuicao&#45;&gt;fator</title>
<path fill="none" stroke="#000000" d="M404.1641,-360.2022C402.4891,-351.8515 402.0752,-341.7275 402.9222,-332.5003"/>
<polygon fill="#000000" stroke="#000000" points="406.384,-333.016 404.4144,-322.6058 399.4622,-331.9721 406.384,-333.016"/>
</g>
<!-- atribuicao&#45;&gt;fator -->
<g id="edge15" class="edge">
<title>atribuicao&#45;&gt;fator</title>
<path fill="none" stroke="#000000" d="M415.9955,-359.8314C415.9955,-352.131 415.9955,-342.9743 415.9955,-334.4166"/>
<polygon fill="#000000" stroke="#000000" points="419.4956,-334.4132 415.9955,-324.4133 412.4956,-334.4133 419.4956,-334.4132"/>
</g>
<!-- atribuicao&#45;&gt;fator -->
<g id="edge24" class="edge">
<title>atribuicao&#45;&gt;fator</title>
<path fill="none" stroke="#000000" d="M427.827,-360.2022C429.5019,-351.8515 429.9158,-341.7275 429.0688,-332.5003"/>
<polygon fill="#000000" stroke="#000000" points="432.5288,-331.9721 427.5766,-322.6058 425.607,-333.016 432.5288,-331.9721"/>
</g>
<!-- 0 -->
<g id="node11" class="node">
<title>0</title>
<ellipse fill="none" stroke="#000000" cx="415.9955" cy="-234" rx="27" ry="18"/>
<text text-anchor="middle" x="415.9955" y="-229.8" font-family="Times,serif" font-size="14.00" fill="#000000">0</text>
</g>
<!-- fator&#45;&gt;0 -->
<g id="edge7" class="edge">
<title>fator&#45;&gt;0</title>
<path fill="none" stroke="#000000" d="M404.3939,-289.3008C402.5302,-280.7587 402.0387,-270.1583 402.9195,-260.5305"/>
<polygon fill="#000000" stroke="#000000" points="406.3854,-261.0184 404.4138,-250.6087 399.4635,-259.9759 406.3854,-261.0184"/>
</g>
<!-- fator&#45;&gt;0 -->
<g id="edge16" class="edge">
<title>fator&#45;&gt;0</title>
<path fill="none" stroke="#000000" d="M415.9955,-287.8314C415.9955,-280.131 415.9955,-270.9743 415.9955,-262.4166"/>
<polygon fill="#000000" stroke="#000000" points="419.4956,-262.4132 415.9955,-252.4133 412.4956,-262.4133 419.4956,-262.4132"/>
</g>
<!-- fator&#45;&gt;0 -->
<g id="edge25" class="edge">
<title>fator&#45;&gt;0</title>
<path fill="none" stroke="#000000" d="M427.5971,-289.3008C429.4608,-280.7587 429.9523,-270.1583 429.0715,-260.5305"/>
<polygon fill="#000000" stroke="#000000" points="432.5276,-259.9759 427.5772,-250.6087 425.6056,-261.0184 432.5276,-259.9759"/>
</g>
<!-- declaracao_funcao&#45;&gt;func -->
<g id="edge8" class="edge">
<title>declaracao_funcao&#45;&gt;func</title>
<path fill="none" stroke="#000000" d="M239.2658,-290.8252C209.325,-280.5752 169.4981,-266.3426 134.9955,-252 132.9143,-251.1349 130.7824,-250.2166 128.6422,-249.2705"/>
<polygon fill="#000000" stroke="#000000" points="129.8891,-245.9923 119.3386,-245.0241 126.9825,-252.3604 129.8891,-245.9923"/>
</g>
<!-- func2 -->
<g id="node13" class="node">
<title>func2</title>
<ellipse fill="none" stroke="#000000" cx="284.9955" cy="-234" rx="33.0469" ry="18"/>
<text text-anchor="middle" x="284.9955" y="-229.8" font-family="Times,serif" font-size="14.00" fill="#000000">func2</text>
</g>
<!-- declaracao_funcao&#45;&gt;func2 -->
<g id="edge17" class="edge">
<title>declaracao_funcao&#45;&gt;func2</title>
<path fill="none" stroke="#000000" d="M279.0431,-287.8314C278.2811,-280.0125 278.0651,-270.6923 278.395,-262.0221"/>
<polygon fill="#000000" stroke="#000000" points="281.8959,-262.1239 279.0682,-251.9134 274.9114,-261.6587 281.8959,-262.1239"/>
</g>
<!-- declaracao_funcao&#45;&gt;func2 -->
<g id="edge26" class="edge">
<title>declaracao_funcao&#45;&gt;func2</title>
<path fill="none" stroke="#000000" d="M290.9479,-287.8314C291.7099,-280.0125 291.9259,-270.6923 291.596,-262.0221"/>
<polygon fill="#000000" stroke="#000000" points="295.0796,-261.6587 290.9228,-251.9134 288.0951,-262.1239 295.0796,-261.6587"/>
</g>
<!-- principal -->
<g id="node14" class="node">
<title>principal</title>
<ellipse fill="none" stroke="#000000" cx="188.9955" cy="-234" rx="45.2227" ry="18"/>
<text text-anchor="middle" x="188.9955" y="-229.8" font-family="Times,serif" font-size="14.00" fill="#000000">principal</text>
</g>
<!-- declaracao_funcao&#45;&gt;principal -->
<g id="edge31" class="edge">
<title>declaracao_funcao&#45;&gt;principal</title>
<path fill="none" stroke="#000000" d="M261.7566,-288.5708C248.7977,-278.8516 232.523,-266.6456 218.6532,-256.2433"/>
<polygon fill="#000000" stroke="#000000" points="220.4793,-253.2379 210.3793,-250.0378 216.2793,-258.8379 220.4793,-253.2379"/>
</g>
<!-- func2&#45;&gt;tipo -->
<g id="edge19" class="edge">
<title>func2&#45;&gt;tipo</title>
<path fill="none" stroke="#000000" d="M262.207,-220.7941C247.0831,-210.4494 227.5075,-195.8389 212.4634,-183.7709"/>
<polygon fill="#000000" stroke="#000000" points="214.5876,-180.9868 204.6287,-177.3713 210.1592,-186.4081 214.5876,-180.9868"/>
</g>
<!-- func2&#45;&gt;tipo -->
<g id="edge28" class="edge">
<title>func2&#45;&gt;tipo</title>
<path fill="none" stroke="#000000" d="M269.632,-218.0209C255.8672,-206.5903 235.629,-191.2111 218.9121,-179.4584"/>
<polygon fill="#000000" stroke="#000000" points="220.7624,-176.4828 210.5442,-173.6831 216.7863,-182.2439 220.7624,-176.4828"/>
</g>
<!-- func2&#45;&gt;acao -->
<g id="edge18" class="edge">
<title>func2&#45;&gt;acao</title>
<path fill="none" stroke="#000000" d="M278.8326,-216.2022C277.9335,-208.3271 277.5731,-198.875 277.7827,-190.0852"/>
<polygon fill="#000000" stroke="#000000" points="281.2913,-190.0131 278.3231,-179.8425 274.301,-189.6442 281.2913,-190.0131"/>
</g>
<!-- func2&#45;&gt;acao -->
<g id="edge27" class="edge">
<title>func2&#45;&gt;acao</title>
<path fill="none" stroke="#000000" d="M290.664,-216.2022C291.3571,-208.1807 291.4456,-198.5231 290.9626,-189.5957"/>
<polygon fill="#000000" stroke="#000000" points="294.4477,-189.2703 290.1349,-179.593 287.4715,-189.8476 294.4477,-189.2703"/>
</g>
<!-- principal&#45;&gt;tipo -->
<g id="edge33" class="edge">
<title>principal&#45;&gt;tipo</title>
<path fill="none" stroke="#000000" d="M189.2478,-215.8314C189.3548,-208.131 189.482,-198.9743 189.6008,-190.4166"/>
<polygon fill="#000000" stroke="#000000" points="193.1005,-190.4609 189.7398,-180.4133 186.1011,-190.3637 193.1005,-190.4609"/>
</g>
<!-- principal&#45;&gt;acao -->
<g id="edge32" class="edge">
<title>principal&#45;&gt;acao</title>
<path fill="none" stroke="#000000" d="M210.0791,-218.0209C223.9705,-207.4927 242.2816,-193.6147 257.203,-182.3059"/>
<polygon fill="#000000" stroke="#000000" points="259.6821,-184.8187 265.5377,-175.9891 255.4539,-179.2399 259.6821,-184.8187"/>
</g>
</g>
</svg>
