<?xml version="1.0" encoding="UTF-8" standalone="no"?>
<!DOCTYPE svg PUBLIC "-//W3C//DTD SVG 1.1//EN"
 "http://www.w3.org/Graphics/SVG/1.1/DTD/svg11.dtd">
<!-- Generated by graphviz version 2.40.1 (20161225.0304)
 -->
<!-- Title: G Pages: 1 -->
<svg width="776pt" height="620pt"
 viewBox="0.00 0.00 776.38 620.00" xmlns="http://www.w3.org/2000/svg" xmlns:xlink="http://www.w3.org/1999/xlink">
<g id="graph0" class="graph" transform="scale(1 1) rotate(0) translate(4 616)">
<title>G</title>
<polygon fill="#ffffff" stroke="transparent" points="-4,4 -4,-616 772.3801,-616 772.3801,4 -4,4"/>
<!-- declaracao -->
<g id="node1" class="node">
<title>declaracao</title>
<ellipse fill="none" stroke="#000000" cx="630.3801" cy="-594" rx="52.1251" ry="18"/>
<text text-anchor="middle" x="630.3801" y="-589.8" font-family="Times,serif" font-size="14.00" fill="#000000">declaracao</text>
</g>
<!-- declaracao_variaveis -->
<g id="node2" class="node">
<title>declaracao_variaveis</title>
<ellipse fill="none" stroke="#000000" cx="630.3801" cy="-522" rx="91.991" ry="18"/>
<text text-anchor="middle" x="630.3801" y="-517.8" font-family="Times,serif" font-size="14.00" fill="#000000">declaracao_variaveis</text>
</g>
<!-- declaracao&#45;&gt;declaracao_variaveis -->
<g id="edge1" class="edge">
<title>declaracao&#45;&gt;declaracao_variaveis</title>
<path fill="none" stroke="#000000" d="M612.8604,-576.937C610.2637,-568.7793 609.5193,-558.8079 610.6271,-549.6102"/>
<polygon fill="#000000" stroke="#000000" points="614.0805,-550.1922 612.6648,-539.6924 607.2237,-548.7834 614.0805,-550.1922"/>
</g>
<!-- declaracao&#45;&gt;declaracao_variaveis -->
<g id="edge3" class="edge">
<title>declaracao&#45;&gt;declaracao_variaveis</title>
<path fill="none" stroke="#000000" d="M624.4278,-575.8314C623.6773,-568.131 623.4564,-558.9743 623.7651,-550.4166"/>
<polygon fill="#000000" stroke="#000000" points="627.2594,-550.6161 624.4041,-540.4133 620.2736,-550.1697 627.2594,-550.6161"/>
</g>
<!-- declaracao&#45;&gt;declaracao_variaveis -->
<g id="edge48" class="edge">
<title>declaracao&#45;&gt;declaracao_variaveis</title>
<path fill="none" stroke="#000000" d="M636.3325,-575.8314C637.083,-568.131 637.3039,-558.9743 636.9952,-550.4166"/>
<polygon fill="#000000" stroke="#000000" points="640.4867,-550.1697 636.3562,-540.4133 633.5009,-550.6161 640.4867,-550.1697"/>
</g>
<!-- declaracao&#45;&gt;declaracao_variaveis -->
<g id="edge50" class="edge">
<title>declaracao&#45;&gt;declaracao_variaveis</title>
<path fill="none" stroke="#000000" d="M647.8999,-576.937C650.4966,-568.7793 651.241,-558.8079 650.1332,-549.6102"/>
<polygon fill="#000000" stroke="#000000" points="653.5366,-548.7834 648.0955,-539.6924 646.6798,-550.1922 653.5366,-548.7834"/>
</g>
<!-- declaracao_funcao -->
<g id="node19" class="node">
<title>declaracao_funcao</title>
<ellipse fill="none" stroke="#000000" cx="437.3801" cy="-522" rx="83.3288" ry="18"/>
<text text-anchor="middle" x="437.3801" y="-517.8" font-family="Times,serif" font-size="14.00" fill="#000000">declaracao_funcao</text>
</g>
<!-- declaracao&#45;&gt;declaracao_funcao -->
<g id="edge33" class="edge">
<title>declaracao&#45;&gt;declaracao_funcao</title>
<path fill="none" stroke="#000000" d="M589.6212,-582.5914C557.1452,-571.8005 512.3787,-555.363 479.5835,-542.33"/>
<polygon fill="#000000" stroke="#000000" points="480.8289,-539.0585 470.2449,-538.5786 478.2196,-545.554 480.8289,-539.0585"/>
</g>
<!-- declaracao&#45;&gt;declaracao_funcao -->
<g id="edge47" class="edge">
<title>declaracao&#45;&gt;declaracao_funcao</title>
<path fill="none" stroke="#000000" d="M594.5306,-580.6261C564.8645,-569.5589 522.3378,-553.694 489.0028,-541.2582"/>
<polygon fill="#000000" stroke="#000000" points="490.0136,-537.8997 479.421,-537.6836 487.5669,-544.4582 490.0136,-537.8997"/>
</g>
<!-- declaracao&#45;&gt;declaracao_funcao -->
<g id="edge93" class="edge">
<title>declaracao&#45;&gt;declaracao_funcao</title>
<path fill="none" stroke="#000000" d="M601.1499,-578.9064C573.352,-567.4857 531.4202,-551.7692 496.7709,-539.7462"/>
<polygon fill="#000000" stroke="#000000" points="497.8036,-536.4002 487.2089,-536.4597 495.5282,-543.0201 497.8036,-536.4002"/>
</g>
<!-- n -->
<g id="node3" class="node">
<title>n</title>
<ellipse fill="none" stroke="#000000" cx="437.3801" cy="-234" rx="27" ry="18"/>
<text text-anchor="middle" x="437.3801" y="-229.8" font-family="Times,serif" font-size="14.00" fill="#000000">n</text>
</g>
<!-- declaracao_variaveis&#45;&gt;n -->
<g id="edge2" class="edge">
<title>declaracao_variaveis&#45;&gt;n</title>
<path fill="none" stroke="#000000" d="M582.371,-506.5258C563.1916,-498.0347 542.5706,-485.5714 529.3801,-468 480.2939,-402.6106 530.3445,-359.8819 491.3801,-288 484.4321,-275.1821 473.4889,-263.412 463.265,-254.1548"/>
<polygon fill="#000000" stroke="#000000" points="465.5206,-251.4782 455.665,-247.5898 460.9446,-256.7755 465.5206,-251.4782"/>
</g>
<!-- z -->
<g id="node4" class="node">
<title>z</title>
<ellipse fill="none" stroke="#000000" cx="400.3801" cy="-18" rx="27" ry="18"/>
<text text-anchor="middle" x="400.3801" y="-13.8" font-family="Times,serif" font-size="14.00" fill="#000000">z</text>
</g>
<!-- declaracao_variaveis&#45;&gt;z -->
<g id="edge4" class="edge">
<title>declaracao_variaveis&#45;&gt;z</title>
<path fill="none" stroke="#000000" d="M673.5762,-506.0298C692.6756,-497.2092 714.1957,-484.6237 729.3801,-468 758.7809,-435.8124 768.3801,-421.5941 768.3801,-378 768.3801,-378 768.3801,-378 768.3801,-162 768.3801,-92.8193 704.5914,-100.1125 641.3801,-72 572.9432,-41.5634 485.6914,-27.5211 437.1663,-21.6712"/>
<polygon fill="#000000" stroke="#000000" points="437.4684,-18.1829 427.1329,-20.5125 436.6653,-25.1367 437.4684,-18.1829"/>
</g>
<!-- y -->
<g id="node5" class="node">
<title>y</title>
<ellipse fill="none" stroke="#000000" cx="565.3801" cy="-450" rx="27" ry="18"/>
<text text-anchor="middle" x="565.3801" y="-445.8" font-family="Times,serif" font-size="14.00" fill="#000000">y</text>
</g>
<!-- declaracao_variaveis&#45;&gt;y -->
<g id="edge5" class="edge">
<title>declaracao_variaveis&#45;&gt;y</title>
<path fill="none" stroke="#000000" d="M614.3127,-504.2022C605.888,-494.8703 595.4642,-483.3239 586.4051,-473.2892"/>
<polygon fill="#000000" stroke="#000000" points="588.7957,-470.7141 579.4967,-465.6368 583.5998,-475.4049 588.7957,-470.7141"/>
</g>
<!-- x -->
<g id="node6" class="node">
<title>x</title>
<ellipse fill="none" stroke="#000000" cx="637.3801" cy="-450" rx="27" ry="18"/>
<text text-anchor="middle" x="637.3801" y="-445.8" font-family="Times,serif" font-size="14.00" fill="#000000">x</text>
</g>
<!-- declaracao_variaveis&#45;&gt;x -->
<g id="edge6" class="edge">
<title>declaracao_variaveis&#45;&gt;x</title>
<path fill="none" stroke="#000000" d="M632.1465,-503.8314C632.8952,-496.131 633.7854,-486.9743 634.6174,-478.4166"/>
<polygon fill="#000000" stroke="#000000" points="638.1058,-478.7051 635.59,-468.4133 631.1386,-478.0276 638.1058,-478.7051"/>
</g>
<!-- a -->
<g id="node25" class="node">
<title>a</title>
<ellipse fill="none" stroke="#000000" cx="424.3801" cy="-90" rx="27" ry="18"/>
<text text-anchor="middle" x="424.3801" y="-85.8" font-family="Times,serif" font-size="14.00" fill="#000000">a</text>
</g>
<!-- declaracao_variaveis&#45;&gt;a -->
<g id="edge49" class="edge">
<title>declaracao_variaveis&#45;&gt;a</title>
<path fill="none" stroke="#000000" d="M648.2691,-503.9746C657.0912,-494.1105 667.1491,-481.2265 673.3801,-468 690.8031,-431.0169 692.3801,-418.8816 692.3801,-378 692.3801,-378 692.3801,-378 692.3801,-234 692.3801,-130.5451 535.4963,-101.1024 461.7942,-92.9787"/>
<polygon fill="#000000" stroke="#000000" points="461.8571,-89.4669 451.5523,-91.9285 461.1431,-96.4304 461.8571,-89.4669"/>
</g>
<!-- b -->
<g id="node26" class="node">
<title>b</title>
<ellipse fill="none" stroke="#000000" cx="605.3801" cy="-90" rx="27" ry="18"/>
<text text-anchor="middle" x="605.3801" y="-85.8" font-family="Times,serif" font-size="14.00" fill="#000000">b</text>
</g>
<!-- declaracao_variaveis&#45;&gt;b -->
<g id="edge51" class="edge">
<title>declaracao_variaveis&#45;&gt;b</title>
<path fill="none" stroke="#000000" d="M664.1017,-505.0525C679.0649,-495.9569 695.6731,-483.4235 706.3801,-468 729.9876,-433.9932 730.3801,-419.3978 730.3801,-378 730.3801,-378 730.3801,-378 730.3801,-234 730.3801,-192.6022 732.0943,-176.4432 706.3801,-144 689.5649,-122.7845 662.0682,-108.8615 640.0076,-100.475"/>
<polygon fill="#000000" stroke="#000000" points="640.9066,-97.0794 630.312,-97.005 638.5478,-103.67 640.9066,-97.0794"/>
</g>
<!-- tipo -->
<g id="node7" class="node">
<title>tipo</title>
<ellipse fill="none" stroke="#000000" cx="441.3801" cy="-378" rx="27" ry="18"/>
<text text-anchor="middle" x="441.3801" y="-373.8" font-family="Times,serif" font-size="14.00" fill="#000000">tipo</text>
</g>
<!-- inteiro -->
<g id="node8" class="node">
<title>inteiro</title>
<ellipse fill="none" stroke="#000000" cx="446.3801" cy="-306" rx="36.4936" ry="18"/>
<text text-anchor="middle" x="446.3801" y="-301.8" font-family="Times,serif" font-size="14.00" fill="#000000">inteiro</text>
</g>
<!-- tipo&#45;&gt;inteiro -->
<g id="edge7" class="edge">
<title>tipo&#45;&gt;inteiro</title>
<path fill="none" stroke="#000000" d="M430.9383,-361.3008C429.6859,-352.8807 429.9057,-342.4607 431.3961,-332.9437"/>
<polygon fill="#000000" stroke="#000000" points="434.8306,-333.6199 433.5025,-323.1086 427.9858,-332.1539 434.8306,-333.6199"/>
</g>
<!-- tipo&#45;&gt;inteiro -->
<g id="edge34" class="edge">
<title>tipo&#45;&gt;inteiro</title>
<path fill="none" stroke="#000000" d="M442.6419,-359.8314C443.1766,-352.131 443.8125,-342.9743 444.4068,-334.4166"/>
<polygon fill="#000000" stroke="#000000" points="447.9002,-334.6317 445.1014,-324.4133 440.917,-334.1467 447.9002,-334.6317"/>
</g>
<!-- tipo&#45;&gt;inteiro -->
<g id="edge52" class="edge">
<title>tipo&#45;&gt;inteiro</title>
<path fill="none" stroke="#000000" d="M453.9299,-362.0209C456.4484,-353.6237 457.7511,-343.0956 457.6295,-333.4397"/>
<polygon fill="#000000" stroke="#000000" points="461.1198,-333.177 456.9286,-323.4464 454.1369,-333.6668 461.1198,-333.177"/>
</g>
<!-- acao -->
<g id="node9" class="node">
<title>acao</title>
<ellipse fill="none" stroke="#000000" cx="256.3801" cy="-378" rx="28.952" ry="18"/>
<text text-anchor="middle" x="256.3801" y="-373.8" font-family="Times,serif" font-size="14.00" fill="#000000">acao</text>
</g>
<!-- expressao -->
<g id="node10" class="node">
<title>expressao</title>
<ellipse fill="none" stroke="#000000" cx="256.3801" cy="-234" rx="49.2163" ry="18"/>
<text text-anchor="middle" x="256.3801" y="-229.8" font-family="Times,serif" font-size="14.00" fill="#000000">expressao</text>
</g>
<!-- acao&#45;&gt;expressao -->
<g id="edge8" class="edge">
<title>acao&#45;&gt;expressao</title>
<path fill="none" stroke="#000000" d="M233.322,-366.7006C213.2716,-343.5073 210.508,-290.062 225.0313,-258.5293"/>
<polygon fill="#000000" stroke="#000000" points="228.2538,-259.9384 230.0935,-249.5045 222.1487,-256.5139 228.2538,-259.9384"/>
</g>
<!-- acao&#45;&gt;expressao -->
<g id="edge13" class="edge">
<title>acao&#45;&gt;expressao</title>
<path fill="none" stroke="#000000" d="M239.2781,-363.4001C227.7337,-339.2458 226.2878,-290.6342 234.9405,-260.3536"/>
<polygon fill="#000000" stroke="#000000" points="238.2669,-261.4439 238.262,-250.8491 231.6588,-259.1346 238.2669,-261.4439"/>
</g>
<!-- acao&#45;&gt;expressao -->
<g id="edge18" class="edge">
<title>acao&#45;&gt;expressao</title>
<path fill="none" stroke="#000000" d="M247.2711,-360.9158C242.1115,-336.4984 241.499,-291.335 245.4335,-261.9918"/>
<polygon fill="#000000" stroke="#000000" points="248.9132,-262.4012 247.0888,-251.9647 242.0067,-261.2611 248.9132,-262.4012"/>
</g>
<!-- acao&#45;&gt;expressao -->
<g id="edge53" class="edge">
<title>acao&#45;&gt;expressao</title>
<path fill="none" stroke="#000000" d="M256.3801,-359.7623C256.3801,-335.201 256.3801,-291.2474 256.3801,-262.3541"/>
<polygon fill="#000000" stroke="#000000" points="259.8802,-262.0896 256.3801,-252.0896 252.8802,-262.0897 259.8802,-262.0896"/>
</g>
<!-- acao&#45;&gt;expressao -->
<g id="edge68" class="edge">
<title>acao&#45;&gt;expressao</title>
<path fill="none" stroke="#000000" d="M265.4892,-360.9158C270.6488,-336.4984 271.2613,-291.335 267.3268,-261.9918"/>
<polygon fill="#000000" stroke="#000000" points="270.7536,-261.2611 265.6715,-251.9647 263.8471,-262.4012 270.7536,-261.2611"/>
</g>
<!-- acao&#45;&gt;expressao -->
<g id="edge76" class="edge">
<title>acao&#45;&gt;expressao</title>
<path fill="none" stroke="#000000" d="M273.4822,-363.4001C285.0266,-339.2458 286.4725,-290.6342 277.8198,-260.3536"/>
<polygon fill="#000000" stroke="#000000" points="281.1015,-259.1346 274.4983,-250.8491 274.4933,-261.4439 281.1015,-259.1346"/>
</g>
<!-- acao&#45;&gt;expressao -->
<g id="edge84" class="edge">
<title>acao&#45;&gt;expressao</title>
<path fill="none" stroke="#000000" d="M279.4383,-366.7006C299.4887,-343.5073 302.2523,-290.062 287.729,-258.5293"/>
<polygon fill="#000000" stroke="#000000" points="290.6116,-256.5139 282.6668,-249.5045 284.5065,-259.9384 290.6116,-256.5139"/>
</g>
<!-- retorna -->
<g id="node18" class="node">
<title>retorna</title>
<ellipse fill="none" stroke="#000000" cx="38.3801" cy="-306" rx="38.2607" ry="18"/>
<text text-anchor="middle" x="38.3801" y="-301.8" font-family="Times,serif" font-size="14.00" fill="#000000">retorna</text>
</g>
<!-- acao&#45;&gt;retorna -->
<g id="edge26" class="edge">
<title>acao&#45;&gt;retorna</title>
<path fill="none" stroke="#000000" d="M230.1465,-370.2488C196.4461,-360.1696 136.2311,-341.7487 85.3801,-324 82.8009,-323.0997 80.1505,-322.1509 77.485,-321.1788"/>
<polygon fill="#000000" stroke="#000000" points="78.4585,-317.8066 67.8656,-317.6016 76.0186,-324.3677 78.4585,-317.8066"/>
</g>
<!-- leia -->
<g id="node21" class="node">
<title>leia</title>
<ellipse fill="none" stroke="#000000" cx="365.3801" cy="-306" rx="27" ry="18"/>
<text text-anchor="middle" x="365.3801" y="-301.8" font-family="Times,serif" font-size="14.00" fill="#000000">leia</text>
</g>
<!-- acao&#45;&gt;leia -->
<g id="edge35" class="edge">
<title>acao&#45;&gt;leia</title>
<path fill="none" stroke="#000000" d="M276.3724,-364.7941C293.4568,-353.509 318.2266,-337.1473 337.3007,-324.5479"/>
<polygon fill="#000000" stroke="#000000" points="339.4664,-327.312 345.8813,-318.8799 335.6083,-321.4712 339.4664,-327.312"/>
</g>
<!-- escreva -->
<g id="node22" class="node">
<title>escreva</title>
<ellipse fill="none" stroke="#000000" cx="134.3801" cy="-306" rx="39.9645" ry="18"/>
<text text-anchor="middle" x="134.3801" y="-301.8" font-family="Times,serif" font-size="14.00" fill="#000000">escreva</text>
</g>
<!-- acao&#45;&gt;escreva -->
<g id="edge37" class="edge">
<title>acao&#45;&gt;escreva</title>
<path fill="none" stroke="#000000" d="M233.133,-367.2209C213.3864,-356.6485 185.1822,-340.244 163.8872,-327.0763"/>
<polygon fill="#000000" stroke="#000000" points="165.5622,-323.9957 155.2286,-321.6576 161.8487,-329.9295 165.5622,-323.9957"/>
</g>
<!-- acao&#45;&gt;escreva -->
<g id="edge58" class="edge">
<title>acao&#45;&gt;escreva</title>
<path fill="none" stroke="#000000" d="M238.0487,-363.9468C220.3067,-352.5806 193.2066,-336.4947 171.0919,-324.1539"/>
<polygon fill="#000000" stroke="#000000" points="172.7192,-321.0544 162.2726,-319.2885 169.3379,-327.1836 172.7192,-321.0544"/>
</g>
<!-- atribuicao -->
<g id="node11" class="node">
<title>atribuicao</title>
<ellipse fill="none" stroke="#000000" cx="256.3801" cy="-162" rx="49.7962" ry="18"/>
<text text-anchor="middle" x="256.3801" y="-157.8" font-family="Times,serif" font-size="14.00" fill="#000000">atribuicao</text>
</g>
<!-- expressao&#45;&gt;atribuicao -->
<g id="edge9" class="edge">
<title>expressao&#45;&gt;atribuicao</title>
<path fill="none" stroke="#000000" d="M228.4165,-219.0816C222.5066,-209.6207 221.1237,-197.1607 224.2681,-186.2964"/>
<polygon fill="#000000" stroke="#000000" points="227.5804,-187.4602 228.4285,-176.8993 221.1797,-184.6263 227.5804,-187.4602"/>
</g>
<!-- expressao&#45;&gt;atribuicao -->
<g id="edge14" class="edge">
<title>expressao&#45;&gt;atribuicao</title>
<path fill="none" stroke="#000000" d="M238.8604,-216.937C236.206,-208.598 235.4871,-198.3638 236.7036,-188.9982"/>
<polygon fill="#000000" stroke="#000000" points="240.1859,-189.457 238.8996,-178.9405 233.347,-187.9638 240.1859,-189.457"/>
</g>
<!-- expressao&#45;&gt;atribuicao -->
<g id="edge19" class="edge">
<title>expressao&#45;&gt;atribuicao</title>
<path fill="none" stroke="#000000" d="M250.4278,-215.8314C249.6658,-208.0125 249.4498,-198.6923 249.7797,-190.0221"/>
<polygon fill="#000000" stroke="#000000" points="253.2806,-190.1239 250.4529,-179.9134 246.296,-189.6587 253.2806,-190.1239"/>
</g>
<!-- expressao&#45;&gt;atribuicao -->
<g id="edge54" class="edge">
<title>expressao&#45;&gt;atribuicao</title>
<path fill="none" stroke="#000000" d="M262.3325,-215.8314C263.0945,-208.0125 263.3105,-198.6923 262.9806,-190.0221"/>
<polygon fill="#000000" stroke="#000000" points="266.4643,-189.6587 262.3074,-179.9134 259.4797,-190.1239 266.4643,-189.6587"/>
</g>
<!-- expressao&#45;&gt;atribuicao -->
<g id="edge69" class="edge">
<title>expressao&#45;&gt;atribuicao</title>
<path fill="none" stroke="#000000" d="M273.8999,-216.937C276.5543,-208.598 277.2732,-198.3638 276.0566,-188.9982"/>
<polygon fill="#000000" stroke="#000000" points="279.4133,-187.9638 273.8607,-178.9405 272.5744,-189.457 279.4133,-187.9638"/>
</g>
<!-- expressao&#45;&gt;atribuicao -->
<g id="edge77" class="edge">
<title>expressao&#45;&gt;atribuicao</title>
<path fill="none" stroke="#000000" d="M284.3438,-219.0816C290.2537,-209.6207 291.6366,-197.1607 288.4922,-186.2964"/>
<polygon fill="#000000" stroke="#000000" points="291.5806,-184.6263 284.3318,-176.8993 285.1798,-187.4602 291.5806,-184.6263"/>
</g>
<!-- + -->
<g id="node17" class="node">
<title>+</title>
<ellipse fill="none" stroke="#000000" cx="351.3801" cy="-162" rx="27" ry="18"/>
<text text-anchor="middle" x="351.3801" y="-157.8" font-family="Times,serif" font-size="14.00" fill="#000000">+</text>
</g>
<!-- expressao&#45;&gt;+ -->
<g id="edge25" class="edge">
<title>expressao&#45;&gt;+</title>
<path fill="none" stroke="#000000" d="M277.9371,-217.6621C291.9405,-207.049 310.2832,-193.1471 325.1341,-181.8917"/>
<polygon fill="#000000" stroke="#000000" points="327.5598,-184.445 333.4154,-175.6154 323.3316,-178.8662 327.5598,-184.445"/>
</g>
<!-- atribuicao&#45;&gt;z -->
<g id="edge15" class="edge">
<title>atribuicao&#45;&gt;z</title>
<path fill="none" stroke="#000000" d="M268.9062,-144.4266C279.5816,-134.0688 294.5816,-120.5688 307.3801,-108 330.7308,-85.0685 356.2006,-57.3698 374.8261,-38.8112"/>
<polygon fill="#000000" stroke="#000000" points="377.6497,-40.9462 382.3633,-31.4577 372.7614,-35.9358 377.6497,-40.9462"/>
</g>
<!-- atribuicao&#45;&gt;z -->
<g id="edge20" class="edge">
<title>atribuicao&#45;&gt;z</title>
<path fill="none" stroke="#000000" d="M281.962,-146.5634C295.4613,-135.9718 311.6817,-121.4525 325.3801,-108 346.9354,-86.8317 370.2965,-61.601 385.3825,-43.2478"/>
<polygon fill="#000000" stroke="#000000" points="388.1927,-45.3375 391.6954,-35.3384 382.7217,-40.9708 388.1927,-45.3375"/>
</g>
<!-- m -->
<g id="node12" class="node">
<title>m</title>
<ellipse fill="none" stroke="#000000" cx="328.3801" cy="-18" rx="27" ry="18"/>
<text text-anchor="middle" x="328.3801" y="-13.8" font-family="Times,serif" font-size="14.00" fill="#000000">m</text>
</g>
<!-- atribuicao&#45;&gt;m -->
<g id="edge10" class="edge">
<title>atribuicao&#45;&gt;m</title>
<path fill="none" stroke="#000000" d="M270.5941,-144.2413C278.3069,-134.0443 287.618,-120.7635 294.3801,-108 305.019,-87.9192 313.953,-63.762 319.9892,-45.5332"/>
<polygon fill="#000000" stroke="#000000" points="323.3831,-46.4124 323.1181,-35.8208 316.7203,-44.2659 323.3831,-46.4124"/>
</g>
<!-- fator -->
<g id="node13" class="node">
<title>fator</title>
<ellipse fill="none" stroke="#000000" cx="256.3801" cy="-90" rx="29.0318" ry="18"/>
<text text-anchor="middle" x="256.3801" y="-85.8" font-family="Times,serif" font-size="14.00" fill="#000000">fator</text>
</g>
<!-- atribuicao&#45;&gt;fator -->
<g id="edge11" class="edge">
<title>atribuicao&#45;&gt;fator</title>
<path fill="none" stroke="#000000" d="M206.8582,-160.2912C71.6149,-150.247 74.9686,-99.0567 216.9194,-91.0531"/>
<polygon fill="#000000" stroke="#000000" points="217.1039,-94.5484 226.9238,-90.5708 216.7668,-87.5565 217.1039,-94.5484"/>
</g>
<!-- atribuicao&#45;&gt;fator -->
<g id="edge16" class="edge">
<title>atribuicao&#45;&gt;fator</title>
<path fill="none" stroke="#000000" d="M206.6868,-159.8842C89.7171,-149.0513 93.0362,-99.9703 216.6441,-91.3081"/>
<polygon fill="#000000" stroke="#000000" points="217.1767,-94.7827 226.9511,-90.6949 216.7609,-87.7951 217.1767,-94.7827"/>
</g>
<!-- atribuicao&#45;&gt;fator -->
<g id="edge21" class="edge">
<title>atribuicao&#45;&gt;fator</title>
<path fill="none" stroke="#000000" d="M207.1955,-159.3949C107.7088,-147.7944 110.8725,-100.9969 216.6867,-91.6349"/>
<polygon fill="#000000" stroke="#000000" points="217.1865,-95.1073 226.8969,-90.8697 216.6633,-88.1269 217.1865,-95.1073"/>
</g>
<!-- atribuicao&#45;&gt;fator -->
<g id="edge23" class="edge">
<title>atribuicao&#45;&gt;fator</title>
<path fill="none" stroke="#000000" d="M207.5584,-158.6717C125.5857,-146.1567 128.7734,-102.1224 217.1215,-92.0589"/>
<polygon fill="#000000" stroke="#000000" points="217.4992,-95.5388 227.1181,-91.0973 216.8289,-88.5709 217.4992,-95.5388"/>
</g>
<!-- atribuicao&#45;&gt;fator -->
<g id="edge28" class="edge">
<title>atribuicao&#45;&gt;fator</title>
<path fill="none" stroke="#000000" d="M208.0818,-157.6045C143.7134,-144.1616 146.6038,-103.8453 216.7529,-92.8158"/>
<polygon fill="#000000" stroke="#000000" points="217.6374,-96.2299 227.0976,-91.4597 216.7275,-89.2893 217.6374,-96.2299"/>
</g>
<!-- atribuicao&#45;&gt;fator -->
<g id="edge39" class="edge">
<title>atribuicao&#45;&gt;fator</title>
<path fill="none" stroke="#000000" d="M209.4383,-156.1079C161.5804,-141.8506 164.1593,-105.7897 217.1751,-93.8822"/>
<polygon fill="#000000" stroke="#000000" points="218.0767,-97.2747 227.27,-92.0085 216.7992,-90.3923 218.0767,-97.2747"/>
</g>
<!-- atribuicao&#45;&gt;fator -->
<g id="edge40" class="edge">
<title>atribuicao&#45;&gt;fator</title>
<path fill="none" stroke="#000000" d="M211.7465,-153.8806C179.4419,-139.2003 181.3662,-108.5821 217.5194,-95.8005"/>
<polygon fill="#000000" stroke="#000000" points="218.7991,-99.0748 227.4484,-92.9558 216.8711,-92.3455 218.7991,-99.0748"/>
</g>
<!-- atribuicao&#45;&gt;fator -->
<g id="edge42" class="edge">
<title>atribuicao&#45;&gt;fator</title>
<path fill="none" stroke="#000000" d="M216.3053,-151.0647C196.9235,-136.9023 197.7742,-112.4654 218.8575,-99.2049"/>
<polygon fill="#000000" stroke="#000000" points="220.5192,-102.2877 227.9285,-94.7146 217.4137,-96.0142 220.5192,-102.2877"/>
</g>
<!-- atribuicao&#45;&gt;fator -->
<g id="edge56" class="edge">
<title>atribuicao&#45;&gt;fator</title>
<path fill="none" stroke="#000000" d="M223.6321,-148.1177C213.58,-135.7321 213.304,-117.6437 222.804,-104.9449"/>
<polygon fill="#000000" stroke="#000000" points="225.3413,-107.358 229.9824,-97.8337 220.4149,-102.385 225.3413,-107.358"/>
</g>
<!-- atribuicao&#45;&gt;fator -->
<g id="edge60" class="edge">
<title>atribuicao&#45;&gt;fator</title>
<path fill="none" stroke="#000000" d="M233.5,-146.0209C228.8797,-135.9976 228.1455,-122.9382 231.2976,-111.9501"/>
<polygon fill="#000000" stroke="#000000" points="234.5867,-113.1596 235.285,-102.5878 228.1464,-110.4167 234.5867,-113.1596"/>
</g>
<!-- atribuicao&#45;&gt;fator -->
<g id="edge61" class="edge">
<title>atribuicao&#45;&gt;fator</title>
<path fill="none" stroke="#000000" d="M244.5487,-144.2022C242.8738,-135.8515 242.4598,-125.7275 243.3069,-116.5003"/>
<polygon fill="#000000" stroke="#000000" points="246.7686,-117.016 244.799,-106.6058 239.8469,-115.9721 246.7686,-117.016"/>
</g>
<!-- atribuicao&#45;&gt;fator -->
<g id="edge62" class="edge">
<title>atribuicao&#45;&gt;fator</title>
<path fill="none" stroke="#000000" d="M256.3801,-143.8314C256.3801,-136.131 256.3801,-126.9743 256.3801,-118.4166"/>
<polygon fill="#000000" stroke="#000000" points="259.8802,-118.4132 256.3801,-108.4133 252.8802,-118.4133 259.8802,-118.4132"/>
</g>
<!-- atribuicao&#45;&gt;fator -->
<g id="edge64" class="edge">
<title>atribuicao&#45;&gt;fator</title>
<path fill="none" stroke="#000000" d="M268.2116,-144.2022C269.8865,-135.8515 270.3004,-125.7275 269.4534,-116.5003"/>
<polygon fill="#000000" stroke="#000000" points="272.9134,-115.9721 267.9613,-106.6058 265.9917,-117.016 272.9134,-115.9721"/>
</g>
<!-- atribuicao&#45;&gt;fator -->
<g id="edge66" class="edge">
<title>atribuicao&#45;&gt;fator</title>
<path fill="none" stroke="#000000" d="M279.2603,-146.0209C283.8806,-135.9976 284.6148,-122.9382 281.4626,-111.9501"/>
<polygon fill="#000000" stroke="#000000" points="284.6139,-110.4167 277.4753,-102.5878 278.1736,-113.1596 284.6139,-110.4167"/>
</g>
<!-- atribuicao&#45;&gt;fator -->
<g id="edge71" class="edge">
<title>atribuicao&#45;&gt;fator</title>
<path fill="none" stroke="#000000" d="M289.1282,-148.1177C299.1803,-135.7321 299.4563,-117.6437 289.9563,-104.9449"/>
<polygon fill="#000000" stroke="#000000" points="292.3454,-102.385 282.7779,-97.8337 287.419,-107.358 292.3454,-102.385"/>
</g>
<!-- atribuicao&#45;&gt;fator -->
<g id="edge72" class="edge">
<title>atribuicao&#45;&gt;fator</title>
<path fill="none" stroke="#000000" d="M296.455,-151.0647C315.8368,-136.9023 314.9861,-112.4654 293.9028,-99.2049"/>
<polygon fill="#000000" stroke="#000000" points="295.3466,-96.0142 284.8318,-94.7146 292.2411,-102.2877 295.3466,-96.0142"/>
</g>
<!-- atribuicao&#45;&gt;fator -->
<g id="edge74" class="edge">
<title>atribuicao&#45;&gt;fator</title>
<path fill="none" stroke="#000000" d="M301.0138,-153.8806C333.3184,-139.2003 331.3941,-108.5821 295.2409,-95.8005"/>
<polygon fill="#000000" stroke="#000000" points="295.8892,-92.3455 285.3119,-92.9558 293.9611,-99.0748 295.8892,-92.3455"/>
</g>
<!-- atribuicao&#45;&gt;fator -->
<g id="edge79" class="edge">
<title>atribuicao&#45;&gt;fator</title>
<path fill="none" stroke="#000000" d="M303.322,-156.1079C351.1799,-141.8506 348.601,-105.7897 295.5852,-93.8822"/>
<polygon fill="#000000" stroke="#000000" points="295.9611,-90.3923 285.4903,-92.0085 294.6836,-97.2747 295.9611,-90.3923"/>
</g>
<!-- atribuicao&#45;&gt;fator -->
<g id="edge80" class="edge">
<title>atribuicao&#45;&gt;fator</title>
<path fill="none" stroke="#000000" d="M304.6784,-157.6045C369.0469,-144.1616 366.1565,-103.8453 296.0074,-92.8158"/>
<polygon fill="#000000" stroke="#000000" points="296.0328,-89.2893 285.6627,-91.4597 295.1229,-96.2299 296.0328,-89.2893"/>
</g>
<!-- atribuicao&#45;&gt;fator -->
<g id="edge82" class="edge">
<title>atribuicao&#45;&gt;fator</title>
<path fill="none" stroke="#000000" d="M305.2019,-158.6717C387.1746,-146.1567 383.9869,-102.1224 295.6388,-92.0589"/>
<polygon fill="#000000" stroke="#000000" points="295.9314,-88.5709 285.6421,-91.0973 295.261,-95.5388 295.9314,-88.5709"/>
</g>
<!-- atribuicao&#45;&gt;fator -->
<g id="edge85" class="edge">
<title>atribuicao&#45;&gt;fator</title>
<path fill="none" stroke="#000000" d="M305.5648,-159.3949C405.0515,-147.7944 401.8878,-100.9969 296.0736,-91.6349"/>
<polygon fill="#000000" stroke="#000000" points="296.097,-88.1269 285.8634,-90.8697 295.5738,-95.1073 296.097,-88.1269"/>
</g>
<!-- atribuicao&#45;&gt;fator -->
<g id="edge86" class="edge">
<title>atribuicao&#45;&gt;fator</title>
<path fill="none" stroke="#000000" d="M306.0735,-159.8842C423.0432,-149.0513 419.7241,-99.9703 296.1162,-91.3081"/>
<polygon fill="#000000" stroke="#000000" points="295.9994,-87.7951 285.8092,-90.6949 295.5836,-94.7827 295.9994,-87.7951"/>
</g>
<!-- atribuicao&#45;&gt;fator -->
<g id="edge88" class="edge">
<title>atribuicao&#45;&gt;fator</title>
<path fill="none" stroke="#000000" d="M305.9021,-160.2912C441.1454,-150.247 437.7917,-99.0567 295.8409,-91.0531"/>
<polygon fill="#000000" stroke="#000000" points="295.9935,-87.5565 285.8365,-90.5708 295.6564,-94.5484 295.9935,-87.5565"/>
</g>
<!-- atribuicao&#45;&gt;a -->
<g id="edge55" class="edge">
<title>atribuicao&#45;&gt;a</title>
<path fill="none" stroke="#000000" d="M284.2255,-147.0962C308.2428,-136.3137 343.4791,-121.3521 374.3801,-108 379.3754,-105.8416 384.7044,-103.5177 389.9951,-101.2803"/>
<polygon fill="#000000" stroke="#000000" points="391.4879,-104.4506 399.3967,-97.4006 388.8177,-97.9799 391.4879,-104.4506"/>
</g>
<!-- atribuicao&#45;&gt;a -->
<g id="edge70" class="edge">
<title>atribuicao&#45;&gt;a</title>
<path fill="none" stroke="#000000" d="M292.7943,-149.6567C320.4456,-138.7737 358.9498,-122.445 392.3801,-108 393.3792,-107.5683 394.3916,-107.13 395.4114,-106.6871"/>
<polygon fill="#000000" stroke="#000000" points="396.8868,-109.8618 404.6307,-102.6311 394.0679,-103.4545 396.8868,-109.8618"/>
</g>
<!-- atribuicao&#45;&gt;b -->
<g id="edge78" class="edge">
<title>atribuicao&#45;&gt;b</title>
<path fill="none" stroke="#000000" d="M293.6591,-149.9372C300.8284,-147.8135 308.3068,-145.7318 315.3801,-144 405.5722,-121.9183 513.4787,-104.0276 568.7635,-95.4682"/>
<polygon fill="#000000" stroke="#000000" points="569.425,-98.9078 578.7782,-93.9309 568.3629,-91.9888 569.425,-98.9078"/>
</g>
<!-- fator&#45;&gt;z -->
<g id="edge22" class="edge">
<title>fator&#45;&gt;z</title>
<path fill="none" stroke="#000000" d="M279.1974,-78.5914C303.601,-66.3896 342.4441,-46.968 369.555,-33.4126"/>
<polygon fill="#000000" stroke="#000000" points="371.2333,-36.4866 378.6123,-28.8839 368.1027,-30.2256 371.2333,-36.4866"/>
</g>
<!-- fator&#45;&gt;m -->
<g id="edge29" class="edge">
<title>fator&#45;&gt;m</title>
<path fill="none" stroke="#000000" d="M272.0031,-74.3771C281.9499,-64.4302 294.9914,-51.3888 306.0255,-40.3547"/>
<polygon fill="#000000" stroke="#000000" points="308.6849,-42.645 313.2811,-33.099 303.7351,-37.6953 308.6849,-42.645"/>
</g>
<!-- 5 -->
<g id="node14" class="node">
<title>5</title>
<ellipse fill="none" stroke="#000000" cx="40.3801" cy="-18" rx="27" ry="18"/>
<text text-anchor="middle" x="40.3801" y="-13.8" font-family="Times,serif" font-size="14.00" fill="#000000">5</text>
</g>
<!-- fator&#45;&gt;5 -->
<g id="edge12" class="edge">
<title>fator&#45;&gt;5</title>
<path fill="none" stroke="#000000" d="M229.0501,-83.3697C193.342,-74.3535 129.151,-56.9277 76.3801,-36 74.5289,-35.2658 72.6437,-34.4721 70.755,-33.641"/>
<polygon fill="#000000" stroke="#000000" points="71.965,-30.3432 61.4237,-29.279 69.0006,-36.6845 71.965,-30.3432"/>
</g>
<!-- 1.9 -->
<g id="node15" class="node">
<title>1.9</title>
<ellipse fill="none" stroke="#000000" cx="112.3801" cy="-18" rx="27" ry="18"/>
<text text-anchor="middle" x="112.3801" y="-13.8" font-family="Times,serif" font-size="14.00" fill="#000000">1.9</text>
</g>
<!-- fator&#45;&gt;1.9 -->
<g id="edge17" class="edge">
<title>fator&#45;&gt;1.9</title>
<path fill="none" stroke="#000000" d="M233.5629,-78.5914C209.1593,-66.3896 170.3162,-46.968 143.2053,-33.4126"/>
<polygon fill="#000000" stroke="#000000" points="144.6576,-30.2256 134.148,-28.8839 141.527,-36.4866 144.6576,-30.2256"/>
</g>
<!-- 1 -->
<g id="node16" class="node">
<title>1</title>
<ellipse fill="none" stroke="#000000" cx="184.3801" cy="-18" rx="27" ry="18"/>
<text text-anchor="middle" x="184.3801" y="-13.8" font-family="Times,serif" font-size="14.00" fill="#000000">1</text>
</g>
<!-- fator&#45;&gt;1 -->
<g id="edge24" class="edge">
<title>fator&#45;&gt;1</title>
<path fill="none" stroke="#000000" d="M228.3281,-84.5883C202.5061,-75.306 178.0004,-55.852 168.9409,-40.3563"/>
<polygon fill="#000000" stroke="#000000" points="172.1721,-39.0057 165.3595,-30.8916 165.6252,-41.4831 172.1721,-39.0057"/>
</g>
<!-- fator&#45;&gt;1 -->
<g id="edge41" class="edge">
<title>fator&#45;&gt;1</title>
<path fill="none" stroke="#000000" d="M230.145,-81.7407C213.0482,-72.59 195.1315,-57.3717 184.4088,-44.1"/>
<polygon fill="#000000" stroke="#000000" points="187.1219,-41.8753 178.4822,-35.7429 181.412,-45.9246 187.1219,-41.8753"/>
</g>
<!-- fator&#45;&gt;1 -->
<g id="edge57" class="edge">
<title>fator&#45;&gt;1</title>
<path fill="none" stroke="#000000" d="M234.1582,-78.1107C221.8544,-68.7644 207.6091,-55.4054 197.0422,-43.6538"/>
<polygon fill="#000000" stroke="#000000" points="199.5349,-41.1828 190.3834,-35.844 194.2081,-45.7244 199.5349,-41.1828"/>
</g>
<!-- fator&#45;&gt;1 -->
<g id="edge63" class="edge">
<title>fator&#45;&gt;1</title>
<path fill="none" stroke="#000000" d="M240.7572,-74.3771C230.8104,-64.4302 217.7689,-51.3888 206.7348,-40.3547"/>
<polygon fill="#000000" stroke="#000000" points="209.0252,-37.6953 199.4792,-33.099 204.0754,-42.645 209.0252,-37.6953"/>
</g>
<!-- fator&#45;&gt;1 -->
<g id="edge73" class="edge">
<title>fator&#45;&gt;1</title>
<path fill="none" stroke="#000000" d="M250.4138,-72.2022C241.5367,-61.0979 227.2943,-46.8579 213.9647,-35.7606"/>
<polygon fill="#000000" stroke="#000000" points="215.8483,-32.7872 205.8392,-29.3131 211.4972,-38.2707 215.8483,-32.7872"/>
</g>
<!-- fator&#45;&gt;1 -->
<g id="edge81" class="edge">
<title>fator&#45;&gt;1</title>
<path fill="none" stroke="#000000" d="M262.2453,-72.2022C254.4949,-59.2604 236.4281,-42.0594 217.9837,-30.5381"/>
<polygon fill="#000000" stroke="#000000" points="219.6495,-27.4589 209.2315,-25.5311 216.1735,-33.5349 219.6495,-27.4589"/>
</g>
<!-- fator&#45;&gt;1 -->
<g id="edge87" class="edge">
<title>fator&#45;&gt;1</title>
<path fill="none" stroke="#000000" d="M275.2459,-76.1177C272.479,-61.4322 247.9513,-38.7295 220.1523,-26.4993"/>
<polygon fill="#000000" stroke="#000000" points="221.2142,-23.1567 210.6261,-22.7799 218.6682,-29.6773 221.2142,-23.1567"/>
</g>
<!-- 1.0 -->
<g id="node23" class="node">
<title>1.0</title>
<ellipse fill="none" stroke="#000000" cx="256.3801" cy="-18" rx="27" ry="18"/>
<text text-anchor="middle" x="256.3801" y="-13.8" font-family="Times,serif" font-size="14.00" fill="#000000">1.0</text>
</g>
<!-- fator&#45;&gt;1.0 -->
<g id="edge43" class="edge">
<title>fator&#45;&gt;1.0</title>
<path fill="none" stroke="#000000" d="M231.8772,-79.6842C221.5285,-68.2012 219.866,-49.4436 226.8896,-35.6233"/>
<polygon fill="#000000" stroke="#000000" points="229.809,-37.5573 232.7554,-27.3804 224.1057,-33.4987 229.809,-37.5573"/>
</g>
<!-- fator&#45;&gt;1.0 -->
<g id="edge65" class="edge">
<title>fator&#45;&gt;1.0</title>
<path fill="none" stroke="#000000" d="M239.602,-75.0816C236.0454,-65.5924 235.2214,-53.0861 237.1299,-42.1988"/>
<polygon fill="#000000" stroke="#000000" points="240.5456,-42.9764 239.7971,-32.408 233.7917,-41.1365 240.5456,-42.9764"/>
</g>
<!-- fator&#45;&gt;1.0 -->
<g id="edge67" class="edge">
<title>fator&#45;&gt;1.0</title>
<path fill="none" stroke="#000000" d="M250.4644,-72.2022C249.66,-64.1807 249.4373,-54.5231 249.7964,-45.5957"/>
<polygon fill="#000000" stroke="#000000" points="253.2898,-45.8099 250.4851,-35.593 246.3064,-45.3289 253.2898,-45.8099"/>
</g>
<!-- fator&#45;&gt;1.0 -->
<g id="edge75" class="edge">
<title>fator&#45;&gt;1.0</title>
<path fill="none" stroke="#000000" d="M262.2959,-72.2022C263.1003,-64.1807 263.323,-54.5231 262.9639,-45.5957"/>
<polygon fill="#000000" stroke="#000000" points="266.4539,-45.3289 262.2752,-35.593 259.4705,-45.8099 266.4539,-45.3289"/>
</g>
<!-- fator&#45;&gt;1.0 -->
<g id="edge83" class="edge">
<title>fator&#45;&gt;1.0</title>
<path fill="none" stroke="#000000" d="M273.1583,-75.0816C276.7149,-65.5924 277.5389,-53.0861 275.6304,-42.1988"/>
<polygon fill="#000000" stroke="#000000" points="278.9686,-41.1365 272.9632,-32.408 272.2147,-42.9764 278.9686,-41.1365"/>
</g>
<!-- fator&#45;&gt;1.0 -->
<g id="edge89" class="edge">
<title>fator&#45;&gt;1.0</title>
<path fill="none" stroke="#000000" d="M280.8831,-79.6842C291.2317,-68.2012 292.8943,-49.4436 285.8707,-35.6233"/>
<polygon fill="#000000" stroke="#000000" points="288.6546,-33.4987 280.0049,-27.3804 282.9513,-37.5573 288.6546,-33.4987"/>
</g>
<!-- retorna&#45;&gt;expressao -->
<g id="edge27" class="edge">
<title>retorna&#45;&gt;expressao</title>
<path fill="none" stroke="#000000" d="M67.8656,-294.3984C73.6498,-292.2102 79.6879,-289.9868 85.3801,-288 126.5794,-273.6201 173.9255,-258.7989 208.3369,-248.3303"/>
<polygon fill="#000000" stroke="#000000" points="209.576,-251.6121 218.131,-245.362 207.5457,-244.913 209.576,-251.6121"/>
</g>
<!-- fatorial -->
<g id="node20" class="node">
<title>fatorial</title>
<ellipse fill="none" stroke="#000000" cx="335.3801" cy="-450" rx="38.8382" ry="18"/>
<text text-anchor="middle" x="335.3801" y="-445.8" font-family="Times,serif" font-size="14.00" fill="#000000">fatorial</text>
</g>
<!-- declaracao_funcao&#45;&gt;fatorial -->
<g id="edge30" class="edge">
<title>declaracao_funcao&#45;&gt;fatorial</title>
<path fill="none" stroke="#000000" d="M412.9486,-504.7542C398.661,-494.6688 380.5136,-481.8589 365.3645,-471.1655"/>
<polygon fill="#000000" stroke="#000000" points="367.0314,-468.058 356.8433,-465.1505 362.9946,-473.7767 367.0314,-468.058"/>
</g>
<!-- principal -->
<g id="node24" class="node">
<title>principal</title>
<ellipse fill="none" stroke="#000000" cx="437.3801" cy="-450" rx="45.2227" ry="18"/>
<text text-anchor="middle" x="437.3801" y="-445.8" font-family="Times,serif" font-size="14.00" fill="#000000">principal</text>
</g>
<!-- declaracao_funcao&#45;&gt;principal -->
<g id="edge44" class="edge">
<title>declaracao_funcao&#45;&gt;principal</title>
<path fill="none" stroke="#000000" d="M437.3801,-503.8314C437.3801,-496.131 437.3801,-486.9743 437.3801,-478.4166"/>
<polygon fill="#000000" stroke="#000000" points="440.8802,-478.4132 437.3801,-468.4133 433.8802,-478.4133 440.8802,-478.4132"/>
</g>
<!-- fatorial2 -->
<g id="node27" class="node">
<title>fatorial2</title>
<ellipse fill="none" stroke="#000000" cx="234.3801" cy="-450" rx="43.9964" ry="18"/>
<text text-anchor="middle" x="234.3801" y="-445.8" font-family="Times,serif" font-size="14.00" fill="#000000">fatorial2</text>
</g>
<!-- declaracao_funcao&#45;&gt;fatorial2 -->
<g id="edge90" class="edge">
<title>declaracao_funcao&#45;&gt;fatorial2</title>
<path fill="none" stroke="#000000" d="M393.8316,-506.5542C359.4767,-494.3692 311.8013,-477.4597 277.546,-465.31"/>
<polygon fill="#000000" stroke="#000000" points="278.4145,-461.9045 267.8197,-461.8603 276.0745,-468.5018 278.4145,-461.9045"/>
</g>
<!-- fatorial&#45;&gt;tipo -->
<g id="edge32" class="edge">
<title>fatorial&#45;&gt;tipo</title>
<path fill="none" stroke="#000000" d="M357.3434,-435.0816C373.6615,-423.9976 396.0401,-408.797 413.6013,-396.8687"/>
<polygon fill="#000000" stroke="#000000" points="415.9823,-399.4825 422.2879,-390.9683 412.0491,-393.6919 415.9823,-399.4825"/>
</g>
<!-- fatorial&#45;&gt;acao -->
<g id="edge31" class="edge">
<title>fatorial&#45;&gt;acao</title>
<path fill="none" stroke="#000000" d="M317.4538,-433.6621C306.4747,-423.6558 292.2879,-410.726 280.3513,-399.8471"/>
<polygon fill="#000000" stroke="#000000" points="282.6371,-397.1948 272.8885,-393.0456 277.9219,-402.3685 282.6371,-397.1948"/>
</g>
<!-- leia&#45;&gt;n -->
<g id="edge36" class="edge">
<title>leia&#45;&gt;n</title>
<path fill="none" stroke="#000000" d="M380.6495,-290.7307C390.5771,-280.803 403.6955,-267.6847 414.8165,-256.5637"/>
<polygon fill="#000000" stroke="#000000" points="417.5366,-258.7933 422.1328,-249.2473 412.5868,-253.8436 417.5366,-258.7933"/>
</g>
<!-- escreva&#45;&gt;expressao -->
<g id="edge38" class="edge">
<title>escreva&#45;&gt;expressao</title>
<path fill="none" stroke="#000000" d="M155.1739,-290.3771C172.3217,-279.4968 196.9052,-264.9137 217.6099,-253.3053"/>
<polygon fill="#000000" stroke="#000000" points="219.4629,-256.28 226.5102,-248.3689 216.0676,-250.1585 219.4629,-256.28"/>
</g>
<!-- escreva&#45;&gt;expressao -->
<g id="edge59" class="edge">
<title>escreva&#45;&gt;expressao</title>
<path fill="none" stroke="#000000" d="M162.1209,-292.7941C181.1345,-282.4437 206.2062,-267.8228 225.7806,-255.751"/>
<polygon fill="#000000" stroke="#000000" points="227.7135,-258.6704 234.3459,-250.4083 224.0088,-252.7311 227.7135,-258.6704"/>
</g>
<!-- principal&#45;&gt;tipo -->
<g id="edge46" class="edge">
<title>principal&#45;&gt;tipo</title>
<path fill="none" stroke="#000000" d="M438.3895,-431.8314C438.8173,-424.131 439.326,-414.9743 439.8014,-406.4166"/>
<polygon fill="#000000" stroke="#000000" points="443.297,-406.592 440.3572,-396.4133 436.3078,-406.2037 443.297,-406.592"/>
</g>
<!-- principal&#45;&gt;acao -->
<g id="edge45" class="edge">
<title>principal&#45;&gt;acao</title>
<path fill="none" stroke="#000000" d="M405.021,-437.1278C372.676,-424.2614 323.1483,-404.5597 290.273,-391.4822"/>
<polygon fill="#000000" stroke="#000000" points="291.2279,-388.0954 280.6424,-387.6513 288.6405,-394.5997 291.2279,-388.0954"/>
</g>
<!-- fatorial2&#45;&gt;tipo -->
<g id="edge92" class="edge">
<title>fatorial2&#45;&gt;tipo</title>
<path fill="none" stroke="#000000" d="M268.099,-438.2717C306.5892,-424.8838 369.1801,-403.1131 407.6677,-389.7261"/>
<polygon fill="#000000" stroke="#000000" points="409.0787,-392.941 417.3738,-386.35 406.779,-386.3296 409.0787,-392.941"/>
</g>
<!-- fatorial2&#45;&gt;acao -->
<g id="edge91" class="edge">
<title>fatorial2&#45;&gt;acao</title>
<path fill="none" stroke="#000000" d="M239.9317,-431.8314C242.347,-423.9266 245.2313,-414.4872 247.9051,-405.7365"/>
<polygon fill="#000000" stroke="#000000" points="251.3316,-406.4997 250.9066,-395.9134 244.6371,-404.4541 251.3316,-406.4997"/>
</g>
</g>
</svg>
