<?xml version="1.0" encoding="UTF-8" standalone="no"?>
<!DOCTYPE svg PUBLIC "-//W3C//DTD SVG 1.1//EN"
 "http://www.w3.org/Graphics/SVG/1.1/DTD/svg11.dtd">
<!-- Generated by graphviz version 2.40.1 (20161225.0304)
 -->
<!-- Title: G Pages: 1 -->
<svg width="376pt" height="620pt"
 viewBox="0.00 0.00 376.38 620.00" xmlns="http://www.w3.org/2000/svg" xmlns:xlink="http://www.w3.org/1999/xlink">
<g id="graph0" class="graph" transform="scale(1 1) rotate(0) translate(4 616)">
<title>G</title>
<polygon fill="#ffffff" stroke="transparent" points="-4,4 -4,-616 372.3756,-616 372.3756,4 -4,4"/>
<!-- declaracao -->
<g id="node1" class="node">
<title>declaracao</title>
<ellipse fill="none" stroke="#000000" cx="134.9955" cy="-594" rx="52.1251" ry="18"/>
<text text-anchor="middle" x="134.9955" y="-589.8" font-family="Times,serif" font-size="14.00" fill="#000000">declaracao</text>
</g>
<!-- declaracao_variaveis -->
<g id="node2" class="node">
<title>declaracao_variaveis</title>
<ellipse fill="none" stroke="#000000" cx="91.9955" cy="-234" rx="91.991" ry="18"/>
<text text-anchor="middle" x="91.9955" y="-229.8" font-family="Times,serif" font-size="14.00" fill="#000000">declaracao_variaveis</text>
</g>
<!-- declaracao&#45;&gt;declaracao_variaveis -->
<g id="edge1" class="edge">
<title>declaracao&#45;&gt;declaracao_variaveis</title>
<path fill="none" stroke="#000000" d="M120.8307,-576.4916C113.3052,-566.3729 104.4982,-553.087 98.9955,-540 83.1497,-502.3142 79.9955,-490.8816 79.9955,-450 79.9955,-450 79.9955,-450 79.9955,-378 79.9955,-337.7369 84.7121,-291.3594 88.2313,-262.3596"/>
<polygon fill="#000000" stroke="#000000" points="91.7407,-262.5021 89.5091,-252.145 84.7948,-261.6332 91.7407,-262.5021"/>
</g>
<!-- declaracao_funcao -->
<g id="node14" class="node">
<title>declaracao_funcao</title>
<ellipse fill="none" stroke="#000000" cx="190.9955" cy="-522" rx="83.3288" ry="18"/>
<text text-anchor="middle" x="190.9955" y="-517.8" font-family="Times,serif" font-size="14.00" fill="#000000">declaracao_funcao</text>
</g>
<!-- declaracao&#45;&gt;declaracao_funcao -->
<g id="edge23" class="edge">
<title>declaracao&#45;&gt;declaracao_funcao</title>
<path fill="none" stroke="#000000" d="M148.5515,-576.5708C155.2612,-567.9441 163.4947,-557.3582 170.9184,-547.8134"/>
<polygon fill="#000000" stroke="#000000" points="173.7986,-549.8112 177.1753,-539.7689 168.2731,-545.5136 173.7986,-549.8112"/>
</g>
<!-- a -->
<g id="node3" class="node">
<title>a</title>
<ellipse fill="none" stroke="#000000" cx="182.9955" cy="-18" rx="27" ry="18"/>
<text text-anchor="middle" x="182.9955" y="-13.8" font-family="Times,serif" font-size="14.00" fill="#000000">a</text>
</g>
<!-- declaracao_variaveis&#45;&gt;a -->
<g id="edge2" class="edge">
<title>declaracao_variaveis&#45;&gt;a</title>
<path fill="none" stroke="#000000" d="M88.9972,-215.5209C84.8232,-183.8111 80.4869,-118.0112 106.9955,-72 116.9246,-54.7659 134.8328,-41.6348 150.7721,-32.6386"/>
<polygon fill="#000000" stroke="#000000" points="152.6611,-35.5985 159.8543,-27.8198 149.3802,-29.415 152.6611,-35.5985"/>
</g>
<!-- b -->
<g id="node7" class="node">
<title>b</title>
<ellipse fill="none" stroke="#000000" cx="142.9955" cy="-90" rx="27" ry="18"/>
<text text-anchor="middle" x="142.9955" y="-85.8" font-family="Times,serif" font-size="14.00" fill="#000000">b</text>
</g>
<!-- declaracao_variaveis&#45;&gt;b -->
<g id="edge5" class="edge">
<title>declaracao_variaveis&#45;&gt;b</title>
<path fill="none" stroke="#000000" d="M98.4547,-215.7623C107.2781,-190.8492 123.1677,-145.9843 133.3898,-117.1219"/>
<polygon fill="#000000" stroke="#000000" points="136.7089,-118.234 136.7483,-107.6392 130.1105,-115.897 136.7089,-118.234"/>
</g>
<!-- tipo -->
<g id="node4" class="node">
<title>tipo</title>
<ellipse fill="none" stroke="#000000" cx="161.9955" cy="-378" rx="27" ry="18"/>
<text text-anchor="middle" x="161.9955" y="-373.8" font-family="Times,serif" font-size="14.00" fill="#000000">tipo</text>
</g>
<!-- inteiro -->
<g id="node5" class="node">
<title>inteiro</title>
<ellipse fill="none" stroke="#000000" cx="143.9955" cy="-306" rx="36.4936" ry="18"/>
<text text-anchor="middle" x="143.9955" y="-301.8" font-family="Times,serif" font-size="14.00" fill="#000000">inteiro</text>
</g>
<!-- tipo&#45;&gt;inteiro -->
<g id="edge3" class="edge">
<title>tipo&#45;&gt;inteiro</title>
<path fill="none" stroke="#000000" d="M157.5461,-360.2022C155.5706,-352.3005 153.1982,-342.811 150.9945,-333.9959"/>
<polygon fill="#000000" stroke="#000000" points="154.3397,-332.9456 148.5188,-324.0931 147.5487,-334.6434 154.3397,-332.9456"/>
</g>
<!-- acao -->
<g id="node6" class="node">
<title>acao</title>
<ellipse fill="none" stroke="#000000" cx="254.9955" cy="-378" rx="28.952" ry="18"/>
<text text-anchor="middle" x="254.9955" y="-373.8" font-family="Times,serif" font-size="14.00" fill="#000000">acao</text>
</g>
<!-- acao&#45;&gt;declaracao_variaveis -->
<g id="edge4" class="edge">
<title>acao&#45;&gt;declaracao_variaveis</title>
<path fill="none" stroke="#000000" d="M245.4083,-360.693C233.9521,-341.1861 213.2582,-309.4096 188.9955,-288 174.3629,-275.0881 156.1316,-263.9427 139.4371,-255.1862"/>
<polygon fill="#000000" stroke="#000000" points="140.8538,-251.9802 130.3531,-250.5712 137.6832,-258.221 140.8538,-251.9802"/>
</g>
<!-- expressao -->
<g id="node8" class="node">
<title>expressao</title>
<ellipse fill="none" stroke="#000000" cx="254.9955" cy="-234" rx="49.2163" ry="18"/>
<text text-anchor="middle" x="254.9955" y="-229.8" font-family="Times,serif" font-size="14.00" fill="#000000">expressao</text>
</g>
<!-- acao&#45;&gt;expressao -->
<g id="edge6" class="edge">
<title>acao&#45;&gt;expressao</title>
<path fill="none" stroke="#000000" d="M250.3517,-360.0535C247.8683,-335.5852 247.581,-291.4896 249.4898,-262.4799"/>
<polygon fill="#000000" stroke="#000000" points="253.0058,-262.4238 250.3288,-252.1727 246.0289,-261.8557 253.0058,-262.4238"/>
</g>
<!-- acao&#45;&gt;expressao -->
<g id="edge11" class="edge">
<title>acao&#45;&gt;expressao</title>
<path fill="none" stroke="#000000" d="M259.6393,-360.0535C262.1227,-335.5852 262.41,-291.4896 260.5012,-262.4799"/>
<polygon fill="#000000" stroke="#000000" points="263.9621,-261.8557 259.6622,-252.1727 256.9852,-262.4238 263.9621,-261.8557"/>
</g>
<!-- retorna -->
<g id="node12" class="node">
<title>retorna</title>
<ellipse fill="none" stroke="#000000" cx="329.9955" cy="-306" rx="38.2607" ry="18"/>
<text text-anchor="middle" x="329.9955" y="-301.8" font-family="Times,serif" font-size="14.00" fill="#000000">retorna</text>
</g>
<!-- acao&#45;&gt;retorna -->
<g id="edge16" class="edge">
<title>acao&#45;&gt;retorna</title>
<path fill="none" stroke="#000000" d="M270.9011,-362.7307C280.9629,-353.0713 294.1711,-340.3915 305.548,-329.4696"/>
<polygon fill="#000000" stroke="#000000" points="308.2805,-331.6982 313.0705,-322.248 303.4328,-326.6485 308.2805,-331.6982"/>
</g>
<!-- atribuicao -->
<g id="node9" class="node">
<title>atribuicao</title>
<ellipse fill="none" stroke="#000000" cx="254.9955" cy="-162" rx="49.7962" ry="18"/>
<text text-anchor="middle" x="254.9955" y="-157.8" font-family="Times,serif" font-size="14.00" fill="#000000">atribuicao</text>
</g>
<!-- expressao&#45;&gt;atribuicao -->
<g id="edge7" class="edge">
<title>expressao&#45;&gt;atribuicao</title>
<path fill="none" stroke="#000000" d="M249.0431,-215.8314C248.2811,-208.0125 248.0651,-198.6923 248.395,-190.0221"/>
<polygon fill="#000000" stroke="#000000" points="251.8959,-190.1239 249.0682,-179.9134 244.9114,-189.6587 251.8959,-190.1239"/>
</g>
<!-- expressao&#45;&gt;atribuicao -->
<g id="edge12" class="edge">
<title>expressao&#45;&gt;atribuicao</title>
<path fill="none" stroke="#000000" d="M260.9479,-215.8314C261.7099,-208.0125 261.9259,-198.6923 261.596,-190.0221"/>
<polygon fill="#000000" stroke="#000000" points="265.0796,-189.6587 260.9228,-179.9134 258.0951,-190.1239 265.0796,-189.6587"/>
</g>
<!-- atribuicao&#45;&gt;a -->
<g id="edge8" class="edge">
<title>atribuicao&#45;&gt;a</title>
<path fill="none" stroke="#000000" d="M240.7816,-144.2413C233.0687,-134.0443 223.7576,-120.7635 216.9955,-108 206.3566,-87.9192 197.4227,-63.762 191.3864,-45.5332"/>
<polygon fill="#000000" stroke="#000000" points="194.6554,-44.2659 188.2575,-35.8208 187.9926,-46.4124 194.6554,-44.2659"/>
</g>
<!-- atribuicao&#45;&gt;b -->
<g id="edge13" class="edge">
<title>atribuicao&#45;&gt;b</title>
<path fill="none" stroke="#000000" d="M230.4166,-146.1993C212.93,-134.9579 189.3998,-119.8313 171.1563,-108.1033"/>
<polygon fill="#000000" stroke="#000000" points="172.9792,-105.1144 162.6747,-102.6509 169.1938,-111.0027 172.9792,-105.1144"/>
</g>
<!-- fator -->
<g id="node10" class="node">
<title>fator</title>
<ellipse fill="none" stroke="#000000" cx="254.9955" cy="-90" rx="29.0318" ry="18"/>
<text text-anchor="middle" x="254.9955" y="-85.8" font-family="Times,serif" font-size="14.00" fill="#000000">fator</text>
</g>
<!-- atribuicao&#45;&gt;fator -->
<g id="edge9" class="edge">
<title>atribuicao&#45;&gt;fator</title>
<path fill="none" stroke="#000000" d="M243.1641,-144.2022C241.4891,-135.8515 241.0752,-125.7275 241.9222,-116.5003"/>
<polygon fill="#000000" stroke="#000000" points="245.384,-117.016 243.4144,-106.6058 238.4622,-115.9721 245.384,-117.016"/>
</g>
<!-- atribuicao&#45;&gt;fator -->
<g id="edge14" class="edge">
<title>atribuicao&#45;&gt;fator</title>
<path fill="none" stroke="#000000" d="M254.9955,-143.8314C254.9955,-136.131 254.9955,-126.9743 254.9955,-118.4166"/>
<polygon fill="#000000" stroke="#000000" points="258.4956,-118.4132 254.9955,-108.4133 251.4956,-118.4133 258.4956,-118.4132"/>
</g>
<!-- atribuicao&#45;&gt;fator -->
<g id="edge18" class="edge">
<title>atribuicao&#45;&gt;fator</title>
<path fill="none" stroke="#000000" d="M266.827,-144.2022C268.5019,-135.8515 268.9158,-125.7275 268.0688,-116.5003"/>
<polygon fill="#000000" stroke="#000000" points="271.5288,-115.9721 266.5766,-106.6058 264.607,-117.016 271.5288,-115.9721"/>
</g>
<!-- fator&#45;&gt;a -->
<g id="edge15" class="edge">
<title>fator&#45;&gt;a</title>
<path fill="none" stroke="#000000" d="M239.3726,-74.3771C229.4257,-64.4302 216.3843,-51.3888 205.3502,-40.3547"/>
<polygon fill="#000000" stroke="#000000" points="207.6405,-37.6953 198.0945,-33.099 202.6908,-42.645 207.6405,-37.6953"/>
</g>
<!-- 10 -->
<g id="node11" class="node">
<title>10</title>
<ellipse fill="none" stroke="#000000" cx="254.9955" cy="-18" rx="27" ry="18"/>
<text text-anchor="middle" x="254.9955" y="-13.8" font-family="Times,serif" font-size="14.00" fill="#000000">10</text>
</g>
<!-- fator&#45;&gt;10 -->
<g id="edge10" class="edge">
<title>fator&#45;&gt;10</title>
<path fill="none" stroke="#000000" d="M254.9955,-71.8314C254.9955,-64.131 254.9955,-54.9743 254.9955,-46.4166"/>
<polygon fill="#000000" stroke="#000000" points="258.4956,-46.4132 254.9955,-36.4133 251.4956,-46.4133 258.4956,-46.4132"/>
</g>
<!-- 0 -->
<g id="node13" class="node">
<title>0</title>
<ellipse fill="none" stroke="#000000" cx="326.9955" cy="-18" rx="27" ry="18"/>
<text text-anchor="middle" x="326.9955" y="-13.8" font-family="Times,serif" font-size="14.00" fill="#000000">0</text>
</g>
<!-- fator&#45;&gt;0 -->
<g id="edge19" class="edge">
<title>fator&#45;&gt;0</title>
<path fill="none" stroke="#000000" d="M270.6184,-74.3771C280.5653,-64.4302 293.6067,-51.3888 304.6408,-40.3547"/>
<polygon fill="#000000" stroke="#000000" points="307.3002,-42.645 311.8965,-33.099 302.3505,-37.6953 307.3002,-42.645"/>
</g>
<!-- retorna&#45;&gt;expressao -->
<g id="edge17" class="edge">
<title>retorna&#45;&gt;expressao</title>
<path fill="none" stroke="#000000" d="M312.9768,-289.6621C303.3086,-280.3806 291.0203,-268.5838 280.247,-258.2415"/>
<polygon fill="#000000" stroke="#000000" points="282.3671,-255.425 272.7294,-251.0245 277.5194,-260.4747 282.3671,-255.425"/>
</g>
<!-- principal -->
<g id="node15" class="node">
<title>principal</title>
<ellipse fill="none" stroke="#000000" cx="190.9955" cy="-450" rx="45.2227" ry="18"/>
<text text-anchor="middle" x="190.9955" y="-445.8" font-family="Times,serif" font-size="14.00" fill="#000000">principal</text>
</g>
<!-- declaracao_funcao&#45;&gt;principal -->
<g id="edge20" class="edge">
<title>declaracao_funcao&#45;&gt;principal</title>
<path fill="none" stroke="#000000" d="M190.9955,-503.8314C190.9955,-496.131 190.9955,-486.9743 190.9955,-478.4166"/>
<polygon fill="#000000" stroke="#000000" points="194.4956,-478.4132 190.9955,-468.4133 187.4956,-478.4133 194.4956,-478.4132"/>
</g>
<!-- principal&#45;&gt;tipo -->
<g id="edge22" class="edge">
<title>principal&#45;&gt;tipo</title>
<path fill="none" stroke="#000000" d="M183.827,-432.2022C180.5258,-424.0064 176.5367,-414.1024 172.8764,-405.0145"/>
<polygon fill="#000000" stroke="#000000" points="176.0643,-403.5612 169.0816,-395.593 169.5712,-406.1766 176.0643,-403.5612"/>
</g>
<!-- principal&#45;&gt;acao -->
<g id="edge21" class="edge">
<title>principal&#45;&gt;acao</title>
<path fill="none" stroke="#000000" d="M206.1626,-432.937C214.5281,-423.5259 225.0391,-411.701 234.1645,-401.4349"/>
<polygon fill="#000000" stroke="#000000" points="236.7864,-403.7534 240.8142,-393.954 231.5546,-399.1028 236.7864,-403.7534"/>
</g>
</g>
</svg>
