<?xml version="1.0" encoding="UTF-8" standalone="no"?>
<!DOCTYPE svg PUBLIC "-//W3C//DTD SVG 1.1//EN"
 "http://www.w3.org/Graphics/SVG/1.1/DTD/svg11.dtd">
<!-- Generated by graphviz version 2.40.1 (20161225.0304)
 -->
<!-- Title: G Pages: 1 -->
<svg width="408pt" height="620pt"
 viewBox="0.00 0.00 408.24 620.00" xmlns="http://www.w3.org/2000/svg" xmlns:xlink="http://www.w3.org/1999/xlink">
<g id="graph0" class="graph" transform="scale(1 1) rotate(0) translate(4 616)">
<title>G</title>
<polygon fill="#ffffff" stroke="transparent" points="-4,4 -4,-616 404.2415,-616 404.2415,4 -4,4"/>
<!-- declaracao -->
<g id="node1" class="node">
<title>declaracao</title>
<ellipse fill="none" stroke="#000000" cx="146.9955" cy="-594" rx="52.1251" ry="18"/>
<text text-anchor="middle" x="146.9955" y="-589.8" font-family="Times,serif" font-size="14.00" fill="#000000">declaracao</text>
</g>
<!-- declaracao_variaveis -->
<g id="node2" class="node">
<title>declaracao_variaveis</title>
<ellipse fill="none" stroke="#000000" cx="91.9955" cy="-234" rx="91.991" ry="18"/>
<text text-anchor="middle" x="91.9955" y="-229.8" font-family="Times,serif" font-size="14.00" fill="#000000">declaracao_variaveis</text>
</g>
<!-- declaracao&#45;&gt;declaracao_variaveis -->
<g id="edge1" class="edge">
<title>declaracao&#45;&gt;declaracao_variaveis</title>
<path fill="none" stroke="#000000" d="M132.8307,-576.4916C125.3052,-566.3729 116.4982,-553.087 110.9955,-540 95.1497,-502.3142 91.9955,-490.8816 91.9955,-450 91.9955,-450 91.9955,-450 91.9955,-378 91.9955,-337.876 91.9955,-291.4631 91.9955,-262.4177"/>
<polygon fill="#000000" stroke="#000000" points="95.4956,-262.1853 91.9955,-252.1854 88.4956,-262.1854 95.4956,-262.1853"/>
</g>
<!-- declaracao_funcao -->
<g id="node14" class="node">
<title>declaracao_funcao</title>
<ellipse fill="none" stroke="#000000" cx="202.9955" cy="-522" rx="83.3288" ry="18"/>
<text text-anchor="middle" x="202.9955" y="-517.8" font-family="Times,serif" font-size="14.00" fill="#000000">declaracao_funcao</text>
</g>
<!-- declaracao&#45;&gt;declaracao_funcao -->
<g id="edge23" class="edge">
<title>declaracao&#45;&gt;declaracao_funcao</title>
<path fill="none" stroke="#000000" d="M160.5515,-576.5708C167.2612,-567.9441 175.4947,-557.3582 182.9184,-547.8134"/>
<polygon fill="#000000" stroke="#000000" points="185.7986,-549.8112 189.1753,-539.7689 180.2731,-545.5136 185.7986,-549.8112"/>
</g>
<!-- a -->
<g id="node3" class="node">
<title>a</title>
<ellipse fill="none" stroke="#000000" cx="138.9955" cy="-90" rx="27" ry="18"/>
<text text-anchor="middle" x="138.9955" y="-85.8" font-family="Times,serif" font-size="14.00" fill="#000000">a</text>
</g>
<!-- declaracao_variaveis&#45;&gt;a -->
<g id="edge2" class="edge">
<title>declaracao_variaveis&#45;&gt;a</title>
<path fill="none" stroke="#000000" d="M97.9481,-215.7623C106.0439,-190.958 120.5951,-146.3758 130.0195,-117.5009"/>
<polygon fill="#000000" stroke="#000000" points="133.4627,-118.2317 133.2383,-107.6392 126.8081,-116.0597 133.4627,-118.2317"/>
</g>
<!-- ret -->
<g id="node7" class="node">
<title>ret</title>
<ellipse fill="none" stroke="#000000" cx="178.9955" cy="-18" rx="27" ry="18"/>
<text text-anchor="middle" x="178.9955" y="-13.8" font-family="Times,serif" font-size="14.00" fill="#000000">ret</text>
</g>
<!-- declaracao_variaveis&#45;&gt;ret -->
<g id="edge5" class="edge">
<title>declaracao_variaveis&#45;&gt;ret</title>
<path fill="none" stroke="#000000" d="M88.4312,-215.5697C83.3084,-183.9336 77.1043,-118.2418 102.9955,-72 112.7786,-54.5274 130.8561,-41.3309 146.9261,-32.3584"/>
<polygon fill="#000000" stroke="#000000" points="148.8446,-35.3045 156.078,-27.5631 145.5958,-29.1041 148.8446,-35.3045"/>
</g>
<!-- tipo -->
<g id="node4" class="node">
<title>tipo</title>
<ellipse fill="none" stroke="#000000" cx="316.9955" cy="-378" rx="27" ry="18"/>
<text text-anchor="middle" x="316.9955" y="-373.8" font-family="Times,serif" font-size="14.00" fill="#000000">tipo</text>
</g>
<!-- inteiro -->
<g id="node5" class="node">
<title>inteiro</title>
<ellipse fill="none" stroke="#000000" cx="363.9955" cy="-306" rx="36.4936" ry="18"/>
<text text-anchor="middle" x="363.9955" y="-301.8" font-family="Times,serif" font-size="14.00" fill="#000000">inteiro</text>
</g>
<!-- tipo&#45;&gt;inteiro -->
<g id="edge3" class="edge">
<title>tipo&#45;&gt;inteiro</title>
<path fill="none" stroke="#000000" d="M327.8964,-361.3008C333.5436,-352.6496 340.5691,-341.8873 346.9173,-332.1623"/>
<polygon fill="#000000" stroke="#000000" points="349.9626,-333.9002 352.498,-323.6132 344.1009,-330.0738 349.9626,-333.9002"/>
</g>
<!-- acao -->
<g id="node6" class="node">
<title>acao</title>
<ellipse fill="none" stroke="#000000" cx="195.9955" cy="-378" rx="28.952" ry="18"/>
<text text-anchor="middle" x="195.9955" y="-373.8" font-family="Times,serif" font-size="14.00" fill="#000000">acao</text>
</g>
<!-- acao&#45;&gt;declaracao_variaveis -->
<g id="edge4" class="edge">
<title>acao&#45;&gt;declaracao_variaveis</title>
<path fill="none" stroke="#000000" d="M184.0654,-361.4814C166.195,-336.7378 132.3045,-289.8125 111.0014,-260.3158"/>
<polygon fill="#000000" stroke="#000000" points="113.7805,-258.1859 105.0882,-252.1283 108.1057,-262.2843 113.7805,-258.1859"/>
</g>
<!-- expressao -->
<g id="node8" class="node">
<title>expressao</title>
<ellipse fill="none" stroke="#000000" cx="250.9955" cy="-234" rx="49.2163" ry="18"/>
<text text-anchor="middle" x="250.9955" y="-229.8" font-family="Times,serif" font-size="14.00" fill="#000000">expressao</text>
</g>
<!-- acao&#45;&gt;expressao -->
<g id="edge6" class="edge">
<title>acao&#45;&gt;expressao</title>
<path fill="none" stroke="#000000" d="M193.9281,-359.7702C196.7264,-341.3727 205.2201,-312.2886 214.9955,-288 218.7714,-278.6183 223.5363,-268.6377 228.4903,-259.8425"/>
<polygon fill="#000000" stroke="#000000" points="231.5436,-261.5563 233.6878,-251.1807 225.5413,-257.9546 231.5436,-261.5563"/>
</g>
<!-- acao&#45;&gt;expressao -->
<g id="edge11" class="edge">
<title>acao&#45;&gt;expressao</title>
<path fill="none" stroke="#000000" d="M206.9966,-361.1297C214.3026,-342.8299 222.9757,-312.8958 232.9955,-288 236.5396,-279.1941 240.9551,-269.8606 244.7836,-261.4749"/>
<polygon fill="#000000" stroke="#000000" points="248.0626,-262.7146 248.9207,-252.1546 241.6645,-259.8746 248.0626,-262.7146"/>
</g>
<!-- retorna -->
<g id="node13" class="node">
<title>retorna</title>
<ellipse fill="none" stroke="#000000" cx="270.9955" cy="-306" rx="38.2607" ry="18"/>
<text text-anchor="middle" x="270.9955" y="-301.8" font-family="Times,serif" font-size="14.00" fill="#000000">retorna</text>
</g>
<!-- acao&#45;&gt;retorna -->
<g id="edge16" class="edge">
<title>acao&#45;&gt;retorna</title>
<path fill="none" stroke="#000000" d="M211.9011,-362.7307C221.9629,-353.0713 235.1711,-340.3915 246.548,-329.4696"/>
<polygon fill="#000000" stroke="#000000" points="249.2805,-331.6982 254.0705,-322.248 244.4328,-326.6485 249.2805,-331.6982"/>
</g>
<!-- atribuicao -->
<g id="node9" class="node">
<title>atribuicao</title>
<ellipse fill="none" stroke="#000000" cx="250.9955" cy="-162" rx="49.7962" ry="18"/>
<text text-anchor="middle" x="250.9955" y="-157.8" font-family="Times,serif" font-size="14.00" fill="#000000">atribuicao</text>
</g>
<!-- expressao&#45;&gt;atribuicao -->
<g id="edge7" class="edge">
<title>expressao&#45;&gt;atribuicao</title>
<path fill="none" stroke="#000000" d="M245.0431,-215.8314C244.2811,-208.0125 244.0651,-198.6923 244.395,-190.0221"/>
<polygon fill="#000000" stroke="#000000" points="247.8959,-190.1239 245.0682,-179.9134 240.9114,-189.6587 247.8959,-190.1239"/>
</g>
<!-- expressao&#45;&gt;atribuicao -->
<g id="edge12" class="edge">
<title>expressao&#45;&gt;atribuicao</title>
<path fill="none" stroke="#000000" d="M256.9479,-215.8314C257.7099,-208.0125 257.9259,-198.6923 257.596,-190.0221"/>
<polygon fill="#000000" stroke="#000000" points="261.0796,-189.6587 256.9228,-179.9134 254.0951,-190.1239 261.0796,-189.6587"/>
</g>
<!-- atribuicao&#45;&gt;a -->
<g id="edge8" class="edge">
<title>atribuicao&#45;&gt;a</title>
<path fill="none" stroke="#000000" d="M226.4166,-146.1993C208.93,-134.9579 185.3998,-119.8313 167.1563,-108.1033"/>
<polygon fill="#000000" stroke="#000000" points="168.9792,-105.1144 158.6747,-102.6509 165.1938,-111.0027 168.9792,-105.1144"/>
</g>
<!-- atribuicao&#45;&gt;ret -->
<g id="edge13" class="edge">
<title>atribuicao&#45;&gt;ret</title>
<path fill="none" stroke="#000000" d="M236.7816,-144.2413C229.0687,-134.0443 219.7576,-120.7635 212.9955,-108 202.3566,-87.9192 193.4227,-63.762 187.3864,-45.5332"/>
<polygon fill="#000000" stroke="#000000" points="190.6554,-44.2659 184.2575,-35.8208 183.9926,-46.4124 190.6554,-44.2659"/>
</g>
<!-- fator -->
<g id="node10" class="node">
<title>fator</title>
<ellipse fill="none" stroke="#000000" cx="250.9955" cy="-90" rx="29.0318" ry="18"/>
<text text-anchor="middle" x="250.9955" y="-85.8" font-family="Times,serif" font-size="14.00" fill="#000000">fator</text>
</g>
<!-- atribuicao&#45;&gt;fator -->
<g id="edge9" class="edge">
<title>atribuicao&#45;&gt;fator</title>
<path fill="none" stroke="#000000" d="M239.1641,-144.2022C237.4891,-135.8515 237.0752,-125.7275 237.9222,-116.5003"/>
<polygon fill="#000000" stroke="#000000" points="241.384,-117.016 239.4144,-106.6058 234.4622,-115.9721 241.384,-117.016"/>
</g>
<!-- atribuicao&#45;&gt;fator -->
<g id="edge14" class="edge">
<title>atribuicao&#45;&gt;fator</title>
<path fill="none" stroke="#000000" d="M250.9955,-143.8314C250.9955,-136.131 250.9955,-126.9743 250.9955,-118.4166"/>
<polygon fill="#000000" stroke="#000000" points="254.4956,-118.4132 250.9955,-108.4133 247.4956,-118.4133 254.4956,-118.4132"/>
</g>
<!-- atribuicao&#45;&gt;fator -->
<g id="edge18" class="edge">
<title>atribuicao&#45;&gt;fator</title>
<path fill="none" stroke="#000000" d="M262.827,-144.2022C264.5019,-135.8515 264.9158,-125.7275 264.0688,-116.5003"/>
<polygon fill="#000000" stroke="#000000" points="267.5288,-115.9721 262.5766,-106.6058 260.607,-117.016 267.5288,-115.9721"/>
</g>
<!-- fator&#45;&gt;ret -->
<g id="edge19" class="edge">
<title>fator&#45;&gt;ret</title>
<path fill="none" stroke="#000000" d="M235.3726,-74.3771C225.4257,-64.4302 212.3843,-51.3888 201.3502,-40.3547"/>
<polygon fill="#000000" stroke="#000000" points="203.6405,-37.6953 194.0945,-33.099 198.6908,-42.645 203.6405,-37.6953"/>
</g>
<!-- 10 -->
<g id="node11" class="node">
<title>10</title>
<ellipse fill="none" stroke="#000000" cx="322.9955" cy="-18" rx="27" ry="18"/>
<text text-anchor="middle" x="322.9955" y="-13.8" font-family="Times,serif" font-size="14.00" fill="#000000">10</text>
</g>
<!-- fator&#45;&gt;10 -->
<g id="edge10" class="edge">
<title>fator&#45;&gt;10</title>
<path fill="none" stroke="#000000" d="M266.6184,-74.3771C276.5653,-64.4302 289.6067,-51.3888 300.6408,-40.3547"/>
<polygon fill="#000000" stroke="#000000" points="303.3002,-42.645 307.8965,-33.099 298.3505,-37.6953 303.3002,-42.645"/>
</g>
<!-- 1 -->
<g id="node12" class="node">
<title>1</title>
<ellipse fill="none" stroke="#000000" cx="250.9955" cy="-18" rx="27" ry="18"/>
<text text-anchor="middle" x="250.9955" y="-13.8" font-family="Times,serif" font-size="14.00" fill="#000000">1</text>
</g>
<!-- fator&#45;&gt;1 -->
<g id="edge15" class="edge">
<title>fator&#45;&gt;1</title>
<path fill="none" stroke="#000000" d="M250.9955,-71.8314C250.9955,-64.131 250.9955,-54.9743 250.9955,-46.4166"/>
<polygon fill="#000000" stroke="#000000" points="254.4956,-46.4132 250.9955,-36.4133 247.4956,-46.4133 254.4956,-46.4132"/>
</g>
<!-- retorna&#45;&gt;expressao -->
<g id="edge17" class="edge">
<title>retorna&#45;&gt;expressao</title>
<path fill="none" stroke="#000000" d="M265.9487,-287.8314C263.7529,-279.9266 261.1308,-270.4872 258.7001,-261.7365"/>
<polygon fill="#000000" stroke="#000000" points="262.0203,-260.6118 255.9715,-251.9134 255.2756,-262.4854 262.0203,-260.6118"/>
</g>
<!-- principal -->
<g id="node15" class="node">
<title>principal</title>
<ellipse fill="none" stroke="#000000" cx="202.9955" cy="-450" rx="45.2227" ry="18"/>
<text text-anchor="middle" x="202.9955" y="-445.8" font-family="Times,serif" font-size="14.00" fill="#000000">principal</text>
</g>
<!-- declaracao_funcao&#45;&gt;principal -->
<g id="edge20" class="edge">
<title>declaracao_funcao&#45;&gt;principal</title>
<path fill="none" stroke="#000000" d="M202.9955,-503.8314C202.9955,-496.131 202.9955,-486.9743 202.9955,-478.4166"/>
<polygon fill="#000000" stroke="#000000" points="206.4956,-478.4132 202.9955,-468.4133 199.4956,-478.4133 206.4956,-478.4132"/>
</g>
<!-- principal&#45;&gt;tipo -->
<g id="edge22" class="edge">
<title>principal&#45;&gt;tipo</title>
<path fill="none" stroke="#000000" d="M227.172,-434.7307C245.1145,-423.3985 269.6393,-407.9092 288.5297,-395.9784"/>
<polygon fill="#000000" stroke="#000000" points="290.4463,-398.9076 297.0322,-390.6084 286.7084,-392.9891 290.4463,-398.9076"/>
</g>
<!-- principal&#45;&gt;acao -->
<g id="edge21" class="edge">
<title>principal&#45;&gt;acao</title>
<path fill="none" stroke="#000000" d="M201.2291,-431.8314C200.4805,-424.131 199.5902,-414.9743 198.7582,-406.4166"/>
<polygon fill="#000000" stroke="#000000" points="202.237,-406.0276 197.7857,-396.4133 195.2699,-406.7051 202.237,-406.0276"/>
</g>
</g>
</svg>
